<?xml version="1.0" encoding="UTF-8" standalone="no"?>
<!-- Created with Inkscape (http://www.inkscape.org/) -->

<svg
   xmlns:dc="http://purl.org/dc/elements/1.1/"
   xmlns:cc="http://creativecommons.org/ns#"
   xmlns:rdf="http://www.w3.org/1999/02/22-rdf-syntax-ns#"
   xmlns:svg="http://www.w3.org/2000/svg"
   xmlns="http://www.w3.org/2000/svg"
   version="1.1"
   width="1000"
   height="1000"
   id="svg4739">
  <defs
     id="defs5498" />
  <metadata
     id="metadata5594">
    <rdf:RDF>
      <cc:Work
         rdf:about="">
        <dc:format>image/svg+xml</dc:format>
        <dc:type
           rdf:resource="http://purl.org/dc/dcmitype/StillImage" />
        <dc:title></dc:title>
      </cc:Work>
    </rdf:RDF>
  </metadata>
  <g
     id="layer1">
    <path
       d="M 364.04534,771.51789 C 289.76726,729.55082 228.80841,695.04637 228.58122,694.84133 227.83488,694.16768 180.65394,267.12509 181.25901,266.52002 181.82559,265.95345 449.96872,169.7735 484.0109,157.92631 l 16.5222,-5.74997 153.00996,54.79665 c 84.15547,30.13818 155.75767,55.82663 159.11598,57.08545 3.73704,1.40078 6.09891,3.1885 6.08768,4.60783 -0.0344,4.35105 -47.10308,425.62 -47.60821,426.09816 -1.16322,1.10114 -270.39762,153.06108 -271.18205,153.05923 -0.47304,-8.2e-4 -61.63305,-34.33871 -135.91112,-76.30577 z m 27.87671,-162.34543 19.48639,-51.16215 15.82808,-0.91217 c 20.55053,-1.18433 124.66376,-1.18099 145.23797,0.004 l 15.90957,0.91684 19.46539,51.1575 19.46541,51.15747 37.53823,0.38303 c 25.49613,0.26051 37.53822,-0.10042 37.53822,-1.12476 0,-0.82947 -23.61353,-53.37003 -52.47452,-116.7568 -28.861,-63.38676 -74.2791,-163.19363 -100.92911,-221.79304 -26.65002,-58.59939 -48.90476,-106.11868 -49.45499,-105.59842 -0.55024,0.52028 -12.9208,27.13005 -27.49016,59.13284 -14.56935,32.00278 -59.62541,130.92049 -100.12456,219.81712 -40.49915,88.89664 -73.9482,162.77254 -74.33121,164.16868 -0.65484,2.38701 1.5569,2.51557 37.07624,2.15507 l 37.77263,-0.38337 19.48642,-51.16215 z m 47.79019,-113.27204 c 2.62412,-7.49168 59.58958,-139.42468 60.20129,-139.42724 0.62915,-0.003 55.20292,126.61035 59.60268,138.28022 0.89343,2.36977 -2.53524,2.51426 -59.66748,2.51426 -37.73448,0 -60.43462,-0.51611 -60.13649,-1.36724 z"
       id="path4757"
       style="fill:#000000" />
  </g>
</svg>
