<?xml version="1.0" encoding="UTF-8" standalone="no"?>
<!-- Created with Inkscape (http://www.inkscape.org/) -->

<svg
   xmlns:dc="http://purl.org/dc/elements/1.1/"
   xmlns:cc="http://creativecommons.org/ns#"
   xmlns:rdf="http://www.w3.org/1999/02/22-rdf-syntax-ns#"
   xmlns:svg="http://www.w3.org/2000/svg"
   xmlns="http://www.w3.org/2000/svg"
   xmlns:sodipodi="http://sodipodi.sourceforge.net/DTD/sodipodi-0.dtd"
   xmlns:inkscape="http://www.inkscape.org/namespaces/inkscape"
   width="1000"
   height="1000"
   id="svg2985"
   version="1.1"
   inkscape:version="0.48.4 r9939"
   sodipodi:docname="New document 2">
  <defs
     id="defs5498" />
  <sodipodi:namedview
     inkscape:window-height="889"
     inkscape:window-width="1171"
     inkscape:pageshadow="2"
     inkscape:pageopacity="0.0"
     borderopacity="1.0"
     bordercolor="#666666"
     pagecolor="#ffffff"
     id="base"
     showgrid="false"
     showguides="true"
     inkscape:guide-bbox="true"
     inkscape:zoom="0.454"
     inkscape:cx="422.32754"
     inkscape:cy="507.22692"
     inkscape:window-x="0"
     inkscape:window-y="25"
     inkscape:current-layer="layer1"
     inkscape:window-maximized="0">
    <sodipodi:guide
       orientation="horizontal"
       position="200"
       id="guide5596" />
  </sodipodi:namedview>
  <metadata
     id="metadata5594">
    <rdf:RDF>
      <cc:Work
         rdf:about="">
        <dc:format>image/svg+xml</dc:format>
        <dc:type
           rdf:resource="http://purl.org/dc/dcmitype/StillImage" />
        <dc:title></dc:title>
      </cc:Work>
    </rdf:RDF>
  </metadata>
  <g
     inkscape:label="Layer 1"
     inkscape:groupmode="layer"
     id="layer1">
    <path
       style="fill:#000000"
       d="m 833.34756,365.61174 c -0.50005,0.16872 -0.50551,1.46018 0.0398,3.90487 1.99454,8.94104 0.18101,30.66294 -2.35089,28.13104 -0.72171,-0.72167 -0.75105,-3.53877 -0.0797,-7.13237 1.34829,-7.21703 0.67071,-8.16473 -3.2275,-4.50256 l -2.98836,2.78919 -4.18379,-4.06426 c -2.30452,-2.23364 -4.57021,-4.06425 -5.02056,-4.06425 -0.45034,0 0.52029,3.82194 2.15167,8.48712 2.32767,6.65632 2.70319,9.33234 1.75321,12.43185 -1.45304,4.74083 -1.75308,29.40252 -0.47815,38.53076 l 0.8766,6.49484 -5.21978,2.11182 c -2.87177,1.14905 -5.48101,2.07197 -5.81747,2.07197 -0.33645,0 -0.59768,-7.41343 -0.59768,-16.45626 0,-19.78386 -2.75412,-30.74963 -9.56296,-38.17214 -4.18159,-4.55846 -4.51007,-4.65557 -13.62722,-4.66194 -5.1359,-0.004 -10.5813,-0.72114 -12.11308,-1.59383 -3.72969,-2.1249 -7.91082,-2.00049 -12.51154,0.39846 -3.01694,1.57312 -4.85779,1.71164 -8.96527,0.67737 -6.5648,-1.65304 -10.24125,-0.73818 -16.29688,3.98457 -4.32136,3.37019 -5.26906,3.62368 -8.80589,2.39074 -6.14404,-2.14182 -11.61509,-1.65113 -17.73132,1.59383 -3.08491,1.63669 -8.35982,3.36273 -11.75447,3.82518 -3.39464,0.46245 -8.55864,1.84536 -11.47555,3.10796 -4.25843,1.84332 -6.51622,2.08192 -11.39586,1.15553 -8.08327,-1.53462 -16.32583,-0.15424 -21.95496,3.6658 -3.24581,2.20265 -6.34475,3.10796 -10.51925,3.10796 -5.635,0 -16.89456,4.20358 -16.89456,6.29561 0,0.52502 -2.72545,1.04396 -6.05654,1.15553 -3.94434,0.13214 -9.16926,1.69528 -14.98197,4.50256 -5.44659,2.63044 -11.72295,4.56294 -16.09765,4.9807 -3.94289,0.37653 -9.39377,1.82 -12.11308,3.18766 -2.7193,1.36765 -7.23597,2.88601 -10.04111,3.38688 -2.80513,0.50088 -7.64887,2.03974 -10.71848,3.38688 -3.0696,1.34715 -8.10748,2.43059 -11.19663,2.43059 -3.08916,0 -7.71273,0.91833 -10.32003,2.03212 -2.60728,1.11378 -7.88492,2.84534 -11.71463,3.86503 -3.82972,1.0197 -8.81736,3.25713 -11.07709,4.98071 -2.7926,2.13002 -5.75225,3.14781 -9.24419,3.14781 -2.82562,0 -8.16597,1.09528 -11.87401,2.43058 -3.70804,1.33531 -10.17658,2.72055 -14.38429,3.06812 -4.2077,0.34757 -10.23236,1.60334 -13.38814,2.7892 -7.17881,2.69759 -16.50139,4.23121 -31.239,5.17993 -6.31155,0.4063 -14.91821,1.63248 -19.12592,2.70951 -9.75908,2.498 -27.82509,3.93971 -34.42665,2.74935 -6.77453,-1.22156 -13.74887,0.72315 -19.00638,5.33932 -3.37859,2.96643 -5.51217,3.78534 -9.96141,3.78534 -3.11124,0 -8.49532,0.8144 -11.9537,1.79305 -3.45838,0.97865 -9.96489,2.12483 -14.46398,2.55012 -5.31486,0.50243 -10.05606,1.87523 -13.58737,3.94472 -3.32405,1.94802 -7.42602,3.18766 -10.51925,3.18766 -2.78172,0 -8.69219,1.08414 -13.14907,2.43058 -16.89946,5.10537 -24.84652,6.85307 -30.20302,6.61438 -3.64584,-0.16245 -7.04782,0.67168 -9.96141,2.39074 -2.74798,1.62134 -6.681,2.58232 -10.39972,2.58997 -7.3088,0.0152 -17.19295,4.40039 -24.18632,10.71848 -2.79225,2.52263 -5.90307,4.58225 -6.93314,4.58225 -1.03007,0 -6.40657,1.19726 -11.9537,2.66966 -5.7682,1.53108 -14.99342,2.84134 -21.5565,3.02827 -6.6678,0.18992 -13.79163,1.1936 -16.97426,2.39074 -4.50175,1.69335 -6.56362,1.79894 -11.59508,0.63753 -8.34969,-1.92734 -16.87225,-0.45385 -21.31743,3.6658 -2.99767,2.77815 -4.8518,3.32562 -11.27633,3.42673 -5.3241,0.0838 -9.370153,1.00221 -13.149065,2.98843 -3.002055,1.57788 -6.034278,2.86888 -6.733917,2.86888 -2.770121,0 -21.185282,9.44919 -24.784002,12.71077 -2.103851,1.90677 -6.557882,4.43693 -9.881724,5.65808 -3.323843,1.22117 -6.418302,2.80233 -6.853454,3.50642 -0.435153,0.70409 -3.153354,2.34906 -6.056541,3.62596 -6.490967,2.85486 -13.532799,9.25296 -13.587371,12.35215 -0.02231,1.26678 -0.877931,3.38813 -1.872746,4.70179 -2.157748,2.84937 -1.246271,9.64259 1.593826,11.91386 1.062509,0.8497 2.567667,2.79164 3.347036,4.30333 0.779368,1.51168 3.729554,3.43194 6.534689,4.30333 15.94515,4.95316 19.089323,5.77762 22.472953,5.77762 2.047991,0 5.151872,0.93095 6.8933,2.07197 6.62861,4.34323 41.007626,9.33709 48.571866,7.05269 3.05902,-0.92382 4.45945,-0.76034 5.89715,0.67737 3.01378,3.01378 11.27884,3.47287 19.52438,1.07584 7.28858,-2.11886 23.24588,-3.20783 45.0256,-3.06812 9.13888,0.0587 11.42191,0.50182 15.42027,3.14781 7.54454,4.99274 17.40872,6.5385 26.29814,4.06425 5.28849,-1.47198 8.10842,-1.72463 9.84188,-0.79691 1.3317,0.71271 5.07137,0.99371 8.32774,0.59769 3.25637,-0.39603 6.51078,-0.77339 7.21206,-0.83676 6.4701,-0.58478 47.91608,1.48122 50.36492,2.51027 1.74752,0.73455 6.63032,1.04406 10.83802,0.71723 22.52331,-1.74949 32.04701,-2.75568 33.39067,-3.58611 0.82212,-0.5081 3.41645,0.21839 5.73777,1.63367 5.33555,3.25299 16.06939,3.48123 21.79558,0.4383 4.7177,-2.507 12.63947,-3.68855 36.61816,-5.41901 9.46733,-0.68323 22.09044,-1.88111 28.05135,-2.66966 5.96091,-0.78855 15.71513,-1.38822 21.67604,-1.31491 7.10491,0.0875 14.30726,-0.73905 20.91897,-2.43058 5.54713,-1.41917 12.48813,-2.58997 15.42028,-2.58997 2.93214,0 8.11178,-0.84841 11.51539,-1.87275 4.35583,-1.3109 7.71625,-1.52494 11.35602,-0.75706 2.84408,0.60003 11.2014,0.93198 18.56807,0.75706 10.75094,-0.25526 14.42324,-0.83242 18.72747,-3.02827 3.55067,-1.81142 7.72995,-2.74935 12.35215,-2.74935 3.83935,0 8.58492,-0.61711 10.5591,-1.39459 1.97419,-0.77747 6.8832,-1.33162 10.87787,-1.23522 4.20005,0.10137 10.38388,-0.85651 14.6632,-2.2712 4.0701,-1.34552 12.00152,-2.73051 17.61178,-3.06812 5.61027,-0.3376 11.92183,-1.30523 14.02568,-2.15167 2.10385,-0.84642 6.98096,-1.69937 10.83802,-1.87274 3.85706,-0.17338 8.85214,-1.28557 11.11694,-2.47043 2.90929,-1.52202 5.61345,-1.92897 9.20435,-1.35475 5.64354,0.90243 12.99096,-1.40149 20.48067,-6.49485 2.53929,-1.72684 7.92251,-3.61152 12.51153,-4.34318 4.43579,-0.70722 10.58597,-2.7008 13.66707,-4.42286 3.08109,-1.72206 7.78782,-3.82088 10.43956,-4.66195 2.65173,-0.84106 5.96888,-2.2051 7.37145,-3.06811 1.40257,-0.86301 5.26349,-1.9411 8.60666,-2.39074 6.90475,-0.92867 11.57285,-3.10151 17.4524,-8.04883 3.46071,-2.91199 5.35614,-3.44234 12.392,-3.54626 7.88383,-0.11654 8.46371,-0.35277 12.63108,-4.90102 2.84721,-3.10742 5.51703,-4.78148 7.61052,-4.78148 5.24461,0 13.08641,-4.76721 17.25317,-10.51925 2.13944,-2.9534 6.27101,-6.55856 9.1645,-7.96913 2.89349,-1.41057 6.96852,-4.71304 9.08481,-7.37145 3.46829,-4.35672 3.83827,-5.67726 3.70565,-13.38814 -0.163,-9.47826 -3.33847,-19.83651 -9.32388,-30.44209 -2.09606,-3.71402 -3.78534,-7.05204 -3.78534,-7.41129 0,-0.0372 0.0414,-0.10813 0.0797,-0.15939 C 706.76842,505.12031 573.5302,543.36722 458.00142,556.074 324.36324,571.2282 190.07109,579.5055 56.078222,590.73973 l -1.354753,-0.31877 3.107962,-0.83675 C 196.81305,568.78263 337.25865,558.82283 476.21089,538.14346 c 90.08719,-16.81531 180.02266,-36.10638 267.44409,-63.8726 21.73126,-8.00049 44.33556,-13.61906 65.42657,-23.38941 l 8.16837,19.48453 c 0.44216,-0.46752 2.08151,-1.35216 4.02441,-2.15166 4.13454,-1.70138 4.14937,-1.68558 8.12851,4.18379 7.04329,10.38909 15.60407,27.79129 18.36885,37.33539 1.47846,5.10366 3.13038,10.43159 3.70565,11.83416 1.91694,4.67372 4.21919,-4.09954 4.38302,-16.77502 0.0951,-7.3605 0.62996,-11.40675 1.43445,-10.95756 6.54032,3.65185 13.60389,10.32987 17.77116,16.77502 3.05467,4.72432 5.46511,7.32539 6.17608,6.61438 2.19667,-2.19657 2.57798,-12.44674 0.59768,-16.41641 l -1.87274,-3.78534 8.08867,0.63753 c 4.46042,0.35804 8.08867,0.14383 8.08867,-0.47815 -0.005,-0.62197 -2.32533,-2.43382 -5.17994,-4.06425 -2.85473,-1.63044 -8.74131,-5.2492 -13.06938,-8.04883 -7.27061,-4.70296 -7.51008,-5.03301 -3.38688,-4.22364 7.81549,1.53413 19.94904,7.753 26.01922,13.3483 3.23317,2.98025 6.21949,5.09669 6.61438,4.70179 1.51133,-1.51132 -4.59857,-12.40153 -9.76219,-17.41256 -2.97102,-2.88329 -8.694,-6.74465 -12.75061,-8.60666 l -7.41129,-3.38688 6.13623,-2.82904 c 9.33919,-4.32691 9.52745,-6.10613 0.51799,-4.82133 -9.27058,1.32193 -31.21547,1.27427 -38.0526,-0.0797 l -5.10025,-0.99614 13.38814,-5.41901 c 24.71617,-9.98824 46.44086,-20.64323 60.2068,-29.52564 7.51585,-4.84957 19.49868,-12.49562 26.65675,-17.0141 7.15806,-4.51847 16.38619,-10.89893 20.48067,-14.18505 7.29246,-5.85256 15.06166,-14.47159 15.06166,-16.69533 0,-0.61667 -3.02827,0.41363 -6.69407,2.2712 -25.57531,12.96 -137.00506,62.50219 -138.10507,61.40216 -1.09426,-1.09425 20.47344,-22.82909 26.45752,-26.65674 6.51401,-4.16662 6.6327,-4.30177 3.14781,-4.70179 -2.79389,-0.32069 -3.42674,-0.89123 -2.74935,-2.55012 5.42047,-13.2746 5.40798,-21.0191 -0.0398,-27.65289 -3.69787,-4.5029 -4.99047,-3.39042 -6.17608,5.25962 -0.75044,5.47503 -6.01658,17.44326 -8.2879,18.847 -0.66386,0.4103 -0.89403,-2.72654 -0.51799,-7.41129 0.79062,-9.84954 -1.26073,-19.21251 -5.77762,-26.1786 -2.28549,-3.52474 -3.77995,-5.1578 -4.42287,-4.94086 z m -8.08867,68.73376 c 0.40572,-0.1145 0.6799,1.16936 0.71723,3.90488 0.0557,4.08202 -0.50409,6.11974 -1.79306,6.61438 -1.49268,0.57278 -1.74395,-0.0834 -1.11568,-3.34704 0.88047,-4.57374 1.66989,-7.02506 2.19151,-7.17222 z m 9.60281,28.76857 c 0.90416,-0.0546 2.81694,0.91527 4.6221,2.39074 4.47462,3.65743 4.00499,3.82746 -1.83291,0.71722 -2.38129,-1.26867 -3.77687,-2.61487 -3.10796,-3.02827 0.0837,-0.0516 0.1896,-0.0719 0.31877,-0.0797 z m -5.4987,2.15167 c 0.1524,0.0256 0.34267,0.0909 0.51799,0.19923 0.70128,0.43342 1.27506,1.0455 1.27506,1.35475 0,0.30925 -0.57378,0.55784 -1.27506,0.55784 -0.70128,0 -1.27506,-0.61208 -1.27506,-1.35475 0,-0.55701 0.29984,-0.83395 0.75707,-0.75707 z M 50.021681,591.17803 c 3.090838,0.0144 -4.108553,2.12485 -1.992283,0.15938 0.919689,-0.10047 1.550729,-0.16144 1.992283,-0.15938 z"
       id="path3003"
       inkscape:connector-curvature="0" />
  </g>
</svg>
