<?xml version="1.0" encoding="UTF-8" standalone="no"?>
<!-- Created with Inkscape (http://www.inkscape.org/) -->

<svg
   xmlns:dc="http://purl.org/dc/elements/1.1/"
   xmlns:cc="http://creativecommons.org/ns#"
   xmlns:rdf="http://www.w3.org/1999/02/22-rdf-syntax-ns#"
   xmlns:svg="http://www.w3.org/2000/svg"
   xmlns="http://www.w3.org/2000/svg"
   xmlns:sodipodi="http://sodipodi.sourceforge.net/DTD/sodipodi-0.dtd"
   xmlns:inkscape="http://www.inkscape.org/namespaces/inkscape"
   width="1000"
   height="1000"
   id="svg4955"
   version="1.1"
   inkscape:version="0.48.4 r9939"
   sodipodi:docname="ghost.svg">
  <defs
     id="defs5498" />
  <sodipodi:namedview
     inkscape:window-height="1056"
     inkscape:window-width="1920"
     inkscape:pageshadow="2"
     inkscape:pageopacity="0.0"
     borderopacity="1.0"
     bordercolor="#666666"
     pagecolor="#ffffff"
     id="base"
     showgrid="false"
     showguides="false"
     inkscape:guide-bbox="true"
     inkscape:zoom="0.53319984"
     inkscape:cx="296.50932"
     inkscape:cy="646.64719"
     inkscape:window-x="0"
     inkscape:window-y="24"
     inkscape:current-layer="layer16"
     inkscape:window-maximized="1">
    <sodipodi:guide
       orientation="0,1"
       position="189.44385,479.26189"
       id="guide7179" />
    <sodipodi:guide
       orientation="1,0"
       position="429.5717,650.94149"
       id="guide7232" />
    <sodipodi:guide
       orientation="0,1"
       position="423.85732,718.7686"
       id="guide7234" />
    <sodipodi:guide
       orientation="0,1"
       position="407.21111,603.48736"
       id="guide7236" />
    <sodipodi:guide
       orientation="1,0"
       position="330.68822,603.48736"
       id="guide7238" />
    <sodipodi:guide
       orientation="1,0"
       position="526.71602,603.48736"
       id="guide7240" />
    <sodipodi:guide
       orientation="0,1"
       position="429.5717,709.07902"
       id="guide7242" />
    <sodipodi:guide
       orientation="0,1"
       position="429.5717,618.89132"
       id="guide7244" />
    <sodipodi:guide
       orientation="1,0"
       position="421.62126,644.23332"
       id="guide7246" />
    <sodipodi:guide
       orientation="1,0"
       position="370.68882,649.20234"
       id="guide7248" />
    <sodipodi:guide
       orientation="1,0"
       position="377.397,646.46938"
       id="guide7250" />
    <sodipodi:guide
       orientation="0,1"
       position="401.99364,699.63788"
       id="guide7252" />
    <sodipodi:guide
       orientation="0,1"
       position="402.73899,694.42041"
       id="guide7254" />
    <sodipodi:guide
       orientation="0,1"
       position="412.67703,632.80457"
       id="guide7258" />
    <sodipodi:guide
       orientation="0,1"
       position="421.62126,626.0964"
       id="guide7260" />
    <sodipodi:guide
       orientation="1,0"
       position="469.5723,641.50036"
       id="guide7262" />
    <sodipodi:guide
       orientation="1,0"
       position="390.5649,658.14657"
       id="guide7264" />
    <sodipodi:guide
       orientation="1,0"
       position="384.10517,643.23951"
       id="guide7266" />
    <sodipodi:guide
       orientation="1,0"
       position="407.45956,632.80457"
       id="guide7268" />
    <sodipodi:guide
       orientation="0,1"
       position="562.25,301.75"
       id="guide9656" />
    <sodipodi:guide
       orientation="0,1"
       position="304.625,414.0625"
       id="guide9658" />
    <sodipodi:guide
       orientation="0,1"
       position="574.5,288.25"
       id="guide9660" />
    <sodipodi:guide
       orientation="0,1"
       position="274,595.875"
       id="guide9707" />
    <sodipodi:guide
       orientation="0,1"
       position="278.41012,505.92896"
       id="guide9709" />
    <sodipodi:guide
       orientation="1,0"
       position="399.47499,579.75449"
       id="guide10200" />
    <sodipodi:guide
       orientation="1,0"
       position="438.12917,549.60926"
       id="guide10206" />
    <sodipodi:guide
       orientation="1,0"
       position="366.59957,560.79871"
       id="guide10208" />
    <sodipodi:guide
       orientation="1,0"
       position="396.27234,559.2239"
       id="guide10210" />
    <sodipodi:guide
       orientation="0,1"
       position="399.47499,581.27126"
       id="guide10212" />
    <sodipodi:guide
       orientation="0,1"
       position="403.89774,578.28741"
       id="guide10214" />
  </sodipodi:namedview>
  <metadata
     id="metadata5594">
    <rdf:RDF>
      <cc:Work
         rdf:about="">
        <dc:format>image/svg+xml</dc:format>
        <dc:type
           rdf:resource="http://purl.org/dc/dcmitype/StillImage" />
        <dc:title></dc:title>
      </cc:Work>
    </rdf:RDF>
  </metadata>
  <g
     inkscape:groupmode="layer"
     id="layer13"
     inkscape:label="Layer#1">
    <g
       inkscape:groupmode="layer"
       id="layer16"
       inkscape:label="Layer">
      <path
         style="fill:#008d00;stroke:none;stroke-width:1px;stroke-linecap:butt;stroke-linejoin:miter;stroke-opacity:1;fill-opacity:1"
         d="m 396.27234,421.71259 0,28.59527 -29.67277,-3.72982 0,-24.86545 29.67277,0 -29.67277,0 0,24.78257 29.67277,3.89558 z"
         id="path10220"
         inkscape:connector-curvature="0" />
      <path
         style="fill:#000000"
         d="M 462.5672,915.83061 C 347.20293,904.66954 243.86759,848.61989 172.50584,758.49976 132.00819,707.35675 103.40029,645.83989 90.843866,582.89827 84.54995,551.34874 83.388073,538.40305 83.388073,499.82526 c 0,-38.57781 1.161877,-51.5235 7.455793,-83.07303 C 113.46719,303.34828 184.91589,202.29579 285.22587,141.83069 324.2152,118.32863 372.70931,99.490246 416.92699,90.66912 c 31.54953,-6.293916 44.49521,-7.45579 83.07302,-7.45579 38.5778,0 51.52348,1.161874 83.07301,7.45579 113.40396,22.62331 214.45644,94.07202 274.92153,194.38199 23.50209,38.98933 42.34047,87.48344 51.16159,131.70112 6.29392,31.54953 7.45579,44.49522 7.45579,83.07303 0,38.57779 -1.16187,51.52348 -7.45579,83.07301 -22.62332,113.40395 -94.07201,214.45644 -194.382,274.92153 -46.86544,28.24966 -98.90257,46.71067 -156.01517,55.34888 -21.53887,3.25773 -74.79903,4.73162 -96.19177,2.66193 z m 67.02802,-142.16216 c 15.9059,-27.65894 29.09832,-50.51391 29.31647,-50.78881 0.21816,-0.27489 23.18412,12.64194 51.03549,28.70409 27.85135,16.06215 50.97807,29.2039 51.39268,29.2039 0.41461,0 0.75383,-26.44153 0.75383,-58.75896 l 0,-58.75895 58.75896,0 c 32.31743,0 58.75896,-0.33923 58.75896,-0.75384 0,-0.4146 -13.14176,-23.54132 -29.20391,-51.39267 -16.06214,-27.85138 -28.97899,-50.81881 -28.70408,-51.03875 0.2749,-0.21995 23.13355,-13.41237 50.79699,-29.31648 27.66345,-15.90411 50.2935,-29.22048 50.28899,-29.59195 -0.004,-0.37146 -22.63822,-13.68931 -50.29717,-29.59521 -27.65895,-15.90591 -50.51391,-29.09831 -50.78881,-29.31647 -0.27491,-0.21816 12.64194,-23.18412 28.70408,-51.03549 16.06215,-27.85136 29.20391,-50.97807 29.20391,-51.39268 0,-0.41462 -26.44153,-0.75383 -58.75896,-0.75383 l -58.75896,0 0,-58.75896 c 0,-32.31743 -0.33922,-58.75897 -0.75383,-58.75897 -0.41461,0 -23.54133,13.14176 -51.39268,29.20391 -27.85137,16.06214 -50.8188,28.97899 -51.03875,28.70409 -0.21995,-0.2749 -13.41236,-23.13355 -29.31648,-50.797 -15.9041,-27.66345 -29.22048,-50.29718 -29.59194,-50.29718 -0.37147,0 -13.68785,22.63373 -29.59195,50.29718 -15.90412,27.66345 -29.09653,50.5221 -29.31648,50.797 -0.21995,0.2749 -23.18738,-12.64195 -51.03875,-28.70409 -27.85135,-16.06215 -50.97807,-29.20391 -51.39268,-29.20391 -0.41461,0 -0.75383,26.44154 -0.75383,58.75897 l 0,58.75896 -58.75896,0 c -32.31743,0 -58.75896,0.33921 -58.75896,0.75383 0,0.41461 13.14176,23.54132 29.20391,51.39268 16.06214,27.85137 28.97899,50.81733 28.70408,51.03549 -0.2749,0.21816 -23.12986,13.41056 -50.78881,29.31647 -27.65895,15.9059 -50.29268,29.22375 -50.29718,29.59521 -0.005,0.37147 22.62555,13.68784 50.289,29.59195 27.66344,15.90411 50.52209,29.09653 50.79699,29.31648 0.27491,0.21994 -12.64194,23.18737 -28.70408,51.03875 -16.06215,27.85135 -29.20391,50.97807 -29.20391,51.39267 0,0.41461 26.44153,0.75384 58.75896,0.75384 l 58.75896,0 0,58.75895 c 0,32.31743 0.33922,58.75896 0.75383,58.75896 0.41461,0 23.54133,-13.14175 51.39268,-29.2039 27.85137,-16.06215 50.81733,-28.97898 51.03549,-28.70409 0.21815,0.2749 13.41057,23.12987 29.31647,50.78881 15.90591,27.65896 29.22375,50.28901 29.59522,50.28901 0.37146,0 13.6893,-22.63005 29.59521,-50.28901 z M 475.68596,721.8567 C 398.59152,712.11198 333.8646,667.09781 300.04754,599.70946 277.2636,554.30717 270.66802,502.3662 281.37638,452.67197 c 16.73241,-77.65009 75.59544,-142.10228 151.08459,-165.43036 26.10981,-8.0686 36.51336,-9.55535 66.86365,-9.55535 30.35028,0 40.75383,1.48675 66.86364,9.55535 66.305,20.48994 120.65392,73.16431 143.64664,139.22069 16.61627,47.73732 16.61627,98.98858 0,146.7259 -25.92381,74.47716 -89.34974,129.47636 -167.9607,145.64549 -12.5473,2.5808 -54.52035,4.49782 -66.18824,3.02301 z m 43.90037,-14.03923 c 62.88776,-7.01777 114.55125,-37.15343 151.00219,-88.08062 9.23513,-12.90279 22.3246,-38.91148 27.17978,-54.00601 7.87963,-24.49734 9.57654,-36.17555 9.57654,-65.90558 0,-29.73005 -1.69691,-41.40826 -9.57654,-65.9056 -10.98025,-34.13712 -35.11543,-69.82048 -63.12983,-93.33616 -63.91053,-53.6474 -150.94412,-64.88733 -225.81616,-29.16298 -41.90414,19.99409 -76.25255,54.05853 -96.67553,95.87626 -8.84556,18.11203 -13.14062,30.45218 -17.72888,50.93693 -2.69753,12.04332 -3.11351,17.60027 -3.11351,41.59155 0,23.99126 0.41598,29.54821 3.11351,41.59153 8.68714,38.78457 24.89025,70.78531 50.09561,98.93761 43.10764,48.14763 111.61096,74.5449 175.07282,67.46307 z M 436.51331,535.59006 c -9.31086,-2.56719 -17.21078,-8.02357 -20.45965,-14.13124 -2.18813,-4.11356 -2.50362,-7.98593 -2.50362,-30.73027 l 0,-26.02359 6.07851,0 6.07851,0 0.008,21.95018 c 0.01,26.39674 0.98542,30.80472 7.74911,34.98492 3.96392,2.44983 7.4569,3.18313 17.18258,3.60721 14.30201,0.62361 21.92272,-1.08166 26.47842,-5.92508 3.18421,-3.38531 3.3105,-4.30016 3.96437,-28.71927 l 0.67539,-25.22258 6.51854,-0.41589 6.51853,-0.41588 -0.44002,26.7561 c -0.53172,32.33149 -1.19416,34.09652 -15.42705,41.10333 -7.65748,3.76977 -10.37069,4.36127 -21.86703,4.76712 -8.87165,0.3132 -15.53235,-0.20046 -20.55413,-1.58506 z m -116.40875,-3.00838 c 0.66231,-1.30013 8.96349,-17.13135 18.44708,-35.1805 l 17.24288,-32.81663 8.04435,0.39789 8.04436,0.3979 17.59233,33.09413 c 9.67578,18.20177 17.90015,33.85394 18.27636,34.78261 0.49423,1.21994 -1.23429,1.68846 -6.22907,1.68846 l -6.9131,0 -3.65835,-7.45924 -3.65836,-7.45926 -23.68028,0.36766 -23.68027,0.36765 -3.80038,7.0916 -3.80038,7.09159 -6.71569,0 c -5.95414,0 -6.57914,-0.26805 -5.51148,-2.36386 z m 59.65453,-25.66483 c -0.0449,-2.11723 -14.38182,-27.87692 -15.77358,-28.34084 -1.1914,-0.39712 -16.62373,26.1822 -16.62373,28.63127 0,0.39745 7.29422,0.72266 16.20938,0.72266 8.91515,0 16.19971,-0.4559 16.18793,-1.01309 z m 128.3456,-7.15763 0,-35.18632 33.67384,0.40372 c 31.78521,0.38109 33.88755,0.56317 37.48417,3.24648 5.92188,4.41812 9.11774,10.98259 9.11116,18.71474 -0.008,8.86031 -3.5809,14.84232 -11.0162,18.44168 -3.51173,1.7 -5.4304,3.40895 -4.89656,4.36134 2.74351,4.89459 15.94844,23.84893 16.59634,23.82239 0.42321,-0.0173 8.88905,-15.54485 18.81297,-34.50558 l 18.04347,-34.47407 8.06274,0.39837 8.06275,0.39837 17.59234,33.09413 c 9.67577,18.20177 17.90015,33.85394 18.27636,34.78261 0.49422,1.21994 -1.2343,1.68846 -6.22908,1.68846 l -6.91309,0 -3.65836,-7.45924 -3.65836,-7.45926 -23.68028,0.36766 -23.68027,0.36765 -3.80038,7.0916 -3.80038,7.09159 -13.99671,0 -13.99672,0 -8.94683,-12.83241 -8.94685,-12.83242 -17.49412,0 -17.49414,0 0,12.83242 0,12.83241 -6.7539,0 -6.75391,0 0,-35.18632 z m 141.81054,7.15763 c -0.0448,-2.11723 -14.38182,-27.87692 -15.77358,-28.34084 -1.19139,-0.39712 -16.62372,26.1822 -16.62372,28.63127 0,0.39745 7.29422,0.72266 16.20937,0.72266 8.91514,0 16.19972,-0.4559 16.18793,-1.01309 z m -77.83062,-12.59276 c 4.39613,-3.458 4.81078,-10.20607 0.88602,-14.41882 -3.51051,-3.76808 -10.25747,-4.62648 -32.4472,-4.12818 l -18.23555,0.4095 -0.39451,10.46855 -0.39451,10.46855 23.51332,0 c 21.74243,0 23.78135,-0.21084 27.07243,-2.7996 z"
         id="path10548"
         inkscape:connector-curvature="0" />
    </g>
  </g>
</svg>
