<?xml version="1.0" encoding="UTF-8" standalone="no"?>
<!-- Created with Inkscape (http://www.inkscape.org/) -->

<svg
   xmlns:dc="http://purl.org/dc/elements/1.1/"
   xmlns:cc="http://creativecommons.org/ns#"
   xmlns:rdf="http://www.w3.org/1999/02/22-rdf-syntax-ns#"
   xmlns:svg="http://www.w3.org/2000/svg"
   xmlns="http://www.w3.org/2000/svg"
   xmlns:sodipodi="http://sodipodi.sourceforge.net/DTD/sodipodi-0.dtd"
   xmlns:inkscape="http://www.inkscape.org/namespaces/inkscape"
   width="1000"
   height="1000"
   id="svg4955"
   version="1.1"
   inkscape:version="0.48.4 r9939"
   sodipodi:docname="spark.svg">
  <defs
     id="defs5498" />
  <sodipodi:namedview
     inkscape:window-height="1056"
     inkscape:window-width="1920"
     inkscape:pageshadow="2"
     inkscape:pageopacity="0.0"
     borderopacity="1.0"
     bordercolor="#666666"
     pagecolor="#ffffff"
     id="base"
     showgrid="false"
     showguides="false"
     inkscape:guide-bbox="true"
     inkscape:zoom="0.53319984"
     inkscape:cx="151.79069"
     inkscape:cy="616.81789"
     inkscape:window-x="0"
     inkscape:window-y="24"
     inkscape:current-layer="g9397"
     inkscape:window-maximized="1">
    <sodipodi:guide
       orientation="0,1"
       position="189.44385,479.26189"
       id="guide7179" />
    <sodipodi:guide
       orientation="1,0"
       position="429.5717,650.94149"
       id="guide7232" />
    <sodipodi:guide
       orientation="0,1"
       position="423.85732,718.7686"
       id="guide7234" />
    <sodipodi:guide
       orientation="0,1"
       position="407.21111,603.48736"
       id="guide7236" />
    <sodipodi:guide
       orientation="1,0"
       position="330.68822,603.48736"
       id="guide7238" />
    <sodipodi:guide
       orientation="1,0"
       position="526.71602,603.48736"
       id="guide7240" />
    <sodipodi:guide
       orientation="0,1"
       position="429.5717,709.07902"
       id="guide7242" />
    <sodipodi:guide
       orientation="0,1"
       position="429.5717,618.89132"
       id="guide7244" />
    <sodipodi:guide
       orientation="1,0"
       position="421.62126,644.23332"
       id="guide7246" />
    <sodipodi:guide
       orientation="1,0"
       position="370.68882,649.20234"
       id="guide7248" />
    <sodipodi:guide
       orientation="1,0"
       position="377.397,646.46938"
       id="guide7250" />
    <sodipodi:guide
       orientation="0,1"
       position="401.99364,699.63788"
       id="guide7252" />
    <sodipodi:guide
       orientation="0,1"
       position="402.73899,694.42041"
       id="guide7254" />
    <sodipodi:guide
       orientation="0,1"
       position="412.67703,632.80457"
       id="guide7258" />
    <sodipodi:guide
       orientation="0,1"
       position="421.62126,626.0964"
       id="guide7260" />
    <sodipodi:guide
       orientation="1,0"
       position="469.5723,641.50036"
       id="guide7262" />
    <sodipodi:guide
       orientation="1,0"
       position="390.5649,658.14657"
       id="guide7264" />
    <sodipodi:guide
       orientation="1,0"
       position="384.10517,643.23951"
       id="guide7266" />
    <sodipodi:guide
       orientation="1,0"
       position="407.45956,632.80457"
       id="guide7268" />
    <sodipodi:guide
       orientation="0,1"
       position="562.25,301.75"
       id="guide9656" />
    <sodipodi:guide
       orientation="0,1"
       position="304.625,414.0625"
       id="guide9658" />
    <sodipodi:guide
       orientation="0,1"
       position="574.5,288.25"
       id="guide9660" />
    <sodipodi:guide
       orientation="0,1"
       position="274,595.875"
       id="guide9707" />
    <sodipodi:guide
       orientation="0,1"
       position="278.41012,505.92896"
       id="guide9709" />
  </sodipodi:namedview>
  <metadata
     id="metadata5594">
    <rdf:RDF>
      <cc:Work
         rdf:about="">
        <dc:format>image/svg+xml</dc:format>
        <dc:type
           rdf:resource="http://purl.org/dc/dcmitype/StillImage" />
        <dc:title></dc:title>
      </cc:Work>
    </rdf:RDF>
  </metadata>
  <g
     inkscape:groupmode="layer"
     id="layer13"
     inkscape:label="Layer#1">
    <g
       id="g9397"
       transform="translate(38.074989,310.11877)">
      <path
         style="fill:#000000"
         d="m 213.59943,509.15287 c -31.55491,-13.96231 -57.54994,-25.52533 -57.76675,-25.69563 -0.50467,-0.39642 2.07574,-154.7808 2.59674,-155.36168 0.21453,-0.23916 26.08954,9.80774 57.50005,22.32644 l 57.11,22.7613 0.26474,80.78911 c 0.21083,64.33861 3.4e-4,80.76644 -1.03374,80.67777 -0.71416,-0.0612 -27.11613,-11.53502 -58.67104,-25.49731 z m 79.84971,-64.94699 0.26513,-76.32792 52.20387,-19.90306 c 28.71212,-10.94668 52.78534,-19.91618 53.49604,-19.93221 1.02204,-0.0231 1.29217,15.52304 1.29217,74.36375 0,69.79708 -0.11175,74.45196 -1.80904,75.34877 -2.41661,1.27689 -101.57787,41.61975 -103.89756,42.26978 -1.72175,0.48246 -1.80202,-3.44261 -1.55061,-75.81911 z M 236.38109,335.96063 c -20.16211,-8.63508 -36.48691,-16.16533 -36.27733,-16.73388 0.20957,-0.56856 18.10481,-8.62415 39.76719,-17.90132 l 39.38614,-16.86757 39.7914,17.05089 c 21.88526,9.37799 39.66478,17.43357 39.51003,17.90131 -0.1979,0.59816 -85.51905,32.83014 -85.51905,32.30674 0,-0.0308 -16.49627,-7.12108 -36.65838,-15.75617 z M 81.797589,288.14134 C 50.526957,274.28222 24.561437,262.80374 24.09644,262.63361 c -0.465008,-0.17013 -0.259707,-35.33192 0.45622,-78.1373 1.300352,-77.74929 1.303825,-77.8274 3.429804,-77.27406 1.170473,0.30465 27.015418,10.52069 57.433215,22.7023 l 55.305091,22.14839 0.26473,80.73412 c 0.21082,64.28999 2.6e-4,80.71361 -1.03374,80.6334 -0.71416,-0.0554 -26.88354,-11.43999 -58.154171,-25.29912 z m 313.740061,18.76169 c -1.42139,-0.76268 -27.23904,-12.21167 -57.37256,-25.4422 -30.13352,-13.23053 -55.16639,-24.38632 -55.62861,-24.79064 -0.94999,-0.831 1.3017,-154.18761 2.27802,-155.14915 0.34642,-0.34119 26.33121,9.61917 57.74398,22.13412 l 57.11413,22.75444 0,80.98144 c 0,44.53979 -0.34888,80.96281 -0.7753,80.94005 -0.42642,-0.0227 -1.93826,-0.66539 -3.35966,-1.42806 z m -234.40722,-83.81642 0.26513,-76.22683 51.17013,-19.53005 c 28.14357,-10.74152 52.21679,-19.80693 53.49604,-20.14536 l 2.32592,-0.61531 0,74.82308 0,74.82307 -51.79955,21.03615 c -28.48976,11.56988 -52.68228,21.26698 -53.76118,21.54912 -1.915,0.50079 -1.95532,-1.29875 -1.69649,-75.71387 z m 258.18324,-5.46845 0,-76.28197 51.94543,-19.77875 c 28.56999,-10.87832 52.76255,-20.09698 53.76126,-20.48592 1.72325,-0.67112 1.8023,3.12535 1.55061,74.46633 l -0.26522,75.17351 -53.17292,21.59438 c -29.24511,11.8769 -53.31833,21.59438 -53.49604,21.59438 -0.17771,0 -0.32312,-34.32688 -0.32312,-76.28196 z m -314.7738,-102.651 C 84.640374,106.4204 67.981883,99.056366 67.52099,98.602637 67.060107,98.148918 84.751646,90.028223 106.83553,80.556654 l 40.1525,-17.221042 40.025,17.206466 c 22.01377,9.463548 40.01554,17.497067 40.00395,17.85226 -0.0153,0.469783 -77.40165,29.321382 -85.26247,31.788032 -0.56856,0.17841 -17.31515,-6.66843 -37.21464,-15.21521 z m 256.56798,-6.39121 c -19.78923,-8.53543 -35.60545,-15.888782 -35.14716,-16.340795 1.26592,-1.248562 77.70123,-34.027731 79.34675,-34.027731 1.19145,0 78.73877,32.702528 80.07944,33.77035 0.2369,0.188689 0.1887,0.585087 -0.1071,0.880891 -1.2053,1.2053 -84.51847,31.497805 -86.2826,31.372185 -1.0499,-0.0747 -18.10011,-7.11947 -37.88933,-15.6549 z M 713.41268,69.851874 C 681.57349,55.839405 655.3934,44.294743 655.23471,44.197065 c -0.63276,-0.389493 2.43046,-154.391405 3.08397,-155.044925 0.38576,-0.38575 26.19744,9.48689 57.35928,21.939208 l 56.65789,22.640579 0.26473,80.845068 c 0.14561,44.464792 -0.0869,80.824143 -0.51687,80.798569 -0.42988,-0.02553 -26.83184,-11.511232 -58.67103,-25.52369 z m -170.04316,-53.269207 0.007,-76.738463 46.79399,-19.899494 c 25.73653,-10.944721 47.13481,-19.899493 47.55156,-19.899493 0.41675,0 0.6384,33.807699 0.49254,75.128227 l -0.26519,75.128227 -43.93394,19.94811 c -24.16367,10.971454 -45.44579,20.650826 -47.2936,21.509729 l -3.35966,1.561619 0.007,-76.738462 z m 249.37603,-11.7810478 0.2651,-76.1480842 52.20386,-19.944626 c 28.71213,-10.969549 52.78535,-19.964929 53.49605,-19.989729 1.02223,-0.0357 1.29215,15.557496 1.29208,74.642607 l -1e-4,74.687709 -52.97907,21.463366 c -29.1385,11.804855 -53.33097,21.457401 -53.76105,21.450103 -0.43008,-0.0072 -0.66267,-34.279901 -0.51687,-76.1613458 z M 468.93319,62.857259 C 444.76952,55.819744 422.55703,49.312268 419.57211,48.396209 l -5.42714,-1.665572 0,-77.968955 0,-77.968952 2.32592,0.91544 c 1.27925,0.50348 24.64391,10.225545 51.92147,21.604572 l 49.59556,20.689146 -0.3604,19.977872 c -1.30613,72.401045 -2.80248,121.144146 -3.72665,121.393763 -0.56855,0.153573 -20.80401,-5.478749 -44.96768,-12.516264 z m 14.27694,-166.263209 c -20.29125,-8.64561 -37.16017,-15.98627 -37.48649,-16.31258 -0.32631,-0.32632 17.66435,-8.37296 39.97925,-17.88142 l 40.57254,-17.28814 39.39372,16.87082 c 21.66655,9.27895 39.58291,17.30197 39.81414,17.82894 0.23124,0.52696 -18.88466,8.08166 -42.47977,16.78823 -23.59511,8.706547 -42.90021,15.803843 -42.90021,15.771756 0,-0.03205 -16.60193,-7.13201 -36.89318,-15.777606 z m 253.46169,0.35346 c -19.61521,-8.43955 -36.31763,-15.75346 -37.11646,-16.25316 -1.91095,-1.19536 77.88939,-35.7597 80.58491,-34.90418 5.50691,1.74783 77.16914,33.21819 77.54756,34.0549 0.3332,0.73673 -73.96638,29.100741 -83.80137,31.991336 -0.85283,0.250651 -17.59942,-6.449348 -37.21464,-14.888896 z"
         id="path9973"
         inkscape:connector-curvature="0"
         sodipodi:nodetypes="sccscscsscssssssscscssssssssscscsssssscscsscsscccsssscssscsssssscscssssscscssscscscsccssscsscccscssscscssscccsscsssscscsssssssssss" />
    </g>
  </g>
</svg>
