<?xml version="1.0" encoding="UTF-8" standalone="no"?>
<!-- Created with Inkscape (http://www.inkscape.org/) -->

<svg
   xmlns:dc="http://purl.org/dc/elements/1.1/"
   xmlns:cc="http://creativecommons.org/ns#"
   xmlns:rdf="http://www.w3.org/1999/02/22-rdf-syntax-ns#"
   xmlns:svg="http://www.w3.org/2000/svg"
   xmlns="http://www.w3.org/2000/svg"
   xmlns:sodipodi="http://sodipodi.sourceforge.net/DTD/sodipodi-0.dtd"
   xmlns:inkscape="http://www.inkscape.org/namespaces/inkscape"
   width="1000"
   height="1000"
   id="svg4955"
   version="1.1"
   inkscape:version="0.48.4 r9939"
   sodipodi:docname="bitbucket.svg">
  <defs
     id="defs5498" />
  <sodipodi:namedview
     inkscape:window-height="1056"
     inkscape:window-width="1920"
     inkscape:pageshadow="2"
     inkscape:pageopacity="0.0"
     borderopacity="1.0"
     bordercolor="#666666"
     pagecolor="#ffffff"
     id="base"
     showgrid="false"
     showguides="false"
     inkscape:guide-bbox="true"
     inkscape:zoom="0.75405844"
     inkscape:cx="341.72089"
     inkscape:cy="486.38695"
     inkscape:window-x="0"
     inkscape:window-y="24"
     inkscape:current-layer="layer16"
     inkscape:window-maximized="1">
    <sodipodi:guide
       orientation="0,1"
       position="189.44385,479.26189"
       id="guide7179" />
    <sodipodi:guide
       orientation="1,0"
       position="429.5717,650.94149"
       id="guide7232" />
    <sodipodi:guide
       orientation="0,1"
       position="423.85732,718.7686"
       id="guide7234" />
    <sodipodi:guide
       orientation="0,1"
       position="407.21111,603.48736"
       id="guide7236" />
    <sodipodi:guide
       orientation="1,0"
       position="330.68822,603.48736"
       id="guide7238" />
    <sodipodi:guide
       orientation="1,0"
       position="526.71602,603.48736"
       id="guide7240" />
    <sodipodi:guide
       orientation="0,1"
       position="429.5717,709.07902"
       id="guide7242" />
    <sodipodi:guide
       orientation="0,1"
       position="429.5717,618.89132"
       id="guide7244" />
    <sodipodi:guide
       orientation="1,0"
       position="421.62126,644.23332"
       id="guide7246" />
    <sodipodi:guide
       orientation="1,0"
       position="370.68882,649.20234"
       id="guide7248" />
    <sodipodi:guide
       orientation="1,0"
       position="377.397,646.46938"
       id="guide7250" />
    <sodipodi:guide
       orientation="0,1"
       position="401.99364,699.63788"
       id="guide7252" />
    <sodipodi:guide
       orientation="0,1"
       position="402.73899,694.42041"
       id="guide7254" />
    <sodipodi:guide
       orientation="0,1"
       position="412.67703,632.80457"
       id="guide7258" />
    <sodipodi:guide
       orientation="0,1"
       position="421.62126,626.0964"
       id="guide7260" />
    <sodipodi:guide
       orientation="1,0"
       position="469.5723,641.50036"
       id="guide7262" />
    <sodipodi:guide
       orientation="1,0"
       position="390.5649,658.14657"
       id="guide7264" />
    <sodipodi:guide
       orientation="1,0"
       position="384.10517,643.23951"
       id="guide7266" />
    <sodipodi:guide
       orientation="1,0"
       position="407.45956,632.80457"
       id="guide7268" />
    <sodipodi:guide
       orientation="0,1"
       position="562.25,301.75"
       id="guide9656" />
    <sodipodi:guide
       orientation="0,1"
       position="304.625,414.0625"
       id="guide9658" />
    <sodipodi:guide
       orientation="0,1"
       position="574.5,288.25"
       id="guide9660" />
    <sodipodi:guide
       orientation="0,1"
       position="274,595.875"
       id="guide9707" />
    <sodipodi:guide
       orientation="0,1"
       position="278.41012,505.92896"
       id="guide9709" />
    <sodipodi:guide
       orientation="1,0"
       position="399.47499,579.75449"
       id="guide10200" />
    <sodipodi:guide
       orientation="1,0"
       position="438.12917,549.60926"
       id="guide10206" />
    <sodipodi:guide
       orientation="1,0"
       position="366.59957,560.79871"
       id="guide10208" />
    <sodipodi:guide
       orientation="1,0"
       position="396.27234,559.2239"
       id="guide10210" />
    <sodipodi:guide
       orientation="0,1"
       position="399.47499,581.27126"
       id="guide10212" />
    <sodipodi:guide
       orientation="0,1"
       position="403.89774,578.28741"
       id="guide10214" />
  </sodipodi:namedview>
  <metadata
     id="metadata5594">
    <rdf:RDF>
      <cc:Work
         rdf:about="">
        <dc:format>image/svg+xml</dc:format>
        <dc:type
           rdf:resource="http://purl.org/dc/dcmitype/StillImage" />
        <dc:title></dc:title>
      </cc:Work>
    </rdf:RDF>
  </metadata>
  <g
     inkscape:groupmode="layer"
     id="layer13"
     inkscape:label="Layer#1">
    <g
       inkscape:groupmode="layer"
       id="layer16"
       inkscape:label="Layer">
      <path
         style="fill:#008d00;stroke:none;stroke-width:1px;stroke-linecap:butt;stroke-linejoin:miter;stroke-opacity:1;fill-opacity:1"
         d="m 396.27234,421.71259 0,28.59527 -29.67277,-3.72982 0,-24.86545 29.67277,0 -29.67277,0 0,24.78257 29.67277,3.89558 z"
         id="path10220"
         inkscape:connector-curvature="0" />
      <path
         style="fill:#000000"
         d="m 479.77134,912.86984 c -19.03293,-0.6701 -40.02648,-2.49091 -57.63076,-4.99835 -87.48222,-12.46045 -150.50431,-44.22511 -164.61814,-82.97157 -0.52112,-1.43067 -1.38552,-4.55435 -1.92086,-6.94153 -0.91873,-4.09665 -6.43708,-32.33173 -10.06107,-51.47809 -0.9075,-4.79449 -1.99996,-10.53335 -2.42769,-12.75302 -0.42776,-2.21967 -1.44428,-7.59532 -2.25894,-11.94588 -0.81464,-4.35055 -1.83149,-9.7262 -2.2596,-11.94587 -1.13686,-5.8941 -3.82872,-20.19085 -5.16717,-27.44322 -0.63904,-3.46269 -1.66303,-8.894 -2.2755,-12.0696 -1.26207,-6.54359 -1.38104,-9.41864 -0.51858,-12.52896 1.39159,-5.01858 4.76117,-8.10818 9.79994,-8.98566 3.90043,-0.67922 7.66195,0.44983 11.8629,3.56069 20.90993,15.48405 52.78643,31.60839 84.83071,42.91064 42.04357,14.82906 84.41626,23.16857 133.12035,26.19992 9.08041,0.56516 40.82228,0.76359 51.4964,0.32195 56.42352,-2.33461 109.47315,-13.39255 157.95378,-32.9247 25.3228,-10.20217 50.84732,-23.82943 66.62446,-35.57006 1.88002,-1.39903 4.23191,-2.90353 5.22644,-3.34336 7.82026,-3.45849 15.7589,0.0988 17.86396,8.00474 0.73836,2.77305 0.55019,6.38496 -0.66041,12.67767 -0.61095,3.1756 -1.78287,9.40598 -2.6043,13.84533 -0.82143,4.43934 -1.91176,10.25085 -2.42291,12.91446 -0.51119,2.6636 -1.58613,8.32982 -2.38876,12.59159 -4.99472,26.52093 -8.12716,42.94771 -12.34409,64.73372 -4.39188,22.68986 -5.17982,26.2795 -6.6627,30.35339 -8.46381,23.25291 -35.202,44.61167 -75.78213,60.53565 -50.20568,19.7011 -118.43876,29.65618 -186.77533,27.25012 z m 5.16579,-234.26455 c -51.3144,-0.86849 -104.92374,-8.48221 -149.93889,-21.29464 -64.77242,-18.43588 -115.0199,-48.4044 -129.4683,-77.21729 -2.0767,-4.14132 -3.11364,-7.71197 -4.3789,-15.07858 -0.6405,-3.72904 -1.44355,-8.37824 -1.78455,-10.33155 -0.34101,-1.95332 -1.35815,-7.83747 -2.26033,-13.0759 -0.90216,-5.23842 -1.91918,-11.12258 -2.26002,-13.07589 -0.34085,-1.9533 -1.35693,-7.83746 -2.258,-13.07588 -0.90105,-5.23843 -1.99128,-11.55844 -2.42276,-14.04447 -0.43143,-2.48604 -1.21899,-7.06259 -1.7501,-10.17014 -1.51331,-8.85441 -4.47227,-26.08763 -5.51586,-32.12471 -0.9155,-5.29606 -1.55435,-9.02989 -4.03254,-23.56889 -0.63561,-3.72904 -1.58102,-9.24997 -2.10089,-12.26873 -0.51984,-3.01876 -1.81904,-10.64636 -2.88709,-16.95022 -1.06803,-6.30387 -2.89161,-17.05516 -4.05237,-23.89175 -13.08534,-77.06906 -24.03544,-145.09399 -26.99918,-167.72651 -1.58822,-12.12823 -0.69057,-18.87165 3.74861,-28.16095 17.31926,-36.24186 85.51111,-68.02312 183.71055,-85.61952 90.31654,-16.183879 198.71136,-18.617921 295.4182,-6.633708 81.10059,10.050228 150.01652,30.133958 190.58887,55.542068 23.41295,14.66218 37.24717,30.63562 40.76106,47.06414 1.59126,7.4394 1.25784,11.37215 -3.75419,44.2826 -5.29261,34.75287 -15.19529,94.61329 -30.36402,183.54672 -7.08736,41.55295 -9.96464,58.33493 -13.20203,77.00246 -0.43115,2.48603 -1.52191,8.80604 -2.42392,14.04447 -0.90204,5.23843 -2.07784,12.06695 -2.61295,15.17449 -0.53508,3.10754 -1.67811,9.71813 -2.54008,14.69019 -0.86194,4.97207 -2.24398,12.96289 -3.07119,17.75738 -0.82717,4.79449 -1.87211,9.80692 -2.32201,11.13872 -1.75754,5.20246 -4.89678,10.67774 -9.46741,16.51249 -2.56858,3.27898 -10.10636,10.90313 -14.04447,14.20536 -37.39446,31.35646 -103.5464,56.10826 -178.86522,66.92534 -35.1301,5.04529 -69.98686,7.09078 -109.45002,6.4229 z m 27.76608,-80.32909 c 22.72531,-2.69431 43.0715,-11.4166 60.33186,-25.86398 4.82833,-4.04145 12.02801,-11.38148 15.80652,-16.11469 21.85026,-27.37096 29.85726,-62.67412 22.00471,-97.01986 -5.84275,-25.55536 -21.10561,-48.95697 -42.36655,-64.95811 -17.41078,-13.10349 -37.20706,-20.65464 -59.16183,-22.56688 -5.47054,-0.47648 -18.7918,-0.19979 -23.8965,0.49637 -25.33865,3.45558 -47.75189,14.46972 -65.69629,32.28388 -19.17981,19.04063 -30.62961,43.46331 -33.1275,70.66174 -0.48893,5.32399 -0.198,20.05325 0.49233,24.92498 2.98228,21.04639 11.18706,40.15084 24.26534,56.50074 3.65292,4.56672 12.52357,13.4362 17.08108,17.07879 6.67106,5.33183 16.16428,11.28982 23.01508,14.44424 13.94029,6.41884 25.12795,9.25595 42.36435,10.74334 2.9551,0.25499 14.82239,-0.12862 18.8874,-0.61056 z m -18.16347,-56.34636 c -15.96821,-1.67862 -30.13776,-9.50978 -39.77928,-21.98503 -6.6397,-8.5912 -10.50122,-18.33181 -11.61677,-29.30309 -0.46005,-4.52435 -0.42821,-7.20636 0.14357,-12.09436 1.09722,-9.37967 4.19287,-17.66083 9.60703,-25.69973 3.29907,-4.89842 10.12265,-11.66098 15.10263,-14.96747 6.35972,-4.22264 12.98076,-7.00173 20.69199,-8.6852 2.9569,-0.64553 4.26283,-0.73228 11.09985,-0.73738 6.1393,-0.004 8.3323,0.11236 10.55866,0.5631 20.85579,4.22251 37.1897,18.60698 43.68412,38.47045 2.16969,6.63617 2.58205,9.48445 2.57353,17.77689 -0.008,7.71393 -0.31276,10.06255 -2.07862,16.01635 -6.15664,20.75785 -23.67038,36.37999 -44.79867,39.96004 -4.59567,0.77871 -11.3857,1.08513 -15.18804,0.68543 z m 42.86237,-300.27152 c 69.70314,-2.4873 128.39016,-11.17456 162.72216,-24.08731 5.9381,-2.2334 14.79534,-6.57894 18.58238,-9.11689 3.32886,-2.23088 6.63357,-5.2868 8.18941,-7.57281 1.74006,-2.55675 2.37633,-4.80028 2.21286,-7.80289 -0.19755,-3.62897 -1.40312,-5.91068 -5.05439,-9.56616 -14.34303,-14.35955 -57.62967,-26.44083 -119.49724,-33.35163 -33.14456,-3.70235 -67.00088,-5.43874 -106.05999,-5.43951 -39.41423,-6.5e-4 -72.42359,1.69128 -105.8678,5.42674 -53.01827,5.92173 -92.6983,15.94822 -111.09507,28.07186 -4.03839,2.66136 -8.13307,6.81774 -9.54808,9.69205 -1.01263,2.05694 -1.10635,2.49462 -1.10635,5.16665 0,2.67204 0.0937,3.1097 1.10635,5.16665 1.44186,2.92885 5.55157,7.08804 9.70951,9.82642 6.04222,3.97937 16.62167,8.64942 27.43834,12.11205 19.09203,6.11173 46.9642,11.75445 74.90873,15.16535 13.61519,1.66187 21.79599,2.5078 35.99905,3.72253 15.79684,1.35108 44.52695,2.7316 63.44228,3.04856 10.0663,0.16866 44.52081,-0.12634 53.91785,-0.46166 z"
         id="path10680"
         inkscape:connector-curvature="0" />
    </g>
  </g>
</svg>
