<?xml version="1.0" encoding="UTF-8" standalone="no"?>
<!-- Created with Inkscape (http://www.inkscape.org/) -->

<svg
   xmlns:dc="http://purl.org/dc/elements/1.1/"
   xmlns:cc="http://creativecommons.org/ns#"
   xmlns:rdf="http://www.w3.org/1999/02/22-rdf-syntax-ns#"
   xmlns:svg="http://www.w3.org/2000/svg"
   xmlns="http://www.w3.org/2000/svg"
   xmlns:sodipodi="http://sodipodi.sourceforge.net/DTD/sodipodi-0.dtd"
   xmlns:inkscape="http://www.inkscape.org/namespaces/inkscape"
   width="1000"
   height="1000"
   id="svg2985"
   version="1.1"
   inkscape:version="0.48.4 r9939"
   sodipodi:docname="bower.svg">
  <defs
     id="defs5498" />
  <sodipodi:namedview
     inkscape:window-height="889"
     inkscape:window-width="1171"
     inkscape:pageshadow="2"
     inkscape:pageopacity="0.0"
     borderopacity="1.0"
     bordercolor="#666666"
     pagecolor="#ffffff"
     id="base"
     showgrid="false"
     showguides="true"
     inkscape:guide-bbox="true"
     inkscape:zoom="0.454"
     inkscape:cx="496.26292"
     inkscape:cy="306.48672"
     inkscape:window-x="0"
     inkscape:window-y="25"
     inkscape:current-layer="layer1"
     inkscape:window-maximized="0">
    <sodipodi:guide
       orientation="horizontal"
       position="200"
       id="guide5596" />
  </sodipodi:namedview>
  <metadata
     id="metadata5594">
    <rdf:RDF>
      <cc:Work
         rdf:about="">
        <dc:format>image/svg+xml</dc:format>
        <dc:type
           rdf:resource="http://purl.org/dc/dcmitype/StillImage" />
        <dc:title></dc:title>
      </cc:Work>
    </rdf:RDF>
  </metadata>
  <g
     inkscape:label="Layer 1"
     inkscape:groupmode="layer"
     id="layer1">
    <path
       style="fill:#000000;fill-opacity:1;stroke:#000000;stroke-width:36.80815125;stroke-miterlimit:4;stroke-opacity:0;stroke-dasharray:none"
       d="m 441.19838,872.69603 c -16.65775,-4.69208 -18.99292,-4.75498 -29.4547,-0.79351 -9.76584,3.69793 -18.06662,2.57289 -30.65175,-4.15441 -12.68637,-6.7814 -16.30601,-11.92721 -25.24759,-35.89284 -11.68006,-31.30545 -18.89835,-48.08811 -20.68292,-48.08811 -0.87239,0 -4.63192,4.58863 -8.35452,10.19699 -13.04679,19.6558 -29.61988,29.12775 -53.04325,30.31559 -13.79101,0.69937 -17.45416,0.19058 -27.32063,-3.79466 C 198.14309,800.97586 138.21699,725.86905 105.90255,644.34234 82.630588,585.62908 72.819447,535.39392 72.863166,475.17356 72.93738,372.94941 107.91438,287.02087 176.55622,220.42924 c 22.77535,-22.09507 36.26986,-32.85588 58.64208,-46.76239 44.24169,-27.50051 99.42633,-45.43432 150.23302,-48.82246 91.05361,-6.07208 163.54923,40.85145 195.16102,126.31995 l 4.81304,13.01298 17.59315,4.98812 c 9.67621,2.74346 18.99568,5.04396 20.70993,5.11224 1.91722,0.0764 5.44972,-3.98992 9.17823,-10.56511 17.96601,-31.68287 44.97224,-58.42999 78.79585,-78.03983 30.16344,-17.4878 58.68462,-25.44194 91.48136,-25.51285 12.58746,-0.0272 23.50715,0.7707 24.51392,1.79125 1.18749,1.20375 -2.36127,7.26917 -10.25974,17.53555 -23.45917,30.49209 -28.61508,42.88936 -37.84286,90.99242 -6.52253,34.00099 -12.73093,54.49168 -20.76777,68.54339 -22.52862,39.3893 -56.89661,58.40238 -113.14371,62.59344 l -15.8259,1.17919 -5.39982,-12.60946 c -2.96992,-6.93522 -5.65768,-12.93799 -5.97278,-13.3395 -0.88912,-1.13287 -29.21402,9.34051 -31.56613,11.67186 -2.47936,2.45746 -10.34544,25.57673 -9.11936,26.80281 0.4668,0.46679 22.00212,3.59772 47.85628,6.95759 159.55029,20.73441 255.77842,44.25437 284.60245,69.56219 3.47088,3.04746 8.68249,10.79178 11.58141,17.2096 4.64316,10.27918 5.27623,13.8826 5.31641,30.25874 0.0523,21.49791 -3.03523,30.53993 -14.93733,43.73957 -8.22615,9.1229 -25.39711,17.98835 -38.10744,19.67504 l -8.61878,1.1437 -1.23964,9.5483 c -2.38425,18.36474 -15.18869,30.6832 -40.84664,39.29632 -14.50438,4.86894 -36.88254,6.46785 -51.67746,3.69231 -5.88318,-1.10368 -6.73174,-0.63471 -11.27577,6.23179 -15.0712,22.7741 -64.87821,27.79791 -96.50662,9.73417 l -9.65196,-5.51244 -6.95019,6.27908 c -8.58119,7.7526 -17.09893,10.22918 -35.09831,10.20508 -16.6559,-0.0223 -30.27807,-3.01676 -46.04882,-10.12256 -6.41154,-2.88882 -12.08077,-4.82901 -12.59829,-4.3115 -0.51751,0.51753 5.02473,11.30558 12.31612,23.97343 7.29138,12.66788 18.24708,32.96489 24.34604,45.10451 10.32421,20.54972 11.08627,22.94315 11.04908,34.70266 -0.0595,18.85079 -6.19675,31.30218 -17.87859,36.27292 -4.26333,1.8141 -6.37757,4.64571 -8.97574,12.02133 -7.5601,21.46143 -28.50213,33.94326 -57.39384,34.20779 -16.06555,0.14705 -16.22516,0.19536 -23.23747,7.02858 -13.61397,13.26625 -30.655,16.66014 -52.60627,10.47699 l 0,0 z m -0.9295,-97.42041 c 26.64853,-7.17113 50.01912,-22.11347 69.55019,-44.46799 18.23431,-20.8703 30.76546,-46.56775 32.95199,-67.57416 0.95431,-9.16806 0.22468,-12.77906 -5.65693,-27.99685 -3.71391,-9.60919 -6.39658,-17.82722 -5.96147,-18.26231 0.43509,-0.4351 3.52953,0.62501 6.87648,2.35579 9.34706,4.83356 35.56045,4.34491 47.37949,-0.88323 10.32971,-4.5693 17.17837,-10.30231 19.50716,-16.32936 1.5469,-4.0035 1.83215,-4.04196 10.49199,-1.41438 18.39167,5.58042 39.82264,2.44393 56.775,-8.30919 10.61601,-6.73387 16.24592,-15.30077 16.25534,-24.73526 l 0.007,-6.97124 14.50698,0 c 11.86444,0 16.25865,-0.87289 24.12333,-4.79202 15.25381,-7.60131 25.36086,-22.63846 18.55913,-27.61202 -1.56571,-1.14485 -24.90331,-6.24312 -51.86132,-11.32947 l -49.01457,-9.24791 24.16697,-1.37136 c 31.81758,-1.80547 114.54647,-8.41402 135.70683,-10.84052 28.45939,-3.2635 27.04804,-4.0722 -26.96443,-15.45027 -59.43779,-12.521 -146.95916,-26.09495 -199.29486,-30.9093 l -23.62878,-2.17359 -14.48068,14.78226 c -19.62151,20.03015 -40.35662,32.50369 -68.57078,41.24986 -14.83785,4.59963 -51.88072,11.26446 -61.81724,11.12233 -5.90858,-0.0846 -4.61882,-0.89498 9.96974,-6.26479 33.32707,-12.26713 62.98697,-29.39281 84.27141,-48.65846 12.11132,-10.9626 30.03166,-33.03151 30.03166,-36.98403 0,-1.21992 -3.2782,-10.08806 -7.28489,-19.707 -20.53787,-49.30573 -16.64156,-91.55277 11.9517,-129.59021 4.5904,-6.10658 8.34618,-12.97595 8.34618,-15.26527 0,-2.28932 -2.59515,-9.28518 -5.76696,-15.54635 -20.30774,-40.08728 -54.24734,-68.01828 -96.78171,-79.64763 -21.6692,-5.92459 -69.20834,-5.73761 -98.10884,0.3859 -54.63328,11.5758 -102.30922,36.66932 -142.96904,75.24957 -49.88731,47.33581 -81.82896,109.76919 -94.08456,183.89837 -4.05897,24.55103 -4.16321,81.72234 -0.19077,104.61792 8.40628,48.45029 25.81515,90.88002 52.8708,128.85919 19.00928,26.68411 55.78628,60.79116 85.95522,79.71497 35.11192,22.02437 85.36729,39.05676 128.97757,43.71269 14.31616,1.52843 52.12977,-0.6341 63.20592,-3.61468 z M 565.31744,377.79824 c 10.97429,-5.50134 26.43652,-12.3022 34.3605,-15.11304 13.34188,-4.73271 14.40722,-5.49706 14.40722,-10.33683 0,-2.87443 -0.8155,-5.73025 -1.81224,-6.34625 -0.99673,-0.61601 -9.00999,0.58944 -17.80725,2.67878 -10.28817,2.44343 -21.41463,3.69611 -31.18498,3.51098 l -15.18995,-0.28784 14.87198,-1.27132 c 8.1796,-0.69924 25.30241,-4.3342 38.05074,-8.07767 31.33161,-9.20037 46.51085,-8.90027 82.87786,1.63845 8.91045,2.58215 16.5848,4.3108 17.05417,3.84144 3.91695,-3.91695 -32.36489,-31.0693 -59.90486,-44.83117 -22.92175,-11.45412 -44.08345,-18.06223 -68.59991,-21.42155 -16.44976,-2.25397 -16.5684,-2.24122 -19.98536,2.14732 -4.34741,5.5835 -11.3901,20.25363 -15.50617,32.29971 -3.84775,11.26086 -4.48003,42.59405 -1.10191,54.60684 3.56143,12.66464 5.48292,16.96458 7.58093,16.96458 1.06478,0 10.91493,-4.5011 21.88923,-10.00243 l 0,0 z m 112.9541,-0.49224 c 12.97253,-3.19822 35.38711,-13.73425 35.01905,-16.4608 -0.36312,-2.69008 -29.63322,-12.27065 -41.10645,-13.45479 -7.54956,-0.77921 -9.79177,-0.42164 -9.88288,1.57598 -0.0649,1.42109 -0.82865,0.82527 -1.69742,-1.32409 -1.1719,-2.89931 -3.84735,-4.21876 -10.36612,-5.11224 -16.76896,-2.29844 -17.56544,-2.03656 -17.53859,5.76691 0.0215,6.29129 5.70943,27.80893 8.57738,32.44939 1.412,2.28462 21.26048,0.4388 36.99503,-3.44036 l 0,0 z m 60.41376,-41.00175 c 8.39375,-13.23555 12.20441,-25.10259 21.55489,-67.12552 11.20855,-50.3733 19.38141,-71.38022 32.32999,-83.09852 2.03321,-1.84005 3.69675,-4.05242 3.69675,-4.91641 0,-2.95789 -14.46383,-1.57116 -32.50557,3.11648 -37.5196,9.74841 -72.37378,32.39406 -95.97508,62.35743 -12.27988,15.59012 -22.01301,30.87466 -22.06646,34.65233 -0.0359,2.53143 23.83333,17.27975 27.96141,17.27684 1.4742,-8.3e-4 5.10325,-4.39291 8.06457,-9.75973 10.95095,-19.84653 22.81737,-36.18382 37.13084,-51.12054 8.08324,-8.4352 15.36892,-15.33674 16.19042,-15.33674 0.82151,0 -3.86065,7.09912 -10.40476,15.7758 -12.03354,15.95496 -28.49372,42.6832 -36.49785,59.26562 l -4.36687,9.04702 8.28811,6.75447 c 4.55847,3.71496 14.88295,12.40118 22.9433,19.3027 8.06034,6.90153 15.43338,12.54824 16.38454,12.54824 0.95115,0 4.22345,-3.93277 7.27177,-8.73947 l 0,0 z"
       id="path3864"
       inkscape:connector-curvature="0" />
    <path
       style="fill:#000000;fill-opacity:1;stroke:#000000;stroke-width:36.80815125;stroke-miterlimit:4;stroke-opacity:0;stroke-dasharray:none"
       d="m 385.89446,387.34494 c -21.81725,-5.87487 -39.64311,-20.5184 -49.68374,-40.81402 -4.99167,-10.08992 -5.52307,-12.93053 -5.57039,-29.77652 -0.0487,-17.34646 0.3662,-19.47309 6.0553,-31.03536 8.04785,-16.35613 19.78019,-28.15789 35.302,-35.51087 11.45953,-5.4286 14.05052,-5.92213 31.0913,-5.92213 17.41062,0 19.3842,0.39859 31.10914,6.28264 62.87782,31.55466 50.47736,123.01646 -18.65241,137.57416 -12.42055,2.61558 -17.48038,2.47943 -29.6512,-0.7979 z m 37.91092,-29.30599 c 26.05741,-13.52695 33.37897,-50.89957 14.14285,-72.19165 -10.32557,-11.42919 -19.322,-15.30041 -35.7888,-15.40021 -16.12353,-0.0977 -22.26242,2.48907 -33.578,14.14902 -17.50105,18.03365 -16.35704,49.90839 2.35828,65.7064 11.12834,9.39369 19.61281,12.25678 34.00821,11.47611 7.15715,-0.38813 15.64301,-2.07099 18.85746,-3.73967 l 0,0 z"
       id="path3866"
       inkscape:connector-curvature="0" />
    <path
       style="fill:#000000;fill-opacity:1;stroke:#000000;stroke-width:36.80815125;stroke-miterlimit:4;stroke-opacity:0;stroke-dasharray:none"
       d="m 387.89857,307.01278 c -19.66499,-8.55412 -3.01355,-27.90882 20.9227,-24.31936 9.51012,1.42613 18.01235,8.58062 17.16604,14.44493 -0.32472,2.25015 -3.43291,6.00215 -6.90706,8.33779 -7.3648,4.95128 -21.707,5.65807 -31.18168,1.53664 l 0,0 z"
       id="path3870"
       inkscape:connector-curvature="0" />
  </g>
</svg>
