<?xml version="1.0" encoding="UTF-8" standalone="no"?>
<!-- Created with Inkscape (http://www.inkscape.org/) -->

<svg
   xmlns:dc="http://purl.org/dc/elements/1.1/"
   xmlns:cc="http://creativecommons.org/ns#"
   xmlns:rdf="http://www.w3.org/1999/02/22-rdf-syntax-ns#"
   xmlns:svg="http://www.w3.org/2000/svg"
   xmlns="http://www.w3.org/2000/svg"
   xmlns:sodipodi="http://sodipodi.sourceforge.net/DTD/sodipodi-0.dtd"
   xmlns:inkscape="http://www.inkscape.org/namespaces/inkscape"
   width="1000"
   height="1000"
   id="svg4955"
   version="1.1"
   inkscape:version="0.48.4 r9939"
   sodipodi:docname="flask.svg">
  <defs
     id="defs5498" />
  <sodipodi:namedview
     inkscape:window-height="1056"
     inkscape:window-width="1920"
     inkscape:pageshadow="2"
     inkscape:pageopacity="0.0"
     borderopacity="1.0"
     bordercolor="#666666"
     pagecolor="#ffffff"
     id="base"
     showgrid="false"
     showguides="true"
     inkscape:guide-bbox="true"
     inkscape:zoom="0.454"
     inkscape:cx="732.20128"
     inkscape:cy="497.66419"
     inkscape:window-x="0"
     inkscape:window-y="24"
     inkscape:current-layer="layer1"
     inkscape:window-maximized="1">
    <sodipodi:guide
       orientation="horizontal"
       position="200"
       id="guide5596" />
  </sodipodi:namedview>
  <metadata
     id="metadata5594">
    <rdf:RDF>
      <cc:Work
         rdf:about="">
        <dc:format>image/svg+xml</dc:format>
        <dc:type
           rdf:resource="http://purl.org/dc/dcmitype/StillImage" />
        <dc:title></dc:title>
      </cc:Work>
    </rdf:RDF>
  </metadata>
  <g
     inkscape:label="Layer 1"
     inkscape:groupmode="layer"
     id="layer1">
    <path
       style="fill:#000000"
       d="m 450.77426,892.61021 c -65.00783,-4.89842 -160.80992,-31.55984 -201.51146,-56.08 -59.0245,-35.55852 -89.41334,-73.91203 -97.10221,-122.5516 l -4.85953,-30.74112 26.0428,24.00541 c 54.02497,49.79846 156.02469,87.54111 271.32399,100.39727 15.11336,1.68515 57.70556,3.19785 94.64933,3.36152 l 67.1705,0.29731 -2.02185,39.12188 c -1.76245,34.10265 -3.72104,39.5775 -15.26603,42.67435 -13.37945,3.58868 -87.82346,3.3279 -138.42554,-0.48486 z m 6.10642,-115.43545 C 326.60893,763.15792 228.32124,726.37784 170.91364,670.16348 c -25.9178,-25.37912 -30.72999,-34.09643 -37.33958,-67.64099 -4.1731,-21.17899 -8.70818,-42.18011 -10.07795,-46.66919 -1.36979,-4.48906 9.78549,2.64385 24.78951,15.85091 74.08361,65.211 205.38051,98.78878 387.32433,99.05398 l 81.78247,0.11918 -3.38075,49.32399 c -1.8594,27.12826 -5.16565,51.10884 -7.34721,53.29037 -4.46068,4.46065 -116.86768,7.22462 -149.78378,3.68303 z m 279.02016,-52.623 -89.31677,-43.54237 3.75416,-37.12464 c 6.4351,-63.63624 -0.56003,-62.38721 102.70323,-18.33832 50.37788,21.48961 90.93578,41.77441 90.12864,45.07736 -0.80709,3.3029 -3.27065,25.40699 -5.47457,49.12016 -2.20394,23.71315 -5.91303,44.29275 -8.2425,45.73239 -2.32947,1.43979 -44.42796,-16.97631 -93.55219,-40.92458 z M 466.04029,633.79357 C 302.59624,620.83129 197.53734,586.66797 139.60981,527.64411 116.81951,504.42249 112.61826,495.44246 102.00675,447.26876 95.436353,417.44064 88.443898,387.54005 86.46797,380.823 c -2.528024,-8.59386 0.638497,-6.78438 10.686002,6.10642 46.782728,60.02154 124.933008,99.3146 245.073468,123.22012 35.62308,7.08827 85.41591,10.2128 168.73532,10.58824 l 118.19938,0.53261 -4.02775,48.85126 c -6.09077,73.87314 -3.34686,70.35936 -54.17006,69.36922 -24.12297,-0.46996 -71.3388,-3.03374 -104.92404,-5.6973 z m 345.01205,-16.83789 c -11.75483,-5.87962 -51.0282,-22.60634 -87.27419,-37.17049 l -65.90175,-26.48028 3.87512,-25.84116 c 2.95012,-19.67318 0.85868,-31.75374 -8.76226,-50.61246 l -12.63741,-24.77131 68.55763,24.47219 c 175.75263,62.73635 157.56676,53.9162 154.37702,74.87289 -1.56513,10.28313 -4.50884,31.74904 -6.54167,47.70203 -4.18668,32.85682 -10.62496,35.36893 -45.69249,17.82859 z M 774.40114,466.48059 C 607.36993,409.25108 623.31777,418.58794 586.81454,356.65546 569.18655,326.7473 556.03772,301.00292 557.59489,299.44574 c 2.67657,-2.67655 58.86867,11.46262 140.48891,35.35011 20.15114,5.89755 69.61306,19.78039 109.91534,30.85075 40.30229,11.07035 75.52454,22.08582 78.27163,24.47881 4.30874,3.75332 1.54389,26.70201 -10.93382,90.75296 -1.56062,8.01111 -3.6164,15.34454 -4.56838,16.2965 -0.95194,0.95195 -44.31726,-12.86046 -96.36743,-30.69428 z m -393.85057,18.688 C 197.16765,458.3758 84.389777,387.11201 84.389777,298.02602 c 0,-33.67604 13.920755,-61.20023 45.827943,-90.61124 123.96543,-114.267355 465.99139,-138.577415 665.38243,-47.29317 92.60716,42.39695 139.77195,117.09957 112.17452,177.66921 -8.50707,18.67105 -6.33075,18.55612 -63.24931,3.34053 -25.1272,-6.71705 -66.29496,-17.70858 -91.4839,-24.42563 -25.18892,-6.71705 -65.72021,-17.53027 -90.06952,-24.02938 -24.34929,-6.49912 -71.3675,-19.01838 -104.4849,-27.82061 -33.11739,-8.80222 -61.58872,-14.62876 -63.26961,-12.94787 -1.68091,1.6809 26.2912,54.31339 62.16023,116.96108 35.86904,62.64768 63.91439,115.20692 62.32302,116.79829 -7.2984,7.2984 -188.36737,6.92086 -239.15011,-0.49864 z"
       id="path5139"
       inkscape:connector-curvature="0" />
  </g>
</svg>
