<?xml version="1.0" encoding="UTF-8" standalone="no"?>
<!-- Created with Inkscape (http://www.inkscape.org/) -->

<svg
   xmlns:dc="http://purl.org/dc/elements/1.1/"
   xmlns:cc="http://creativecommons.org/ns#"
   xmlns:rdf="http://www.w3.org/1999/02/22-rdf-syntax-ns#"
   xmlns:svg="http://www.w3.org/2000/svg"
   xmlns="http://www.w3.org/2000/svg"
   xmlns:sodipodi="http://sodipodi.sourceforge.net/DTD/sodipodi-0.dtd"
   xmlns:inkscape="http://www.inkscape.org/namespaces/inkscape"
   width="1000"
   height="1000"
   id="svg4955"
   version="1.1"
   inkscape:version="0.48.4 r9939"
   sodipodi:docname="pakyow.svg">
  <defs
     id="defs5498" />
  <sodipodi:namedview
     inkscape:window-height="1056"
     inkscape:window-width="1920"
     inkscape:pageshadow="2"
     inkscape:pageopacity="0.0"
     borderopacity="1.0"
     bordercolor="#666666"
     pagecolor="#ffffff"
     id="base"
     showgrid="false"
     showguides="false"
     inkscape:guide-bbox="true"
     inkscape:zoom="0.50311741"
     inkscape:cx="256.512"
     inkscape:cy="547.2581"
     inkscape:window-x="0"
     inkscape:window-y="24"
     inkscape:current-layer="layer11"
     inkscape:window-maximized="1">
    <sodipodi:guide
       orientation="0,1"
       position="189.44385,479.26189"
       id="guide7179" />
    <sodipodi:guide
       orientation="1,0"
       position="429.5717,650.94149"
       id="guide7232" />
    <sodipodi:guide
       orientation="0,1"
       position="423.85732,718.7686"
       id="guide7234" />
    <sodipodi:guide
       orientation="0,1"
       position="407.21111,603.48736"
       id="guide7236" />
    <sodipodi:guide
       orientation="1,0"
       position="330.68822,603.48736"
       id="guide7238" />
    <sodipodi:guide
       orientation="1,0"
       position="526.71602,603.48736"
       id="guide7240" />
    <sodipodi:guide
       orientation="0,1"
       position="429.5717,709.07902"
       id="guide7242" />
    <sodipodi:guide
       orientation="0,1"
       position="429.5717,618.89132"
       id="guide7244" />
    <sodipodi:guide
       orientation="1,0"
       position="421.62126,644.23332"
       id="guide7246" />
    <sodipodi:guide
       orientation="1,0"
       position="370.68882,649.20234"
       id="guide7248" />
    <sodipodi:guide
       orientation="1,0"
       position="377.397,646.46938"
       id="guide7250" />
    <sodipodi:guide
       orientation="0,1"
       position="401.99364,699.63788"
       id="guide7252" />
    <sodipodi:guide
       orientation="0,1"
       position="402.73899,694.42041"
       id="guide7254" />
    <sodipodi:guide
       orientation="0,1"
       position="412.67703,632.80457"
       id="guide7258" />
    <sodipodi:guide
       orientation="0,1"
       position="421.62126,626.0964"
       id="guide7260" />
    <sodipodi:guide
       orientation="1,0"
       position="469.5723,641.50036"
       id="guide7262" />
    <sodipodi:guide
       orientation="1,0"
       position="390.5649,658.14657"
       id="guide7264" />
    <sodipodi:guide
       orientation="1,0"
       position="384.10517,643.23951"
       id="guide7266" />
    <sodipodi:guide
       orientation="1,0"
       position="407.45956,632.80457"
       id="guide7268" />
  </sodipodi:namedview>
  <metadata
     id="metadata5594">
    <rdf:RDF>
      <cc:Work
         rdf:about="">
        <dc:format>image/svg+xml</dc:format>
        <dc:type
           rdf:resource="http://purl.org/dc/dcmitype/StillImage" />
        <dc:title></dc:title>
      </cc:Work>
    </rdf:RDF>
  </metadata>
  <g
     inkscape:groupmode="layer"
     id="layer11"
     inkscape:label="Layer">
    <path
       style="fill:#000000"
       d="m 436.53174,924.87451 c -38.45181,-17.46623 -68.49612,-53.30894 -79.6539,-95.02663 -8.14442,-30.45113 -11.2197,-33.48656 -41.7025,-41.16226 C 268.99945,777.05844 221.28025,729.9831 209.91431,684.84493 201.74729,652.4107 199.19788,649.76851 168.64652,642.07561 104.29966,625.87287 61.344546,569.05881 61.344546,500.15397 c 0,-68.90487 42.955114,-125.71893 107.301974,-141.92168 30.55136,-7.69289 33.10077,-10.33508 41.26779,-42.76931 11.36594,-45.13818 59.08514,-92.21351 105.26103,-103.84073 30.4828,-7.67566 33.55808,-10.71106 41.7025,-41.16219 23.82984,-89.097095 123.80032,-134.101106 207.684,-93.493707 36.44416,17.64232 58.32293,44.818667 76.11263,94.542127 10.39717,29.0607 16.07147,35.20652 36.33118,39.35008 54.82068,11.212 113.02191,74.51939 113.02191,122.93764 0,11.56149 8.14823,16.92391 36.92146,24.29829 63.84202,16.36219 111.70643,77.23245 111.70643,142.05948 0,64.827 -47.86441,125.69725 -111.70643,142.05945 -28.77323,7.37438 -36.92146,12.73679 -36.92146,24.29828 0,48.41826 -58.20123,111.72565 -113.02191,122.93761 -20.25971,4.1436 -25.93401,10.28945 -36.33118,39.35016 -17.7897,49.72338 -39.66847,76.89976 -76.11263,94.54205 -39.45427,19.09952 -88.07581,19.68168 -128.0301,1.53299 z m 108.04084,-49.18332 c 32.82416,-16.97402 44.69538,-39.34613 44.69538,-84.23144 0,-35.55856 -2.79839,-42.78295 -25.28086,-65.26539 -21.50124,-21.50123 -30.44961,-25.28083 -59.85356,-25.28083 -45.39394,0 -73.4738,15.39611 -89.43833,49.03881 -40.081,84.46446 46.88272,168.65706 129.87737,125.73885 z M 402.74601,727.26545 c 23.78114,-12.29767 45.26006,-51.83769 45.21888,-83.24219 -0.0936,-71.35964 -88.67764,-115.70948 -149.44233,-74.81873 -74.5854,50.19115 -39.42369,168.88669 50.03003,168.88669 18.29229,0 42.67933,-4.87159 54.19342,-10.82577 z m 294.97893,-1.43171 c 55.44409,-36.32835 52.81476,-127.52132 -4.65559,-161.46986 -42.48915,-25.09895 -107.53744,-8.27389 -130.91985,33.86304 -21.34111,38.45827 -6.80002,103.37313 28.73042,128.25962 21.99394,15.40515 82.90548,15.03298 106.84502,-0.6528 z M 261.92978,575.84559 c 28.31761,-21.01288 38.33629,-45.39783 35.01666,-85.22872 -5.10369,-61.23695 -58.54677,-97.97099 -117.03869,-80.44641 -84.029043,25.17573 -91.455511,140.32805 -11.37851,176.43097 27.96066,12.60616 68.15496,7.97745 93.40054,-10.75584 z M 541.99962,584.66 c 31.06147,-14.7396 47.26834,-43.71417 47.26834,-84.50603 0,-40.79189 -16.20687,-69.76646 -47.26834,-84.50607 -31.51261,-14.95373 -49.84374,-15.27426 -82.92964,-1.4501 -50.71656,21.19073 -70.48731,87.61984 -40.64522,136.56657 25.64223,42.05821 76.80187,56.09088 123.57486,33.89563 z m 306.86847,-8.42081 c 10.57796,-7.82667 24.14844,-28.14766 30.15673,-45.15778 9.60833,-27.20258 9.60833,-34.65233 0,-61.85492 -29.77206,-84.28862 -139.39964,-86.5271 -174.02319,-3.55339 -14.22734,34.09518 -14.22734,34.86653 0,68.9617 24.87313,59.60726 92.93415,79.28965 143.86646,41.60439 z M 396.64194,436.59089 c 27.20415,-14.06781 51.28544,-51.74844 51.32295,-80.30624 0.041,-31.4045 -21.43774,-70.94452 -45.21888,-83.24219 -34.23291,-17.70254 -83.71472,-13.97055 -110.19491,8.31105 -86.21013,72.54101 3.95975,207.01718 104.09084,155.23738 z m 296.42741,-0.64683 c 57.47035,-33.94857 60.09968,-125.14154 4.65559,-161.4699 -23.93954,-15.68577 -84.85108,-16.05794 -106.84502,-0.65283 -35.53044,24.88652 -50.07153,89.80139 -28.73042,128.25966 23.38241,42.13693 88.4307,58.96199 130.91985,33.86304 z M 563.9871,274.11354 c 22.58298,-22.58298 25.28086,-29.61736 25.28086,-65.91711 0,-65.32126 -40.8282,-101.14557 -105.40247,-92.48433 -63.08521,8.4615 -97.38695,75.18122 -69.19532,134.59067 16.25257,34.24972 41.78779,48.41264 87.97371,48.79389 31.29502,0.25851 39.40444,-3.04434 61.34322,-24.98312 z"
       id="path7705"
       inkscape:connector-curvature="0"
       sodipodi:nodetypes="sssssssssssssssssssssssssssssssssssssssssssssssssssssssssssscsssccssssss" />
  </g>
</svg>
