<?xml version="1.0" encoding="UTF-8" standalone="no"?>
<!-- Created with Inkscape (http://www.inkscape.org/) -->

<svg
   xmlns:dc="http://purl.org/dc/elements/1.1/"
   xmlns:cc="http://creativecommons.org/ns#"
   xmlns:rdf="http://www.w3.org/1999/02/22-rdf-syntax-ns#"
   xmlns:svg="http://www.w3.org/2000/svg"
   xmlns="http://www.w3.org/2000/svg"
   xmlns:sodipodi="http://sodipodi.sourceforge.net/DTD/sodipodi-0.dtd"
   xmlns:inkscape="http://www.inkscape.org/namespaces/inkscape"
   version="1.1"
   width="1000"
   height="1000"
   id="svg4111"
   inkscape:version="0.48.4 r9939"
   sodipodi:docname="cloudfront.svg">
  <sodipodi:namedview
     pagecolor="#ffffff"
     bordercolor="#666666"
     borderopacity="1"
     objecttolerance="10"
     gridtolerance="10"
     guidetolerance="10"
     inkscape:pageopacity="0"
     inkscape:pageshadow="2"
     inkscape:window-width="1920"
     inkscape:window-height="1056"
     id="namedview7"
     showgrid="false"
     inkscape:zoom="0.6675088"
     inkscape:cx="598.61894"
     inkscape:cy="440.50878"
     inkscape:window-x="0"
     inkscape:window-y="24"
     inkscape:window-maximized="1"
     inkscape:current-layer="layer2" />
  <defs
     id="defs5498" />
  <metadata
     id="metadata5594">
    <rdf:RDF>
      <cc:Work
         rdf:about="">
        <dc:format>image/svg+xml</dc:format>
        <dc:type
           rdf:resource="http://purl.org/dc/dcmitype/StillImage" />
        <dc:title></dc:title>
      </cc:Work>
    </rdf:RDF>
  </metadata>
  <g
     inkscape:groupmode="layer"
     id="layer1"
     inkscape:label="Layer"
     style="display:inline" />
  <g
     inkscape:groupmode="layer"
     id="layer2"
     inkscape:label="Layer#1"
     style="display:inline;opacity:1">
    <path
       id="path3788"
       style="fill:#000000;fill-opacity:1;stroke:none"
       d="m 730.05756,359.8292 -1.95519,43.55399 c 20.94972,45.56921 28.9778,80.94151 26.16315,122.53731 29.4991,-15.80333 65.56141,-16.32046 94.2544,-8.29172 l 25.70537,9.90647 18.12164,-3.34737 -62.90697,-17.79519 59.96819,-17.88365 -59.38834,-4.10469 50.15662,-31.90674 -58.19814,11.20017 40.28398,-44.95326 -52.70487,26.36769 26.42873,-53.39153 -43.94616,40.02458 11.64266,-59.83087 -31.78464,49.02744 -5.02027,-59.78509 c -6.77132,18.22186 -12.61103,39.76323 -17.73105,56.41283 z M 889.3166,488.40223 z M 534.91445,304.15252 c -28.47629,-0.0419 -53.39581,4.93357 -79.4693,15.79315 -15.104,6.2908 -28.19448,13.55913 -41.13848,22.82759 -23.18473,16.60127 -43.4504,38.7135 -56.73327,61.89083 -1.15432,2.0142 -2.91226,4.98057 -3.90632,6.59193 -3.32224,5.3855 -6.35313,11.76125 -10.33041,21.72893 -0.80368,2.0142 -1.99872,4.89815 -2.65508,6.40881 -0.65641,1.51066 -1.20547,2.99385 -1.20547,3.29597 0,0.86672 -0.33491,0.70206 -4.57772,-2.12102 -5.01304,-3.33555 -15.74335,-8.53942 -21.5916,-10.48299 -29.35725,-9.75634 -62.06979,-4.13982 -86.35114,14.83183 -5.49505,4.29342 -13.7482,12.58027 -17.34958,17.42587 -3.7996,5.1123 -6.18542,9.18892 -9.79633,16.72396 -3.33674,6.96291 -5.21166,12.43639 -7.12599,20.81339 -1.31865,5.77032 -1.39556,6.71691 -1.38858,17.33431 0.006,9.61073 0.17062,12.09583 1.12917,17.25802 0.61607,3.31778 0.98392,6.17259 0.82399,6.33252 -0.15993,0.15993 -2.86531,0.4368 -6.01208,0.62563 -8.10595,0.48639 -14.6723,1.65861 -24.52134,4.36409 -19.40031,5.32917 -37.72468,15.3449 -53.65093,29.3127 -6.21921,5.45443 -17.352512,18.78899 -22.186707,26.58132 -1.332872,2.14848 -3.059258,4.82231 -3.830029,5.95104 -1.315983,1.92713 -5.028783,9.75054 -8.300941,17.48691 -2.429617,5.74434 -5.600488,17.16322 -7.049696,25.39111 -1.292788,7.33982 -1.368214,8.66966 -1.388576,21.97308 -0.02564,16.73361 0.782823,22.84547 3.067075,23.28536 0.413485,0.0796 192.883814,0.0955 427.727334,0.0305 406.72771,-0.11263 427.02551,-0.15897 427.65101,-0.97658 1.85633,-2.42597 5.42408,-13.79484 6.77503,-21.60686 3.55832,-20.57513 2.73829,-39.19572 -2.53296,-58.10659 -4.10047,-14.71024 -12.83389,-31.163 -23.36168,-43.96141 -8.74977,-10.63694 -16.65139,-17.63355 -29.67889,-26.33718 -3.40783,-2.27669 -6.19523,-4.3092 -6.19523,-4.51669 0,-0.0519 0.0347,-0.10749 0.0916,-0.15259 -8.72404,-6.08302 -14.18162,-9.31313 -27.39008,-12.66504 -24.92562,-8.40628 -57.2238,-4.92199 -84.48951,7.59903 l 58.39648,83.32984 c -22.77944,-18.38314 -53.3851,-45.82362 -75.56298,-64.97317 L 490.09251,623.72139 716.00923,539.98163 597.28297,495.51589 741.675,529.11717 c 2.97613,-50.3415 -10.41352,-91.81579 -29.40425,-123.33916 -6.76795,-10.90108 -10.22622,-15.86673 -16.66291,-23.9415 -8.44475,-10.5938 -21.80438,-24.18067 -30.97594,-31.49475 -14.80775,-11.80876 -27.33383,-19.50574 -45.5331,-28.01567 -16.72825,-7.8221 -33.13128,-12.61117 -55.07002,-16.06781 -9.57621,-1.50883 -12.45957,-1.76315 -23.37692,-2.02946 -1.93149,-0.0471 -3.83899,-0.0735 -5.73741,-0.0763 z"
       inkscape:connector-curvature="0" />
  </g>
</svg>
