<?xml version="1.0" encoding="UTF-8" standalone="no"?>
<!-- Created with Inkscape (http://www.inkscape.org/) -->

<svg
   xmlns:dc="http://purl.org/dc/elements/1.1/"
   xmlns:cc="http://creativecommons.org/ns#"
   xmlns:rdf="http://www.w3.org/1999/02/22-rdf-syntax-ns#"
   xmlns:svg="http://www.w3.org/2000/svg"
   xmlns="http://www.w3.org/2000/svg"
   xmlns:sodipodi="http://sodipodi.sourceforge.net/DTD/sodipodi-0.dtd"
   xmlns:inkscape="http://www.inkscape.org/namespaces/inkscape"
   width="1000"
   height="1000"
   id="svg4955"
   version="1.1"
   inkscape:version="0.48.4 r9939"
   sodipodi:docname="gandi.svg">
  <defs
     id="defs5498" />
  <sodipodi:namedview
     inkscape:window-height="1056"
     inkscape:window-width="1920"
     inkscape:pageshadow="2"
     inkscape:pageopacity="0.0"
     borderopacity="1.0"
     bordercolor="#666666"
     pagecolor="#ffffff"
     id="base"
     showgrid="false"
     showguides="false"
     inkscape:guide-bbox="true"
     inkscape:zoom="0.53319984"
     inkscape:cx="338.21254"
     inkscape:cy="627.14421"
     inkscape:window-x="0"
     inkscape:window-y="24"
     inkscape:current-layer="layer16"
     inkscape:window-maximized="1">
    <sodipodi:guide
       orientation="0,1"
       position="189.44385,479.26189"
       id="guide7179" />
    <sodipodi:guide
       orientation="1,0"
       position="429.5717,650.94149"
       id="guide7232" />
    <sodipodi:guide
       orientation="0,1"
       position="423.85732,718.7686"
       id="guide7234" />
    <sodipodi:guide
       orientation="0,1"
       position="407.21111,603.48736"
       id="guide7236" />
    <sodipodi:guide
       orientation="1,0"
       position="330.68822,603.48736"
       id="guide7238" />
    <sodipodi:guide
       orientation="1,0"
       position="526.71602,603.48736"
       id="guide7240" />
    <sodipodi:guide
       orientation="0,1"
       position="429.5717,709.07902"
       id="guide7242" />
    <sodipodi:guide
       orientation="0,1"
       position="429.5717,618.89132"
       id="guide7244" />
    <sodipodi:guide
       orientation="1,0"
       position="421.62126,644.23332"
       id="guide7246" />
    <sodipodi:guide
       orientation="1,0"
       position="370.68882,649.20234"
       id="guide7248" />
    <sodipodi:guide
       orientation="1,0"
       position="377.397,646.46938"
       id="guide7250" />
    <sodipodi:guide
       orientation="0,1"
       position="401.99364,699.63788"
       id="guide7252" />
    <sodipodi:guide
       orientation="0,1"
       position="402.73899,694.42041"
       id="guide7254" />
    <sodipodi:guide
       orientation="0,1"
       position="412.67703,632.80457"
       id="guide7258" />
    <sodipodi:guide
       orientation="0,1"
       position="421.62126,626.0964"
       id="guide7260" />
    <sodipodi:guide
       orientation="1,0"
       position="469.5723,641.50036"
       id="guide7262" />
    <sodipodi:guide
       orientation="1,0"
       position="390.5649,658.14657"
       id="guide7264" />
    <sodipodi:guide
       orientation="1,0"
       position="384.10517,643.23951"
       id="guide7266" />
    <sodipodi:guide
       orientation="1,0"
       position="407.45956,632.80457"
       id="guide7268" />
    <sodipodi:guide
       orientation="0,1"
       position="562.25,301.75"
       id="guide9656" />
    <sodipodi:guide
       orientation="0,1"
       position="304.625,414.0625"
       id="guide9658" />
    <sodipodi:guide
       orientation="0,1"
       position="574.5,288.25"
       id="guide9660" />
    <sodipodi:guide
       orientation="0,1"
       position="274,595.875"
       id="guide9707" />
    <sodipodi:guide
       orientation="0,1"
       position="278.41012,505.92896"
       id="guide9709" />
    <sodipodi:guide
       orientation="1,0"
       position="399.47499,579.75449"
       id="guide10200" />
    <sodipodi:guide
       orientation="1,0"
       position="438.12917,549.60926"
       id="guide10206" />
    <sodipodi:guide
       orientation="1,0"
       position="366.59957,560.79871"
       id="guide10208" />
    <sodipodi:guide
       orientation="1,0"
       position="396.27234,559.2239"
       id="guide10210" />
    <sodipodi:guide
       orientation="0,1"
       position="399.47499,581.27126"
       id="guide10212" />
    <sodipodi:guide
       orientation="0,1"
       position="403.89774,578.28741"
       id="guide10214" />
  </sodipodi:namedview>
  <metadata
     id="metadata5594">
    <rdf:RDF>
      <cc:Work
         rdf:about="">
        <dc:format>image/svg+xml</dc:format>
        <dc:type
           rdf:resource="http://purl.org/dc/dcmitype/StillImage" />
        <dc:title></dc:title>
      </cc:Work>
    </rdf:RDF>
  </metadata>
  <g
     inkscape:groupmode="layer"
     id="layer13"
     inkscape:label="Layer#1">
    <g
       inkscape:groupmode="layer"
       id="layer16"
       inkscape:label="Layer">
      <path
         style="fill:#008d00;stroke:none;stroke-width:1px;stroke-linecap:butt;stroke-linejoin:miter;stroke-opacity:1;fill-opacity:1"
         d="m 396.27234,421.71259 0,28.59527 -29.67277,-3.72982 0,-24.86545 29.67277,0 -29.67277,0 0,24.78257 29.67277,3.89558 z"
         id="path10220"
         inkscape:connector-curvature="0" />
      <path
         style="fill:#000000"
         d="m 502.39527,793.38105 c -22.58228,-2.35391 -46.87099,-9.24884 -68.23235,-19.36938 -11.99399,-5.68249 -34.4981,-19.88725 -43.24454,-27.2963 l -3.99585,-3.38484 9.55421,-7.52556 c 5.25481,-4.13907 14.80584,-12.93764 21.22451,-19.5524 l 11.67033,-12.02684 9.62765,6.5557 c 25.62676,17.44987 53.48281,26.07881 84.52995,26.1848 57.67042,0.19685 109.61903,-32.15488 135.80308,-84.57332 8.8284,-17.67375 15.13734,-42.77328 15.1486,-60.26719 0.005,-7.70899 0.65392,-8.57807 4.76326,-6.37882 1.20137,0.64295 6.79477,2.50507 12.42978,4.13803 44.30927,12.84033 92.43076,0.52279 125.14916,-32.03409 17.25153,-17.16636 27.72474,-35.13451 34.61347,-59.38388 1.09522,-3.85533 2.41855,-6.84427 2.94074,-6.64209 0.52219,0.2022 9.43491,10.42133 19.80607,22.70919 14.51415,17.19653 18.69432,22.89779 18.15177,24.75687 -1.39952,4.79558 -13.71995,25.57076 -20.79332,35.06249 -9.55131,12.81688 -29.7186,32.06237 -42.72709,40.77415 -27.8847,18.67437 -59.63183,29.38809 -91.05792,30.72938 l -14.62252,0.6241 -2.1395,6.78756 c -3.53555,11.21653 -11.24515,27.79507 -18.88126,40.60181 -19.82584,33.25053 -49.91628,61.00494 -84.99127,78.39313 -36.3163,18.00354 -75.46675,25.20987 -114.72696,21.1175 z M 249.63815,759.56223 c -29.69913,-4.0087 -62.52131,-17.57168 -86.2513,-35.64125 -24.60631,-18.73686 -46.94819,-47.44383 -57.71825,-74.16191 -2.13486,-5.29605 -4.40922,-9.62918 -5.05415,-9.62918 -0.644935,0 -5.537774,1.11453 -10.872976,2.47673 -5.335215,1.36219 -10.01442,2.16269 -10.398236,1.77886 -0.963502,-0.9635 25.421172,-108.22346 26.524462,-107.82818 0.67679,0.24249 62.61303,73.08475 70.82692,83.29848 1.40718,1.74979 0.35631,2.23728 -9.96313,4.6219 -6.34493,1.46618 -11.5286,3.00637 -11.51925,3.42264 0.0444,1.98263 10.31643,19.32487 15.22333,25.70176 12.73442,16.54934 27.38311,28.37621 46.95377,37.90891 18.4546,8.98909 28.65294,11.4841 50.11757,12.26121 25.80631,0.9343 45.43383,-3.45188 66.26225,-14.8077 35.3447,-19.27022 61.64047,-57.27706 66.16423,-95.63113 0.41129,-3.4871 0.87626,-6.34018 1.03326,-6.34018 0.15699,0 2.66352,1.31911 5.57007,2.93135 22.17235,12.29886 54.88383,18.84527 81.54445,16.31916 36.85988,-3.49249 67.8077,-17.86969 93.42887,-43.40355 29.40316,-29.30295 44.66958,-65.61483 44.66958,-106.24862 0,-25.36201 -4.93002,-46.27528 -16.14652,-68.49384 -21.24577,-42.08539 -62.28908,-72.52347 -108.70705,-80.61808 -13.72841,-2.39404 -37.26985,-2.39404 -50.99826,0 -35.15391,6.13033 -69.6134,26.27511 -91.08378,53.24697 -20.01115,25.13871 -30.6532,51.30962 -33.80275,83.12772 -0.72149,7.28866 -1.50469,13.44499 -1.74045,13.68076 -0.23577,0.23577 -4.14489,-0.91039 -8.68694,-2.54701 -25.76161,-9.28263 -56.47684,-9.51796 -83.1327,-0.63693 -39.76785,13.24958 -71.39077,46.65459 -83.10624,87.78963 l -2.87531,10.09573 -19.50524,-23.06866 c -10.72787,-12.68776 -19.50522,-23.62986 -19.50522,-24.31579 0,-2.47853 8.41564,-17.87899 15.81501,-28.94118 9.25825,-13.84123 28.32766,-33.87172 42.05408,-44.17356 12.9604,-9.72695 34.64031,-20.96314 51.02888,-26.4471 15.3004,-5.11983 37.47613,-9.09616 50.93404,-9.13298 l 9.84313,-0.0269 2.85664,-8.72855 c 1.57115,-4.8007 5.42923,-14.20537 8.57348,-20.89927 l 5.71684,-12.17072 -13.13775,-18.84723 -13.13773,-18.84725 12.96053,-17.59005 c 7.12829,-9.67451 13.57291,-17.59003 14.32139,-17.59003 0.74847,0 10.82646,3.53238 22.39553,7.84973 11.56906,4.31736 21.67315,7.84974 22.45354,7.84974 0.78039,0 6.00494,-3.45888 11.61012,-7.68641 12.26325,-9.24918 30.51635,-19.70351 43.86022,-25.12064 l 9.78412,-3.97199 3.87568,-22.36874 c 2.13163,-12.30282 4.32128,-23.47511 4.8659,-24.82733 0.87215,-2.16548 3.43785,-2.79511 21.52006,-5.28115 11.29142,-1.55241 21.15678,-2.61359 21.92301,-2.35818 0.76624,0.25542 5.49182,9.42498 10.50129,20.3768 5.00948,10.95184 9.5142,20.33286 10.01052,20.8467 0.49631,0.51386 7.0854,1.47686 14.64241,2.14002 16.43337,1.44209 33.83632,4.8534 47.39878,9.29106 5.46416,1.78788 10.25818,3.26947 10.65338,3.29241 0.3952,0.023 6.8745,-6.75133 14.39843,-15.05394 7.52392,-8.30261 14.2933,-15.25058 15.04306,-15.43994 1.03887,-0.26238 39.30344,17.18967 39.9908,18.23937 0.0791,0.12083 -1.32644,11.36029 -3.1235,24.97657 l -3.26736,24.75687 11.10937,11.51941 c 62.67814,64.99151 77.14476,159.21836 36.79677,239.67226 -10.23132,20.40126 -20.91554,34.9129 -39.17076,53.20294 -35.63811,35.70606 -78.50108,55.45707 -130.0435,59.92327 -15.35605,1.33061 -39.30739,0.34422 -51.74439,-2.131 -2.6938,-0.53613 -3.55616,0.34829 -8.00297,8.20753 -25.39637,44.88544 -69.76969,76.84178 -122.10792,87.93846 -13.79571,2.92496 -46.47788,4.14744 -60.45214,2.26123 z M 857.5967,463.93127 c -19.67757,-23.28093 -35.77741,-42.54662 -35.77741,-42.81265 0,-0.26603 5.15446,-1.67478 11.45435,-3.13056 l 11.45435,-2.64686 -1.75735,-4.20594 c -3.09304,-7.4027 -14.50684,-23.87588 -22.35845,-32.26929 -15.96517,-17.06682 -37.75256,-30.20103 -60.55299,-36.5035 -16.67038,-4.60801 -40.46615,-5.34911 -57.65661,-1.79569 -6.89671,1.42562 -15.82136,3.92558 -19.83255,5.55548 -4.0112,1.62989 -7.64277,2.96344 -8.07016,2.96344 -0.42739,0 -2.05804,-2.30963 -3.62371,-5.13252 -4.85862,-8.76018 -13.83846,-21.63745 -22.11228,-31.70946 l -7.9293,-9.65263 6.32686,-3.22225 c 10.11247,-5.15026 29.89325,-11.59041 44.56017,-14.50774 19.22983,-3.82492 48.9488,-3.82492 68.17863,0 62.15827,12.36362 112.99403,54.33026 135.94688,112.22878 1.11908,2.82289 2.7184,5.11396 3.55403,5.09128 0.83565,-0.0227 5.86109,-1.0701 11.16765,-2.32759 5.30657,-1.25748 9.85233,-2.08231 10.10168,-1.83295 0.65027,0.65027 -25.27251,106.04856 -26.37674,107.244 -0.5058,0.54757 -17.01947,-18.05244 -36.69705,-41.33335 z"
         id="path10319"
         inkscape:connector-curvature="0"
         sodipodi:nodetypes="ssscsscssscsssscssssscsssssssssccsscssssssssssssssscssscsssssscsscccsssssscssssscssssscscssssssssssscsssssssscsssscssss" />
    </g>
  </g>
</svg>
