<?xml version="1.0" encoding="UTF-8" standalone="no"?>
<!-- Created with Inkscape (http://www.inkscape.org/) -->

<svg
   xmlns:dc="http://purl.org/dc/elements/1.1/"
   xmlns:cc="http://creativecommons.org/ns#"
   xmlns:rdf="http://www.w3.org/1999/02/22-rdf-syntax-ns#"
   xmlns:svg="http://www.w3.org/2000/svg"
   xmlns="http://www.w3.org/2000/svg"
   xmlns:sodipodi="http://sodipodi.sourceforge.net/DTD/sodipodi-0.dtd"
   xmlns:inkscape="http://www.inkscape.org/namespaces/inkscape"
   width="1000"
   height="1000"
   id="svg4955"
   version="1.1"
   inkscape:version="0.48.4 r9939"
   sodipodi:docname="jquery.svg">
  <defs
     id="defs5498" />
  <sodipodi:namedview
     inkscape:window-height="1056"
     inkscape:window-width="1920"
     inkscape:pageshadow="2"
     inkscape:pageopacity="0.0"
     borderopacity="1.0"
     bordercolor="#666666"
     pagecolor="#ffffff"
     id="base"
     showgrid="false"
     showguides="false"
     inkscape:guide-bbox="true"
     inkscape:zoom="0.70710678"
     inkscape:cx="283.36459"
     inkscape:cy="544.95588"
     inkscape:window-x="0"
     inkscape:window-y="24"
     inkscape:current-layer="layer11"
     inkscape:window-maximized="1">
    <sodipodi:guide
       orientation="0,1"
       position="189.44385,479.26189"
       id="guide7179" />
    <sodipodi:guide
       orientation="1,0"
       position="429.5717,650.94149"
       id="guide7232" />
    <sodipodi:guide
       orientation="0,1"
       position="423.85732,718.7686"
       id="guide7234" />
    <sodipodi:guide
       orientation="0,1"
       position="407.21111,603.48736"
       id="guide7236" />
    <sodipodi:guide
       orientation="1,0"
       position="330.68822,603.48736"
       id="guide7238" />
    <sodipodi:guide
       orientation="1,0"
       position="526.71602,603.48736"
       id="guide7240" />
    <sodipodi:guide
       orientation="0,1"
       position="429.5717,709.07902"
       id="guide7242" />
    <sodipodi:guide
       orientation="0,1"
       position="429.5717,618.89132"
       id="guide7244" />
    <sodipodi:guide
       orientation="1,0"
       position="421.62126,644.23332"
       id="guide7246" />
    <sodipodi:guide
       orientation="1,0"
       position="370.68882,649.20234"
       id="guide7248" />
    <sodipodi:guide
       orientation="1,0"
       position="377.397,646.46938"
       id="guide7250" />
    <sodipodi:guide
       orientation="0,1"
       position="401.99364,699.63788"
       id="guide7252" />
    <sodipodi:guide
       orientation="0,1"
       position="402.73899,694.42041"
       id="guide7254" />
    <sodipodi:guide
       orientation="0,1"
       position="412.67703,632.80457"
       id="guide7258" />
    <sodipodi:guide
       orientation="0,1"
       position="421.62126,626.0964"
       id="guide7260" />
    <sodipodi:guide
       orientation="1,0"
       position="469.5723,641.50036"
       id="guide7262" />
    <sodipodi:guide
       orientation="1,0"
       position="390.5649,658.14657"
       id="guide7264" />
    <sodipodi:guide
       orientation="1,0"
       position="384.10517,643.23951"
       id="guide7266" />
    <sodipodi:guide
       orientation="1,0"
       position="407.45956,632.80457"
       id="guide7268" />
  </sodipodi:namedview>
  <metadata
     id="metadata5594">
    <rdf:RDF>
      <cc:Work
         rdf:about="">
        <dc:format>image/svg+xml</dc:format>
        <dc:type
           rdf:resource="http://purl.org/dc/dcmitype/StillImage" />
        <dc:title></dc:title>
      </cc:Work>
    </rdf:RDF>
  </metadata>
  <g
     inkscape:groupmode="layer"
     id="layer11"
     inkscape:label="Layer"
     style="opacity:1">
    <path
       style="fill:#000000"
       d="m 475.29335,942.56005 c -4.67092,-1.50547 -13.70392,-5.74543 -20.07335,-9.42216 -6.36943,-3.67672 -15.92079,-9.18236 -21.22524,-12.23476 -5.30446,-3.05242 -18.50654,-10.68951 -29.33797,-16.97134 -10.83144,-6.28182 -24.21002,-13.99414 -29.73019,-17.13847 -5.52017,-3.14434 -14.55318,-8.35838 -20.07335,-11.58673 -5.52017,-3.22835 -14.55318,-8.43448 -20.07335,-11.56918 -12.37542,-7.02751 -69.97432,-40.19486 -82.60955,-47.56928 -5.09555,-2.97398 -13.78113,-7.97306 -19.3013,-11.10907 -5.52017,-3.13603 -19.41711,-11.13089 -30.88208,-17.76639 -11.46497,-6.63549 -25.36191,-14.63035 -30.88208,-17.76638 -16.65848,-9.46372 -28.3096,-16.22539 -33.19823,-19.26646 -8.91054,-5.54298 -21.13753,-18.62955 -25.62159,-27.42284 -9.56083,-18.74886 -9.12074,-8.06374 -9.12074,-221.45194 0,-138.61466 0.50226,-197.29262 1.73858,-203.11126 2.94207,-13.84674 10.83422,-27.44679 21.82294,-37.60616 8.9222,-8.2488 51.90976,-34.14633 108.376,-65.29028 5.14139,-2.83573 10.04282,-5.71478 10.89208,-6.39789 0.84926,-0.6831 5.36576,-3.31808 10.03667,-5.8555 4.67092,-2.53741 22.04209,-12.44312 38.6026,-22.01267 16.56051,-9.56954 44.00696,-25.38626 60.9921,-35.14825 57.75109,-33.191702 69.47413,-39.970735 82.60956,-47.770374 30.16441,-17.911203 45.00749,-23.577261 61.76415,-23.577261 16.65284,0 29.71064,4.970501 60.9921,23.216837 21.05194,12.279516 52.82643,30.621648 64.08031,36.990988 11.12172,6.29455 61.17465,35.13545 91.10213,52.49378 10.61571,6.15725 23.12295,13.27074 27.79387,15.80773 4.67091,2.537 9.18741,5.17162 10.03667,5.85472 0.84926,0.68311 5.76893,3.56216 10.93261,6.39789 5.16369,2.83573 29.4128,16.62084 53.88694,30.63358 48.01142,27.48909 60.10611,36.5712 68.57524,51.49429 9.9732,17.57334 9.43482,4.87443 9.43482,222.53998 0,216.76869 0.41924,206.55554 -9.17576,223.53205 -5.98331,10.58635 -18.36335,22.46847 -31.19842,29.94367 -5.64528,3.28784 -12.59374,7.33969 -15.44104,9.00414 -2.84728,1.66444 -8.99854,5.19313 -13.66946,7.84153 -4.67091,2.6484 -17.873,10.25472 -29.33797,16.90294 -11.46497,6.64821 -25.36191,14.6535 -30.88208,17.78953 -5.52017,3.13601 -14.55318,8.34324 -20.07335,11.57159 -9.27869,5.42644 -16.07146,9.33279 -40.91875,23.53132 -5.09554,2.91175 -13.78112,7.97463 -19.3013,11.25085 -5.52017,3.27622 -14.55317,8.46316 -20.07335,11.52654 -5.52017,3.06336 -15.24802,8.65005 -21.61745,12.41485 -6.36943,3.76479 -15.40244,8.97674 -20.07335,11.58209 -4.67091,2.60537 -13.70392,7.81595 -20.07335,11.57908 -6.36943,3.76314 -15.02106,8.67503 -19.22585,10.91531 -4.20478,2.24027 -9.41613,5.28861 -11.58078,6.77409 -10.02142,6.87711 -41.56473,23.60159 -49.65293,26.3263 -11.92267,4.01646 -36.98002,4.08207 -49.24516,0.12894 z M 543.19771,760.14254 C 614.74059,748.01021 682.07763,703.7966 720.55446,643.68981 l 7.84433,-12.25404 -4.95455,-3.03487 c -6.54694,-4.01029 -34.82566,-20.40368 -72.89511,-42.25785 -16.98514,-9.75049 -31.54218,-18.35842 -32.34897,-19.12873 -2.60148,-2.48381 -3.88231,-1.54663 -9.16512,6.706 -2.85411,4.4586 -9.95177,12.9138 -15.77256,18.78935 -62.76788,63.35832 -166.22058,48.14661 -209.16847,-30.75616 -11.90523,-21.87196 -18.0033,-56.8054 -13.96457,-79.99748 4.67802,-26.8631 14.48212,-47.26894 34.13245,-71.04181 4.99043,-6.03742 22.9607,-19.48451 33.97297,-25.4219 6.36943,-3.43413 17.48697,-8.18234 24.70566,-10.55157 12.0789,-3.96439 15.03224,-4.30769 37.05849,-4.30769 22.03838,0 24.97293,0.34159 37.05849,4.31359 30.34209,9.97218 57.95535,30.56226 72.45914,54.02989 1.89961,3.07362 3.68661,5.58841 3.97113,5.58841 0.2845,0 8.04486,-4.39586 17.24523,-9.76857 9.20036,-5.37271 26.8032,-15.552 39.11743,-22.62065 12.31423,-7.06864 25.51632,-14.7278 29.33797,-17.02036 3.82166,-2.29255 11.63869,-6.84941 17.37117,-10.12636 5.73249,-3.27694 10.4227,-6.59814 10.4227,-7.38044 0,-2.15861 -14.84123,-23.58393 -24.77531,-35.76653 -38.20298,-46.84993 -97.60497,-80.69442 -160.3901,-91.38281 -19.99285,-3.40353 -63.64841,-3.40753 -83.50865,-0.008 -107.13672,18.34077 -188.95094,94.77379 -215.17459,201.02183 -6.16981,24.99765 -7.68146,70.72879 -3.31089,100.163 4.09228,27.56011 17.74134,67.44627 29.50774,86.22943 18.66579,29.79696 24.43039,37.42432 42.16918,55.79576 42.99938,44.53293 100.16081,72.16556 163.02165,78.80694 10.57333,1.1171 58.16821,-0.38402 68.67641,-2.16601 z m 191.83316,-230.42918 0.44397,-14.28296 14.66899,-0.77205 c 8.06794,-0.42463 14.49528,-1.29319 14.28296,-1.93013 -0.21231,-0.63694 -0.38602,-7.06428 -0.38602,-14.28296 l 0,-13.12489 -14.66899,0 -14.66899,0 0,-14.66898 0,-14.66899 -14.61103,0 -14.61105,0 -0.44397,14.28296 -0.44397,14.28296 -14.28296,0.44398 -14.28296,0.44396 0,14.5531 0,14.5531 14.28296,0.44396 14.28296,0.44398 0.44397,14.28296 0.44397,14.28296 14.5531,0 14.5531,0 0.44396,-14.28296 z m 109.63137,0 0.44398,-14.28296 15.05501,-0.44194 15.05501,-0.44194 0,-14.55716 0,-14.55716 -15.05501,-0.44194 -15.05501,-0.44194 -0.44398,-14.28296 -0.44396,-14.28296 -14.61105,0 -14.61104,0 0,14.66899 0,14.66898 -14.66898,0 -14.66899,0 0,14.61104 0,14.61105 14.28296,0.44396 14.28296,0.44398 0.44398,14.28296 0.44396,14.28296 14.5531,0 14.5531,0 0.44396,-14.28296 z"
       id="path8131"
       inkscape:connector-curvature="0" />
  </g>
</svg>
