<?xml version="1.0" encoding="UTF-8" standalone="no"?>
<!-- Created with Inkscape (http://www.inkscape.org/) -->

<svg
   xmlns:dc="http://purl.org/dc/elements/1.1/"
   xmlns:cc="http://creativecommons.org/ns#"
   xmlns:rdf="http://www.w3.org/1999/02/22-rdf-syntax-ns#"
   xmlns:svg="http://www.w3.org/2000/svg"
   xmlns="http://www.w3.org/2000/svg"
   xmlns:sodipodi="http://sodipodi.sourceforge.net/DTD/sodipodi-0.dtd"
   xmlns:inkscape="http://www.inkscape.org/namespaces/inkscape"
   width="1000"
   height="1000"
   id="svg4955"
   version="1.1"
   inkscape:version="0.48.4 r9939"
   sodipodi:docname="css.svg">
  <defs
     id="defs5498" />
  <sodipodi:namedview
     inkscape:window-height="1056"
     inkscape:window-width="1920"
     inkscape:pageshadow="2"
     inkscape:pageopacity="0.0"
     borderopacity="1.0"
     bordercolor="#666666"
     pagecolor="#ffffff"
     id="base"
     showgrid="false"
     showguides="false"
     inkscape:guide-bbox="true"
     inkscape:zoom="0.5"
     inkscape:cx="1007.0352"
     inkscape:cy="376.55099"
     inkscape:window-x="0"
     inkscape:window-y="24"
     inkscape:current-layer="g9397"
     inkscape:window-maximized="1">
    <sodipodi:guide
       orientation="0,1"
       position="189.44385,479.26189"
       id="guide7179" />
    <sodipodi:guide
       orientation="1,0"
       position="429.5717,650.94149"
       id="guide7232" />
    <sodipodi:guide
       orientation="0,1"
       position="423.85732,718.7686"
       id="guide7234" />
    <sodipodi:guide
       orientation="0,1"
       position="407.21111,603.48736"
       id="guide7236" />
    <sodipodi:guide
       orientation="1,0"
       position="330.68822,603.48736"
       id="guide7238" />
    <sodipodi:guide
       orientation="1,0"
       position="526.71602,603.48736"
       id="guide7240" />
    <sodipodi:guide
       orientation="0,1"
       position="429.5717,709.07902"
       id="guide7242" />
    <sodipodi:guide
       orientation="0,1"
       position="429.5717,618.89132"
       id="guide7244" />
    <sodipodi:guide
       orientation="1,0"
       position="421.62126,644.23332"
       id="guide7246" />
    <sodipodi:guide
       orientation="1,0"
       position="370.68882,649.20234"
       id="guide7248" />
    <sodipodi:guide
       orientation="1,0"
       position="377.397,646.46938"
       id="guide7250" />
    <sodipodi:guide
       orientation="0,1"
       position="401.99364,699.63788"
       id="guide7252" />
    <sodipodi:guide
       orientation="0,1"
       position="402.73899,694.42041"
       id="guide7254" />
    <sodipodi:guide
       orientation="0,1"
       position="412.67703,632.80457"
       id="guide7258" />
    <sodipodi:guide
       orientation="0,1"
       position="421.62126,626.0964"
       id="guide7260" />
    <sodipodi:guide
       orientation="1,0"
       position="469.5723,641.50036"
       id="guide7262" />
    <sodipodi:guide
       orientation="1,0"
       position="390.5649,658.14657"
       id="guide7264" />
    <sodipodi:guide
       orientation="1,0"
       position="384.10517,643.23951"
       id="guide7266" />
    <sodipodi:guide
       orientation="1,0"
       position="407.45956,632.80457"
       id="guide7268" />
  </sodipodi:namedview>
  <metadata
     id="metadata5594">
    <rdf:RDF>
      <cc:Work
         rdf:about="">
        <dc:format>image/svg+xml</dc:format>
        <dc:type
           rdf:resource="http://purl.org/dc/dcmitype/StillImage" />
        <dc:title />
      </cc:Work>
    </rdf:RDF>
  </metadata>
  <g
     inkscape:groupmode="layer"
     id="layer13"
     inkscape:label="Layer#1">
    <g
       id="g9397"
       transform="translate(38.074989,310.11877)">
      <path
         style="fill:#000000"
         d="M 310.63408,565.54339 C 228.69433,542.7441 161.47134,523.93097 161.24964,523.73646 160.91133,523.4397 94.214385,-220.62181 94.098431,-225.39261 c -0.03716,-1.53011 18.075999,-1.60936 367.816109,-1.60936 293.68079,0 367.85154,0.23179 367.83711,1.14954 -0.0589,3.71258 -66.92262,749.3725 -67.21673,749.59211 -0.793,0.59243 -298.48559,82.80789 -300.62038,83.02409 -1.2645,0.12811 -69.3407,-18.42108 -151.28046,-41.22038 z m 246.91127,-150.6798 c 51.33246,-14.21104 93.37274,-25.91242 93.42289,-26.00307 0.0501,-0.0906 3.70687,-40.92778 8.12603,-90.74917 4.41918,-49.82139 8.44057,-94.51579 8.93644,-99.3209 0.82557,-7.99887 24.71298,-276.797557 24.71298,-278.087846 0,-0.309367 -103.66619,-0.562487 -230.36932,-0.562487 -183.67252,0 -230.37309,0.233017 -230.38785,1.149546 -0.0359,2.229047 7.49178,86.7035067 7.90822,88.745078 l 0.42206,2.069174 176.00568,0 176.00565,0 -0.40608,3.448647 c -0.72586,6.164576 -7.69564,85.887778 -7.69564,88.025958 l 0,2.07631 -115.64449,0.67815 c -63.60446,0.37296 -115.70631,0.74008 -115.78188,0.81578 -0.20458,0.20504 7.9616,90.11899 8.20516,90.3432 0.11495,0.10574 48.43011,0.54469 107.36705,0.97533 l 107.15808,0.78297 -5.31942,59.25129 c -2.92569,32.5882 -5.41783,59.3145 -5.53809,59.39177 -0.12027,0.0773 -23.34928,6.36475 -51.62009,13.9722 l -51.40145,13.83169 -50.61055,-13.65505 c -27.83578,-7.51028 -50.90644,-13.97528 -51.2681,-14.36665 -0.36168,-0.39136 -1.94824,-15.60971 -3.52567,-33.81855 -1.57746,-18.20882 -3.08965,-34.45193 -3.3604,-36.09579 l -0.49229,-2.98882 -45.9511,0 -45.9511,0 0.48644,3.44864 c 0.26753,1.89676 3.21005,34.2795 6.53893,71.96168 3.32887,37.68218 6.11518,68.57349 6.19181,68.6474 0.61203,0.59026 188.87767,52.39466 189.58475,52.16737 0.50581,-0.16259 42.91891,-11.92281 94.25135,-26.13385 z"
         id="path9450"
         inkscape:connector-curvature="0"
         sodipodi:nodetypes="sccscccsscscsscscccsscsccscscscscsscccsssss" />
    </g>
  </g>
</svg>
