<?xml version="1.0" encoding="UTF-8" standalone="no"?>
<!-- Created with Inkscape (http://www.inkscape.org/) -->

<svg
   xmlns:dc="http://purl.org/dc/elements/1.1/"
   xmlns:cc="http://creativecommons.org/ns#"
   xmlns:rdf="http://www.w3.org/1999/02/22-rdf-syntax-ns#"
   xmlns:svg="http://www.w3.org/2000/svg"
   xmlns="http://www.w3.org/2000/svg"
   xmlns:sodipodi="http://sodipodi.sourceforge.net/DTD/sodipodi-0.dtd"
   xmlns:inkscape="http://www.inkscape.org/namespaces/inkscape"
   width="1000"
   height="1000"
   id="svg4955"
   version="1.1"
   inkscape:version="0.48.4 r9939"
   sodipodi:docname="grape.svg">
  <defs
     id="defs5498" />
  <sodipodi:namedview
     inkscape:window-height="1056"
     inkscape:window-width="1920"
     inkscape:pageshadow="2"
     inkscape:pageopacity="0.0"
     borderopacity="1.0"
     bordercolor="#666666"
     pagecolor="#ffffff"
     id="base"
     showgrid="false"
     showguides="false"
     inkscape:guide-bbox="true"
     inkscape:zoom="0.50311741"
     inkscape:cx="-85.107974"
     inkscape:cy="308.66425"
     inkscape:window-x="0"
     inkscape:window-y="24"
     inkscape:current-layer="layer11"
     inkscape:window-maximized="1">
    <sodipodi:guide
       orientation="0,1"
       position="189.44385,479.26189"
       id="guide7179" />
    <sodipodi:guide
       orientation="1,0"
       position="429.5717,650.94149"
       id="guide7232" />
    <sodipodi:guide
       orientation="0,1"
       position="423.85732,718.7686"
       id="guide7234" />
    <sodipodi:guide
       orientation="0,1"
       position="407.21111,603.48736"
       id="guide7236" />
    <sodipodi:guide
       orientation="1,0"
       position="330.68822,603.48736"
       id="guide7238" />
    <sodipodi:guide
       orientation="1,0"
       position="526.71602,603.48736"
       id="guide7240" />
    <sodipodi:guide
       orientation="0,1"
       position="429.5717,709.07902"
       id="guide7242" />
    <sodipodi:guide
       orientation="0,1"
       position="429.5717,618.89132"
       id="guide7244" />
    <sodipodi:guide
       orientation="1,0"
       position="421.62126,644.23332"
       id="guide7246" />
    <sodipodi:guide
       orientation="1,0"
       position="370.68882,649.20234"
       id="guide7248" />
    <sodipodi:guide
       orientation="1,0"
       position="377.397,646.46938"
       id="guide7250" />
    <sodipodi:guide
       orientation="0,1"
       position="401.99364,699.63788"
       id="guide7252" />
    <sodipodi:guide
       orientation="0,1"
       position="402.73899,694.42041"
       id="guide7254" />
    <sodipodi:guide
       orientation="0,1"
       position="412.67703,632.80457"
       id="guide7258" />
    <sodipodi:guide
       orientation="0,1"
       position="421.62126,626.0964"
       id="guide7260" />
    <sodipodi:guide
       orientation="1,0"
       position="469.5723,641.50036"
       id="guide7262" />
    <sodipodi:guide
       orientation="1,0"
       position="390.5649,658.14657"
       id="guide7264" />
    <sodipodi:guide
       orientation="1,0"
       position="384.10517,643.23951"
       id="guide7266" />
    <sodipodi:guide
       orientation="1,0"
       position="407.45956,632.80457"
       id="guide7268" />
  </sodipodi:namedview>
  <metadata
     id="metadata5594">
    <rdf:RDF>
      <cc:Work
         rdf:about="">
        <dc:format>image/svg+xml</dc:format>
        <dc:type
           rdf:resource="http://purl.org/dc/dcmitype/StillImage" />
        <dc:title></dc:title>
      </cc:Work>
    </rdf:RDF>
  </metadata>
  <g
     inkscape:groupmode="layer"
     id="layer11"
     inkscape:label="Layer">
    <path
       style="fill:#000000"
       d="m 243.39227,894.4807 c 0,-0.23668 37.68258,-116.22197 61.42389,-189.06002 3.30717,-10.14633 12.35837,-37.97553 20.11376,-61.84257 7.7554,-23.86705 14.58009,-44.86339 15.16598,-46.65854 0.58589,-1.79515 0.9736,-3.4932 0.86159,-3.77345 -0.11202,-0.28024 -57.82642,-42.30045 -128.25421,-93.37823 L 84.652722,406.89919 243.13963,406.79382 c 87.16781,-0.058 158.62211,-0.24662 158.78735,-0.41927 0.16525,-0.17264 4.18305,-12.24765 8.92845,-26.83333 4.7454,-14.58569 12.48142,-38.3584 17.19115,-52.82824 4.70974,-14.46985 22.64347,-69.60911 39.85274,-122.53169 17.20928,-52.92259 31.54144,-96.97757 31.84926,-97.89997 0.36335,-1.0888 0.64401,-1.45647 0.80006,-1.04817 0.13224,0.3459 4.19696,12.79827 9.03276,27.67194 4.83574,14.87366 21.65093,66.56987 37.36701,114.88046 15.7161,48.31059 32.44136,99.7238 37.16731,114.25156 4.7259,14.52777 9.93933,30.5175 11.58536,35.53273 l 2.99276,9.11862 158.32671,0.10536 158.32669,0.10537 -127.62781,92.65906 c -70.19533,50.96248 -127.8034,92.86664 -128.01794,93.12039 -0.25194,0.29793 2.04739,7.94528 6.49225,21.5925 3.78532,11.62213 23.51499,72.26136 43.84376,134.75386 20.32877,62.49242 39.29986,120.78259 42.15799,129.53367 2.85813,8.75108 5.14216,15.9655 5.07566,16.032 -0.0665,0.0668 -57.84123,-41.75896 -128.38827,-92.94552 -70.54705,-51.18655 -128.50006,-93.02232 -128.78445,-92.96842 -0.28443,0.054 -57.15818,41.22871 -126.38614,91.49939 -144.81872,105.16179 -130.32002,94.66993 -130.32002,94.30458 z"
       id="path7641"
       inkscape:connector-curvature="0" />
  </g>
</svg>
