<?xml version="1.0" encoding="UTF-8" standalone="no"?>
<!-- Created with Inkscape (http://www.inkscape.org/) -->

<svg
   xmlns:dc="http://purl.org/dc/elements/1.1/"
   xmlns:cc="http://creativecommons.org/ns#"
   xmlns:rdf="http://www.w3.org/1999/02/22-rdf-syntax-ns#"
   xmlns:svg="http://www.w3.org/2000/svg"
   xmlns="http://www.w3.org/2000/svg"
   xmlns:sodipodi="http://sodipodi.sourceforge.net/DTD/sodipodi-0.dtd"
   xmlns:inkscape="http://www.inkscape.org/namespaces/inkscape"
   width="1000"
   height="1000"
   id="svg4955"
   version="1.1"
   inkscape:version="0.48.4 r9939"
   sodipodi:docname="express.svg">
  <defs
     id="defs5498" />
  <sodipodi:namedview
     inkscape:window-height="1056"
     inkscape:window-width="1920"
     inkscape:pageshadow="2"
     inkscape:pageopacity="0.0"
     borderopacity="1.0"
     bordercolor="#666666"
     pagecolor="#ffffff"
     id="base"
     showgrid="false"
     showguides="true"
     inkscape:guide-bbox="true"
     inkscape:zoom="0.71151547"
     inkscape:cx="332.90931"
     inkscape:cy="599.48578"
     inkscape:window-x="0"
     inkscape:window-y="24"
     inkscape:current-layer="layer6"
     inkscape:window-maximized="1" />
  <metadata
     id="metadata5594">
    <rdf:RDF>
      <cc:Work
         rdf:about="">
        <dc:format>image/svg+xml</dc:format>
        <dc:type
           rdf:resource="http://purl.org/dc/dcmitype/StillImage" />
        <dc:title></dc:title>
      </cc:Work>
    </rdf:RDF>
  </metadata>
  <g
     inkscape:groupmode="layer"
     id="layer6"
     inkscape:label="Layer#2"
     style="display:inline">
    <path
       style="fill:#000000"
       d="m 69.87882,750.06055 c 36.80491,-105.97479 86.00441,-211.50467 128.67973,-276.01003 26.27209,-39.71123 66.07058,-84.51824 96.69816,-108.86731 l 17.47589,-13.89342 0.54475,-37.65816 c 0.30299,-20.94921 3.37158,-50.67523 6.91574,-66.99562 l 6.37092,-29.33746 17.29071,16.97765 c 9.50988,9.3377 24.63734,27.7042 33.61657,40.81443 8.97922,13.11023 17.31525,23.83678 18.52449,23.83678 1.20925,0 4.13941,-5.36709 6.51147,-11.92687 2.37203,-6.55977 13.19092,-25.23192 24.04192,-41.49365 22.50782,-33.73099 21.97101,-33.04191 24.08963,-30.9233 4.81061,4.81062 16.87418,74.06981 18.95285,108.81197 l 2.41479,40.35938 24.70426,13.36022 c 13.58736,7.34812 45.23501,20.11227 70.32815,28.36478 56.76473,18.66847 67.03047,25.07629 68.50687,42.76166 0.6028,7.22099 2.26315,13.12906 3.68968,13.12906 1.42654,0 27.94837,14.46995 58.93738,32.15542 78.25244,44.65883 128.18068,68.77897 167.94015,81.13129 39.19745,12.1777 58.20709,26.00498 70.41162,51.21621 12.82077,26.48418 5.14737,64.84755 -18.31586,91.5707 -23.35224,26.59673 -46.04952,29.29378 -96.177,11.42845 -30.6892,-10.93755 -34.52339,-11.46546 -81.64076,-11.24069 -38.74133,0.1847 -61.28334,2.44047 -104.17556,10.42413 -43.73427,8.14042 -65.02854,10.22238 -105.94124,10.35784 -46.9728,0.15573 -52.47369,-0.50749 -66.55551,-8.02237 -8.44278,-4.50557 -16.10201,-7.4405 -17.02045,-6.52202 -0.91848,0.91847 -2.57264,13.60561 -3.67591,28.19368 -1.10331,14.58804 -3.08374,28.26756 -4.40102,30.39896 -1.69008,2.73456 -44.5978,3.60352 -145.77596,2.9522 l -143.38096,-0.923 15.26077,-60.03337 c 31.09721,-122.33153 78.18902,-239.60397 119.82566,-298.40118 26.36323,-37.22885 18.11599,-32.22094 -13.37141,8.11944 -56.98057,73.00118 -110.98239,185.23862 -151.10199,314.05057 l -11.80253,37.8943 -25.483493,0.0678 -25.483531,0.0678 12.571024,-36.19659 z M 626.18609,712.1214 c 25.90981,-3.87179 54.25975,-7.16173 62.99991,-7.31097 8.74015,-0.14937 19.06942,-1.76247 22.95393,-3.58501 4.48884,-2.10608 -9.66774,-2.33735 -38.84512,-0.63463 -25.24933,1.47347 -72.92289,2.67905 -105.94125,2.67905 l -60.03337,0 -23.7426,-11.24736 c -13.05842,-6.18605 -31.94973,-18.899 -41.98067,-28.251 l -18.23803,-17.00364 7.2521,14.28423 c 14.08574,27.74418 42.03364,47.14711 80.24057,55.70727 17.75,3.97685 72.38821,1.77967 115.33453,-4.63794 z m 272.69457,-45.46454 c 5.68732,-6.2844 5.47113,-6.69598 -4.57207,-8.70463 -6.58654,-1.31731 -12.54266,-5.79837 -15.87498,-11.94343 l -5.33333,-9.83509 -0.14125,11.47697 c -0.0851,6.91888 2.66357,14.28194 6.92135,18.53972 8.73881,8.73881 11.45373,8.80545 19.00042,0.46646 z M 803.95568,591.31307 C 769.16578,579.18813 728.457,560.36933 694.48306,540.70624 673.11824,528.34092 649.8332,515.80436 642.73849,512.84723 c -12.52229,-5.21948 -13.06432,-5.12502 -18.53972,3.23152 -3.10213,4.73448 -5.64027,9.20711 -5.64027,9.93913 0,0.73201 6.75375,3.35205 15.00834,5.82224 8.25459,2.4702 24.27407,9.16586 35.59887,14.87924 33.02327,16.66029 79.73022,34.66952 108.30466,41.76003 28.86518,7.16269 43.35448,8.71289 26.48531,2.83368 z M 570.00209,494.09626 c 12.49178,-11.25742 7.88592,-17.90026 -14.1255,-20.37275 -11.16797,-1.25445 -28.251,-3.61196 -37.96228,-5.23886 -9.71128,-1.62691 -18.34817,-2.27481 -19.19309,-1.43978 -3.22814,3.19024 26.64991,30.01672 36.7946,33.03661 12.88122,3.83451 26.14404,1.53272 34.48627,-5.98522 z M 372.41566,349.2495 c -14.10604,-13.11143 -29.3044,-38.11353 -29.3044,-48.20729 0,-2.87616 -1.82569,-6.35768 -4.05706,-7.73675 -2.9731,-1.83748 -3.3928,2.50028 -1.57083,16.235 4.55382,34.32818 18.07037,50.40388 44.17775,52.54206 2.75098,0.2253 -1.40944,-5.54956 -9.24546,-12.83302 z"
       id="path7143"
       inkscape:connector-curvature="0"
       sodipodi:nodetypes="csscsscssssssscssssssssssssscssscsssscccccscssscsscssscsscssccsssssssssssscssssssss" />
  </g>
  <g
     inkscape:groupmode="layer"
     id="layer5"
     inkscape:label="Layer#1"
     style="display:inline" />
</svg>
