<?xml version="1.0" encoding="UTF-8" standalone="no"?>
<!-- Created with Inkscape (http://www.inkscape.org/) -->

<svg
   xmlns:dc="http://purl.org/dc/elements/1.1/"
   xmlns:cc="http://creativecommons.org/ns#"
   xmlns:rdf="http://www.w3.org/1999/02/22-rdf-syntax-ns#"
   xmlns:svg="http://www.w3.org/2000/svg"
   xmlns="http://www.w3.org/2000/svg"
   xmlns:sodipodi="http://sodipodi.sourceforge.net/DTD/sodipodi-0.dtd"
   xmlns:inkscape="http://www.inkscape.org/namespaces/inkscape"
   width="1000"
   height="1000"
   id="svg4955"
   version="1.1"
   inkscape:version="0.48.4 r9939"
   sodipodi:docname="googlecloud.svg">
  <defs
     id="defs5498" />
  <sodipodi:namedview
     inkscape:window-height="1056"
     inkscape:window-width="1920"
     inkscape:pageshadow="2"
     inkscape:pageopacity="0.0"
     borderopacity="1.0"
     bordercolor="#666666"
     pagecolor="#ffffff"
     id="base"
     showgrid="false"
     showguides="false"
     inkscape:guide-bbox="true"
     inkscape:zoom="0.53319984"
     inkscape:cx="151.79069"
     inkscape:cy="616.81789"
     inkscape:window-x="0"
     inkscape:window-y="24"
     inkscape:current-layer="g9397"
     inkscape:window-maximized="1">
    <sodipodi:guide
       orientation="0,1"
       position="189.44385,479.26189"
       id="guide7179" />
    <sodipodi:guide
       orientation="1,0"
       position="429.5717,650.94149"
       id="guide7232" />
    <sodipodi:guide
       orientation="0,1"
       position="423.85732,718.7686"
       id="guide7234" />
    <sodipodi:guide
       orientation="0,1"
       position="407.21111,603.48736"
       id="guide7236" />
    <sodipodi:guide
       orientation="1,0"
       position="330.68822,603.48736"
       id="guide7238" />
    <sodipodi:guide
       orientation="1,0"
       position="526.71602,603.48736"
       id="guide7240" />
    <sodipodi:guide
       orientation="0,1"
       position="429.5717,709.07902"
       id="guide7242" />
    <sodipodi:guide
       orientation="0,1"
       position="429.5717,618.89132"
       id="guide7244" />
    <sodipodi:guide
       orientation="1,0"
       position="421.62126,644.23332"
       id="guide7246" />
    <sodipodi:guide
       orientation="1,0"
       position="370.68882,649.20234"
       id="guide7248" />
    <sodipodi:guide
       orientation="1,0"
       position="377.397,646.46938"
       id="guide7250" />
    <sodipodi:guide
       orientation="0,1"
       position="401.99364,699.63788"
       id="guide7252" />
    <sodipodi:guide
       orientation="0,1"
       position="402.73899,694.42041"
       id="guide7254" />
    <sodipodi:guide
       orientation="0,1"
       position="412.67703,632.80457"
       id="guide7258" />
    <sodipodi:guide
       orientation="0,1"
       position="421.62126,626.0964"
       id="guide7260" />
    <sodipodi:guide
       orientation="1,0"
       position="469.5723,641.50036"
       id="guide7262" />
    <sodipodi:guide
       orientation="1,0"
       position="390.5649,658.14657"
       id="guide7264" />
    <sodipodi:guide
       orientation="1,0"
       position="384.10517,643.23951"
       id="guide7266" />
    <sodipodi:guide
       orientation="1,0"
       position="407.45956,632.80457"
       id="guide7268" />
    <sodipodi:guide
       orientation="0,1"
       position="562.25,301.75"
       id="guide9656" />
    <sodipodi:guide
       orientation="0,1"
       position="304.625,414.0625"
       id="guide9658" />
    <sodipodi:guide
       orientation="0,1"
       position="574.5,288.25"
       id="guide9660" />
    <sodipodi:guide
       orientation="0,1"
       position="274,595.875"
       id="guide9707" />
    <sodipodi:guide
       orientation="0,1"
       position="278.41012,505.92896"
       id="guide9709" />
  </sodipodi:namedview>
  <metadata
     id="metadata5594">
    <rdf:RDF>
      <cc:Work
         rdf:about="">
        <dc:format>image/svg+xml</dc:format>
        <dc:type
           rdf:resource="http://purl.org/dc/dcmitype/StillImage" />
        <dc:title></dc:title>
      </cc:Work>
    </rdf:RDF>
  </metadata>
  <g
     inkscape:groupmode="layer"
     id="layer13"
     inkscape:label="Layer#1">
    <g
       id="g9397"
       transform="translate(38.074989,310.11877)">
      <path
         style="fill:#000000"
         d="M 479.85271,406.06335 C 417.62023,384.05003 326.79552,370.79734 253.04429,372.9686 c -43.56893,1.28268 -90.98438,7.31725 -119.19858,15.1704 -16.27644,4.5304 -18.76274,5.16492 -18.76274,4.78839 0,-0.20991 4.54108,-2.94155 10.09128,-6.0703 33.90766,-19.11443 74.26913,-32.0023 113.75449,-36.3231 16.00011,-1.75086 56.56755,-1.46933 72.10516,0.50039 43.7295,5.54366 81.53413,15.43808 123.97958,32.44859 16.13136,6.46483 56.00789,25.26024 53.66875,25.29623 -0.60703,0.009 -4.58031,-1.21279 -8.82952,-2.71585 z m 138.06731,-3.72626 c -59.22921,-3.34053 -127.2405,-18.15196 -200.97767,-43.76871 -70.24805,-24.4046 -80.09637,-27.15022 -108.37825,-30.21486 -17.61392,-1.90865 -55.25199,-0.82612 -74.28255,2.13647 -35.39136,5.50958 -71.40202,16.91137 -106.82122,33.82203 -8.21797,3.92362 -15.12141,6.95423 -15.34097,6.73467 -0.21956,-0.21956 2.97108,-3.57447 7.09031,-7.45535 37.32362,-35.16407 90.40853,-63.58884 136.59385,-73.14032 20.88399,-4.31898 34.29023,-5.47064 55.73637,-4.78808 28.9267,0.92067 43.64199,4.01644 85.53602,17.99494 13.96169,4.65849 44.50633,15.65539 67.87698,24.43753 72.77087,27.34561 77.29207,28.99624 97.67661,35.66019 31.43273,10.27574 48.51014,14.56633 77.25834,19.41065 15.7265,2.65005 53.49975,3.2167 69.93673,1.04916 30.97116,-4.08417 66.94329,-15.2539 91.75395,-28.4906 21.30465,-11.36619 41.16434,-27.81857 51.64632,-42.7854 6.88007,-9.82384 7.83388,-10.56835 3.53501,-2.75923 -8.35318,15.17394 -20.19699,30.76481 -30.80335,40.54848 -38.08036,35.12694 -87.04619,50.15752 -169.5133,52.03391 -12.14059,0.27625 -29.47603,0.0848 -38.52318,-0.42548 z m 25.83074,-35.98848 c -26.23347,-4.70511 -38.66463,-8.26364 -59.59929,-17.06082 -17.56131,-7.37962 -54.08084,-27.15977 -54.08084,-29.29192 0,-0.25933 2.5167,0.8038 5.59268,2.36252 15.17191,7.68819 48.53316,18.36576 72.62095,23.24299 24.06399,4.8724 58.53664,5.58586 79.09862,1.63706 27.84705,-5.34787 47.53596,-12.25911 60.98483,-21.40703 l 5.83663,-3.97008 -2.34375,3.2915 c -3.9518,5.54978 -16.70431,17.63175 -23.45044,22.21737 -9.76105,6.63498 -23.32673,12.71488 -35.54516,15.93069 -9.29039,2.44518 -13.83131,2.95532 -28.69595,3.22372 -9.71248,0.17538 -18.9007,0.0961 -20.41828,-0.176 z m -532.53071,-26.2928 c -21.022115,-15.7703 -37.836654,-40.69154 -44.729312,-66.29446 -6.232736,-23.15162 -4.768856,-50.88647 3.90318,-73.95023 12.16682,-32.3583 39.287452,-59.07596 72.833162,-71.75098 8.47187,-3.20103 26.95996,-7.16289 33.42578,-7.16289 l 4.0997,0 0,17.93497 c 0,9.86423 0.24833,20.90537 0.55184,24.53586 l 0.55185,6.60087 -6.62214,0.81971 c -25.28987,3.13048 -49.00079,20.02853 -60.58367,43.17618 -11.94304,23.8674 -10.9082,52.79398 2.66303,74.43878 8.12751,12.96257 18.43231,23.10312 29.06447,28.60122 3.10981,1.60816 3.07255,1.50207 -0.90391,-2.57368 -8.42084,-8.6311 -14.79924,-21.12023 -17.16948,-33.61848 -2.50961,-13.23316 -0.73857,-33.91473 4.27691,-49.94412 l 2.02381,-6.46806 0.65661,14.19389 c 1.45128,31.37224 12.32297,55.54776 31.53084,70.11554 l 3.69919,2.80559 -8.11396,4.67702 c -6.66334,3.84085 -17.04605,10.91872 -41.6294,28.37867 -1.4877,1.05663 -3.15251,0.2677 -9.5285,-4.5154 z m 602.31712,-63.79209 0.29794,-23.47545 23.17751,0 23.1775,0 0,23.1775 0,23.17751 -23.47544,0.29794 -23.47544,0.29793 z m -144.83737,-44.44557 0,-22.62566 22.62566,0 22.62566,0 0,22.62566 0,22.62566 -22.62566,0 -22.62566,0 z m 96.02108,-4.41476 0,-22.62566 22.07382,0 22.07381,0 0,22.62566 0,22.62566 -22.07381,0 -22.07382,0 z m 116.14984,-17.93497 0.28952,-40.56063 40.00878,-0.28969 40.00879,-0.2897 0,40.85033 0,40.85032 -40.29828,0 -40.29833,0 z M 232.07417,181.80515 c -7.69513,-4.74759 -18.09899,-9.02734 -25.09382,-10.32262 -11.18983,-2.0721 -11.00932,-1.89825 -12.05506,-11.61066 -1.40938,-13.08988 -0.82301,-37.10935 1.20742,-49.45968 6.67799,-40.619593 31.11232,-80.166913 65.18926,-105.5097572 31.6856,-23.5644238 70.08299,-35.3741338 109.81722,-33.7760008 33.86666,1.362142 65.05001,12.200417 93.78082,32.5950408 18.55913,13.1742362 40.8353,38.9349702 50.88671,58.8466962 1.77486,3.515961 3.227,6.655155 3.227,6.975976 0,0.320832 -12.04402,0.582009 -26.76449,0.580398 l -26.7645,-0.0033 -8.27768,-8.44639 C 437.71815,41.768314 412.1456,28.248855 385.48716,23.74806 c -10.61942,-1.79289 -33.50165,-1.795782 -44.14762,-0.0055 -18.2191,3.063701 -38.41062,11.425316 -54.08084,22.395703 -7.31426,5.120561 -22.07381,18.233984 -22.07381,19.61193 0,0.542288 3.10413,-0.959162 6.89806,-3.336533 15.77137,-9.882744 32.61972,-13.82271 55.40526,-12.956445 17.78056,0.675977 32.69356,4.003317 52.54625,11.723931 12.31562,4.789488 19.06261,8.67439 12.62669,7.270418 -11.31397,-2.468106 -22.81918,-3.924458 -35.86994,-4.540494 -25.38667,-1.198343 -45.88914,2.678226 -65.94627,12.468988 -9.97375,4.868633 -14.14209,7.684016 -21.18239,14.30702 -21.17909,19.92378 -32.17921,48.30422 -32.26188,83.23608 -0.0142,6.04331 -0.1011,10.97839 -0.19295,10.96686 -0.0918,-0.0115 -2.40192,-1.39987 -5.13355,-3.08518 z m 495.55708,-41.59332 0,-22.62566 22.62565,0 22.62566,0 0,22.62566 0,22.62566 -22.62566,0 -22.62565,0 z m -93.07791,19.68248 c -0.40469,-0.40468 -0.73579,-10.33789 -0.73579,-22.07381 l 0,-21.33802 22.62565,0 22.62566,0 0,22.07382 0,22.07381 -21.88986,0 c -12.03943,0 -22.22098,-0.33111 -22.62566,-0.7358 z m -161.87462,-45.06736 0,-30.351494 29.79965,0 29.79964,0 0,30.351494 0,30.35149 -29.79964,0 -29.79965,0 z m 72.84358,-45.803173 0,-39.732861 40.28471,0 40.2847,0 0,39.732861 0,39.732873 -40.2847,0 -40.28471,0 z"
         id="path10037"
         inkscape:connector-curvature="0"
         sodipodi:nodetypes="sssssssscssssssssssssssssssssscsssssscsssscssssscsscssssssscsscssscccccccccccccccccccccccccccccccccccccssssssssccssssssssssssccccccccccccccscccccsccccccccccccccccccc" />
    </g>
  </g>
</svg>
