<?xml version="1.0" encoding="UTF-8" standalone="no"?>
<!-- Created with Inkscape (http://www.inkscape.org/) -->

<svg
   xmlns:dc="http://purl.org/dc/elements/1.1/"
   xmlns:cc="http://creativecommons.org/ns#"
   xmlns:rdf="http://www.w3.org/1999/02/22-rdf-syntax-ns#"
   xmlns:svg="http://www.w3.org/2000/svg"
   xmlns="http://www.w3.org/2000/svg"
   xmlns:sodipodi="http://sodipodi.sourceforge.net/DTD/sodipodi-0.dtd"
   xmlns:inkscape="http://www.inkscape.org/namespaces/inkscape"
   width="1000"
   height="1000"
   id="svg4008"
   version="1.1"
   inkscape:version="0.48.4 r9939"
   sodipodi:docname="django.svg">
  <defs
     id="defs5498" />
  <sodipodi:namedview
     inkscape:window-height="1027"
     inkscape:window-width="958"
     inkscape:pageshadow="2"
     inkscape:pageopacity="0.0"
     borderopacity="1.0"
     bordercolor="#666666"
     pagecolor="#ffffff"
     id="base"
     showgrid="false"
     showguides="true"
     inkscape:guide-bbox="true"
     inkscape:zoom="0.454"
     inkscape:cx="393.17181"
     inkscape:cy="449.33921"
     inkscape:window-x="2880"
     inkscape:window-y="24"
     inkscape:current-layer="layer1"
     inkscape:window-maximized="0">
    <sodipodi:guide
       orientation="horizontal"
       position="200"
       id="guide5596" />
  </sodipodi:namedview>
  <metadata
     id="metadata5594">
    <rdf:RDF>
      <cc:Work
         rdf:about="">
        <dc:format>image/svg+xml</dc:format>
        <dc:type
           rdf:resource="http://purl.org/dc/dcmitype/StillImage" />
        <dc:title></dc:title>
      </cc:Work>
    </rdf:RDF>
  </metadata>
  <g
     inkscape:label="Layer 1"
     inkscape:groupmode="layer"
     id="layer1">
    <path
       style="fill:#0c0000;fill-opacity:1"
       d="m 15.097797,500.00001 0,-220.6306 484.902233,0 484.90217,0 0,220.6306 0,220.63058 -484.90217,0 -484.902233,0 0,-220.63058 z M 683.45478,651.41128 c 10.43521,-1.71469 19.20512,-4.56079 27.88192,-9.04823 5.94022,-3.0722 8.7555,-5.24323 15.35857,-11.84344 10.70114,-10.69646 15.29493,-18.69267 18.95056,-32.98598 3.33912,-13.0564 3.68076,-19.76496 3.54629,-69.65171 -0.067,-26.22517 -0.37011,-51.44888 -0.66652,-56.05255 l -0.53758,-8.37066 5.45441,0.28972 5.4544,0.28804 7.8748,-16.56752 c 5.34756,-11.25044 7.57169,-16.73582 6.93011,-17.09201 -1.6194,-0.8993 -26.30704,-4.65677 -36.90838,-5.61769 -13.47725,-1.22251 -44.14096,-0.52083 -53.74318,1.22921 -42.59841,7.76209 -67.17638,28.3329 -74.42803,62.29303 -3.03014,14.1905 -2.02016,32.64485 2.53193,46.26076 3.37646,10.09926 7.12874,16.02458 15.29946,24.15946 6.05074,6.02446 8.67679,7.99371 14.26986,10.7008 9.48968,4.59329 17.75033,6.58917 29.56529,7.14315 11.2779,0.52919 19.57221,-0.52586 27.98592,-3.56051 3.03969,-1.09692 5.61835,-1.87363 5.73055,-1.7276 0.11728,0.15079 -0.0838,3.53841 -0.42703,7.53887 -1.5809,18.20651 -9.07521,28.04352 -24.60309,32.295 -7.61071,2.08379 -22.61574,2.48974 -33.37249,0.90265 -9.67072,-1.42682 -22.99322,-5.3849 -29.8952,-8.88245 -2.26919,-1.1505 -4.31983,-2.09065 -4.55696,-2.09065 -0.23779,0 -0.43038,9.75829 -0.43038,21.68512 l 0,21.68531 8.28375,2.57665 c 20.40518,6.34682 43.27113,7.92319 64.45168,4.44273 z m -6.52251,-113.72416 c -10.4702,-2.82317 -17.51017,-10.38296 -20.55506,-22.07299 -1.59428,-6.12192 -1.57922,-20.31996 0.0335,-26.49614 4.36168,-16.74536 19.46401,-27.05328 39.69001,-27.09012 l 6.58162,-0.0129 0.46222,7.07145 c 0.25455,3.88925 0.56603,20.52745 0.69163,36.97372 l 0.22943,29.9024 -5.2531,1.35982 c -6.17753,1.59931 -16.65393,1.77281 -21.87773,0.36341 z M 250.63595,635.415 c 21.22929,-12.49421 31.99976,-28.0107 36.8796,-53.13058 2.69939,-13.89542 3.25487,-31.42854 3.00401,-94.81112 l -0.23948,-60.61267 -23.15046,-0.21437 -23.15048,-0.21435 -0.3902,62.84753 c -0.40024,64.68714 -0.70671,71.34379 -3.91538,85.19817 -4.28079,18.48551 -14.95866,31.36807 -34.1055,41.14764 -3.85458,1.96892 -7.01017,3.79381 -7.01216,4.05522 -0.008,0.88422 42.41637,20.81765 43.54191,20.45845 0.61461,-0.19594 4.45614,-2.32194 8.5378,-4.72408 z m 613.44489,-57.74464 c 14.50031,-3.00854 25.92406,-8.73324 35.37892,-17.72939 16.81905,-16.00282 24.96196,-41.03963 22.40123,-68.8755 -2.6716,-29.03862 -15.39073,-49.40847 -37.57592,-60.17742 -11.09334,-5.38491 -17.91126,-6.90266 -33.3683,-7.42818 -18.82262,-0.63972 -29.03594,1.26941 -42.59958,7.96105 -17.48491,8.62724 -30.25594,24.98892 -35.69343,45.72921 -1.68421,6.42404 -2.1486,10.43353 -2.48722,21.47564 -0.45886,14.9883 0.31484,21.97636 3.59652,32.48877 7.78772,24.94002 25.5759,40.86027 51.95966,46.50324 9.67423,2.06906 28.54442,2.09502 38.38812,0.0503 z m -22.53033,-36.61817 c -14.95917,-1.92519 -23.93941,-16.86996 -23.93941,-39.8399 0,-15.45016 3.92274,-27.14406 11.34372,-33.81611 4.92302,-4.42614 9.81926,-6.18841 17.19449,-6.18841 11.11832,0 17.65372,3.9802 22.60003,13.76345 3.88757,7.68941 5.40565,15.05864 5.40565,26.24107 0,27.90504 -11.94325,42.49878 -32.60448,39.8399 z m -444.9962,35.65725 c 12.49071,-0.93447 32.05119,-3.03049 34.14519,-3.65866 1.32968,-0.39856 1.41343,-3.79244 1.38662,-56.73983 -0.0335,-60.19937 -0.28469,-64.76283 -4.03562,-72.12536 -2.89483,-5.68316 -5.46478,-8.5924 -10.64972,-12.0546 -13.84366,-9.24453 -41.00246,-11.31492 -68.3602,-5.21159 -9.22644,2.05834 -21.74894,6.26294 -27.84759,9.3502 l -3.03066,1.534 0,17.76322 c 0,11.68451 0.28637,17.7634 0.83566,17.7634 0.45887,0 2.56963,-0.87921 4.68959,-1.95317 11.28259,-5.71749 30.64662,-10.72678 44.53718,-11.5214 10.1825,-0.58279 15.92142,0.48733 18.75062,3.49621 1.67767,1.7842 1.93457,2.94976 2.17471,9.86229 l 0.27298,7.83897 -9.57359,1.00648 c -20.61753,2.16836 -39.40198,7.32618 -50.33405,13.82089 -3.00085,1.78268 -7.47606,5.42307 -9.9447,8.08965 -7.6164,8.22649 -10.62997,16.83848 -10.62997,30.37651 0,22.24447 9.56136,35.08149 30.38489,40.7943 11.61517,3.18655 29.1684,3.66752 57.23068,1.56749 z m -34.04688,-32.27408 c -4.70431,-0.79546 -6.45718,-1.73444 -9.10317,-4.87882 -1.75639,-2.08746 -2.10757,-3.30881 -2.10757,-7.33186 0,-10.24061 5.20035,-14.29984 22.62881,-17.66392 4.22268,-0.81557 9.95056,-1.73278 12.72866,-2.03942 l 5.05116,-0.55765 0,15.37044 0,15.3703 -2.22246,0.47895 c -3.05393,0.65814 -17.83793,2.04912 -20.81046,1.95819 -1.33303,-0.0335 -4.10779,-0.35838 -6.16497,-0.70671 z m -187.35137,32.30322 c 10.9691,-0.85409 30.08713,-3.3753 37.27849,-4.91767 l 3.89779,-0.83567 0,-108.22772 0,-108.2279 -23.437,0 -23.43701,0 0,35.65372 0,35.65373 -1.81836,-0.49068 c -5.08045,-1.37323 -17.11462,-2.24791 -24.04306,-1.74819 -21.64578,1.5608 -38.26337,8.00677 -51.146271,19.83948 -17.189986,15.78863 -25.740513,40.59518 -23.243242,67.43177 1.130391,12.13717 3.298762,20.30956 7.840803,29.53985 3.200454,6.50424 4.900085,8.78933 11.120312,14.95111 5.776266,5.72234 8.89367,8.07592 14.615848,11.03541 18.27735,9.45284 41.3806,12.75479 72.37186,10.3436 z m -32.155,-38.30355 c -6.83216,-1.56248 -14.31793,-5.70142 -17.63377,-9.7481 -6.3867,-7.79408 -8.8503,-17.01933 -8.20036,-30.70741 1.00648,-21.18391 10.8197,-33.10505 29.65221,-36.01932 6.09865,-0.9445 13.96841,-0.57106 19.60854,0.92777 l 3.03065,0.80552 0,37.09696 c 0,22.07282 -0.3048,37.2857 -0.75361,37.56285 -1.84849,1.14212 -20.80291,1.2024 -25.70366,0.0838 z m 358.61535,-18.1757 0,-55.70858 6.26328,-1.4285 c 3.6563,-0.83397 9.62717,-1.44021 14.34506,-1.45695 12.15022,-0.0503 17.39111,2.24154 20.74112,9.04372 l 1.88769,3.83315 0.40359,50.51073 0.40359,50.51057 23.43702,0 23.43701,0 -0.0335,-54.14728 c -0.0335,-47.93492 -0.18589,-54.83423 -1.39669,-60.13272 -4.15686,-18.16766 -16.10897,-29.80377 -35.78083,-34.83498 -21.15392,-5.41019 -55.16647,-3.39925 -91.4956,5.40952 l -9.09194,2.20454 0,70.41385 c 0,38.72741 0.24282,70.65617 0.53924,70.95242 0.2964,0.29642 10.84298,0.53924 23.437,0.53924 l 22.89811,0 0,-55.70857 z m -210.93239,-141.08074 0,-23.84111 -23.43702,0 -23.43683,0 0,23.84111 0,23.84093 23.43683,0 23.43702,0 0,-23.84093 z"
       id="path3072"
       inkscape:connector-curvature="0" />
  </g>
</svg>
