<?xml version="1.0" encoding="UTF-8" standalone="no"?>
<!-- Created with Inkscape (http://www.inkscape.org/) -->

<svg
   xmlns:dc="http://purl.org/dc/elements/1.1/"
   xmlns:cc="http://creativecommons.org/ns#"
   xmlns:rdf="http://www.w3.org/1999/02/22-rdf-syntax-ns#"
   xmlns:svg="http://www.w3.org/2000/svg"
   xmlns="http://www.w3.org/2000/svg"
   xmlns:sodipodi="http://sodipodi.sourceforge.net/DTD/sodipodi-0.dtd"
   xmlns:inkscape="http://www.inkscape.org/namespaces/inkscape"
   width="1000"
   height="1000"
   viewBox="0 0 264.58333 264.58334"
   version="1.1"
   id="svg8"
   inkscape:version="0.92.5 (2060ec1f9f, 2020-04-08)"
   sodipodi:docname="docker.svg">
  <defs
     id="defs2" />
  <sodipodi:namedview
     id="base"
     pagecolor="#ffffff"
     bordercolor="#666666"
     borderopacity="1.0"
     inkscape:pageopacity="0.0"
     inkscape:pageshadow="2"
     inkscape:zoom="0.35"
     inkscape:cx="-128.57143"
     inkscape:cy="560"
     inkscape:document-units="mm"
     inkscape:current-layer="layer1"
     showgrid="false"
     units="px"
     inkscape:window-width="1920"
     inkscape:window-height="1043"
     inkscape:window-x="0"
     inkscape:window-y="0"
     inkscape:window-maximized="1" />
  <metadata
     id="metadata5">
    <rdf:RDF>
      <cc:Work
         rdf:about="">
        <dc:format>image/svg+xml</dc:format>
        <dc:type
           rdf:resource="http://purl.org/dc/dcmitype/StillImage" />
        <dc:title></dc:title>
      </cc:Work>
    </rdf:RDF>
  </metadata>
  <g
     inkscape:label="Layer 1"
     inkscape:groupmode="layer"
     id="layer1"
     transform="translate(0,-32.41665)">
    <path
       id="path903"
       style="fill:#000000;stroke-width:0.49247211"
       d="m 122.5105,107.74745 c -0.13327,-0.34728 -0.18166,-4.72413 -0.10759,-9.726318 l 0.13458,-9.094891 10.03269,-0.133455 c 6.98445,-0.09288 10.23887,0.0376 10.71127,0.429664 0.52858,0.438674 0.67857,2.445876 0.67857,9.080839 0,4.684731 -0.13458,8.868241 -0.29893,9.296671 -0.2594,0.676 -1.66139,0.77898 -10.60359,0.77898 -7.92737,0 -10.36059,-0.14574 -10.547,-0.63143 z m 0,24.13113 c -0.13327,-0.34729 -0.18166,-4.72412 -0.10759,-9.72632 l 0.13458,-9.09489 10.03269,-0.13346 c 6.98445,-0.0929 10.23887,0.0376 10.71127,0.42964 0.91333,0.75801 0.99307,17.66006 0.0877,18.56556 -0.87481,0.87479 -20.52196,0.83668 -20.85856,-0.0404 z m -26.097251,0.009 c -0.13532,-0.35269 -0.18539,-4.73395 -0.111491,-9.73615 l 0.134574,-9.0949 h 10.588148 10.58814 v 9.60322 9.60319 l -10.4767,0.1329 c -8.246721,0.10462 -10.529117,-0.004 -10.722804,-0.50831 z m -26.306725,-0.33095 c -0.671247,-1.25423 -0.671247,-16.53953 0,-17.79374 0.478284,-0.89367 1.126897,-0.95257 10.489652,-0.95257 7.105485,0 10.150069,0.1703 10.570836,0.59096 0.831355,0.83137 0.831355,17.68559 0,18.51696 -0.420767,0.42075 -3.465351,0.59096 -10.570836,0.59096 -9.362755,0 -10.011368,-0.0589 -10.489652,-0.95257 z m 78.890146,24.67084 c -0.47929,-0.30418 -0.59518,-2.59112 -0.49246,-9.71879 l 0.13419,-9.32099 h 10.58815 10.58817 l 0.13439,9.04661 c 0.0929,6.25531 -0.0396,9.25634 -0.42965,9.72633 -0.44502,0.5362 -2.60474,0.67811 -10.23014,0.67217 -5.31632,-0.004 -9.94806,-0.18656 -10.2928,-0.40533 z m -26.08985,0.0868 c -0.46279,-0.18675 -0.61558,-2.62162 -0.61558,-9.81057 v -9.56215 h 10.53547 c 9.15266,0 10.57469,0.10218 10.83438,0.77897 0.5892,1.53542 0.33155,17.70533 -0.29205,18.32893 -0.42212,0.42213 -3.34144,0.57986 -10.21878,0.55208 -5.29532,-0.0213 -9.90485,-0.15057 -10.24344,-0.28726 z m -26.112206,-0.0868 c -0.479287,-0.30418 -0.595151,-2.59112 -0.492468,-9.71879 l 0.13439,-9.32099 h 10.588144 10.58815 l 0.13439,9.04661 c 0.0931,6.25531 -0.0396,9.25634 -0.42965,9.72633 -0.44504,0.5362 -2.60474,0.67811 -10.23015,0.67217 -5.31631,-0.004 -9.948074,-0.18656 -10.292806,-0.40533 z m -26.42401,-0.36103 c -0.642278,-0.64226 -0.773878,-2.18474 -0.773878,-9.07046 0,-4.56309 0.134574,-8.64711 0.298934,-9.07555 0.259615,-0.67657 1.677078,-0.77897 10.781679,-0.77897 9.104632,0 10.522075,0.10237 10.78171,0.77897 0.589193,1.53542 0.331551,17.70534 -0.292037,18.32894 -0.419714,0.41968 -3.406668,0.59096 -10.306736,0.59096 -8.175906,0 -9.838434,-0.12266 -10.489672,-0.77389 z m -25.840998,0.0942 c -0.390061,-0.46999 -0.522622,-3.47102 -0.429646,-9.72633 l 0.13438,-9.04661 h 10.588156 10.588145 l 0.134197,9.32099 c 0.102744,7.12767 -0.01298,9.41461 -0.492468,9.71878 -0.344733,0.21878 -4.976475,0.40118 -10.292788,0.40534 -7.625409,0.005 -9.785125,-0.13588 -10.23015,-0.67217 z m 47.720836,84.59309 C 73.667568,239.2787 59.911146,235.38826 50.636555,228.78514 36.031539,218.38701 26.607383,196.14278 26.121956,170.92226 c -0.116887,-6.06949 0.361787,-7.61336 2.792449,-9.00762 0.793569,-0.45521 18.333681,-0.65745 74.416675,-0.85802 l 73.37833,-0.26243 4.08156,-1.08888 c 3.65376,-0.97473 6.99907,-2.29948 6.99907,-2.77165 0,-0.0956 -0.57928,-1.43938 -1.28728,-2.98586 -0.70801,-1.54647 -1.59182,-3.95558 -1.96404,-5.35358 -1.01683,-3.81903 -0.87301,-11.26514 0.3068,-15.88288 1.04918,-4.10656 4.11713,-10.78867 6.06825,-13.21695 l 1.15859,-1.44195 3.49931,2.32632 c 6.73017,4.47421 12.46147,12.40414 13.87053,19.1915 l 0.55473,2.67207 6.28516,-0.25491 c 9.26059,-0.37559 15.58741,0.98695 20.14454,4.33829 l 2.05085,1.50823 -1.00365,2.54625 c -1.44439,3.66446 -5.02399,8.4436 -8.17913,10.91995 -5.3963,4.23538 -11.22368,6.33069 -19.59835,7.04688 l -4.19906,0.35911 -2.37077,5.4172 c -3.37435,7.71037 -3.44358,7.85399 -6.41025,13.29676 -16.41944,30.12376 -42.90254,47.64677 -78.85729,52.17728 -5.79933,0.73075 -20.757308,1.28949 -25.608538,0.95658 z"
       inkscape:connector-curvature="0" />
  </g>
</svg>
