<?xml version="1.0" encoding="UTF-8" standalone="no"?>
<!-- Created with Inkscape (http://www.inkscape.org/) -->

<svg
   xmlns:dc="http://purl.org/dc/elements/1.1/"
   xmlns:cc="http://creativecommons.org/ns#"
   xmlns:rdf="http://www.w3.org/1999/02/22-rdf-syntax-ns#"
   xmlns:svg="http://www.w3.org/2000/svg"
   xmlns="http://www.w3.org/2000/svg"
   xmlns:sodipodi="http://sodipodi.sourceforge.net/DTD/sodipodi-0.dtd"
   xmlns:inkscape="http://www.inkscape.org/namespaces/inkscape"
   width="1000"
   height="1000"
   id="svg4955"
   version="1.1"
   inkscape:version="0.48.4 r9939"
   sodipodi:docname="dojo.svg">
  <defs
     id="defs5498" />
  <sodipodi:namedview
     inkscape:window-height="1056"
     inkscape:window-width="1920"
     inkscape:pageshadow="2"
     inkscape:pageopacity="0.0"
     borderopacity="1.0"
     bordercolor="#666666"
     pagecolor="#ffffff"
     id="base"
     showgrid="false"
     showguides="true"
     inkscape:guide-bbox="true"
     inkscape:zoom="0.64205296"
     inkscape:cx="667.94427"
     inkscape:cy="511.96215"
     inkscape:window-x="0"
     inkscape:window-y="24"
     inkscape:current-layer="layer1"
     inkscape:window-maximized="1">
    <sodipodi:guide
       orientation="horizontal"
       position="200"
       id="guide5596" />
  </sodipodi:namedview>
  <metadata
     id="metadata5594">
    <rdf:RDF>
      <cc:Work
         rdf:about="">
        <dc:format>image/svg+xml</dc:format>
        <dc:type
           rdf:resource="http://purl.org/dc/dcmitype/StillImage" />
        <dc:title></dc:title>
      </cc:Work>
    </rdf:RDF>
  </metadata>
  <g
     inkscape:label="Layer 1"
     inkscape:groupmode="layer"
     id="layer1">
    <path
       style="fill:#000000"
       d="m 600.57438,701.11754 c -5.63679,-7.89262 -10.82096,-15.28654 -11.52024,-16.4309 -0.78703,-1.28795 2.86946,-6.23395 9.59741,-12.98189 5.97795,-5.99568 13.32607,-15.57452 16.32933,-21.28628 11.36966,-21.62437 10.98298,-16.0688 10.98298,-157.82437 l 0,-128.63673 19.03973,0 19.03973,0 0,130.31811 c 0,146.81044 0.61862,139.13844 -13.41124,166.32821 -7.67976,14.88328 -28.81472,44.96773 -36.36553,51.7646 -3.37038,3.03374 -3.66082,2.79502 -13.69217,-11.25075 z M 151.98532,633.88479 C 122.55741,628.61248 96.6473,615.17827 75.379076,594.16499 58.319584,577.30998 48.910791,562.44205 41.062269,539.93694 c -5.10661,-14.64284 -8.025124,-16.79278 -8.01029,-43.6091 0.01558,-24.1782 2.872004,-28.11797 8.49184,-44.41892 7.672369,-22.25457 18.083275,-39.41392 32.995917,-54.38416 19.597713,-19.67342 41.148624,-31.55394 68.538384,-37.7836 16.05516,-3.65168 46.05705,-3.72048 61.74976,-0.14158 14.36491,3.27602 37.68442,12.40701 40.57202,15.88637 1.6716,2.01414 1.51057,6.55684 -0.77071,21.74165 -1.5861,10.55755 -3.19118,19.50288 -3.56685,19.87855 -0.37566,0.37567 -5.20463,-2.48437 -10.73104,-6.35563 -23.35598,-16.36093 -59.87193,-21.16863 -87.85155,-11.56657 -32.96547,11.31311 -56.339662,35.84521 -66.211934,69.49196 -4.674443,15.93146 -3.983942,39.69932 1.66338,57.2549 20.79957,64.65888 92.320364,91.14255 150.976094,55.90544 12.17152,-7.31197 29.57236,-25.84931 35.77822,-38.11498 l 4.71623,-9.32145 0,-124.1661 0,-124.16611 23.37539,0 23.37536,0 -0.44115,170.92483 -0.44116,170.92483 -22.5015,0 -22.5015,0 -0.86544,-14.31573 -0.86544,-14.31573 -10.38531,7.80845 c -13.33378,10.02535 -31.18479,18.80135 -47.59932,23.40097 -14.97502,4.19625 -44.51971,5.90617 -58.56635,3.38959 z m 295.98122,-0.11909 c -28.67144,-4.76729 -55.25978,-18.51134 -76.60905,-39.60071 -17.27692,-17.06661 -26.81172,-32.3099 -34.42592,-55.03677 -4.92076,-14.68751 -7.23989,-17.12311 -7.23989,-42.7582 0,-25.70657 2.30929,-28.04378 7.31143,-43.0168 20.07708,-60.09708 70.38618,-96.52709 133.30198,-96.52709 40.61191,0 75.54081,14.76739 102.4841,43.32881 14.2412,15.09638 23.72852,31.05496 30.95998,52.07753 5.35692,15.5732 6.66997,17.7716 6.7167,41.54123 0.0554,28.39112 -3.12632,39.19468 -13.15507,60.42733 -26.83822,56.82134 -88.51327,89.67944 -149.34426,79.56474 z m 55.52272,-41.79537 c 33.56998,-12.33802 57.79284,-38.43318 66.18347,-71.29893 3.414,-13.3723 3.36294,-36.55318 -0.11077,-50.01487 -9.17456,-35.5618 -39.49324,-65.42553 -75.146,-74.01843 -13.50228,-3.25429 -38.466,-2.80888 -51.06104,0.91105 -36.15244,10.67758 -64.74937,40.47307 -71.89894,74.91241 -3.30216,15.90645 -1.34555,43.98421 4.04181,58.00083 12.3516,32.13589 38.94228,56.70809 69.83891,64.53751 15.3779,3.89684 43.25812,2.44439 58.15186,-3.0295 z m 294.97367,40.38181 c -28.86631,-6.29891 -62.24347,-26.17857 -79.56702,-47.39063 -10.69721,-13.09839 -19.96039,-30.37747 -25.46633,-47.50375 -4.70004,-14.61985 -6.6852,-18.14594 -6.6852,-40.04936 0,-20.61824 2.15703,-26.17722 5.95165,-39.27152 14.34713,-49.50898 51.10298,-85.31298 100.29817,-97.70052 15.95789,-4.01827 44.38974,-4.762 61.77768,-1.61598 40.15998,7.26624 78.86394,36.29765 97.2172,72.92157 10.85749,21.66633 14.95899,38.66296 14.95899,61.99073 0,22.21865 -2.1134,34.66476 -8.8668,52.21756 -15.80366,41.07478 -53.14334,74.01957 -96.71714,85.33337 -17.67337,4.58885 -44.6672,5.04743 -62.9012,1.0686 z m 49.40169,-36.60211 c 5.04483,-1.03216 16.2144,-5.25427 24.82123,-9.38247 26.34907,-12.638 45.14457,-35.02328 53.76576,-64.03434 3.66515,-12.33362 4.11501,-39.35332 0.85021,-51.06109 -7.75747,-27.81747 -29.31616,-54.4122 -53.86962,-66.45353 -59.43008,-29.14511 -129.55669,3.55326 -144.61538,67.43081 -3.91717,16.61624 -2.54094,40.81356 3.21667,56.56 12.11187,33.12418 38.16842,57.5531 70.48057,66.07788 11.47629,3.02771 32.78745,3.43314 45.35056,0.86274 z m -220.69,-246.73692 c -0.66588,-0.66586 -1.21076,-13.15375 -1.21076,-27.75089 l 0,-26.54022 19.08369,0 19.0837,0 -0.47669,27.26143 -0.47669,27.26143 -17.39625,0.48946 c -9.56798,0.2692 -17.94113,-0.0554 -18.607,-0.72121 z M 411.64789,322.44942 c -10.12662,0 -9.31155,-19.20799 0.95234,-19.20799 9.04343,0 9.68822,0.13501 59.82311,0.13501 54.07785,0 53.86997,-0.13501 57.52283,-0.13501 9.1157,0 9.31164,19.20799 -0.27833,19.20799 -4.66265,0 -9.85669,-0.0332 -59.99158,-0.0332 -54.07785,0 -47.97276,0.0332 -58.02837,0.0332 z m 352.32094,-9.38565 c 0.16443,-4.07418 2.34725,-9.27175 7.46911,-9.68735 l 56.73319,0 c 41.81782,0 54.58327,-0.13501 59.0628,-0.13501 7.65241,0 8.49743,19.20799 0.1177,19.20799 -3.56995,0 -4.30142,-0.0332 -59.58985,-0.0332 0,0 -53.7424,-0.002 -57.71374,0 -3.97134,0.002 -6.2279,-5.63739 -6.07835,-9.35239 z"
       id="path6010"
       inkscape:connector-curvature="0"
       sodipodi:nodetypes="ssssscccsssscsscsssssscsssssscccccccccccsscccssssssssscccssssssscccssssssssssccssscssssssscccccsssssssssccsssszac" />
  </g>
</svg>
