<?xml version="1.0" encoding="UTF-8" standalone="no"?>
<!-- Created with Inkscape (http://www.inkscape.org/) -->

<svg
   xmlns:dc="http://purl.org/dc/elements/1.1/"
   xmlns:cc="http://creativecommons.org/ns#"
   xmlns:rdf="http://www.w3.org/1999/02/22-rdf-syntax-ns#"
   xmlns:svg="http://www.w3.org/2000/svg"
   xmlns="http://www.w3.org/2000/svg"
   xmlns:sodipodi="http://sodipodi.sourceforge.net/DTD/sodipodi-0.dtd"
   xmlns:inkscape="http://www.inkscape.org/namespaces/inkscape"
   width="1000"
   height="1000"
   id="svg4955"
   version="1.1"
   inkscape:version="0.48.4 r9939"
   sodipodi:docname="postgresql.svg">
  <defs
     id="defs5498" />
  <sodipodi:namedview
     inkscape:window-height="1056"
     inkscape:window-width="1920"
     inkscape:pageshadow="2"
     inkscape:pageopacity="0.0"
     borderopacity="1.0"
     bordercolor="#666666"
     pagecolor="#ffffff"
     id="base"
     showgrid="false"
     showguides="false"
     inkscape:guide-bbox="true"
     inkscape:zoom="0.70710678"
     inkscape:cx="137.86665"
     inkscape:cy="448.1276"
     inkscape:window-x="0"
     inkscape:window-y="24"
     inkscape:current-layer="layer11"
     inkscape:window-maximized="1">
    <sodipodi:guide
       orientation="0,1"
       position="189.44385,479.26189"
       id="guide7179" />
    <sodipodi:guide
       orientation="1,0"
       position="429.5717,650.94149"
       id="guide7232" />
    <sodipodi:guide
       orientation="0,1"
       position="423.85732,718.7686"
       id="guide7234" />
    <sodipodi:guide
       orientation="0,1"
       position="407.21111,603.48736"
       id="guide7236" />
    <sodipodi:guide
       orientation="1,0"
       position="330.68822,603.48736"
       id="guide7238" />
    <sodipodi:guide
       orientation="1,0"
       position="526.71602,603.48736"
       id="guide7240" />
    <sodipodi:guide
       orientation="0,1"
       position="429.5717,709.07902"
       id="guide7242" />
    <sodipodi:guide
       orientation="0,1"
       position="429.5717,618.89132"
       id="guide7244" />
    <sodipodi:guide
       orientation="1,0"
       position="421.62126,644.23332"
       id="guide7246" />
    <sodipodi:guide
       orientation="1,0"
       position="370.68882,649.20234"
       id="guide7248" />
    <sodipodi:guide
       orientation="1,0"
       position="377.397,646.46938"
       id="guide7250" />
    <sodipodi:guide
       orientation="0,1"
       position="401.99364,699.63788"
       id="guide7252" />
    <sodipodi:guide
       orientation="0,1"
       position="402.73899,694.42041"
       id="guide7254" />
    <sodipodi:guide
       orientation="0,1"
       position="412.67703,632.80457"
       id="guide7258" />
    <sodipodi:guide
       orientation="0,1"
       position="421.62126,626.0964"
       id="guide7260" />
    <sodipodi:guide
       orientation="1,0"
       position="469.5723,641.50036"
       id="guide7262" />
    <sodipodi:guide
       orientation="1,0"
       position="390.5649,658.14657"
       id="guide7264" />
    <sodipodi:guide
       orientation="1,0"
       position="384.10517,643.23951"
       id="guide7266" />
    <sodipodi:guide
       orientation="1,0"
       position="407.45956,632.80457"
       id="guide7268" />
  </sodipodi:namedview>
  <metadata
     id="metadata5594">
    <rdf:RDF>
      <cc:Work
         rdf:about="">
        <dc:format>image/svg+xml</dc:format>
        <dc:type
           rdf:resource="http://purl.org/dc/dcmitype/StillImage" />
        <dc:title></dc:title>
      </cc:Work>
    </rdf:RDF>
  </metadata>
  <g
     inkscape:groupmode="layer"
     id="layer11"
     inkscape:label="Layer"
     style="opacity:1">
    <path
       style="fill:#000000"
       d="m 61.978542,674.11248 c 0,-1.53436 7.710722,-28.59918 12.329398,-43.27643 29.92802,-95.10595 75.88363,-181.33076 126.46303,-237.27795 7.2147,-7.98038 20.70673,-21.18598 27.45607,-26.87319 22.64322,-19.07988 43.48489,-30.01116 63.30393,-33.20241 6.1366,-0.98811 198.2604,-0.97625 205.78737,0.0127 15.55869,2.04421 28.15363,8.53248 40.57455,20.90185 5.76483,5.74086 8.44727,9.01934 13.74549,16.79963 10.92508,16.04311 20.95247,38.28493 29.81034,66.12259 6.69348,21.03553 12.12132,41.73901 23.46465,89.50152 9.17424,38.62907 12.0335,49.54536 19.26684,73.55836 0.49189,1.63279 1.03109,2.96872 1.19836,2.96872 0.16721,0 0.60905,-0.74218 0.98184,-1.64929 12.38449,-30.13684 18.84668,-49.39697 47.15822,-140.55122 17.93896,-57.75792 17.73563,-57.16097 23.54685,-69.1286 16.11063,-33.17831 40.87299,-53.13256 76.70655,-61.81241 7.38825,-1.78965 14.40984,-2.92975 24.31442,-3.94798 8.03824,-0.82637 11.83549,-0.87095 74.20338,-0.87095 l 65.73163,0 -3.11523,5.60759 c -68.34273,123.02087 -104.61309,184.54899 -135.531,229.91111 -21.35762,31.33544 -38.41602,52.55269 -56.40004,70.1503 -13.01585,12.73624 -24.14544,21.02892 -35.94956,26.7861 -9.26414,4.51838 -15.94064,6.55044 -24.69389,7.51589 -3.11136,0.34316 -31.4204,0.43996 -96.75839,0.33083 -85.71141,-0.14314 -92.62939,-0.20941 -96.09867,-0.92037 -29.21137,-5.98645 -51.25,-29.45094 -69.74879,-74.26136 -6.90156,-16.71796 -14.45831,-40.48711 -21.45209,-67.4758 -2.93186,-11.3139 -5.07329,-20.12507 -14.7806,-60.81641 -6.28892,-26.36205 -10.54844,-42.75172 -14.58576,-56.12261 -1.4608,-4.83791 -2.7094,-8.85027 -2.77467,-8.91634 -0.23639,-0.23929 -13.37492,13.51747 -19.66176,20.58695 -13.24652,14.8955 -27.92416,33.23187 -40.70009,50.84546 l -6.42594,8.85914 -1.9332,6.09442 c -1.06326,3.35194 -8.74818,27.96402 -17.07758,54.69352 -8.3294,26.72951 -15.84511,50.4793 -16.70156,52.77731 -12.60356,33.81698 -31.12668,55.99824 -57.79228,69.20569 -16.0227,7.93602 -32.92798,12.17599 -55.43776,13.9042 -8.39493,0.64454 -88.424058,0.61685 -88.424058,-0.0305 z"
       id="path8359"
       inkscape:connector-curvature="0"
       sodipodi:nodetypes="sssssssssscscssssscssssssssssscsscsssssss" />
  </g>
</svg>
