<?xml version="1.0" encoding="UTF-8" standalone="no"?>
<!-- Created with Inkscape (http://www.inkscape.org/) -->

<svg
   xmlns:dc="http://purl.org/dc/elements/1.1/"
   xmlns:cc="http://creativecommons.org/ns#"
   xmlns:rdf="http://www.w3.org/1999/02/22-rdf-syntax-ns#"
   xmlns:svg="http://www.w3.org/2000/svg"
   xmlns="http://www.w3.org/2000/svg"
   xmlns:sodipodi="http://sodipodi.sourceforge.net/DTD/sodipodi-0.dtd"
   xmlns:inkscape="http://www.inkscape.org/namespaces/inkscape"
   width="1000"
   height="1000"
   id="svg4955"
   version="1.1"
   inkscape:version="0.48.4 r9939"
   sodipodi:docname="ember.svg">
  <defs
     id="defs5498" />
  <sodipodi:namedview
     inkscape:window-height="1056"
     inkscape:window-width="1920"
     inkscape:pageshadow="2"
     inkscape:pageopacity="0.0"
     borderopacity="1.0"
     bordercolor="#666666"
     pagecolor="#ffffff"
     id="base"
     showgrid="false"
     showguides="true"
     inkscape:guide-bbox="true"
     inkscape:zoom="0.454"
     inkscape:cx="481.17932"
     inkscape:cy="549.74671"
     inkscape:window-x="0"
     inkscape:window-y="24"
     inkscape:current-layer="layer1"
     inkscape:window-maximized="1">
    <sodipodi:guide
       orientation="horizontal"
       position="200"
       id="guide5596" />
  </sodipodi:namedview>
  <metadata
     id="metadata5594">
    <rdf:RDF>
      <cc:Work
         rdf:about="">
        <dc:format>image/svg+xml</dc:format>
        <dc:type
           rdf:resource="http://purl.org/dc/dcmitype/StillImage" />
        <dc:title></dc:title>
      </cc:Work>
    </rdf:RDF>
  </metadata>
  <g
     inkscape:label="Layer 1"
     inkscape:groupmode="layer"
     id="layer1">
    <path
       style="fill:#000000"
       d="m 405.47903,665.25459 c -14.06983,-5.53263 -15.62927,-11.24032 -15.62927,-57.20395 0,-62.08067 -3.46623,-60.30771 -31.06967,15.89198 -7.14904,19.73503 -15.40235,37.38653 -18.34067,39.2255 -8.12017,5.08204 -22.29883,-1.18433 -25.90937,-11.45089 -2.75189,-7.82489 0.76313,-50.6785 6.77047,-82.54283 l 1.78031,-9.44313 -7.9416,7.273 c -4.36786,4.00014 -15.34708,24.1866 -24.39822,44.85879 -20.49002,46.79764 -25.7945,53.98496 -38.8958,52.70186 -8.97796,-0.87924 -14.02919,-6.17952 -18.75031,-19.67466 -0.57279,-1.63732 -5.90665,-0.0411 -11.85305,3.54712 -19.3785,11.69358 -42.81374,17.54238 -64.70466,16.14847 -17.60373,-1.12092 -21.55366,-2.57671 -30.05343,-11.07647 -5.38224,-5.38224 -13.48436,-16.62649 -18.00466,-24.98716 -4.95701,-9.16846 -10.71716,-15.5698 -14.514158,-16.12988 -22.192391,-3.2735 -33.049442,-8.04713 -33.002759,-14.51069 0.0906,-12.55326 4.554349,-16.00753 15.061287,-11.65541 5.167505,2.14045 13.413055,3.42883 18.323419,2.86309 8.198501,-0.94462 9.397441,-2.82888 14.674821,-23.06264 10.6254,-40.73836 30.32761,-63.8532 56.98741,-66.85813 29.19222,-3.29041 49.10574,12.1331 49.13092,38.05302 0.0253,24.6304 -21.31041,50.70877 -55.00215,67.23275 -19.00389,9.32036 -20.79888,13.24183 -10.68884,23.35187 5.70557,5.70558 9.17863,6.43824 23.50813,4.95932 16.98536,-1.75305 50.04562,-16.84869 59.0228,-26.95041 2.52383,-2.84 7.64365,-20.74476 11.37737,-39.78842 10.92649,-55.72995 14.66021,-66.69158 23.46939,-68.90254 13.86299,-3.47938 17.59014,0.3933 17.40912,18.08901 -0.0909,8.90377 -2.07583,26.81223 -4.41059,39.79654 -2.33472,12.98431 -3.81322,24.06148 -3.28551,24.61598 1.30618,1.37243 17.21417,-22.37777 29.13802,-43.50224 12.26243,-21.7244 24.88054,-33.94092 37.70598,-36.506 8.84941,-1.76989 10.19606,-1.0726 12.02841,6.22801 1.13484,4.52159 0.32167,17.07912 -1.80707,27.90571 -6.10861,31.06809 -7.33766,44.33662 -3.91068,42.2186 1.69349,-1.0466 11.32379,-15.71891 21.40065,-32.60507 21.22193,-35.56234 29.67526,-45.01378 40.26016,-45.01378 14.46977,0 16.24946,6.40877 11.63854,41.91102 -2.29012,17.63309 -4.80076,44.33146 -5.57916,59.32974 -1.26569,24.38644 -0.78387,27.6075 4.55723,30.46597 8.08788,4.32848 31.36164,-6.11371 35.37797,-15.873 1.63822,-3.98074 7.24813,-44.87332 12.46646,-90.87235 9.83249,-86.6719 16.80522,-117.86468 34.07688,-152.44366 9.98275,-19.98609 15.34946,-25.99075 29.83898,-33.38592 30.60339,-15.61934 47.17477,0.4351 47.45706,45.97675 0.19515,31.48293 -14.46537,71.68311 -39.39735,108.03033 -5.13043,7.47941 -8.57821,14.34883 -7.66169,15.26531 0.91649,0.9165 6.74139,-0.009 12.94417,-2.05564 9.69627,-3.20006 12.70517,-2.8884 21.45622,2.22248 24.57282,14.35129 30.9696,49.4006 16.5004,90.40905 -4.24236,12.02363 -7.17462,22.39995 -6.51609,23.05846 2.1001,2.10008 36.48822,-15.95358 44.45947,-23.34109 4.30314,-3.98803 7.67532,-10.67122 7.67532,-15.21145 0,-23.36086 24.91488,-67.52835 45.14597,-80.03186 24.06821,-14.87499 52.70829,-11.0978 60.68954,8.004 14.90995,35.68452 -6.33993,76.24337 -50.08402,95.59345 -8.01379,3.54489 -15.29375,7.61547 -16.17772,9.04577 -0.88397,1.43029 1.82019,5.82043 6.00926,9.75585 14.37771,13.50718 46.58852,7.07638 78.17522,-15.60747 13.1212,-9.42293 13.58892,-10.37917 18.93244,-38.70665 7.86,-41.66814 17.24713,-71.45039 22.69742,-72.01124 2.52356,-0.25969 6.35885,-0.61381 8.52291,-0.78694 2.81118,-0.22474 4.38401,8.67273 5.50849,31.16234 l 1.57385,31.47711 12.23928,-22.90744 c 12.71389,-23.79571 26.6213,-38.47292 36.45499,-38.47292 8.20735,0 9.53838,5.96579 9.53838,42.75154 0,28.59658 0.8057,33.59921 6.29543,39.08894 8.35512,8.35511 16.00214,7.94277 38.30367,-2.06556 21.45158,-9.6269 28.04976,-7.44956 22.90309,7.55784 -2.14885,6.26599 -8.56854,11.51105 -23.13571,18.90247 -41.99093,21.30636 -64.11852,9.46817 -70.95566,-37.96111 -1.30224,-9.03366 -3.60735,-14.66526 -5.71511,-13.96271 -1.94292,0.64764 -11.52966,23.29508 -21.3038,50.32759 -18.70206,51.72464 -25.53539,65.33738 -32.79805,65.33738 -5.81133,0 -17.46832,-14.98703 -17.46832,-22.45848 0,-3.22902 -0.56588,-5.87092 -1.25753,-5.87092 -0.69164,0 -8.47229,4.85516 -17.29028,10.78922 -37.79973,25.43734 -90.23033,20.0267 -108.68584,-11.21592 -6.50067,-11.0048 -10.36806,-11.1724 -29.86238,-1.29383 -8.38188,4.24739 -29.76606,12.03797 -47.52036,17.3124 -41.34298,12.28205 -63.38401,12.64855 -86.28561,1.43473 l -16.65486,-8.15509 -15.41104,7.70477 c -19.15489,9.57657 -29.30751,11.92329 -37.55426,8.68042 z m 126.6941,-31.45039 c 18.98702,-11.57693 32.69832,-51.06512 26.16096,-75.34294 -6.59583,-24.49514 -29.69692,-31.33097 -47.6745,-14.10731 -16.80685,16.10195 -30.99444,79.56137 -20.20064,90.35513 7.28562,7.28566 29.05566,6.81337 41.71418,-0.90488 z m -360.5731,-58.02685 c 16.86697,-11.81412 23.46101,-35.10667 13.16067,-46.48841 -6.48259,-7.16315 -11.617,-7.25113 -22.10562,-0.37871 -14.17179,9.28569 -29.03401,50.54167 -21.07465,58.501 2.2497,2.2497 20.04286,-4.64593 30.0196,-11.63388 z m 524.96689,-0.51519 c 19.77952,-17.86962 23.20326,-39.15673 8.2886,-51.53479 -7.66023,-6.35742 -18.68452,-0.0316 -28.14987,16.15616 -8.2593,14.12401 -14.49577,35.89115 -12.22492,42.66864 2.68081,8.00095 19.35395,4.2128 32.08619,-7.29001 z M 519.51243,473.95615 c 20.42212,-38.8766 35.59215,-79.105 35.59215,-94.3847 0,-4.99039 -2.13846,-11.823 -4.75216,-15.18356 -4.60895,-5.92594 -5.03184,-5.78647 -14.03027,4.62695 -10.8382,12.54245 -22.18043,42.44978 -33.17928,87.48744 -7.78609,31.88219 -10.04518,54.43948 -5.45203,54.43948 1.31602,0 11.13575,-16.64353 21.82159,-36.98561 z"
       id="path5037"
       inkscape:connector-curvature="0" />
  </g>
</svg>
