<?xml version="1.0" encoding="UTF-8" standalone="no"?>
<!-- Created with Inkscape (http://www.inkscape.org/) -->

<svg
   xmlns:dc="http://purl.org/dc/elements/1.1/"
   xmlns:cc="http://creativecommons.org/ns#"
   xmlns:rdf="http://www.w3.org/1999/02/22-rdf-syntax-ns#"
   xmlns:svg="http://www.w3.org/2000/svg"
   xmlns="http://www.w3.org/2000/svg"
   xmlns:sodipodi="http://sodipodi.sourceforge.net/DTD/sodipodi-0.dtd"
   xmlns:inkscape="http://www.inkscape.org/namespaces/inkscape"
   width="1000"
   height="1000"
   id="svg4955"
   version="1.1"
   inkscape:version="0.48.4 r9939"
   sodipodi:docname="flash.svg">
  <defs
     id="defs5498" />
  <sodipodi:namedview
     inkscape:window-height="1056"
     inkscape:window-width="1920"
     inkscape:pageshadow="2"
     inkscape:pageopacity="0.0"
     borderopacity="1.0"
     bordercolor="#666666"
     pagecolor="#ffffff"
     id="base"
     showgrid="false"
     showguides="true"
     inkscape:guide-bbox="true"
     inkscape:zoom="0.454"
     inkscape:cx="732.20128"
     inkscape:cy="497.66419"
     inkscape:window-x="0"
     inkscape:window-y="24"
     inkscape:current-layer="layer1"
     inkscape:window-maximized="1">
    <sodipodi:guide
       orientation="horizontal"
       position="200"
       id="guide5596" />
  </sodipodi:namedview>
  <metadata
     id="metadata5594">
    <rdf:RDF>
      <cc:Work
         rdf:about="">
        <dc:format>image/svg+xml</dc:format>
        <dc:type
           rdf:resource="http://purl.org/dc/dcmitype/StillImage" />
        <dc:title></dc:title>
      </cc:Work>
    </rdf:RDF>
  </metadata>
  <g
     inkscape:label="Layer 1"
     inkscape:groupmode="layer"
     id="layer1">
    <path
       style="fill:#000000"
       d="M 585.32984,870.58321 C 527.22048,865.6484 483.06786,857.9529 444.00238,845.95096 288.5349,798.18714 166.27666,650.48104 115.39712,448.94711 107.78435,418.79286 97.038657,383.25193 91.517786,369.96728 c -12.715292,-30.59641 -9.5966,-51.65555 10.104794,-68.23318 7.75446,-6.52496 16.27952,-11.86355 18.94457,-11.86355 2.97986,0 2.64337,-2.65345 -0.87393,-6.89152 -8.49493,-10.23577 -2.34057,-20.42915 17.26222,-28.59115 21.82547,-9.08746 25.23216,-14.1037 22.04036,-32.45398 -2.16662,-12.4563 -0.44719,-16.14521 11.48602,-24.6424 16.2872,-11.59753 17.84814,-23.00881 4.76667,-34.84735 -16.89439,-15.28923 -8.90775,-34.75266 14.26044,-34.75266 16.42201,0 24.63147,10.58116 21.26582,27.40947 -3.43138,17.15679 3.04236,22.52313 29.43629,24.40091 17.62491,1.25393 20.9895,3.09132 22.27567,12.16464 1.61097,11.36451 9.76464,16.11422 41.34661,24.08542 10.83125,2.73377 19.69316,7.55756 19.69316,10.7195 0,5.70166 38.11338,24.85194 89.02783,44.73259 28.451,11.10929 52.28568,29.72643 47.6533,37.22173 -4.02042,6.5052 -14.04752,5.76696 -42.19818,-3.10676 -20.94718,-6.60302 -25.60831,-6.79239 -32.21547,-1.30893 -6.73171,5.58682 -7.31725,12.98337 -4.55434,57.53213 7.4463,120.06376 22.10155,188.87443 51.34979,241.10224 22.42156,40.0376 75.59466,99.99089 111.24598,125.43114 36.79643,26.25739 100.63145,54.63751 140.56823,62.49458 l 28.96693,5.69888 19.38603,-18.83255 c 10.66229,-10.35792 22.51371,-19.24407 26.33652,-19.74707 21.27316,-2.79893 23.51147,3.34797 8.76188,24.06185 -5.37508,7.54861 -9.02411,14.41406 -8.10895,15.25654 0.91516,0.84252 18.62261,3.00305 39.34997,4.80122 26.43987,2.29376 38.66223,1.68991 40.95725,-2.02358 2.20235,-3.56345 5.08718,-3.7859 8.82857,-0.68089 3.05647,2.53668 19.03083,5.24437 35.49853,6.01714 28.66079,1.34488 30.00295,1.93906 31.38289,13.89277 1.29866,11.24937 -0.53944,12.97283 -18.53474,17.37888 -10.98702,2.69007 -26.37991,6.97507 -34.20642,9.52221 -7.82654,2.54713 -22.80817,4.63116 -33.29261,4.63116 -10.48435,0 -24.82673,2.19154 -31.87182,4.8701 -32.63034,12.40604 -148.04674,20.64235 -212.52781,15.1664 z m 53.28739,-10.91274 c -19.11396,-1.80332 -50.39136,-3.23815 -69.50532,-3.18847 -30.18521,0.0783 -32.01221,0.51635 -13.90106,3.33207 11.46838,1.783 42.74579,3.21783 69.50531,3.18847 l 48.65372,-0.0533 -34.75265,-3.27879 z m -125.10957,-9.54592 c -32.34214,-6.26695 -74.39435,-23.21805 -71.04471,-28.63788 1.75037,-2.83217 0.71132,-3.41096 -2.5287,-1.40852 -3.02498,1.86956 -19.21996,-3.02115 -35.98883,-10.86827 -30.25314,-14.15715 -42.79841,-18.26121 -29.44836,-9.63375 6.17824,3.99272 6.17824,4.52123 0,4.75696 -3.82281,0.14598 0.34751,4.24264 9.26737,9.10398 8.91985,4.86133 20.12804,7.67831 24.90713,6.25989 5.15777,-1.53079 7.52398,-0.69354 5.82217,2.06008 -5.50282,8.90373 72.5635,32.88204 105.96448,32.54725 10.44354,-0.10465 8.71477,-1.14424 -6.95055,-4.17974 z m -125.10955,-38.9642 c -6.3713,-3.64217 -9.49907,-6.62215 -6.95054,-6.62215 2.54853,0 9.8466,2.97998 16.21791,6.62215 6.37133,3.64217 9.49907,6.62215 6.95054,6.62215 -2.54853,0 -9.84658,-2.97998 -16.21791,-6.62215 z m 118.15903,25.89115 c -5.09704,-2.00226 -16.56543,-4.85246 -25.48526,-6.33379 l -16.21793,-2.69338 13.90107,6.4185 c 7.64558,3.53018 19.11396,6.38041 25.48527,6.33378 10.41233,-0.0761 10.6467,-0.45317 2.31685,-3.72511 z m 98.0635,-11.6907 c -1.40377,-3.65817 -0.0629,-7.54299 2.97952,-8.63303 3.04247,-1.08999 4.42883,-3.19651 3.08075,-4.68109 -4.87604,-5.36989 -14.00774,4.67864 -11.11121,12.22678 1.63324,4.25618 4.01212,7.73848 5.28638,7.73848 1.27427,0 1.1683,-2.99304 -0.23539,-6.65114 z m -14.04965,-8.23287 c 1.51544,-2.45204 0.41147,-6.80194 -2.4528,-9.66639 -3.85514,-3.85513 -7.71948,-2.69688 -14.87456,4.45823 l -9.66639,9.66639 12.11924,0 c 6.66555,0 13.35911,-2.0062 14.87451,-4.45823 z m 92.06625,1.24595 c 7.72891,-3.10188 5.8058,-4.64174 -11.58418,-9.27565 -11.4684,-3.05601 -23.26577,-8.66936 -26.21641,-12.47416 -2.95063,-3.80482 -8.16352,-6.53519 -11.58421,-6.06754 -14.70862,2.01083 -23.02637,-1.04806 -37.56814,-13.81591 -8.49928,-7.46251 -26.41887,-17.73474 -39.82135,-22.82729 -31.12649,-11.82713 -55.44325,-30.40477 -63.84964,-48.78017 -3.6355,-7.94678 -13.92751,-23.8319 -22.87114,-35.30027 -8.94363,-11.46838 -21.59027,-27.77218 -28.10363,-36.23073 -6.51335,-8.45854 -12.91327,-14.30834 -14.22204,-12.9996 -1.30876,1.3088 -7.65179,-3.88607 -14.09562,-11.54414 -8.47435,-10.07117 -10.31489,-15.32482 -6.65206,-18.98764 2.95392,-2.95391 3.48846,-8.14705 1.28288,-12.46308 -2.07962,-4.06949 -7.48076,-23.03778 -12.00253,-42.15175 -9.96734,-42.13261 -10.70701,-43.56636 -18.94779,-36.72711 -8.48027,7.03798 -8.84526,-2.00447 -0.4213,-10.43719 6.17649,-6.18296 4.06718,-45.86192 -5.4367,-102.2721 -2.03951,-12.1055 -1.9843,-22.01001 0.12274,-22.01001 5.04164,0 4.81205,-28.34657 -0.2949,-36.40638 -2.54195,-4.01175 -8.80544,-5.38261 -17.30535,-3.78756 -7.32684,1.37494 -21.29391,3.80618 -31.03798,5.4028 -15.20785,2.49184 -16.88781,3.90137 -11.86424,9.95439 5.12308,6.17296 3.72221,6.65192 -11.24406,3.84424 -11.37386,-2.13375 -17.09629,-1.48371 -17.09629,1.94206 0,2.83217 -4.17032,5.14939 -9.26736,5.14939 -5.09706,0 -13.4377,4.17032 -18.53474,9.26738 -5.3027,5.30266 -15.44564,9.26736 -23.7089,9.26736 -12.87766,0 -14.07951,1.12899 -11.0988,10.42581 7.79009,24.29723 5.43007,32.68153 -10.37076,36.84325 -8.28273,2.18157 -15.0595,6.86084 -15.0595,10.39838 0,3.53756 -2.60643,7.30916 -5.79209,8.38137 -8.39358,2.82501 4.41281,17.35756 15.29586,17.35756 13.86347,0 22.93206,13.18217 22.93206,33.33416 0,16.61348 -0.84486,18.06998 -7.34997,12.6712 -4.97655,-4.13015 -6.49886,-10.35548 -4.71427,-19.27846 3.20751,-16.0375 -7.99367,-22.55592 -19.31147,-11.23813 -6.89576,6.89576 -6.64545,8.38624 3.1616,18.82537 5.85766,6.23517 9.26618,13.5762 7.5745,16.3134 -1.69167,2.7372 -0.90992,4.97671 1.73721,4.97671 2.64713,0 9.14696,8.4953 14.44404,18.87844 8.05255,15.78431 10.75559,17.94517 16.49221,13.1842 5.93098,-4.92225 5.14871,-7.48164 -5.77013,-18.87842 -10.13705,-10.58083 -11.07017,-13.18422 -4.72553,-13.18422 6.02278,0 7.24347,-2.63867 5.12515,-11.07871 -1.5293,-6.09328 -0.52646,-12.47182 2.22858,-14.17454 3.17274,-1.96086 5.00912,2.1007 5.00912,11.07872 0,15.95332 0.9367,16.5037 14.26573,8.38241 8.22666,-5.01244 10.71316,-4.31958 18.47187,5.14704 12.12979,14.79984 11.27344,20.70136 -2.61863,18.04573 -14.38127,-2.74916 -14.50423,0.53166 -0.51677,13.78867 5.99906,5.68575 12.16637,16.63284 13.70517,24.32685 1.95987,9.79929 5.49251,13.98915 11.7949,13.98915 4.94841,0 10.0488,2.60643 11.33425,5.7921 1.32484,3.28332 2.49562,2.06506 2.70299,-2.8126 0.26949,-6.33874 2.50119,-7.7187 8.47476,-5.24018 4.45993,1.85047 10.82248,3.46367 14.13899,3.58485 7.90472,0.28887 29.59366,26.18165 27.41235,32.72559 -0.93149,2.79452 -6.66136,6.25368 -12.733,7.687 l -11.03936,2.60604 13.69973,9.51036 c 7.53486,5.23075 17.22728,10.78022 21.53871,12.33223 11.78219,4.24132 24.69045,25.93139 18.88644,31.73541 -3.27247,3.27243 -10.90754,1.64063 -24.30627,-5.1949 -10.74431,-5.48132 -20.56048,-8.94065 -21.81372,-7.68743 -1.25327,1.25325 21.36426,13.62634 50.26115,27.4958 35.73473,17.15132 58.39849,31.3469 70.85653,44.38146 l 18.31673,19.16437 -14.88682,0 c -9.15269,0 -17.94321,-3.56961 -22.82178,-9.26737 -8.99398,-10.5042 -20.73806,-12.53125 -17.05928,-2.94449 3.45073,8.99243 22.80706,16.84555 41.5209,16.84555 14.6885,0 15.99987,1.13934 15.99987,13.90106 0,7.65532 2.60241,14.21815 5.79211,14.60682 3.18565,0.3883 8.21062,0.93752 11.16662,1.22079 2.95597,0.2831 9.65507,4.38884 14.8869,9.12355 6.31388,5.71397 12.29702,7.40617 17.79392,5.03246 15.47968,-6.68446 55.93662,-7.67853 67.00986,-1.64648 9.31167,5.07234 62.11495,21.965 68.6981,21.9776 1.27424,0.002 6.48714,-1.66923 11.58418,-3.71487 z M 458.06645,688.67226 c -6.04518,-11.29554 -6.1126,-15.56584 -0.18795,-11.90422 7.44165,4.59918 14.94009,20.86698 9.61838,20.86698 -2.54853,0 -6.79224,-4.03325 -9.43041,-8.96276 z M 393.39762,574.45617 c 0.22231,-5.39799 1.32032,-6.49598 2.79952,-2.79952 1.33853,3.34494 1.17391,7.34149 -0.36582,8.88124 -1.53974,1.53973 -2.63492,-1.19705 -2.43372,-6.08172 z M 292.6566,512.01033 c -5.51007,-2.066 -11.35103,-7.95531 -12.97986,-13.08737 -1.62885,-5.13202 -5.46126,-8.73654 -8.51644,-8.01002 -3.0552,0.72653 -3.99103,0.44637 -2.07964,-0.62259 1.9114,-1.06894 3.6399,-6.46138 3.84108,-11.98319 0.20123,-5.52182 1.37851,-7.55034 2.61623,-4.50785 1.23773,3.04249 4.72212,4.71759 7.74312,3.72245 7.94963,-2.61866 25.56735,21.74257 22.21143,30.71327 -2.07639,5.55031 -5.45317,6.54348 -12.83592,3.7753 z m 47.6811,-9.54928 c -8.39041,-11.97898 -10.07101,-34.40158 -2.91015,-38.82724 2.54855,-1.57508 4.63369,0.387 4.63369,4.36022 0,3.9732 1.8485,7.224 4.10777,7.224 5.27133,0 9.17393,25.94049 4.93456,32.79995 -2.10151,3.40031 -5.84559,1.46777 -10.76587,-5.55693 z M 223.46195,455.88677 c -4.85491,-5.53511 -5.86631,-8.3208 -2.24755,-6.1904 4.9321,2.90362 5.82838,1.91599 3.57953,-3.94439 -2.52223,-6.57284 -1.54074,-7.03693 6.16309,-2.91394 8.91735,4.7724 13.08137,23.11262 5.24758,23.11262 -2.15353,0 -7.88773,-4.52875 -12.74265,-10.06389 z m 9.26739,-18.41247 c -8.76582,-9.87261 -8.75653,-9.90461 1.34061,-4.60879 11.26324,5.90744 18.1985,14.55039 11.67549,14.55039 -2.30395,0 -8.16118,-4.47371 -13.0161,-9.9416 z m 21.65777,-0.5525 c -17.34922,-8.85191 -16.61724,-15.81091 1.5995,-15.20646 8.86409,0.2941 17.77797,2.19623 19.80868,4.22692 2.03071,2.0307 -2.55904,2.17087 -10.19939,0.31148 l -13.89156,-3.38072 11.58422,9.80043 c 12.87348,10.89119 8.3497,13.05023 -8.90145,4.24835 z m 5.19449,-27.50213 c -3.05823,-3.05824 -5.5604,-8.2888 -5.5604,-11.62348 0,-4.90313 1.77294,-4.95582 9.26736,-0.27546 5.09706,3.18315 9.26738,8.41371 9.26738,11.62346 0,7.36604 -5.76146,7.48838 -12.97434,0.27548 z m 89.89934,-20.76343 c -1.6621,-5.23687 -0.65411,-15.53117 2.24,-22.87624 4.86783,-12.35431 5.54648,-12.66047 9.05969,-4.08729 5.51475,13.45747 5.19789,18.0562 -1.91429,27.7827 -6.17583,8.44594 -6.45242,8.42181 -9.3854,-0.81917 z M 777.1812,818.48496 c 4.37851,-2.77206 -3.45126,-5.1838 -23.95955,-7.38004 -16.75489,-1.79429 -33.23514,-1.47327 -36.62285,0.71337 -4.07111,2.62781 1.69561,4.90722 17.00902,6.72305 36.24182,4.29751 36.69736,4.29692 43.57338,-0.0565 z m 110.55076,-3.55779 c -4.43024,-1.15977 -12.77087,-1.20185 -18.53476,-0.0937 -5.76388,1.10833 -2.13919,2.05727 8.05491,2.1087 10.19414,0.0515 14.91006,-0.85542 10.47985,-2.01518 z M 332.79387,767.70766 c 0,-4.93283 -11.33971,-14.67321 -24.82105,-21.32027 -5.46237,-2.69331 -11.98994,-9.55149 -14.50566,-15.2404 -2.51571,-5.68894 -6.49601,-10.34354 -8.84507,-10.34354 -6.63207,0 -49.13566,-45.28177 -49.13566,-52.34735 0,-3.45823 -11.73604,-21.58457 -26.08014,-40.28071 -14.34405,-18.69613 -30.15698,-43.2094 -35.13982,-54.47393 -4.98284,-11.26452 -10.06824,-19.47241 -11.30091,-18.23975 -3.32181,3.3218 18.18713,43.96981 41.15299,77.77168 11.07934,16.30696 25.62879,39.11596 32.33213,50.68669 22.50065,38.83884 96.34319,103.05811 96.34319,83.78758 z m 69.50529,-20.8785 c 0,-0.97702 -4.17318,-2.86769 -9.27376,-4.20155 -5.10056,-1.33381 -8.10523,-0.53446 -6.67706,1.77642 2.49408,4.03552 15.95082,6.08142 15.95082,2.42513 z m -4.63368,-21.39204 c -3.82279,-2.47047 -9.03568,-4.49173 -11.5842,-4.49173 -2.54855,0 -1.50595,2.02126 2.31683,4.49173 3.8228,2.47052 9.0357,4.49178 11.58422,4.49178 2.54853,0 1.50596,-2.02126 -2.31685,-4.49178 z m -4.63368,-11.46521 c 0,-3.90739 -28.57779,-17.1058 -31.25073,-14.43287 -1.42308,1.4231 4.5049,5.66552 13.17325,9.4277 18.29427,7.93992 18.07748,7.87988 18.07748,5.00517 z m -37.06951,-4.69049 c 0,-4.38477 -33.73728,-16.27796 -45.74432,-16.12593 l -12.17677,0.15431 10.93915,9.1132 c 9.67599,8.06077 46.98194,13.50678 46.98194,6.85842 z m 48.65373,-7.01271 c -5.09706,-2.19031 -12.39511,-3.98233 -16.21791,-3.98233 -4.38105,0 -3.52457,1.47216 2.31685,3.98233 5.09707,2.1903 12.39511,3.98233 16.21791,3.98233 4.38104,0 3.52456,-1.47219 -2.31685,-3.98233 z m -48.65373,-15.72216 c 0,-1.0016 -3.23603,-3.06286 -7.19118,-4.58063 -4.12364,-1.58235 -5.98359,-0.80556 -4.36022,1.82109 2.72116,4.40299 11.5514,6.51242 11.5514,2.75954 z m -31.42667,-20.9968 c -1.82929,-4.90425 -7.85773,-14.11949 -13.39656,-20.47831 -9.99487,-11.47455 -11.25722,-19.00906 -4.89063,-29.1901 4.73372,-7.56978 -17.86796,-12.27557 -29.37656,-6.11632 -10.59801,5.67186 -8.46388,20.7047 4.46729,31.46782 6.74063,5.61048 6.67769,5.95011 -0.67428,3.63848 -15.9584,-5.01778 -7.65839,1.87715 18.53474,15.39703 14.65404,7.56385 27.09781,13.8528 27.65282,13.97536 0.55501,0.12273 -0.48756,-3.78973 -2.31682,-8.69396 z m 13.45758,-77.61728 c -4.0385,-6.94484 -4.94272,-7.14504 -5.05842,-1.11981 -0.14994,7.80348 4.72261,14.82965 8.00663,11.5456 1.08312,-1.08312 -0.24359,-5.77471 -2.94821,-10.42579 z m -54.87907,-7.31632 c -5.25671,-5.72414 -10.99105,-17.18429 -12.74295,-25.46702 -1.75189,-8.28271 -4.90956,-15.05947 -7.017,-15.05947 -2.10743,0 -2.74113,4.1703 -1.40824,9.26737 2.76397,10.56936 -2.36757,11.60072 -19.31053,3.88098 -13.96183,-6.36144 -19.04232,-3.11678 -12.74348,8.13864 4.32311,7.72495 56.7782,34.70671 60.83087,31.29011 1.07194,-0.90371 -2.35196,-6.32647 -7.60867,-12.05061 z m -118.73841,-50.9523 c -5.91573,-13.37976 -9.92767,-26.80828 -8.9154,-29.84116 1.01229,-3.03288 -1.33584,-11.3735 -5.21804,-18.53476 -3.8822,-7.16124 -7.14202,-10.29093 -7.24408,-6.95486 -0.10188,3.33607 -2.27068,4.77687 -4.81921,3.20181 -2.54853,-1.57508 -4.63369,-1.98655 -4.63369,-0.91438 0,4.06482 29.01009,66.04819 33.5007,71.57811 8.82161,10.86322 8.09362,5.81016 -2.67028,-18.53476 z m 1.6054,-137.85218 c 0,-2.54853 -0.91951,-4.63369 -2.04337,-4.63369 -1.12386,0 -3.33209,2.08516 -4.90715,4.63369 -1.57508,2.54853 -0.65556,4.63369 2.04337,4.63369 2.69892,0 4.90715,-2.08516 4.90715,-4.63369 z m 43.71996,-4.14817 c 2.90029,-4.69277 -8.14619,-9.93728 -19.77207,-9.38708 -4.86222,0.23011 -5.57044,1.23647 -1.90899,2.71261 3.20154,1.29074 4.64233,4.25386 3.20179,6.58471 -1.44057,2.33087 1.55113,4.23793 6.6482,4.23793 5.09704,0 10.42103,-1.86667 11.83107,-4.14817 z m -93.71314,-54.93134 c 2.63508,-3.18567 9.22735,-5.62749 14.64949,-5.42629 5.42212,0.20123 7.25196,1.41753 4.06631,2.70297 -9.5536,3.85497 -6.57382,14.74012 6.35386,23.21067 10.80137,7.07733 12.72499,7.17817 17.37632,0.91091 6.81159,-9.17801 25.11971,-13.8578 27.40591,-7.0053 1.17215,3.51334 14.13493,0.3503 38.4501,-9.38221 20.17498,-8.07531 48.98205,-15.94939 64.0157,-17.49794 47.61071,-4.9041 85.56209,-16.52839 95.5919,-29.27925 16.18002,-20.56955 12.54605,-24.26361 -23.86891,-24.26361 -28.36955,0 -32.21694,0.94735 -27.4032,6.74754 3.07996,3.71117 4.31109,8.83299 2.73581,11.38186 -4.20367,6.8017 -17.4258,0.31645 -14.56329,-7.14313 3.73104,-9.72298 -13.06361,-7.95532 -67.13157,7.06564 -26.5644,7.38005 -55.59698,14.9233 -64.5168,16.76284 -19.80221,4.08373 -25.41783,7.12771 -20.18789,10.94291 2.18349,1.59282 6.59409,7.58767 9.80135,13.32185 5.22141,9.33525 4.82605,10.4258 -3.77989,10.4258 -13.56954,0 -27.53676,-8.35353 -27.53676,-16.46921 0,-5.12844 -3.23832,-6.12448 -12.74264,-3.91942 -22.25443,5.1632 -33.59424,14.94902 -33.59424,28.99054 0,17.84424 6.58318,23.17797 8.51896,6.90213 0.86264,-7.25297 3.72441,-15.79364 6.35948,-18.9793 z m 90.53795,-4.35254 c -4.45994,-1.16549 -8.10895,-4.19638 -8.10895,-6.73531 0,-6.55275 19.73294,-2.84739 22.0332,4.13731 1.95588,5.93899 0.14993,6.27595 -13.92425,2.598 z m 10.4258,-19.97432 c 0,-2.54853 1.96209,-4.63369 4.36021,-4.63369 2.39814,0 5.64893,2.08516 7.224,4.63369 1.57508,2.54853 -0.387,4.63368 -4.36021,4.63368 -3.9732,0 -7.224,-2.08515 -7.224,-4.63368 z m 32.0406,-15.35935 c 2.09422,-2.0942 11.90178,-3.09997 21.79459,-2.23504 l 17.98696,1.57258 -21.7946,2.23506 c -11.987,1.22926 -20.08114,0.5216 -17.98695,-1.5726 z m 96.46699,-13.01777 c 3.14318,-3.16674 6.88213,-4.59046 8.30879,-3.16381 1.42666,1.42666 -1.14504,4.01763 -5.71488,5.75773 -6.60392,2.51463 -7.13616,1.98239 -2.59391,-2.59392 z m 103.04258,14.29505 c -10.90747,-6.89809 -16.43653,-5.10961 -6.55083,2.119 4.94299,3.61441 9.97277,5.5862 11.17722,4.38174 1.20446,-1.20447 -0.87741,-4.1298 -4.62639,-6.50074 z M 281.8233,261.52149 c 0,-5.09705 1.63834,-8.25484 3.64076,-7.01725 2.00243,1.23755 3.64077,-1.76714 3.64077,-6.67709 0,-11.08858 0.85758,-11.11536 -47.99397,1.49863 l -40.37708,10.42581 23.16843,2.31683 c 16.72526,1.67254 23.59884,0.63466 24.71605,-3.73193 1.02437,-4.0037 5.33955,-1.95724 12.76312,6.05292 12.12175,13.07959 20.44192,11.9123 20.44192,-2.86792 z m -26.39299,-32.14321 c 1.85728,-7.1023 -0.43684,-10.63449 -9.0286,-13.90107 -21.68496,-8.2446 -25.34358,-4.54228 -12.96936,13.12436 9.02886,12.89053 18.74045,13.23344 21.99796,0.77671 z m -32.59832,1.84861 c -3.13716,-1.26927 -9.39265,-1.34652 -13.90107,-0.17175 -4.50842,1.17482 -1.94166,2.21333 5.70393,2.30776 7.64557,0.0945 11.33429,-0.86681 8.19714,-2.13607 z m 11.39948,-41.46329 c -1.53974,-1.53973 -5.53628,-1.70436 -8.88123,-0.36583 -3.69644,1.47918 -2.59845,2.57716 2.79952,2.79951 4.88468,0.20124 7.62144,-0.89397 6.08171,-2.4337 z m -32.5244,-49.88488 c -2.68735,-8.06206 -23.80621,-6.31979 -25.42728,2.09769 -1.10728,5.74966 1.67576,6.88117 12.88018,5.23671 7.87577,-1.15594 13.50895,-4.44881 12.5471,-7.3344 z"
       id="path5088"
       inkscape:connector-curvature="0" />
  </g>
</svg>
