<?xml version="1.0" encoding="UTF-8" standalone="no"?>
<!-- Created with Inkscape (http://www.inkscape.org/) -->

<svg
   xmlns:dc="http://purl.org/dc/elements/1.1/"
   xmlns:cc="http://creativecommons.org/ns#"
   xmlns:rdf="http://www.w3.org/1999/02/22-rdf-syntax-ns#"
   xmlns:svg="http://www.w3.org/2000/svg"
   xmlns="http://www.w3.org/2000/svg"
   xmlns:sodipodi="http://sodipodi.sourceforge.net/DTD/sodipodi-0.dtd"
   xmlns:inkscape="http://www.inkscape.org/namespaces/inkscape"
   width="1000"
   height="1000"
   id="svg4955"
   version="1.1"
   inkscape:version="0.48.4 r9939"
   sodipodi:docname="snap.svg">
  <defs
     id="defs5498" />
  <sodipodi:namedview
     inkscape:window-height="1056"
     inkscape:window-width="1920"
     inkscape:pageshadow="2"
     inkscape:pageopacity="0.0"
     borderopacity="1.0"
     bordercolor="#666666"
     pagecolor="#ffffff"
     id="base"
     showgrid="false"
     showguides="false"
     inkscape:guide-bbox="true"
     inkscape:zoom="0.75405844"
     inkscape:cx="253.40754"
     inkscape:cy="537.16137"
     inkscape:window-x="0"
     inkscape:window-y="24"
     inkscape:current-layer="g9397"
     inkscape:window-maximized="1">
    <sodipodi:guide
       orientation="0,1"
       position="189.44385,479.26189"
       id="guide7179" />
    <sodipodi:guide
       orientation="1,0"
       position="429.5717,650.94149"
       id="guide7232" />
    <sodipodi:guide
       orientation="0,1"
       position="423.85732,718.7686"
       id="guide7234" />
    <sodipodi:guide
       orientation="0,1"
       position="407.21111,603.48736"
       id="guide7236" />
    <sodipodi:guide
       orientation="1,0"
       position="330.68822,603.48736"
       id="guide7238" />
    <sodipodi:guide
       orientation="1,0"
       position="526.71602,603.48736"
       id="guide7240" />
    <sodipodi:guide
       orientation="0,1"
       position="429.5717,709.07902"
       id="guide7242" />
    <sodipodi:guide
       orientation="0,1"
       position="429.5717,618.89132"
       id="guide7244" />
    <sodipodi:guide
       orientation="1,0"
       position="421.62126,644.23332"
       id="guide7246" />
    <sodipodi:guide
       orientation="1,0"
       position="370.68882,649.20234"
       id="guide7248" />
    <sodipodi:guide
       orientation="1,0"
       position="377.397,646.46938"
       id="guide7250" />
    <sodipodi:guide
       orientation="0,1"
       position="401.99364,699.63788"
       id="guide7252" />
    <sodipodi:guide
       orientation="0,1"
       position="402.73899,694.42041"
       id="guide7254" />
    <sodipodi:guide
       orientation="0,1"
       position="412.67703,632.80457"
       id="guide7258" />
    <sodipodi:guide
       orientation="0,1"
       position="421.62126,626.0964"
       id="guide7260" />
    <sodipodi:guide
       orientation="1,0"
       position="469.5723,641.50036"
       id="guide7262" />
    <sodipodi:guide
       orientation="1,0"
       position="390.5649,658.14657"
       id="guide7264" />
    <sodipodi:guide
       orientation="1,0"
       position="384.10517,643.23951"
       id="guide7266" />
    <sodipodi:guide
       orientation="1,0"
       position="407.45956,632.80457"
       id="guide7268" />
    <sodipodi:guide
       orientation="0,1"
       position="562.25,301.75"
       id="guide9656" />
    <sodipodi:guide
       orientation="0,1"
       position="304.625,414.0625"
       id="guide9658" />
    <sodipodi:guide
       orientation="0,1"
       position="574.5,288.25"
       id="guide9660" />
    <sodipodi:guide
       orientation="0,1"
       position="274,595.875"
       id="guide9707" />
    <sodipodi:guide
       orientation="0,1"
       position="278.41012,505.92896"
       id="guide9709" />
  </sodipodi:namedview>
  <metadata
     id="metadata5594">
    <rdf:RDF>
      <cc:Work
         rdf:about="">
        <dc:format>image/svg+xml</dc:format>
        <dc:type
           rdf:resource="http://purl.org/dc/dcmitype/StillImage" />
        <dc:title></dc:title>
      </cc:Work>
    </rdf:RDF>
  </metadata>
  <g
     inkscape:groupmode="layer"
     id="layer13"
     inkscape:label="Layer#1">
    <g
       id="g9397"
       transform="translate(38.074989,310.11877)">
      <path
         style="fill:#000000;fill-opacity:1"
         d="m 596.09994,-220.92439 c -7.11039,0.20699 -22.8366,1.93149 -34.59932,3.96016 -43.90297,7.5718 -88.30093,30.99002 -122.03555,64.35265 l -14.69429,14.53797 0,-18.9671 c 0,-10.43064 1.13808,-24.81758 2.50115,-31.94184 1.3631,-7.12424 2.1433,-13.22841 1.77166,-13.60003 -0.37162,-0.37164 -8.3983,3.26224 -17.87284,8.12875 -33.40832,17.15985 -66.16896,46.24922 -88.06152,78.21322 -9.99502,14.59311 -28.31609,50.073871 -28.34644,54.869103 -0.01,1.490072 -0.5932,1.80997 -1.51111,0.833718 -2.33219,-2.480446 -5.02664,-17.362772 -6.25289,-34.807749 -0.61672,-8.773602 -1.6346,-15.944862 -2.29273,-15.944862 -1.97191,0 -30.56545,57.868866 -37.93419,76.754208 -3.76566,9.65111 -8.38564,23.15735 -10.26516,30.0138678 -3.39025,12.3676643 -7.2461,41.7009342 -5.67971,43.3012562 0.44883,0.458546 11.07202,1.208892 23.60466,1.667437 l 22.77094,0.833719 2.24062,6.669748 c 6.09621,18.046372 3.58899,50.058329 -5.78393,73.471444 -4.05125,10.11986 -13.61242,26.78319 -14.64218,25.53263 -0.27598,-0.33517 0.26691,-6.43769 1.19847,-13.54792 0.93155,-7.11024 1.29875,-13.34342 0.78161,-13.86057 -0.51715,-0.51714 -6.01204,-1.98952 -12.19313,-3.28277 -6.18109,-1.29325 -12.62964,-2.79534 -14.32954,-3.33488 -3.53965,-1.12343 -3.46685,0.63805 1.82376,64.24844 1.56367,18.80035 2.71976,34.34937 2.60537,34.54721 -0.11438,0.19784 -3.87057,-1.49044 -8.33718,-3.75173 -7.98172,-4.04085 -13.44518,-5.32873 -12.19314,-2.86591 9.55802,18.80102 14.57749,35.51553 14.64219,48.92886 l 0,6.04446 -8.59773,-0.83372 -8.59772,-0.83372 5.21074,6.51343 c 6.27238,7.83533 11.4706,19.21382 12.92264,28.29432 1.01,6.31623 0.68512,7.00432 -5.36706,11.56784 -3.52805,2.66027 -10.53612,8.70384 -15.58012,13.44372 -8.65286,8.13117 -9.77111,8.69179 -20.374,9.79619 -6.1807,0.6438 -11.60691,1.70137 -12.03681,2.39694 -0.42988,0.69559 2.58114,3.63151 6.66975,6.51342 4.08861,2.88192 7.39925,6.23232 7.39925,7.45136 0,1.21903 -6.02632,8.94329 -13.44371,17.14334 -20.62785,22.80437 -48.25146,57.95575 -48.25146,61.43464 0,0.59 3.095,-0.49348 6.82607,-2.39694 6.78784,-3.4629 23.1878,-6.44868 23.1878,-4.2207 0,0.65033 -2.11058,4.29516 -4.74178,8.12875 -12.18578,17.75445 -27.75702,55.99851 -31.57709,77.53583 -1.39681,7.87523 -1.31509,8.71742 1.09426,7.71189 5.33797,-2.22779 15.37092,-4.48202 16.2054,-3.64752 0.46785,0.46784 -2.1066,9.74811 -5.73181,20.63454 -5.74025,17.23786 -7.69922,26.07813 -11.30731,51.79476 -0.61867,4.40944 -2.33453,6.27133 -9.95251,10.62991 -8.85926,5.06874 -9.06057,5.39653 -6.305,8.4414 2.78037,3.07227 7.49675,3.1223 162.21036,2.70959 l 159.39657,-0.41686 1.77165,-20.00925 1.71954,-20.00924 11.9326,-19.17553 11.9847,-19.17552 -5.36706,-2.65748 c -2.94154,-1.46406 -9.86914,-4.44804 -15.37169,-6.61764 -5.50254,-2.16959 -10.18178,-4.04704 -10.42148,-4.1686 -0.23969,-0.12155 4.35023,-11.01899 10.21305,-24.22994 l 10.68202,-24.02152 22.92726,0 22.87516,0 9.9004,22.30198 c 5.42504,12.26655 9.64636,22.48173 9.37934,22.71883 -0.26703,0.23707 -7.07921,3.74679 -15.11115,7.764 l -14.59008,7.29504 12.34946,19.80081 12.29735,19.80082 1.14636,17.71652 c 0.61845,9.72377 1.51929,18.97751 1.98008,20.58242 0.7898,2.75074 9.28196,2.91802 148.24558,2.91802 l 147.41186,0 -0.78161,-4.58545 c -0.81311,-4.81293 -7.50347,-51.94881 -7.50347,-52.88902 0,-0.29911 1.31311,-0.2804 2.91802,0.10421 1.6049,0.38461 4.018,0.0133 5.31495,-0.83372 1.93033,-1.26053 1.47622,-2.50324 -2.29272,-6.98239 l -4.58546,-5.47128 3.90806,-1.45901 c 9.15443,-3.38643 13.07641,-11.2552 5.6276,-11.2552 -5.95263,0 -15.83675,-9.47793 -20.21767,-19.38395 -2.08388,-4.71203 -7.53328,-23.84435 -12.14103,-42.51965 -4.60776,-18.67531 -10.59146,-41.28991 -13.28739,-50.23154 l -4.8981,-16.25751 4.42913,-0.10422 c 5.56376,-0.15957 15.6752,-3.77644 16.36173,-5.83603 0.28508,-0.85524 -3.04264,-3.40494 -7.39925,-5.6797 -4.70848,-2.45849 -15.02129,-11.52586 -25.42842,-22.35408 -9.62945,-10.01908 -27.48104,-28.1058 -39.70584,-40.17481 l -22.24987,-21.93722 0.62529,-40.748 0.62529,-40.74799 5.31496,-14.01689 c 2.93637,-7.71245 8.37143,-18.87412 12.08892,-24.80313 3.71746,-5.92899 6.37926,-11.18095 5.88813,-11.67206 -1.8418,-1.84182 -13.64272,3.03817 -18.86288,7.81611 l -5.41917,4.95021 0,-29.59701 c 0,-16.30308 -0.41754,-30.06664 -0.93793,-30.58705 -0.52039,-0.52039 -3.70937,-0.20425 -7.08661,0.7295 -3.37724,0.93373 -9.52523,2.16379 -13.65214,2.7617 l -7.50347,1.09425 0.052,7.50347 c 0.01,4.10916 0.57464,10.82792 1.25057,14.95482 1.15279,7.03821 1.06505,7.29669 -1.4069,4.1686 -5.13562,-6.49879 -13.99808,-25.79124 -17.24755,-37.51734 -4.55597,-16.44076 -6.02792,-36.917988 -3.4912,-49.137284 3.80836,-18.344842 2.61338,-17.542805 25.68896,-17.768626 29.99854,-0.293586 28.80701,0.31106 34.23456,-16.465941 6.60777,-20.425154 20.7353,-46.236296 29.12805,-53.201665 4.70425,-3.904203 3.03271,-5.508878 -4.42913,-4.272807 -3.89764,0.645665 -8.42538,1.8768 -10.10884,2.761693 -1.68345,0.884908 -3.32747,1.362212 -3.64752,1.042148 -1.19493,-1.194919 5.83953,-37.609344 9.27512,-47.990924 1.96272,-5.930857 5.91947,-15.31019 8.80615,-20.842963 2.88667,-5.532771 5.49686,-10.538821 5.78392,-11.150981 1.06253,-2.26582 -19.37952,-5.30052 -35.53725,-5.26285 -24.71794,0.0575 -46.80017,6.87646 -66.64537,20.530316 -9.09772,6.259392 -10.18156,4.992407 -8.59773,-10.160946 1.31209,-12.5534 7.81331,-26.49322 16.77859,-35.8499 8.26735,-8.62828 7.95517,-8.86559 -12.55789,-10.21305 -12.6273,-0.82946 -37.48945,1.44215 -44.18708,4.01227 -1.8079,0.69376 -2.2994,-0.92669 -2.29273,-7.19082 0.0239,-19.99369 5.66802,-41.0502 14.90272,-55.33807 3.69693,-5.71986 6.72186,-10.76909 6.72186,-11.20309 0,-0.30763 -1.38161,-0.43375 -3.75173,-0.36475 z M 777.9548,-3.5322834 c 0,0 -26.56173,25.6610224 -59.45456,39.7579524 -33.15768,14.210416 -71.28293,13.026853 -71.28293,13.026853 0,0 -6.07173,14.067999 -4.68967,33.140311 1.38206,19.072327 9.63987,30.118087 9.63987,30.118087 0,0 67.446,-11.31493 93.42858,-38.403164 C 771.57867,47.01954 777.9548,-3.5322834 777.9548,-3.5322834 z M 141.93177,-1.18745 c 0,0 6.37612,50.551823 32.3587,77.640039 25.98258,27.088231 93.42858,38.403161 93.42858,38.403161 0,0 8.30992,-11.04575 9.69198,-30.118083 1.38205,-19.072312 -4.74178,-33.140312 -4.74178,-33.140312 0,0 -38.12525,1.183563 -71.28293,-13.026852 C 168.49349,24.473573 141.93177,-1.18745 141.93177,-1.18745 z M 380.6358,161.33556 c 18.51039,-0.684 22.09355,16.72648 22.09355,16.72648 0,0 -11.2114,-5.24489 -25.58474,-1.92798 -14.37334,3.31693 -18.2376,15.16326 -18.2376,15.16326 0,0 -4.62161,-25.99608 17.82074,-29.5449 1.37021,-0.21667 2.67403,-0.37126 3.90805,-0.41686 z m 182.74069,27.4606 c 3.1077,-0.15057 6.51451,0.7263 10.10883,3.28277 14.04496,9.98953 5.52339,23.13569 5.52339,23.13569 0,0 -0.80244,-9.34947 -10.5778,-15.31958 -9.77534,-5.97007 -20.89508,-1.09426 -20.89508,-1.09426 0,0 6.51753,-9.55301 15.84066,-10.00462 z m -172.00656,11.88049 c 21.66218,0.0915 25.01156,20.53032 25.01156,20.53032 0,0 -12.85066,-6.67525 -29.80544,-3.4912 -16.95477,3.18409 -22.04144,16.8828 -22.04144,16.8828 0,0 -4.14463,-30.59466 22.24987,-33.66138 1.61153,-0.18724 3.1413,-0.26664 4.58545,-0.26054 z m 156.73909,21.72879 c 2.00342,-0.0117 4.19243,0.317 6.56553,1.09426 18.54595,6.07427 13.80846,23.13569 13.80846,23.13569 0,0 -6.70231,-8.55884 -19.27974,-11.72417 -12.57739,-3.16531 -20.32189,4.58545 -20.32189,4.58545 0,0 5.20366,-17.00434 19.22764,-17.09123 z m 48.72042,33.45296 c 25.53585,-0.24865 47.4601,1.76633 61.79939,5.78392 9.41917,2.63907 9.61277,2.77481 9.58776,8.70194 -0.041,9.68259 -1.05078,10.29047 -13.33949,7.71189 -5.94919,-1.24824 -11.27763,-1.7752 -11.82839,-1.14636 -0.55075,0.62882 -2.65522,13.15191 -4.68966,27.82536 -4.56273,32.90857 -7.26356,39.78269 -17.45598,44.29129 -18.58983,8.22315 -72.44408,11.48606 -96.91978,5.88814 -16.83825,-3.85115 -25.09046,-8.00471 -29.28437,-14.7985 -3.02818,-4.9054 -8.64929,-21.69623 -13.13107,-39.02845 -1.48045,-5.72531 -2.66072,-7.14402 -6.66974,-8.02454 -7.72245,-1.69614 -10.93636,1.18231 -13.3395,11.9847 -2.64524,11.89064 -9.65534,31.61486 -13.07896,36.83994 -3.4231,5.22431 -12.17382,9.42724 -26.21003,12.55788 -12.26563,2.73573 -38.70608,4.59401 -50.02311,3.4912 -30.79454,-3.00084 -49.56772,-7.31093 -55.39017,-12.71421 -5.18918,-4.81559 -6.76041,-10.60396 -11.2031,-41.26906 -2.1449,-14.80501 -4.16379,-27.19527 -4.53334,-27.56482 -0.36954,-0.36956 -5.87305,0.39721 -12.19314,1.71954 -6.32008,1.32234 -11.60986,2.24829 -11.77627,2.03219 -0.16641,-0.21612 -0.69921,-3.59236 -1.19847,-7.50347 -1.10148,-8.62873 -0.56036,-9.01823 18.86288,-13.18317 11.26784,-2.41617 21.57369,-3.04841 51.58634,-3.02223 38.18697,0.0332 47.53591,0.84426 97.49296,8.49351 l 28.29432,4.32491 28.39854,-4.32491 c 43.7547,-6.68006 54.53846,-7.81151 85.0914,-8.85826 3.78393,-0.12956 7.503,-0.17292 11.15098,-0.20843 z m -27.20006,14.7985 c -8.06366,0.0824 -15.60195,0.40412 -21.20772,0.99004 -8.62999,0.902 -10.26516,1.5725 -10.26516,4.27281 0,8.91977 7.67546,12.74732 12.29735,6.14867 l 2.44905,-3.49119 1.98008,3.75173 c 1.12455,2.10045 1.64327,6.61244 1.14636,10.31727 -2.78599,20.77099 -27.04374,18.90043 -27.04374,-2.0843 0,-6.24435 0.93591,-9.01935 4.06437,-12.34945 4.88153,-5.19614 4.00789,-5.31316 -14.32953,-1.82376 -15.53223,2.95561 -21.67737,5.25687 -22.97937,8.64983 -1.18615,3.09107 1.60578,21.54815 5.10653,33.8177 4.57829,16.04605 9.62499,20.43411 26.67899,23.29202 4.48612,0.75178 19.00878,1.46734 32.30659,1.56322 25.80613,0.18595 53.22118,-3.92755 57.99555,-8.70194 3.02515,-3.02515 5.96726,-15.64963 8.75404,-37.51733 2.79138,-21.90356 2.05617,-22.91512 -18.44602,-25.2721 -10.12264,-1.16372 -25.06793,-1.70058 -38.50737,-1.56322 z m -210.35761,0.7295 c -16.42142,0.13924 -30.78424,1.03548 -35.38093,2.65748 -6.22028,2.19493 -6.71199,2.80892 -7.19083,9.43144 -0.8112,11.21919 5.88534,47.36282 9.43144,50.90894 1.71763,1.71761 9.44879,4.41576 17.92495,6.25289 19.20084,4.16157 67.95248,3.76427 81.86074,-0.6774 12.39853,-3.95952 16.94043,-12.41682 21.25983,-39.3932 3.09888,-19.35387 2.44896,-19.8831 -30.74338,-26.10581 -10.24615,-1.92089 -30.76229,-2.99088 -50.02311,-3.07434 -2.40759,-0.01 -4.7928,-0.0198 -7.13871,0 z m 43.50968,3.43909 c 1.19942,-0.18326 1.98008,0.75599 1.98008,2.97013 0,7.70299 7.91988,10.50021 12.24525,4.32491 2.35812,-3.36669 2.4992,-3.29447 4.42913,2.55326 2.19536,6.65199 0.50208,14.09135 -4.42913,19.54028 -1.57747,1.74307 -5.05367,3.02223 -8.18087,3.02223 -11.13241,0 -17.64954,-14.91484 -11.61995,-26.57478 1.83633,-3.55107 4.03338,-5.6004 5.57549,-5.83603 z m 141.47162,104.57957 c 0.36913,-0.15107 0.41644,0.9362 0.46896,3.12645 0.0587,2.44699 0.55986,5.5898 1.09426,6.98239 0.73075,1.90435 -1.21429,3.19811 -7.81611,5.15863 -4.82775,1.4337 -10.67132,2.53909 -13.02685,2.44905 -3.11433,-0.11905 -2.27772,-0.71036 3.17855,-2.18851 7.18829,-1.94738 6.5229,-2.07434 -15.84065,-3.23066 -37.56279,-1.94218 -41.12222,-3.81083 -5.78393,-3.02223 l 32.51503,0.72951 2.76169,-5.67971 c 1.37919,-2.77653 2.07991,-4.17376 2.44905,-4.32492 z"
         id="path9743"
         inkscape:connector-curvature="0" />
    </g>
  </g>
</svg>
