<?xml version="1.0" encoding="UTF-8" standalone="no"?>
<!-- Created with Inkscape (http://www.inkscape.org/) -->

<svg
   xmlns:dc="http://purl.org/dc/elements/1.1/"
   xmlns:cc="http://creativecommons.org/ns#"
   xmlns:rdf="http://www.w3.org/1999/02/22-rdf-syntax-ns#"
   xmlns:svg="http://www.w3.org/2000/svg"
   xmlns="http://www.w3.org/2000/svg"
   xmlns:sodipodi="http://sodipodi.sourceforge.net/DTD/sodipodi-0.dtd"
   xmlns:inkscape="http://www.inkscape.org/namespaces/inkscape"
   width="1000"
   height="1000"
   id="svg4955"
   version="1.1"
   inkscape:version="0.48.4 r9939"
   sodipodi:docname="go-daddy.svg">
  <defs
     id="defs5498" />
  <sodipodi:namedview
     inkscape:window-height="1056"
     inkscape:window-width="1920"
     inkscape:pageshadow="2"
     inkscape:pageopacity="0.0"
     borderopacity="1.0"
     bordercolor="#666666"
     pagecolor="#ffffff"
     id="base"
     showgrid="false"
     showguides="false"
     inkscape:guide-bbox="true"
     inkscape:zoom="0.53319984"
     inkscape:cx="338.21254"
     inkscape:cy="627.14421"
     inkscape:window-x="0"
     inkscape:window-y="24"
     inkscape:current-layer="layer16"
     inkscape:window-maximized="1">
    <sodipodi:guide
       orientation="0,1"
       position="189.44385,479.26189"
       id="guide7179" />
    <sodipodi:guide
       orientation="1,0"
       position="429.5717,650.94149"
       id="guide7232" />
    <sodipodi:guide
       orientation="0,1"
       position="423.85732,718.7686"
       id="guide7234" />
    <sodipodi:guide
       orientation="0,1"
       position="407.21111,603.48736"
       id="guide7236" />
    <sodipodi:guide
       orientation="1,0"
       position="330.68822,603.48736"
       id="guide7238" />
    <sodipodi:guide
       orientation="1,0"
       position="526.71602,603.48736"
       id="guide7240" />
    <sodipodi:guide
       orientation="0,1"
       position="429.5717,709.07902"
       id="guide7242" />
    <sodipodi:guide
       orientation="0,1"
       position="429.5717,618.89132"
       id="guide7244" />
    <sodipodi:guide
       orientation="1,0"
       position="421.62126,644.23332"
       id="guide7246" />
    <sodipodi:guide
       orientation="1,0"
       position="370.68882,649.20234"
       id="guide7248" />
    <sodipodi:guide
       orientation="1,0"
       position="377.397,646.46938"
       id="guide7250" />
    <sodipodi:guide
       orientation="0,1"
       position="401.99364,699.63788"
       id="guide7252" />
    <sodipodi:guide
       orientation="0,1"
       position="402.73899,694.42041"
       id="guide7254" />
    <sodipodi:guide
       orientation="0,1"
       position="412.67703,632.80457"
       id="guide7258" />
    <sodipodi:guide
       orientation="0,1"
       position="421.62126,626.0964"
       id="guide7260" />
    <sodipodi:guide
       orientation="1,0"
       position="469.5723,641.50036"
       id="guide7262" />
    <sodipodi:guide
       orientation="1,0"
       position="390.5649,658.14657"
       id="guide7264" />
    <sodipodi:guide
       orientation="1,0"
       position="384.10517,643.23951"
       id="guide7266" />
    <sodipodi:guide
       orientation="1,0"
       position="407.45956,632.80457"
       id="guide7268" />
    <sodipodi:guide
       orientation="0,1"
       position="562.25,301.75"
       id="guide9656" />
    <sodipodi:guide
       orientation="0,1"
       position="304.625,414.0625"
       id="guide9658" />
    <sodipodi:guide
       orientation="0,1"
       position="574.5,288.25"
       id="guide9660" />
    <sodipodi:guide
       orientation="0,1"
       position="274,595.875"
       id="guide9707" />
    <sodipodi:guide
       orientation="0,1"
       position="278.41012,505.92896"
       id="guide9709" />
    <sodipodi:guide
       orientation="1,0"
       position="399.47499,579.75449"
       id="guide10200" />
    <sodipodi:guide
       orientation="1,0"
       position="438.12917,549.60926"
       id="guide10206" />
    <sodipodi:guide
       orientation="1,0"
       position="366.59957,560.79871"
       id="guide10208" />
    <sodipodi:guide
       orientation="1,0"
       position="396.27234,559.2239"
       id="guide10210" />
    <sodipodi:guide
       orientation="0,1"
       position="399.47499,581.27126"
       id="guide10212" />
    <sodipodi:guide
       orientation="0,1"
       position="403.89774,578.28741"
       id="guide10214" />
  </sodipodi:namedview>
  <metadata
     id="metadata5594">
    <rdf:RDF>
      <cc:Work
         rdf:about="">
        <dc:format>image/svg+xml</dc:format>
        <dc:type
           rdf:resource="http://purl.org/dc/dcmitype/StillImage" />
        <dc:title></dc:title>
      </cc:Work>
    </rdf:RDF>
  </metadata>
  <g
     inkscape:groupmode="layer"
     id="layer13"
     inkscape:label="Layer#1">
    <g
       inkscape:groupmode="layer"
       id="layer16"
       inkscape:label="Layer">
      <path
         style="fill:#008d00;stroke:none;stroke-width:1px;stroke-linecap:butt;stroke-linejoin:miter;stroke-opacity:1;fill-opacity:1"
         d="m 396.27234,421.71259 0,28.59527 -29.67277,-3.72982 0,-24.86545 29.67277,0 -29.67277,0 0,24.78257 29.67277,3.89558 z"
         id="path10220"
         inkscape:connector-curvature="0" />
      <path
         style="fill:#000000"
         d="m 479.93052,915.77314 c -82.28515,-8.02098 -157.93898,-72.10181 -186.2669,-157.77306 -8.79576,-26.60075 -10.9963,-41.6332 -11.0771,-75.67045 -0.0812,-34.15438 2.38574,-51.79782 10.99688,-78.65286 5.93217,-18.50034 21.13832,-48.2469 33.31408,-65.16969 12.66071,-17.59679 40.0319,-45.31706 59.91083,-60.6749 13.83858,-10.69124 16.38267,-13.37099 12.69412,-13.37099 -0.97636,0 -8.48021,-2.86468 -16.67518,-6.36596 -44.06085,-18.82485 -83.23075,-48.97659 -116.38641,-89.59054 -8.12246,-9.94958 -17.03169,-22.67858 -19.79831,-28.28664 -4.41706,-8.95365 -5.02348,-11.73385 -4.97504,-22.80933 0.0444,-10.1345 0.84375,-14.31288 4.06852,-21.26466 10.1662,-21.91576 34.58104,-34.57222 57.5478,-29.8323 16.67624,3.44166 24.01875,8.89364 40.17708,29.8323 41.81567,54.18654 93.49666,80.54396 157.58535,80.36886 62.1704,-0.16986 114.45784,-27.13898 155.70505,-80.3105 14.15,-18.24066 23.09535,-25.38062 36.7839,-29.35999 22.13446,-6.43467 48.63409,5.51728 59.73538,26.94204 5.62774,10.86117 6.77316,31.12988 2.38538,42.21008 -4.48724,11.33141 -25.30343,38.26487 -44.41593,57.46851 -29.77961,29.92159 -61.92386,51.2456 -148.72399,98.66123 -74.30155,40.58813 -105.2492,61.08115 -131.56132,87.11775 -23.46587,23.22015 -35.27718,43.91292 -41.75319,73.14928 -3.19537,14.4257 -3.20147,42.40204 -0.0126,57.06797 9.93302,45.68081 43.34756,84.90286 83.66271,98.20347 15.17527,5.00657 45.79433,4.97265 64.49535,-0.0714 31.45929,-8.48529 61.11289,-29.83981 71.91982,-51.79181 8.28937,-16.83807 7.97016,-37.80471 -0.77306,-50.77877 -12.28566,-18.23069 -32.74926,-16.45919 -51.082,4.42209 -12.43055,14.15858 -24.9071,20.09839 -42.05917,20.02338 -10.18529,-0.0445 -14.27804,-0.83455 -21.26467,-4.10469 -22.09359,-10.34102 -34.90792,-35.01158 -29.96586,-57.69123 2.7022,-12.40069 8.08218,-21.07525 21.9674,-35.41982 19.69437,-20.3459 41.12933,-33.629 65.74306,-40.74054 10.18606,-2.94301 16.10947,-3.5431 35.06579,-3.55246 19.56389,-0.009 24.48198,0.51395 34.5649,3.67998 31.59844,9.92188 57.17107,28.83698 74.76343,55.29968 13.93043,20.95435 22.1382,46.66347 23.83857,74.66929 5.30282,87.33929 -62.69382,165.91256 -163.84152,189.32645 -25.66981,5.94209 -49.48801,7.4532 -76.29328,4.84028 z m -7.07875,-595.38906 c -42.30639,-9.46516 -77.27843,-40.64909 -89.81184,-80.08356 -13.78028,-43.35757 -4.05508,-87.50047 26.78377,-121.57209 5.26034,-5.81177 24.63074,-20.02846 33.17965,-24.35182 17.49833,-8.849281 29.56511,-11.381824 54.2308,-11.381824 19.54504,0 24.49208,0.528374 34.56759,3.692059 56.15076,17.631155 91.00139,70.128975 85.02287,128.075525 -5.10447,49.47491 -40.54207,90.941 -88.97256,104.10823 -13.86123,3.76857 -41.51895,4.52965 -55.00028,1.51348 z m 42.9527,-89.13245 c 12.96797,-8.58178 19.20622,-27.03078 13.86718,-41.01083 -4.74635,-12.42816 -19.72249,-23.08745 -32.4375,-23.08745 -7.06718,0 -17.71245,4.50526 -23.38883,9.89851 -18.28215,17.37035 -13.14973,46.68312 10.01785,57.21501 7.90692,3.59445 24.29046,2.04785 31.9413,-3.01524 z"
         id="path10287"
         inkscape:connector-curvature="0"
         sodipodi:nodetypes="cssssssssssssssssssssssssssssssssscssssccsssssssssssssss" />
    </g>
  </g>
</svg>
