<?xml version="1.0" encoding="UTF-8" standalone="no"?>
<!-- Created with Inkscape (http://www.inkscape.org/) -->

<svg
   xmlns:dc="http://purl.org/dc/elements/1.1/"
   xmlns:cc="http://creativecommons.org/ns#"
   xmlns:rdf="http://www.w3.org/1999/02/22-rdf-syntax-ns#"
   xmlns:svg="http://www.w3.org/2000/svg"
   xmlns="http://www.w3.org/2000/svg"
   xmlns:sodipodi="http://sodipodi.sourceforge.net/DTD/sodipodi-0.dtd"
   xmlns:inkscape="http://www.inkscape.org/namespaces/inkscape"
   version="1.1"
   width="1000"
   height="1000"
   id="svg4111"
   inkscape:version="0.48.4 r9939"
   sodipodi:docname="cloudflare.svg">
  <sodipodi:namedview
     pagecolor="#ffffff"
     bordercolor="#666666"
     borderopacity="1"
     objecttolerance="10"
     gridtolerance="10"
     guidetolerance="10"
     inkscape:pageopacity="0"
     inkscape:pageshadow="2"
     inkscape:window-width="1920"
     inkscape:window-height="1056"
     id="namedview7"
     showgrid="false"
     inkscape:zoom="0.6675088"
     inkscape:cx="602.33507"
     inkscape:cy="560.63264"
     inkscape:window-x="0"
     inkscape:window-y="24"
     inkscape:window-maximized="1"
     inkscape:current-layer="layer2" />
  <defs
     id="defs5498" />
  <metadata
     id="metadata5594">
    <rdf:RDF>
      <cc:Work
         rdf:about="">
        <dc:format>image/svg+xml</dc:format>
        <dc:type
           rdf:resource="http://purl.org/dc/dcmitype/StillImage" />
        <dc:title></dc:title>
      </cc:Work>
    </rdf:RDF>
  </metadata>
  <g
     inkscape:groupmode="layer"
     id="layer1"
     inkscape:label="Layer"
     style="display:inline" />
  <g
     inkscape:groupmode="layer"
     id="layer2"
     inkscape:label="Layer#1"
     style="display:inline;opacity:1">
    <path
       style="fill:#000000"
       d="M 494.13808,912.47439 C 486.1996,911.3828 477.3918,907.9671 470.48592,903.30192 467.79838,901.48641 429.58194,863.51777 284.47843,718.50053 184.03468,618.11649 100.6415,534.48306 99.160262,532.64845 88.236779,519.11914 84.593423,501.99386 89.0626,485.18511 c 1.334248,-5.01815 5.419053,-13.46397 8.54112,-17.65974 1.298317,-1.74481 55.80114,-56.61341 127.23554,-128.08946 l 124.96437,-125.03716 46.73529,46.76748 46.73528,46.76748 -1.46365,4.36043 c -2.1404,6.37661 -2.8981,10.58096 -3.15586,17.51141 -0.36912,9.9244 1.02851,18.06932 4.60151,26.81617 5.65415,13.84157 16.61012,25.63023 30.06084,32.34557 l 4.46943,2.23139 0,113.18443 0,113.1844 -3.57335,1.72246 c -15.40077,7.42363 -27.31606,21.05908 -32.6574,37.37192 -2.31435,7.06821 -3.15202,13.39537 -2.87164,21.69016 0.35133,10.39343 2.25341,17.97709 6.69563,26.69572 8.85104,17.37169 24.56794,29.39195 43.87974,33.55922 3.69316,0.79691 5.84016,0.9592 12.7274,0.96208 7.53839,0.004 8.75626,-0.10631 13.51733,-1.21516 12.7812,-2.97669 22.22824,-8.22508 31.4099,-17.45013 9.21721,-9.26073 14.86283,-19.9777 17.48549,-33.19263 1.16018,-5.84581 1.06042,-17.67661 -0.19883,-23.57588 -3.94122,-18.4638 -14.74213,-33.52532 -30.68429,-42.78836 l -3.40484,-1.97832 0,-112.11287 0,-112.11289 42.50484,42.51389 42.50489,42.5139 -1.32583,3.83177 c -2.34674,6.78235 -3.14448,11.85266 -3.17052,20.15058 -0.0166,5.34279 0.1892,8.50859 0.73748,11.33711 4.53808,23.41214 20.36708,41.71774 42.37163,49.0011 7.23465,2.39466 12.58712,3.24878 20.27163,3.23491 10.44061,-0.0187 18.3823,-1.86421 27.76015,-6.45025 15.29276,-7.47866 26.90827,-20.67004 32.19503,-36.56289 2.58913,-7.78336 3.05299,-10.87394 3.05299,-20.34196 0,-9.46801 -0.46386,-12.55859 -3.05299,-20.34197 -3.15525,-9.48514 -7.91858,-17.05579 -15.46029,-24.57184 -5.41316,-5.39476 -9.99208,-8.72149 -16.44242,-11.94605 -13.81689,-6.90706 -30.17364,-8.40236 -45.48842,-4.15842 l -3.22598,0.89397 -45.69419,-45.70029 -45.69414,-45.70027 0.84213,-2.83428 c 2.48936,-8.37808 3.16331,-20.24536 1.62753,-28.65829 -2.39898,-13.14158 -8.22168,-24.22572 -17.71668,-33.72566 -16.1107,-16.11909 -37.94009,-22.15014 -60.34376,-16.67187 l -4.72109,1.15443 -47.38602,-47.39268 -47.38603,-47.39268 38.80781,-38.723 c 21.43417,-21.38733 40.1669,-39.723597 41.84364,-40.958051 18.37289,-13.526584 42.84219,-13.891556 62.04042,-0.925353 4.97154,3.357724 370.39902,368.784554 373.75381,373.753134 12.9704,19.20991 12.61123,43.57448 -0.91465,62.04041 -2.99626,4.09065 -365.7856,366.87996 -369.87625,369.87622 -6.03928,4.42366 -13.99623,7.94418 -21.38258,9.46069 -4.26668,0.87606 -12.87893,1.19267 -17.00567,0.62525 z"
       id="path4004"
       inkscape:connector-curvature="0" />
  </g>
</svg>
