<?xml version="1.0" encoding="UTF-8" standalone="no"?>
<!-- Created with Inkscape (http://www.inkscape.org/) -->

<svg
   xmlns:dc="http://purl.org/dc/elements/1.1/"
   xmlns:cc="http://creativecommons.org/ns#"
   xmlns:rdf="http://www.w3.org/1999/02/22-rdf-syntax-ns#"
   xmlns:svg="http://www.w3.org/2000/svg"
   xmlns="http://www.w3.org/2000/svg"
   xmlns:sodipodi="http://sodipodi.sourceforge.net/DTD/sodipodi-0.dtd"
   xmlns:inkscape="http://www.inkscape.org/namespaces/inkscape"
   width="1000"
   height="1000"
   id="svg4955"
   version="1.1"
   inkscape:version="0.48.4 r9939"
   sodipodi:docname="elixir.svg">
  <defs
     id="defs5498" />
  <sodipodi:namedview
     inkscape:window-height="1056"
     inkscape:window-width="1920"
     inkscape:pageshadow="2"
     inkscape:pageopacity="0.0"
     borderopacity="1.0"
     bordercolor="#666666"
     pagecolor="#ffffff"
     id="base"
     showgrid="false"
     showguides="false"
     inkscape:guide-bbox="true"
     inkscape:zoom="0.75405844"
     inkscape:cx="363.46327"
     inkscape:cy="565.34502"
     inkscape:window-x="0"
     inkscape:window-y="24"
     inkscape:current-layer="layer16"
     inkscape:window-maximized="1">
    <sodipodi:guide
       orientation="0,1"
       position="189.44385,479.26189"
       id="guide7179" />
    <sodipodi:guide
       orientation="1,0"
       position="429.5717,650.94149"
       id="guide7232" />
    <sodipodi:guide
       orientation="0,1"
       position="423.85732,718.7686"
       id="guide7234" />
    <sodipodi:guide
       orientation="0,1"
       position="407.21111,603.48736"
       id="guide7236" />
    <sodipodi:guide
       orientation="1,0"
       position="330.68822,603.48736"
       id="guide7238" />
    <sodipodi:guide
       orientation="1,0"
       position="526.71602,603.48736"
       id="guide7240" />
    <sodipodi:guide
       orientation="0,1"
       position="429.5717,709.07902"
       id="guide7242" />
    <sodipodi:guide
       orientation="0,1"
       position="429.5717,618.89132"
       id="guide7244" />
    <sodipodi:guide
       orientation="1,0"
       position="421.62126,644.23332"
       id="guide7246" />
    <sodipodi:guide
       orientation="1,0"
       position="370.68882,649.20234"
       id="guide7248" />
    <sodipodi:guide
       orientation="1,0"
       position="377.397,646.46938"
       id="guide7250" />
    <sodipodi:guide
       orientation="0,1"
       position="401.99364,699.63788"
       id="guide7252" />
    <sodipodi:guide
       orientation="0,1"
       position="402.73899,694.42041"
       id="guide7254" />
    <sodipodi:guide
       orientation="0,1"
       position="412.67703,632.80457"
       id="guide7258" />
    <sodipodi:guide
       orientation="0,1"
       position="421.62126,626.0964"
       id="guide7260" />
    <sodipodi:guide
       orientation="1,0"
       position="469.5723,641.50036"
       id="guide7262" />
    <sodipodi:guide
       orientation="1,0"
       position="390.5649,658.14657"
       id="guide7264" />
    <sodipodi:guide
       orientation="1,0"
       position="384.10517,643.23951"
       id="guide7266" />
    <sodipodi:guide
       orientation="1,0"
       position="407.45956,632.80457"
       id="guide7268" />
    <sodipodi:guide
       orientation="0,1"
       position="562.25,301.75"
       id="guide9656" />
    <sodipodi:guide
       orientation="0,1"
       position="304.625,414.0625"
       id="guide9658" />
    <sodipodi:guide
       orientation="0,1"
       position="574.5,288.25"
       id="guide9660" />
    <sodipodi:guide
       orientation="0,1"
       position="274,595.875"
       id="guide9707" />
    <sodipodi:guide
       orientation="0,1"
       position="278.41012,505.92896"
       id="guide9709" />
    <sodipodi:guide
       orientation="1,0"
       position="399.47499,579.75449"
       id="guide10200" />
    <sodipodi:guide
       orientation="1,0"
       position="438.12917,549.60926"
       id="guide10206" />
    <sodipodi:guide
       orientation="1,0"
       position="366.59957,560.79871"
       id="guide10208" />
    <sodipodi:guide
       orientation="1,0"
       position="396.27234,559.2239"
       id="guide10210" />
    <sodipodi:guide
       orientation="0,1"
       position="399.47499,581.27126"
       id="guide10212" />
    <sodipodi:guide
       orientation="0,1"
       position="403.89774,578.28741"
       id="guide10214" />
  </sodipodi:namedview>
  <metadata
     id="metadata5594">
    <rdf:RDF>
      <cc:Work
         rdf:about="">
        <dc:format>image/svg+xml</dc:format>
        <dc:type
           rdf:resource="http://purl.org/dc/dcmitype/StillImage" />
        <dc:title></dc:title>
      </cc:Work>
    </rdf:RDF>
  </metadata>
  <g
     inkscape:groupmode="layer"
     id="layer13"
     inkscape:label="Layer#1">
    <g
       inkscape:groupmode="layer"
       id="layer16"
       inkscape:label="Layer">
      <path
         style="fill:#008d00;stroke:none;stroke-width:1px;stroke-linecap:butt;stroke-linejoin:miter;stroke-opacity:1;fill-opacity:1"
         d="m 396.27234,421.71259 0,28.59527 -29.67277,-3.72982 0,-24.86545 29.67277,0 -29.67277,0 0,24.78257 29.67277,3.89558 z"
         id="path10220"
         inkscape:connector-curvature="0" />
      <path
         style="fill:#000000"
         d="M 356.38794,886.07221 C 226.13673,837.4604 128.7079,723.96107 101.64433,589.30972 c -6.242544,-31.05904 -8.260633,-55.34224 -7.439341,-89.5163 1.136455,-47.28768 8.258201,-85.21319 24.101001,-128.34532 7.26749,-19.78582 25.23427,-56.2066 36.68974,-74.37447 39.12829,-62.05572 95.5337,-113.14166 161.44008,-146.21503 43.05796,-21.60749 84.13927,-33.81029 138.02112,-40.99783 18.91635,-2.52332 76.89409,-2.04756 97.41081,0.79937 54.76348,7.59904 106.06508,24.76718 150.67192,50.42254 126.58437,72.80427 203.42953,204.48108 203.42953,348.58346 0,152.98947 -86.34783,291.25075 -224.43976,359.37589 -50.42578,24.87662 -66.96834,28.20925 -76.69264,15.45028 l -3.60546,-4.73074 -0.0771,-65.91691 c -0.0424,-36.25432 -0.5284,-68.58258 -1.07993,-71.84058 -3.37264,-19.92293 -9.86597,-35.65251 -19.70358,-47.73046 l -5.75883,-7.07029 12.65156,-1.59656 c 27.54737,-3.47632 56.86027,-11.64484 78.79882,-21.95859 42.19139,-19.83497 71.70447,-55.41952 84.03553,-101.32342 9.9777,-37.1432 11.79448,-83.9386 4.3857,-112.9636 -5.57278,-21.83225 -16.28065,-43.84908 -28.60987,-58.82581 -2.68208,-3.25799 -5.59131,-6.84829 -6.46501,-7.97843 -1.26052,-1.63054 -1.07732,-3.74311 0.88728,-10.23178 3.97493,-13.1283 5.81529,-30.43884 4.89426,-46.03558 -0.86613,-14.66674 -5.69728,-37.35514 -10.04906,-47.19307 l -2.52907,-5.71738 -8.02769,0 c -22.45136,0 -53.25099,11.40277 -88.25482,32.67405 l -15.1782,9.22355 -13.12359,-3.18462 c -29.81092,-7.23404 -46.99645,-8.98575 -88.15625,-8.98575 -41.16056,0 -58.34519,1.75168 -88.15855,8.98632 l -13.12593,3.18518 -16.49223,-10.00124 C 347.5605,284.33433 317.6434,273.37911 294.98729,273.37911 l -7.85639,0 -2.46399,5.59454 c -11.96432,27.16524 -13.55807,73.44908 -3.43362,99.71444 0.46402,1.20378 -2.08946,5.51256 -6.54145,11.03812 -25.97437,32.23808 -36.74103,70.11231 -33.52936,117.9473 1.57218,23.41633 2.96555,32.92235 7.3925,50.43391 14.6697,58.02858 50.49583,95.75936 109.65972,115.48972 16.0758,5.36106 43.36846,11.39025 57.55973,12.71545 4.62341,0.43174 8.40618,1.04943 8.40618,1.37265 0,0.32321 -2.11411,3.05128 -4.69803,6.06237 -8.25752,9.62265 -18.99649,34.85298 -18.99649,44.63074 0,5.50567 -26.519,12.81681 -46.54085,12.83104 -31.09865,0.0221 -50.95815,-11.71736 -71.80258,-42.44436 -5.47572,-8.07182 -13.32553,-17.56537 -18.27125,-22.09722 -15.05729,-13.79727 -35.68412,-21.66352 -51.26252,-19.54948 -17.0652,2.31579 -15.18372,10.71978 5.56103,24.83938 17.56744,11.95702 28.33285,25.92162 42.17143,54.70369 7.91043,16.45243 9.66522,19.06956 18.91141,28.20457 12.08662,11.94129 25.8668,19.41073 44.22614,23.9724 9.82239,2.44052 15.33454,2.92865 32.25088,2.85601 12.35835,-0.053 24.55601,-0.87502 30.93451,-2.08457 5.79199,-1.09834 10.946,-1.75622 11.45334,-1.46194 0.50734,0.29426 0.80352,18.73325 0.65818,40.97555 -0.25821,39.51371 -0.33155,40.53481 -3.20016,44.55643 -7.16127,10.0395 -17.07606,10.64489 -39.18769,2.39236 z m -6.42,-118.42531 c -1.175,-1.17499 -2.13635,-2.64409 -2.13635,-3.26466 0,-3.01761 4.52286,-5.38228 9.57137,-5.00414 6.16034,0.46141 9.06201,3.60641 6.74236,7.30777 -1.98885,3.17353 -11.33158,3.80683 -14.17738,0.96103 z m 33.40543,-1.81857 c -3.99679,-1.08799 -4.96542,-5.50715 -1.88279,-8.58979 2.90223,-2.90222 12.22856,-2.33051 14.23589,0.87268 2.73953,4.37158 -5.57108,9.5633 -12.3531,7.71711 z m -63.05617,-1.79458 c -4.9446,-2.54299 -6.42804,-5.7641 -3.84444,-8.34771 2.76791,-2.76791 8.02221,-2.76548 12.2515,0.005 3.94206,2.58294 4.31044,6.74667 0.76479,8.64425 -3.29078,1.76117 -5.28778,1.69537 -9.17185,-0.30218 z M 291.45747,746.8556 c -3.33901,-3.55422 -3.79872,-9.84021 -0.8037,-10.9895 5.05932,-1.94145 13.43947,6.12237 11.78378,11.33898 -1.19179,3.75498 -7.307,3.56034 -10.98008,-0.34948 z m -16.86291,-20.96346 c -3.48018,-1.57082 -6.09905,-7.02513 -5.01423,-10.4431 1.14859,-3.61885 6.89688,-2.64644 10.13824,1.71506 4.26171,5.73444 0.90631,11.44989 -5.12401,8.72804 z m -18.90832,-24.69528 c -3.15274,-3.15274 -3.05192,-6.27937 0.26992,-8.37122 2.93699,-1.8495 9.23528,3.71841 8.67026,7.66483 -0.5356,3.74095 -5.51238,4.13419 -8.94018,0.70639 z m -17.2277,-16.97251 c -2.89642,-2.374 -2.99325,-2.7891 -1.10027,-4.71665 3.05979,-3.11567 9.46239,-0.53472 8.87561,3.57785 -0.55436,3.88534 -3.8377,4.36623 -7.77534,1.1388 z"
         id="path10648"
         inkscape:connector-curvature="0" />
    </g>
  </g>
</svg>
