<?xml version="1.0" encoding="UTF-8" standalone="no"?>
<!-- Created with Inkscape (http://www.inkscape.org/) -->

<svg
   xmlns:dc="http://purl.org/dc/elements/1.1/"
   xmlns:cc="http://creativecommons.org/ns#"
   xmlns:rdf="http://www.w3.org/1999/02/22-rdf-syntax-ns#"
   xmlns:svg="http://www.w3.org/2000/svg"
   xmlns="http://www.w3.org/2000/svg"
   xmlns:sodipodi="http://sodipodi.sourceforge.net/DTD/sodipodi-0.dtd"
   xmlns:inkscape="http://www.inkscape.org/namespaces/inkscape"
   width="1000"
   height="1000"
   id="svg4955"
   version="1.1"
   inkscape:version="0.48.4 r9939"
   sodipodi:docname="azure.svg">
  <defs
     id="defs5498" />
  <sodipodi:namedview
     inkscape:window-height="1056"
     inkscape:window-width="1920"
     inkscape:pageshadow="2"
     inkscape:pageopacity="0.0"
     borderopacity="1.0"
     bordercolor="#666666"
     pagecolor="#ffffff"
     id="base"
     showgrid="false"
     showguides="false"
     inkscape:guide-bbox="true"
     inkscape:zoom="0.53319984"
     inkscape:cx="60.119276"
     inkscape:cy="627.14421"
     inkscape:window-x="0"
     inkscape:window-y="24"
     inkscape:current-layer="layer16"
     inkscape:window-maximized="1">
    <sodipodi:guide
       orientation="0,1"
       position="189.44385,479.26189"
       id="guide7179" />
    <sodipodi:guide
       orientation="1,0"
       position="429.5717,650.94149"
       id="guide7232" />
    <sodipodi:guide
       orientation="0,1"
       position="423.85732,718.7686"
       id="guide7234" />
    <sodipodi:guide
       orientation="0,1"
       position="407.21111,603.48736"
       id="guide7236" />
    <sodipodi:guide
       orientation="1,0"
       position="330.68822,603.48736"
       id="guide7238" />
    <sodipodi:guide
       orientation="1,0"
       position="526.71602,603.48736"
       id="guide7240" />
    <sodipodi:guide
       orientation="0,1"
       position="429.5717,709.07902"
       id="guide7242" />
    <sodipodi:guide
       orientation="0,1"
       position="429.5717,618.89132"
       id="guide7244" />
    <sodipodi:guide
       orientation="1,0"
       position="421.62126,644.23332"
       id="guide7246" />
    <sodipodi:guide
       orientation="1,0"
       position="370.68882,649.20234"
       id="guide7248" />
    <sodipodi:guide
       orientation="1,0"
       position="377.397,646.46938"
       id="guide7250" />
    <sodipodi:guide
       orientation="0,1"
       position="401.99364,699.63788"
       id="guide7252" />
    <sodipodi:guide
       orientation="0,1"
       position="402.73899,694.42041"
       id="guide7254" />
    <sodipodi:guide
       orientation="0,1"
       position="412.67703,632.80457"
       id="guide7258" />
    <sodipodi:guide
       orientation="0,1"
       position="421.62126,626.0964"
       id="guide7260" />
    <sodipodi:guide
       orientation="1,0"
       position="469.5723,641.50036"
       id="guide7262" />
    <sodipodi:guide
       orientation="1,0"
       position="390.5649,658.14657"
       id="guide7264" />
    <sodipodi:guide
       orientation="1,0"
       position="384.10517,643.23951"
       id="guide7266" />
    <sodipodi:guide
       orientation="1,0"
       position="407.45956,632.80457"
       id="guide7268" />
    <sodipodi:guide
       orientation="0,1"
       position="562.25,301.75"
       id="guide9656" />
    <sodipodi:guide
       orientation="0,1"
       position="304.625,414.0625"
       id="guide9658" />
    <sodipodi:guide
       orientation="0,1"
       position="574.5,288.25"
       id="guide9660" />
    <sodipodi:guide
       orientation="0,1"
       position="274,595.875"
       id="guide9707" />
    <sodipodi:guide
       orientation="0,1"
       position="278.41012,505.92896"
       id="guide9709" />
    <sodipodi:guide
       orientation="1,0"
       position="399.47499,579.75449"
       id="guide10200" />
    <sodipodi:guide
       orientation="1,0"
       position="438.12917,549.60926"
       id="guide10206" />
    <sodipodi:guide
       orientation="1,0"
       position="366.59957,560.79871"
       id="guide10208" />
    <sodipodi:guide
       orientation="1,0"
       position="396.27234,559.2239"
       id="guide10210" />
    <sodipodi:guide
       orientation="0,1"
       position="399.47499,581.27126"
       id="guide10212" />
    <sodipodi:guide
       orientation="0,1"
       position="403.89774,578.28741"
       id="guide10214" />
  </sodipodi:namedview>
  <metadata
     id="metadata5594">
    <rdf:RDF>
      <cc:Work
         rdf:about="">
        <dc:format>image/svg+xml</dc:format>
        <dc:type
           rdf:resource="http://purl.org/dc/dcmitype/StillImage" />
        <dc:title></dc:title>
      </cc:Work>
    </rdf:RDF>
  </metadata>
  <g
     inkscape:groupmode="layer"
     id="layer13"
     inkscape:label="Layer#1">
    <g
       inkscape:groupmode="layer"
       id="layer16"
       inkscape:label="Layer">
      <path
         style="fill:#008d00;stroke:none;stroke-width:1px;stroke-linecap:butt;stroke-linejoin:miter;stroke-opacity:1;fill-opacity:1"
         d="m 396.27234,421.71259 0,28.59527 -29.67277,-3.72982 0,-24.86545 29.67277,0 -29.67277,0 0,24.78257 29.67277,3.89558 z"
         id="path10220"
         inkscape:connector-curvature="0" />
      <path
         style="fill:#000000"
         d="m 405.86951,929.53381 c -0.86023,-3.25363 -13.33829,-55.96244 -27.72899,-117.1307 -14.39072,-61.16825 -26.53999,-112.4573 -26.99837,-113.97566 -0.64056,-2.12183 -2.55736,-2.76066 -8.28327,-2.76066 -15.45414,0 -37.16156,-8.1965 -47.29055,-17.85644 -8.34944,-7.96279 -12.57231,-16.56747 -14.46895,-29.48239 -1.03639,-7.05725 -3.68528,-15.75496 -6.57547,-21.59078 -4.573,-9.23375 -4.80343,-10.58216 -4.17864,-24.45152 0.52401,-11.63199 1.53636,-16.57973 4.87718,-23.83682 4.74962,-10.3173 20.06552,-27.20819 31.23227,-34.444 l 7.24087,-4.69191 -6.7195,-27.91115 c -3.69573,-15.35113 -6.76806,-28.09867 -6.82742,-28.3279 -0.0593,-0.22921 -3.00894,1.50306 -6.55467,3.84951 -4.95561,3.27947 -7.05368,3.88638 -9.07072,2.62393 -4.06612,-2.545 -3.96894,-9.00687 0.26112,-17.36404 7.83812,-15.4854 8.25309,-19.18973 4.21226,-37.60247 l -3.64476,-16.60797 -5.11797,0.96014 c -7.21649,1.35381 -27.91721,-2.06587 -30.1125,-4.97446 -3.08162,-4.08297 -0.67172,-8.01411 12.90055,-21.04404 l 13.12228,-12.59792 -4.70451,-19.96973 c -2.58747,-10.98336 -4.48706,-20.17497 -4.22129,-20.42582 1.33169,-1.25691 34.9721,-14.95966 44.2088,-18.00758 9.89287,-3.26442 10.6656,-3.85866 11.6178,-8.93439 0.56103,-2.99056 0.53677,-9.95032 -0.0539,-15.46614 -1.07203,-10.01055 -1.06597,-10.03079 3.33527,-11.13543 5.50582,-1.38187 8.29763,1.72581 13.42155,14.94001 2.01217,5.18923 4.55698,9.43496 5.65512,9.43496 1.09816,0 8.2006,-1.37619 15.78322,-3.05821 36.909,-8.18733 87.02751,-10.96681 117.90274,-6.53863 92.12264,13.21232 151.39333,59.41422 192.42413,149.99593 l 8.21754,18.14145 18.47543,1.09313 c 63.74314,3.77143 102.26411,36.41771 83.54762,70.80607 -5.18324,9.5233 -13.25709,16.49818 -27.16142,23.46436 -10.62785,5.32461 -30.7189,11.1189 -38.55362,11.1189 -5.33575,0 -5.29657,-2.98066 -0.38378,29.18408 1.32521,8.67634 2.41365,20.60079 2.41876,26.49875 0.008,9.51835 -0.44999,11.14923 -4.07736,14.51097 -4.40827,4.08544 -14.49873,7.73793 -39.29507,14.22381 -22.02095,5.75993 -35.03792,10.04868 -43.77612,14.42306 -7.27886,3.64383 -7.49321,3.95487 -7.49321,10.87315 0,10.6553 4.71442,22.96857 24.43236,63.81314 21.80192,45.16146 24.55811,53.549 24.60034,74.86295 0.0533,26.91765 -8.22434,45.69093 -25.87602,58.68537 -13.83756,10.18663 -27.36328,13.91905 -49.97449,13.79046 -15.63594,-0.089 -21.51844,-0.95183 -42.59298,-6.24798 -21.26652,-5.34438 -26.81458,-6.14923 -42.59298,-6.17891 -20.7443,-0.039 -20.26265,-0.23165 -50.81614,20.3243 -13.64621,9.18097 -50.60359,30.91091 -52.57198,30.91091 -0.33355,0 -1.31029,-2.66206 -2.17051,-5.91569 z m 48.43165,-42.58678 c 29.93377,-19.85007 34.40366,-21.56054 56.33824,-21.55871 14.98097,0.001 20.69466,0.84763 41.80422,6.19249 22.13313,5.60403 26.39599,6.1957 44.95926,6.24017 18.8134,0.0451 21.22536,-0.28754 29.19368,-4.02562 16.92625,-7.94042 26.21188,-22.11691 27.93292,-42.64556 0.71274,-8.50145 0.48537,-11.06544 -0.90502,-10.20612 -2.70683,1.67291 -34.41071,-4.74582 -51.21691,-10.36931 -33.12557,-11.08408 -59.24674,-29.61567 -83.03047,-58.90569 -11.24163,-13.84424 -35.47456,-47.9055 -36.91436,-51.88599 -1.69047,-4.67347 2.96793,-10.42597 8.44297,-10.42597 3.78211,0 5.7713,1.53862 10.70718,8.28197 35.84417,48.96983 44.42817,59.11287 60.57347,71.57493 12.16836,9.39239 30.12062,18.86309 45.8293,24.17725 13.67887,4.62747 41.69934,10.60772 43.107,9.20006 1.35525,-1.35526 -4.92337,-15.96134 -22.22866,-51.71101 -24.28538,-50.1693 -27.93487,-63.31343 -21.57254,-77.69654 5.51639,-12.47072 17.04149,-18.09102 62.29774,-30.37997 15.22723,-4.13481 28.53864,-8.0449 29.58091,-8.68904 1.46297,-0.90417 1.31686,-5.67871 -0.64081,-20.94111 -1.3947,-10.87345 -3.2878,-23.27623 -4.20686,-27.56172 l -1.67105,-7.79181 -15.30014,-0.95817 c -18.29266,-1.14558 -36.97153,-5.66925 -50.27637,-12.17599 -15.72869,-7.69214 -28.91322,-24.54653 -28.91322,-36.96111 0,-2.37962 -1.05145,-2.58249 -8.28197,-1.59794 -8.65785,1.17889 -10.58311,2.60033 -10.62534,7.84469 -0.0142,1.73527 -2.14825,7.64237 -4.74286,13.12688 -6.24026,13.19079 -19.85251,26.7208 -34.02944,33.82387 -50.02415,25.06362 -111.84265,4.01371 -127.45923,-43.40133 -1.14089,-3.46395 -6.03119,-3.52859 -29.93078,-0.39563 -16.98444,2.22647 -44.55926,9.02178 -47.21304,11.63481 -0.93951,0.92509 80.09859,349.43147 83.25233,358.02872 0.93839,2.55805 3.78676,0.94973 35.13985,-19.8415 z M 345.78878,676.85731 c 0,-1.91741 -17.5826,-76.47401 -18.19581,-77.15686 -0.82504,-0.91873 -17.15316,10.19364 -20.77246,14.13705 -5.51577,6.00968 -8.36002,14.68409 -8.32262,25.38236 0.0711,20.36751 10.43293,31.68754 33.61918,36.72846 12.08413,2.62722 13.67171,2.73277 13.67171,0.90899 z M 314.6135,586.006 c 6.06114,-3.15347 8.83432,-5.49099 8.39424,-7.07553 -0.36144,-1.30145 -1.53054,-6.4481 -2.598,-11.437 -1.06744,-4.9889 -2.61789,-9.07073 -3.44541,-9.07073 -0.82753,0 -6.6756,5.17101 -12.99572,11.49111 -9.3434,9.34342 -11.96367,13.08242 -14.01954,20.0053 -1.39065,4.68279 -2.52845,10.72729 -2.52845,13.43218 l 0,4.91802 9.07073,-8.77704 c 4.9889,-4.82737 13.14386,-10.89621 18.12215,-13.48631 z m 48.52798,-64.09617 c 8.24253,-1.67321 21.50122,-3.47445 29.46376,-4.00276 7.96253,-0.52831 15.2911,-1.4635 16.28568,-2.07819 0.99457,-0.61468 2.49112,-4.1565 3.32564,-7.8707 9.04796,-40.26948 57.14644,-66.07227 104.47229,-56.0449 28.74856,6.09121 53.10838,25.75468 60.34464,48.71074 l 2.59524,8.23305 10.46459,-0.59266 c 8.58525,-0.48624 10.87612,-1.20582 12.7561,-4.00686 8.36977,-12.47042 27.03955,-23.95862 46.86289,-28.83648 5.93521,-1.46043 11.03012,-2.84735 11.32202,-3.08203 1.14206,-0.91811 -18.60182,-40.10447 -26.96915,-53.52663 -11.70045,-18.76883 -27.29538,-37.97964 -39.4375,-48.58161 -55.50058,-48.4606 -136.09341,-64.41113 -227.93679,-45.11209 -11.0707,2.32628 -16.16955,4.08533 -16.16955,5.57831 0,5.4088 6.57096,25.20966 8.94891,26.96651 2.80333,2.07114 4.64875,2.43059 25.75648,5.01701 12.64701,1.54969 30.50751,5.09698 35.70472,7.09134 1.63509,0.62744 2.19884,2.69372 1.8573,6.80754 -0.48829,5.88184 -0.54667,5.92702 -13.89925,10.75697 -13.88729,5.02335 -22.91041,9.26347 -24.2191,11.38097 -0.41601,0.67313 5.26812,9.37424 12.63144,19.33581 7.3633,9.96157 16.0984,23.43606 19.41131,29.94332 3.31293,6.50726 7.52214,13.1837 9.3538,14.83654 3.98713,3.59786 4.13844,5.84259 0.82567,12.24877 -2.29234,4.4329 -3.02653,4.77336 -8.66337,4.0173 -4.65159,-0.62391 -11.4701,-4.78063 -27.8626,-16.98573 -34.39964,-25.61238 -47.17497,-30.12867 -56.66645,-20.03257 -7.22063,7.68057 -17.88426,22.82351 -17.88426,25.39662 0,1.24463 3.19448,15.82676 7.09884,32.40475 3.90435,16.57798 7.09883,30.44378 7.09883,30.81289 0,0.36909 4.08182,-0.77209 9.07072,-2.53597 4.9889,-1.76389 15.81462,-4.57605 24.05715,-6.24926 z M 300.14941,366.35995 c 3.37374,-2.386 6.14923,-4.948 6.16775,-5.69335 0.0184,-0.74534 1.57739,-2.95909 3.46415,-4.91942 2.95934,-3.07476 8.39209,-16.59942 6.66785,-16.59942 -0.33629,0 -7.02675,2.56768 -14.86769,5.70596 -11.06372,4.42817 -14.0849,6.28283 -13.49111,8.28197 0.42082,1.4168 1.59137,5.94795 2.60125,10.06922 1.00986,4.12126 2.17084,7.49321 2.57993,7.49321 0.4091,0 3.50414,-1.95218 6.87787,-4.33817 z m -34.81404,-47.7955 c 0,-1.792 2.83954,-8.77327 6.31008,-15.51394 7.07177,-13.73519 8.21058,-23.48497 3.75051,-32.10978 -1.40774,-2.72229 -14.11993,-16.87977 -28.24929,-31.46105 -31.0116,-32.0035 -32.87386,-35.17951 -33.59509,-57.29494 -0.565,-17.32487 4.18789,-50.46404 8.02293,-55.93934 5.05877,-7.22239 16.84218,-12.94968 23.61623,-11.4786 4.87182,1.05798 6.11134,11.07304 4.9747,40.19427 -0.99563,25.50889 -0.85041,27.79195 2.20758,34.70503 5.07811,11.47991 11.20079,19.49689 30.99636,40.58635 12.89323,13.73595 19.79647,22.52194 23.32122,29.68174 9.1277,18.54096 7.50017,35.98984 -4.60685,49.39087 -6.10989,6.76289 -14.45199,10.25468 -27.67765,11.5851 -8.40929,0.84593 -9.07073,0.67488 -9.07073,-2.34571 z m 186.581,-31.43303 c -16.49099,-3.90479 -19.96112,-17.65069 -5.81929,-23.0515 9.40903,-3.59335 13.72887,-9.87697 14.54478,-21.15672 0.84312,-11.656 -3.78207,-23.36855 -21.36213,-54.09628 -11.36027,-19.85632 -13.47,-24.67599 -14.1672,-32.36479 -1.14965,-12.6785 2.50731,-25.39348 14.44076,-50.20957 7.96763,-16.569019 11.15919,-21.622629 15.21213,-24.087374 7.19835,-4.377565 16.09051,-5.609969 21.48185,-2.977249 3.92862,1.918419 4.39422,2.944831 4.19351,9.244254 -0.12872,4.039866 -3.07447,14.525219 -6.85226,24.390339 -15.40511,40.22814 -15.03774,48.11951 4.00808,86.09578 12.46663,24.85775 17.01854,39.33248 16.07913,51.13044 -1.93254,24.2706 -21.7072,41.83066 -41.75936,37.08267 z m 83.47201,-4.83576 c -4.35247,-4.05493 -4.37499,-9.16095 -0.10901,-24.71055 6.23797,-22.73757 2.73162,-35.17584 -20.23363,-71.77585 -19.28279,-30.7312 -22.78473,-38.50122 -23.67413,-52.52757 -0.58256,-9.18717 0.11642,-13.66128 4.1599,-26.62732 11.83591,-37.953725 20.65813,-47.369077 37.08227,-39.575318 6.56497,3.115282 10.36473,11.149028 10.36473,21.913884 0,7.499677 -0.69287,9.289545 -6.15475,15.899174 -7.10632,8.59961 -10.4559,18.60302 -8.79243,26.25821 2.1381,9.8394 14.66553,33.57197 30.51224,57.80393 18.03361,27.576 21.49817,35.99433 20.29124,49.3045 -1.0331,11.39324 -9.67845,28.44072 -19.99694,39.43128 -6.43747,6.85678 -8.12458,7.82213 -13.67039,7.82213 -4.18637,0 -7.49455,-1.08811 -9.7791,-3.2165 z M 344.29812,267.12283 c -1.81343,-2.30542 -2.97024,-5.32242 -2.57069,-6.70446 2.70071,-9.34146 4.36465,-23.71955 3.65311,-31.56655 -1.16099,-12.80348 -7.36679,-24.93999 -27.64286,-54.06032 -22.18841,-31.86678 -24.72818,-37.50355 -24.74496,-54.91872 -0.0158,-15.6821 2.93995,-22.792731 14.11753,-33.970312 16.49636,-16.496357 43.92659,-22.493385 62.3413,-13.629581 7.96393,3.833384 8.09764,8.51175 0.38906,13.613048 -6.30751,4.174113 -22.06775,10.324082 -26.45704,10.324082 -1.36621,0 -4.57841,1.08306 -7.13823,2.406787 -3.92094,2.027596 -4.65422,3.355666 -4.65422,8.429386 0,12.2075 5.35897,23.87495 25.69272,55.93771 25.73242,40.57554 31.50862,68.46352 19.33419,93.34714 -6.90721,14.11784 -24.96164,20.14631 -32.31991,10.79179 z"
         id="path10255"
         inkscape:connector-curvature="0"
         sodipodi:nodetypes="sssssssssscscsssscssscssssssssssscssssscsssssssssssssssssssssssssssssssssscsssscsssssssssssssscssssscsssssssscssscssssssssssssssssssssssscsssssssssssssssssssssssssssssssssssssssssssssssssssscsssssssss" />
    </g>
  </g>
</svg>
