<?xml version="1.0" encoding="UTF-8" standalone="no"?>
<!-- Created with Inkscape (http://www.inkscape.org/) -->

<svg
   xmlns:dc="http://purl.org/dc/elements/1.1/"
   xmlns:cc="http://creativecommons.org/ns#"
   xmlns:rdf="http://www.w3.org/1999/02/22-rdf-syntax-ns#"
   xmlns:svg="http://www.w3.org/2000/svg"
   xmlns="http://www.w3.org/2000/svg"
   xmlns:sodipodi="http://sodipodi.sourceforge.net/DTD/sodipodi-0.dtd"
   xmlns:inkscape="http://www.inkscape.org/namespaces/inkscape"
   width="1000"
   height="1000"
   id="svg4955"
   version="1.1"
   inkscape:version="0.48.4 r9939"
   sodipodi:docname="sqlite.svg">
  <defs
     id="defs5498" />
  <sodipodi:namedview
     inkscape:window-height="1056"
     inkscape:window-width="1920"
     inkscape:pageshadow="2"
     inkscape:pageopacity="0.0"
     borderopacity="1.0"
     bordercolor="#666666"
     pagecolor="#ffffff"
     id="base"
     showgrid="false"
     showguides="false"
     inkscape:guide-bbox="true"
     inkscape:zoom="0.70710678"
     inkscape:cx="397.33831"
     inkscape:cy="488.75993"
     inkscape:window-x="0"
     inkscape:window-y="24"
     inkscape:current-layer="layer13"
     inkscape:window-maximized="1">
    <sodipodi:guide
       orientation="0,1"
       position="189.44385,479.26189"
       id="guide7179" />
    <sodipodi:guide
       orientation="1,0"
       position="429.5717,650.94149"
       id="guide7232" />
    <sodipodi:guide
       orientation="0,1"
       position="423.85732,718.7686"
       id="guide7234" />
    <sodipodi:guide
       orientation="0,1"
       position="407.21111,603.48736"
       id="guide7236" />
    <sodipodi:guide
       orientation="1,0"
       position="330.68822,603.48736"
       id="guide7238" />
    <sodipodi:guide
       orientation="1,0"
       position="526.71602,603.48736"
       id="guide7240" />
    <sodipodi:guide
       orientation="0,1"
       position="429.5717,709.07902"
       id="guide7242" />
    <sodipodi:guide
       orientation="0,1"
       position="429.5717,618.89132"
       id="guide7244" />
    <sodipodi:guide
       orientation="1,0"
       position="421.62126,644.23332"
       id="guide7246" />
    <sodipodi:guide
       orientation="1,0"
       position="370.68882,649.20234"
       id="guide7248" />
    <sodipodi:guide
       orientation="1,0"
       position="377.397,646.46938"
       id="guide7250" />
    <sodipodi:guide
       orientation="0,1"
       position="401.99364,699.63788"
       id="guide7252" />
    <sodipodi:guide
       orientation="0,1"
       position="402.73899,694.42041"
       id="guide7254" />
    <sodipodi:guide
       orientation="0,1"
       position="412.67703,632.80457"
       id="guide7258" />
    <sodipodi:guide
       orientation="0,1"
       position="421.62126,626.0964"
       id="guide7260" />
    <sodipodi:guide
       orientation="1,0"
       position="469.5723,641.50036"
       id="guide7262" />
    <sodipodi:guide
       orientation="1,0"
       position="390.5649,658.14657"
       id="guide7264" />
    <sodipodi:guide
       orientation="1,0"
       position="384.10517,643.23951"
       id="guide7266" />
    <sodipodi:guide
       orientation="1,0"
       position="407.45956,632.80457"
       id="guide7268" />
  </sodipodi:namedview>
  <metadata
     id="metadata5594">
    <rdf:RDF>
      <cc:Work
         rdf:about="">
        <dc:format>image/svg+xml</dc:format>
        <dc:type
           rdf:resource="http://purl.org/dc/dcmitype/StillImage" />
        <dc:title></dc:title>
      </cc:Work>
    </rdf:RDF>
  </metadata>
  <g
     inkscape:groupmode="layer"
     id="layer13"
     inkscape:label="Layer#1">
    <path
       style="fill:#000000;fill-opacity:1"
       d="m 493.91382,73.993882 c -9.72721,0.06365 -15.4693,0.621344 -31.70435,2.466425 -56.60809,6.433415 -98.67037,18.6364 -131.60655,38.193673 -5.62111,3.33778 -15.31763,10.04312 -20.49767,14.16399 l -4.98074,3.96305 -1.53254,-0.90995 c -5.86018,-3.46957 -15.90784,-7.41683 -22.03021,-8.65643 -17.03687,-3.44947 -33.60238,-0.23323 -47.95162,9.32692 -12.17468,8.11135 -21.53114,20.23139 -26.00523,33.69185 -2.48172,7.46637 -2.86229,9.95269 -2.86153,18.61792 7.7e-4,7.15276 0.0778,7.93308 1.07757,11.7694 2.56857,9.85631 6.68219,16.7841 14.35555,24.12547 5.87194,5.61789 14.49608,10.93053 22.97607,14.15202 1.36552,0.51873 2.334,1.09325 2.23894,1.34097 -0.0919,0.23935 -0.87425,3.64119 -1.73607,7.55492 -6.16716,28.00638 -8.79496,60.63166 -7.7465,96.15468 0.66239,22.44224 1.52302,35.98288 4.66945,73.63358 3.1154,37.27934 4.23973,53.86313 5.10047,74.99849 l 0.16762,4.11869 -2.72983,0 c -7.98402,0.0115 -18.1801,1.64075 -25.44249,4.05883 -17.43088,5.80379 -30.01102,17.77941 -30.6627,29.19002 -0.24452,4.28137 0.45241,6.03544 3.6278,9.19522 1.81508,1.80617 2.41853,2.67435 2.41853,3.47215 0,1.3753 1.02084,4.80924 2.01146,6.76472 5.25196,10.36733 19.88753,9.90654 37.25978,-1.17335 5.17058,-3.29775 6.35149,-3.92471 9.76992,-5.17231 l 3.13691,-1.13743 -0.22748,3.16085 c -0.12642,1.74334 -0.50287,7.13827 -0.82614,11.98492 -0.32326,4.84664 -1.34195,18.55317 -2.27485,30.45917 -4.26113,54.38117 -4.99524,69.77006 -4.68142,98.82461 0.20821,19.27743 0.45468,24.29545 1.84383,38.33739 3.04981,30.82831 9.84647,57.21426 20.52162,79.6679 7.9753,16.77507 17.30367,30.09898 30.55494,43.61744 3.77642,3.85257 6.34809,6.75561 6.14212,6.94431 -0.19464,0.17831 -3.6867,2.68975 -7.75847,5.57939 -9.7959,6.95189 -14.37247,10.64668 -19.22854,15.54087 -12.1744,12.26995 -15.198,23.90029 -9.41073,36.19422 2.23474,4.74714 5.2119,7.46261 8.18949,7.47111 0.80057,0.004 1.23359,0.35325 1.92765,1.56844 1.92436,3.36924 5.36952,6.45516 8.80011,7.86624 1.80147,0.74079 2.87307,0.89029 6.22592,0.89795 4.95183,0.0111 6.89748,-0.51217 12.14057,-3.26863 6.65334,-3.49782 10.59643,-6.41738 24.65228,-18.25871 12.62335,-10.63454 20.37817,-14.8225 30.60283,-16.54661 l 3.25664,-0.55075 6.32171,2.51431 c 29.224,11.61935 63.00561,18.87219 101.5425,21.8147 10.95357,0.83638 47.31995,0.97393 58.23638,0.21551 51.84287,-3.60184 92.96932,-13.57674 128.15835,-31.09374 l 6.11817,-3.05308 2.43051,1.35296 c 5.18978,2.90217 10.51057,8.04501 20.58148,19.87508 13.37699,15.71344 20.23555,20.4976 29.38158,20.49767 5.09779,0 9.57314,-1.73981 14.25979,-5.54349 1.07005,-0.86845 2.72925,-2.12482 3.69962,-2.78967 4.35516,-2.98416 7.82417,-7.53648 9.2551,-12.15256 1.61905,-5.22296 0.88783,-12.23205 -1.98751,-18.98908 -4.48524,-10.54009 -15.97776,-23.88546 -28.85479,-33.50028 l -2.98128,-2.21498 2.98128,-3.12495 c 14.42194,-15.11606 24.99475,-31.09463 33.99116,-51.36391 13.98386,-31.50615 22.29423,-66.78418 25.66998,-109.0136 1.33841,-16.74319 1.53637,-23.12314 1.53254,-48.8496 -0.004,-29.27853 -0.40654,-40.58773 -2.89745,-80.56593 -0.4503,-7.22671 -0.72845,-13.24398 -0.6106,-13.3618 0.11785,-0.11785 1.73483,0.78667 3.59188,1.99948 13.25483,8.65661 25.19968,11.67418 32.5544,8.23739 4.38172,-2.04755 6.95645,-5.75127 8.1057,-11.68559 0.32896,-1.69851 0.83466,-3.2367 1.12546,-3.41229 1.50985,-0.91167 3.31288,-2.87636 4.14264,-4.5138 1.33836,-2.64106 1.33211,-7.32853 -0.0238,-10.93129 -2.15367,-5.72173 -8.30232,-12.8858 -14.55909,-16.97763 -9.00771,-5.89096 -20.56802,-9.69364 -32.8298,-10.79959 l -5.2322,-0.46695 -0.16762,-5.57939 c -0.0879,-3.06806 -0.35589,-23.33765 -0.59865,-45.0422 -0.84105,-75.1931 -1.19154,-90.78382 -2.55021,-112.83298 -2.21927,-36.01592 -6.73952,-67.76447 -13.42169,-94.29887 -0.74899,-2.97425 -1.30706,-5.46221 -1.24518,-5.51952 0.0619,-0.0573 1.22844,-0.56397 2.59814,-1.13743 21.52578,-9.01224 34.56943,-24.60713 37.18795,-44.44356 0.61976,-4.69499 0.24004,-13.89936 -0.76626,-18.51016 -4.9963,-22.89308 -21.84366,-41.76149 -43.12653,-48.28687 -6.6583,-2.04144 -10.00394,-2.51763 -17.62417,-2.50234 -5.95482,0.0119 -7.55264,0.15331 -11.72153,1.02967 -2.65542,0.55822 -6.36224,1.55074 -8.23738,2.20302 -4.13693,1.4391 -11.58178,4.97263 -15.44507,7.33942 l -2.83759,1.73607 -3.7595,-2.98126 C 645.55453,95.07534 602.92025,80.58442 545.92446,75.885606 c -15.5766,-1.284158 -22.39738,-1.595332 -40.42065,-1.819887 -4.6652,-0.05813 -8.3474,-0.09306 -11.5898,-0.07184 z m 98.19008,50.130698 c 11.06127,0 20.9918,1.83523 30.14786,5.56742 8.97725,3.65929 15.63897,8.11811 22.5211,15.07393 8.63044,8.72283 14.46921,19.32949 17.81573,32.3868 4.65282,18.15405 3.20105,35.10766 -4.23842,49.65178 -2.8858,5.64166 -6.07321,10.06655 -10.89538,15.0859 -7.88516,8.20763 -16.44871,13.81273 -28.1364,18.42636 -5.37377,2.12125 -14.32182,4.45726 -20.52162,5.36387 -4.19294,0.61315 -16.46569,1.0774 -19.73141,0.74233 -14.14108,-1.45096 -24.51612,-4.54075 -34.74547,-10.33265 -12.13035,-6.86826 -22.72322,-18.34 -28.316,-30.67467 -3.19247,-7.04089 -5.79664,-16.18132 -6.27382,-21.99429 -0.3478,-4.2369 0.34933,-12.79073 1.52056,-18.59398 5.67094,-28.09859 28.09816,-50.1741 58.93081,-58.00889 7.66717,-1.94827 13.73408,-2.69391 21.92246,-2.69391 z m -201.9835,8.59657 c 5.96528,-0.0159 12.36951,0.22567 15.22958,0.7064 12.23188,2.05597 23.53219,6.52083 32.54245,12.84697 5.28199,3.7085 12.61205,11.17355 16.03177,16.31911 6.24119,9.39097 9.84066,19.26939 11.36232,31.22543 0.87809,6.89941 0.63909,17.62475 -0.52681,23.4071 -2.86895,14.22865 -10.25697,27.05265 -21.09632,36.64917 -11.76886,10.41943 -27.88332,17.70115 -44.8626,20.25821 -3.88727,0.58542 -16.39563,1.02633 -19.92298,0.7064 -6.5799,-0.59679 -15.2915,-2.42099 -21.0604,-4.41801 -4.85492,-1.68063 -13.50051,-6.11565 -17.63614,-9.03957 -5.21812,-3.68926 -12.97571,-11.56297 -16.42687,-16.67831 -5.03984,-7.47009 -9.24699,-17.31371 -10.77564,-25.17909 -3.85597,-19.84013 0.054,-39.95125 10.64394,-54.75225 3.11361,-4.35175 8.67443,-10.29605 12.66737,-13.51745 11.44786,-9.23583 26.25308,-15.49064 42.58774,-18.0073 2.22483,-0.34278 6.60293,-0.51447 11.24259,-0.52681 z m 325.53226,15.32536 c 5.14132,-0.0217 11.34617,1.81694 15.58877,9.27903 9.59019,16.86765 -4.69339,25.38263 -4.69339,25.38263 L 706.4335,149.95021 c 0,0 4.07785,-1.88201 9.21916,-1.9037 z m -455.80981,12.59554 c 8.46375,0.0762 15.99585,5.18428 15.99585,5.18428 l -19.76733,34.96098 c 0,0 -23.90419,-10.10178 -12.99064,-29.65697 4.34589,-7.78708 10.30046,-10.30511 15.93599,-10.47632 0.27473,-0.008 0.5531,-0.0145 0.82613,-0.012 z m 287.67382,14.90631 c -1.58369,0.005 -3.1072,0.1451 -4.37012,0.44299 -11.46916,2.70534 -19.27278,13.99501 -18.57003,26.85531 0.38564,7.0572 2.84298,12.74343 7.55492,17.48049 3.27758,3.29505 6.96124,5.36739 11.11089,6.26185 10.13176,2.1839 19.95972,-2.70603 25.10725,-12.49975 3.90456,-7.42885 3.89406,-18.1063 -0.0239,-25.56223 -2.95482,-5.62304 -7.85827,-10.02959 -13.2301,-11.87715 -2.12053,-0.72933 -4.9394,-1.10919 -7.57887,-1.10151 z m -197.87677,6.42946 c -6.44972,0 -11.63734,2.15886 -16.16347,6.71682 -4.30284,4.3331 -6.62144,9.07292 -7.50703,15.36128 -1.98909,14.12394 7.70699,27.7991 20.72515,29.22595 12.0497,1.3207 22.63716,-6.32615 25.94536,-18.73765 0.8861,-3.32442 0.87851,-10.37481 -0.012,-13.79283 -1.16274,-4.46305 -3.55589,-8.68086 -6.76471,-11.88913 -4.7632,-4.76237 -9.77233,-6.88444 -16.22333,-6.88444 z m 208.86793,18.77357 c 5.44642,-0.006 7.37794,8.8963 2.57418,11.86519 -3.59575,2.22229 -7.8782,-0.79199 -7.8782,-5.54347 0,-3.4178 2.43269,-6.3185 5.30402,-6.32172 z m -198.31977,6.42947 c 1.84735,-0.0472 3.73062,1.01399 4.80114,3.13691 0.47413,0.94023 0.86206,2.32345 0.86206,3.07705 0,1.88319 -1.46247,4.61008 -3.02916,5.65122 -2.95091,1.96104 -6.66089,0.12333 -7.72254,-3.81936 -0.47207,-1.75311 -0.20006,-3.37393 0.87402,-5.31599 0.98823,-1.78681 2.58446,-2.68821 4.21448,-2.72983 z m 137.59302,40.50446 c 20.0495,0 33.42844,9.11441 33.42844,21.55129 0,12.43687 -16.44401,21.9464 -36.49352,21.9464 -20.0495,0 -34.20668,-5.29505 -34.20668,-17.73193 0,-13.77784 17.22226,-25.76576 37.27176,-25.76576 z m 36.44563,33.52423 c 0,0 3.43623,2.26288 11.67361,7.43519 8.23738,5.17231 14.88994,13.28886 13.51745,23.0958 -0.89081,6.3652 -9.43473,18.96647 -24.41282,16.7262 -16.08201,-2.40539 -17.91271,-11.14305 -38.14579,-11.47008 -10.34504,-0.1672 -18.0073,4.40605 -26.81938,7.47112 -8.81209,3.06507 -26.86494,6.58741 -31.417,-9.76992 -5.92162,-21.2787 14.53515,-32.47061 14.53515,-32.47061 0,0 8.16555,17.42062 39.77411,17.03749 31.60856,-0.38313 41.29467,-18.05519 41.29467,-18.05519 z m -36.02658,40.89956 2.81364,0.2634 c 4.24131,0.38434 9.20877,1.78412 15.79231,4.44196 3.26499,1.31812 6.38254,2.56511 6.92036,2.77773 l 0.96981,0.38313 0.7064,10.39251 c 0.76699,11.31124 0.69569,24.3682 -0.14368,26.47217 -1.04022,2.60743 -3.57156,4.39385 -9.23113,6.50131 -1.99289,0.74209 -4.05883,1.34495 -4.58564,1.34097 -1.23937,-0.009 -4.99346,-1.55486 -7.00417,-2.88548 -2.45755,-1.62633 -5.16465,-4.68639 -6.42947,-7.2556 -1.12902,-2.29339 -1.16644,-2.50917 -1.37688,-9.6023 -0.11842,-3.99107 -0.0306,-9.84176 0.19156,-13.00261 0.22213,-3.16086 0.6183,-8.91651 0.886,-12.7871 l 0.49089,-7.04009 z m -6.47736,0.51484 -0.69443,8.69235 c -0.71993,8.91308 -1.06172,27.14634 -0.55076,29.60908 0.26354,1.27022 0.14094,1.53119 -1.81988,3.79542 -2.75863,3.18548 -6.39425,6.23456 -9.00365,7.55493 -2.78586,1.40964 -6.38251,1.62652 -8.74025,0.5268 -5.47887,-2.55548 -10.20187,-12.22014 -11.61375,-23.77825 -0.48994,-4.0108 -0.26537,-12.04968 0.41905,-15.18169 l 0.43103,-1.97554 3.71161,-0.8381 c 2.04205,-0.46434 8.02187,-2.2817 13.28996,-4.03488 8.74624,-2.91068 10.73392,-3.52498 13.61323,-4.16658 l 0.95784,-0.20354 z"
       id="path9246"
       inkscape:connector-curvature="0" />
  </g>
</svg>
