<?xml version="1.0" encoding="UTF-8" standalone="no"?>
<!-- Created with Inkscape (http://www.inkscape.org/) -->

<svg
   xmlns:dc="http://purl.org/dc/elements/1.1/"
   xmlns:cc="http://creativecommons.org/ns#"
   xmlns:rdf="http://www.w3.org/1999/02/22-rdf-syntax-ns#"
   xmlns:svg="http://www.w3.org/2000/svg"
   xmlns="http://www.w3.org/2000/svg"
   xmlns:sodipodi="http://sodipodi.sourceforge.net/DTD/sodipodi-0.dtd"
   xmlns:inkscape="http://www.inkscape.org/namespaces/inkscape"
   width="1000"
   height="1000"
   id="svg4955"
   version="1.1"
   inkscape:version="0.48.4 r9939"
   sodipodi:docname="zend.svg">
  <defs
     id="defs5498" />
  <sodipodi:namedview
     inkscape:window-height="1056"
     inkscape:window-width="1920"
     inkscape:pageshadow="2"
     inkscape:pageopacity="0.0"
     borderopacity="1.0"
     bordercolor="#666666"
     pagecolor="#ffffff"
     id="base"
     showgrid="false"
     showguides="true"
     inkscape:guide-bbox="true"
     inkscape:zoom="0.454"
     inkscape:cx="732.20128"
     inkscape:cy="497.66419"
     inkscape:window-x="0"
     inkscape:window-y="24"
     inkscape:current-layer="layer1"
     inkscape:window-maximized="1">
    <sodipodi:guide
       orientation="horizontal"
       position="200"
       id="guide5596" />
  </sodipodi:namedview>
  <metadata
     id="metadata5594">
    <rdf:RDF>
      <cc:Work
         rdf:about="">
        <dc:format>image/svg+xml</dc:format>
        <dc:type
           rdf:resource="http://purl.org/dc/dcmitype/StillImage" />
        <dc:title></dc:title>
      </cc:Work>
    </rdf:RDF>
  </metadata>
  <g
     inkscape:label="Layer 1"
     inkscape:groupmode="layer"
     id="layer1">
    <path
       style="fill:#000000"
       d="M 186.38331,638.8478 49.077508,501.44462 187.9092,362.61288 326.74098,223.78113 l 46.24807,46.24802 46.24795,46.24801 -88.04534,88.19237 c -48.42498,48.50581 -88.04533,92.15929 -88.04533,97.00775 0,4.84844 39.59751,48.47907 87.99459,96.95691 l 87.9946,88.14154 -44.53838,44.83764 c -24.49614,24.66069 -45.97152,44.83762 -47.72322,44.83762 -1.7517,0 -64.97253,-61.83143 -140.49061,-137.40318 z m 439.01957,92.56556 -44.53838,-44.83763 87.9946,-88.14154 c 48.39697,-48.47784 87.99461,-92.21865 87.99461,-97.20179 0,-11.56017 -72.10884,-83.3819 -83.71522,-83.3819 -4.79984,0 -48.41355,39.6204 -96.91933,88.04534 L 488.02677,593.9412 441.77881,547.69318 395.53074,501.44517 534.37879,362.59709 673.22694,223.74901 812.07477,362.59682 950.92249,501.44462 813.61673,638.8478 c -75.51809,75.57175 -138.73892,137.40318 -140.49062,137.40318 -1.75159,0 -23.22708,-20.17692 -47.72322,-44.83762 z"
       id="path5203"
       inkscape:connector-curvature="0"
       sodipodi:nodetypes="scccccssscsssscsssscccccccsss" />
  </g>
</svg>
