<?xml version="1.0" encoding="UTF-8" standalone="no"?>
<!-- Created with Inkscape (http://www.inkscape.org/) -->

<svg
   xmlns:dc="http://purl.org/dc/elements/1.1/"
   xmlns:cc="http://creativecommons.org/ns#"
   xmlns:rdf="http://www.w3.org/1999/02/22-rdf-syntax-ns#"
   xmlns:svg="http://www.w3.org/2000/svg"
   xmlns="http://www.w3.org/2000/svg"
   version="1.1"
   width="1000"
   height="1000"
   id="svg4955">
  <defs
     id="defs5498" />
  <metadata
     id="metadata5594">
    <rdf:RDF>
      <cc:Work
         rdf:about="">
        <dc:format>image/svg+xml</dc:format>
        <dc:type
           rdf:resource="http://purl.org/dc/dcmitype/StillImage" />
        <dc:title></dc:title>
      </cc:Work>
    </rdf:RDF>
  </metadata>
  <g
     id="layer13">
    <g
       transform="translate(38.074989,310.11877)"
       id="g9397">
      <path
         d="m 393.125,123.53125 c -80.82055,-0.0183 -83.10937,0.62423 -90.40625,3.0625 -12.8651,4.29894 -22.87259,10.83364 -31.96875,20.875 -4.86898,5.37492 -24.41481,37.65468 -56.78125,93.78125 -27.15004,47.0808 -67.4385,116.83553 -89.53125,155 -22.09274,38.16446 -41.546733,72.89936 -43.21875,77.1875 -6.270246,16.08093 -5.167139,42.39562 2.40625,57.6875 1.698978,3.43051 43.06099,75.54981 91.9375,160.25 54.65419,94.71262 91.45494,156.83021 95.5625,161.375 8.58966,9.504 22.00088,17.52105 34.96875,20.90625 9.41076,2.45662 25.52176,2.69875 194.3125,2.78125 201.19964,0.0983 192.90205,0.44118 210.28125,-8.9375 18.88883,-10.19335 18.07213,-8.95442 114.78125,-176.53125 49.24656,-85.33403 91.32515,-159.38548 93.5,-164.53125 3.48299,-8.2409 3.9403,-11.48617 3.875,-27.28125 -0.0593,-14.33097 -0.71072,-19.48789 -3.25,-25.71875 C 917.84617,469.14936 893.05646,425.28238 864.5,375.96875 835.94353,326.65511 795.56451,256.83289 774.78125,220.8125 731.3503,145.54039 727.93104,140.98287 707.28125,130.75 l -13.34375,-6.59375 -190.71875,-0.4375 c -47.48909,-0.10309 -83.15357,-0.18138 -110.09375,-0.1875 z M 326.34375,179.5 c 8.2027,0 13.12473,2.78754 16.53125,9.375 4.79749,9.27734 1.51206,21.28576 -7,25.6875 -7.18862,3.71738 -16.15226,3.02765 -21.71875,-1.65625 C 300.20833,201.16984 308.1143,179.5 326.34375,179.5 z m 347.875,0 c 7.14231,0 8.73628,0.64252 13.40625,5.3125 4.58009,4.58009 5.28125,6.33585 5.28125,12.90625 0,8.58885 -2.65601,13.4167 -9.34375,16.875 -13.78402,7.12798 -28.0625,-2.04846 -28.0625,-18.03125 0,-5.2797 0.98661,-7.42411 5.3125,-11.75 4.66997,-4.66998 6.26394,-5.3125 13.40625,-5.3125 z m -304.84375,93.625 130.75,0.34375 130.75,0.375 19.84375,34.3125 C 661.63708,327.02407 691.02901,377.8043 716,421 l 45.375,78.53125 -4.21875,7.34375 c -2.31879,4.04392 -31.55249,54.82696 -65,112.84375 L 631.3125,725.1875 500.25,725.21875 369.1875,725.25 304.6875,613.375 C 269.21657,551.84016 239.99603,501.04271 239.71875,500.5 239.44149,499.95728 247.82455,484.54385 258.375,466.21875 268.92544,447.89363 298.22471,396.93724 323.46875,353 L 369.375,273.125 z M 150.9375,480.4375 c 11.87711,0 19.625,7.889 19.625,20 0,7.3373 -4.54917,13.76976 -11.90625,16.84375 -5.75762,2.40568 -5.76605,2.42076 -12.375,0.5 -7.54831,-2.19375 -11.95219,-8.04667 -12.8125,-17 -0.71815,-7.47395 -0.46373,-8.13002 5.5,-14.09375 5.02237,-5.02235 7.37417,-6.25 11.96875,-6.25 z m 697,0.15625 c 3.19901,0.011 6.55224,0.91835 9.8125,2.90625 12.1501,7.40834 12.87662,24.27635 1.375,31.8125 -2.2189,1.45387 -7.0683,2.5625 -11.15625,2.5625 -6.14069,0 -8.02692,-0.80818 -12.53125,-5.3125 -4.32589,-4.3259 -5.28125,-6.4703 -5.28125,-11.75 0,-12.09184 8.18421,-20.25165 17.78125,-20.21875 z M 326.46875,782.125 c 2.24849,0.0198 4.55878,0.48278 6.84375,1.4375 12.37979,5.1726 15.52427,21.41323 6,30.9375 -9.99808,9.99808 -26.78326,6.08191 -31.1875,-7.28125 -4.21473,-12.78817 6.20192,-25.20065 18.34375,-25.09375 z m 348.25,0.84375 c 6.5704,0 8.32616,0.70116 12.90625,5.28125 4.34459,4.34459 5.28125,6.48238 5.28125,11.84375 0,8.1794 -3.81122,14.86727 -10.28125,17.9375 -8.95071,4.2474 -16.3013,2.51757 -22.96875,-5.40625 -4.77864,-5.6791 -5.47571,-13.2578 -1.84375,-20.28125 3.45836,-6.68774 8.31739,-9.375 16.90625,-9.375 z"
         transform="translate(-38.074989,-310.11877)"
         id="path10005"
         style="fill:#000000" />
      <path
         d="m 552.94959,189.88123 c 0,50.27149 -40.75309,91.02458 -91.02458,91.02458 -50.27149,0 -91.02458,-40.75309 -91.02458,-91.02458 0,-50.27149 40.75309,-91.02458 91.02458,-91.02458 50.27149,0 91.02458,40.75309 91.02458,91.02458 z"
         id="path3979"
         style="fill:#000000;fill-opacity:1;stroke:#000000;stroke-width:17.79590607;stroke-miterlimit:4;stroke-opacity:0" />
    </g>
  </g>
</svg>
