<?xml version="1.0" encoding="UTF-8" standalone="no"?>
<!-- Created with Inkscape (http://www.inkscape.org/) -->

<svg
   xmlns:dc="http://purl.org/dc/elements/1.1/"
   xmlns:cc="http://creativecommons.org/ns#"
   xmlns:rdf="http://www.w3.org/1999/02/22-rdf-syntax-ns#"
   xmlns:svg="http://www.w3.org/2000/svg"
   xmlns="http://www.w3.org/2000/svg"
   xmlns:sodipodi="http://sodipodi.sourceforge.net/DTD/sodipodi-0.dtd"
   xmlns:inkscape="http://www.inkscape.org/namespaces/inkscape"
   width="1000"
   height="1000"
   id="svg4955"
   version="1.1"
   inkscape:version="0.48.4 r9939"
   sodipodi:docname="sails.svg">
  <defs
     id="defs5498" />
  <sodipodi:namedview
     inkscape:window-height="1056"
     inkscape:window-width="1920"
     inkscape:pageshadow="2"
     inkscape:pageopacity="0.0"
     borderopacity="1.0"
     bordercolor="#666666"
     pagecolor="#ffffff"
     id="base"
     showgrid="false"
     showguides="true"
     inkscape:guide-bbox="true"
     inkscape:zoom="0.64205296"
     inkscape:cx="377.50573"
     inkscape:cy="509.10475"
     inkscape:window-x="0"
     inkscape:window-y="24"
     inkscape:current-layer="layer1"
     inkscape:window-maximized="1">
    <sodipodi:guide
       orientation="horizontal"
       position="200"
       id="guide5596" />
  </sodipodi:namedview>
  <metadata
     id="metadata5594">
    <rdf:RDF>
      <cc:Work
         rdf:about="">
        <dc:format>image/svg+xml</dc:format>
        <dc:type
           rdf:resource="http://purl.org/dc/dcmitype/StillImage" />
        <dc:title></dc:title>
      </cc:Work>
    </rdf:RDF>
  </metadata>
  <g
     inkscape:label="Layer 1"
     inkscape:groupmode="layer"
     id="layer1">
    <path
       style="fill:#000000"
       d="M 446.38362,932.02456 C 399.57623,923.43309 383.61439,919.72954 360.35611,912.064 207.32709,861.62834 93.120171,728.33578 67.478118,570.24182 c -5.672352,-34.97253 -5.672352,-104.0589 0,-139.03144 C 88.07431,304.22624 168.15028,188.46062 279.43103,124.79067 c 69.7441,-39.904512 140.06488,-58.212433 222.795,-58.004307 52.50645,0.131909 91.48491,6.354656 138.76608,22.152898 66.67697,22.279039 120.55648,55.642289 170.47673,105.562539 48.77419,48.77416 83.33174,103.92114 103.93762,165.86363 18.36494,55.20606 21.499,76.01641 21.3657,141.86993 -0.10716,52.88862 -0.93082,62.29882 -8.11852,92.74363 -20.00079,84.71705 -57.18511,150.74669 -119.5121,212.22237 -61.66618,60.82383 -134.37436,100.06056 -220.888,119.20131 -21.98223,4.86349 -123.981,8.90539 -141.86992,5.62189 z M 573.61631,799.02365 c 24.68482,-11.26605 23.47419,-25.0079 -4.86107,-55.17765 -23.55807,-25.08333 -23.93156,-26.86075 -22.04625,-104.92093 2.00244,-82.91048 7.21963,-93.66162 57.40195,-118.28903 41.82096,-20.52402 65.71168,-36.69961 93.80404,-63.51164 35.60023,-33.97769 64.19315,-82.31102 72.8652,-123.17092 l 2.08208,-9.81015 -272.14548,0 -272.14548,0 2.10891,9.81015 c 8.12434,37.79258 32.45015,81.30517 63.79585,114.11437 26.69893,27.94542 54.03714,47.27242 99.90933,70.63169 53.68678,27.33864 58.31868,36.5677 60.33918,120.22553 1.86339,77.15288 1.31242,79.9264 -20.54418,103.42061 -31.2691,33.61194 -27.90606,51.86619 11.3505,61.60939 6.27964,1.55855 34.5091,2.52819 62.73216,2.15474 44.98867,-0.59531 53.04532,-1.46887 65.35326,-7.08616 z M 328.66176,716.97713 c 15.36412,-7.20651 15.06345,-14.97126 -1.29288,-33.38764 -7.54042,-8.49007 -14.56549,-18.84573 -15.61131,-23.01254 -1.04579,-4.16681 -1.3324,-25.53791 -0.6369,-47.49132 1.64798,-52.01902 6.5603,-61.64707 40.00716,-78.41298 l 14.9198,-7.47884 -13.41054,-8.2705 c -7.37579,-4.54878 -18.83287,-11.86235 -25.46013,-16.25238 -19.50536,-12.92067 -62.44341,-55.93454 -75.48718,-75.62044 l -12.07403,-18.22241 -67.53914,-0.0833 -67.53914,-0.0833 1.88847,9.81015 c 1.03867,5.39559 6.84975,19.92871 12.91354,32.29584 14.4078,29.38492 42.31446,57.17549 75.93174,75.61586 42.46092,23.29145 42.95961,23.6783 49.7182,38.56649 5.61403,12.36683 6.48738,19.90115 6.58633,56.81857 l 0.11409,42.56116 -11.07029,12.25959 c -19.34097,21.41879 -21.68158,32.93244 -8.16537,40.16612 16.89143,9.04001 77.11144,9.17883 96.20764,0.22186 z m 433.66923,2.17079 c 19.84201,-6.02854 20.49238,-18.51354 2.02898,-38.9503 -13.90084,-15.38657 -16.14785,-27.73342 -13.46249,-73.97384 2.77404,-47.76785 5.51822,-52.58916 40.54126,-71.22758 57.33616,-30.51293 84.57838,-60.01393 101.89385,-110.34226 l 5.50219,-15.99236 -68.97628,0 -68.97631,0 -8.26625,14.10528 c -13.01276,22.2046 -54.45103,63.15777 -83.70606,82.72613 -14.69534,9.82957 -27.98813,17.87193 -29.53949,17.87193 -7.949,0 -0.96791,7.19401 13.02647,13.42379 30.74816,13.68795 36.1787,24.74532 37.88102,77.13148 1.05439,32.44777 0.35983,43.05601 -3.40917,52.06928 -2.60334,6.22568 -6.11203,11.31941 -7.79705,11.31941 -4.24982,0 -18.3739,21.36818 -18.3739,27.79769 0,8.18176 13.68299,15.21036 34.15723,17.54569 21.33621,2.43367 53.41542,0.76764 67.476,-3.50434 z"
       id="path5869"
       inkscape:connector-curvature="0" />
  </g>
</svg>
