<?xml version="1.0" encoding="UTF-8" standalone="no"?>
<!-- Created with Inkscape (http://www.inkscape.org/) -->

<svg
   xmlns:dc="http://purl.org/dc/elements/1.1/"
   xmlns:cc="http://creativecommons.org/ns#"
   xmlns:rdf="http://www.w3.org/1999/02/22-rdf-syntax-ns#"
   xmlns:svg="http://www.w3.org/2000/svg"
   xmlns="http://www.w3.org/2000/svg"
   xmlns:sodipodi="http://sodipodi.sourceforge.net/DTD/sodipodi-0.dtd"
   xmlns:inkscape="http://www.inkscape.org/namespaces/inkscape"
   width="1000"
   height="1000"
   id="svg4955"
   version="1.1"
   inkscape:version="0.48.4 r9939"
   sodipodi:docname="grape.svg">
  <defs
     id="defs5498" />
  <sodipodi:namedview
     inkscape:window-height="1056"
     inkscape:window-width="1920"
     inkscape:pageshadow="2"
     inkscape:pageopacity="0.0"
     borderopacity="1.0"
     bordercolor="#666666"
     pagecolor="#ffffff"
     id="base"
     showgrid="false"
     showguides="false"
     inkscape:guide-bbox="true"
     inkscape:zoom="0.50311741"
     inkscape:cx="-85.107974"
     inkscape:cy="467.67286"
     inkscape:window-x="0"
     inkscape:window-y="24"
     inkscape:current-layer="layer11"
     inkscape:window-maximized="1">
    <sodipodi:guide
       orientation="0,1"
       position="189.44385,479.26189"
       id="guide7179" />
    <sodipodi:guide
       orientation="1,0"
       position="429.5717,650.94149"
       id="guide7232" />
    <sodipodi:guide
       orientation="0,1"
       position="423.85732,718.7686"
       id="guide7234" />
    <sodipodi:guide
       orientation="0,1"
       position="407.21111,603.48736"
       id="guide7236" />
    <sodipodi:guide
       orientation="1,0"
       position="330.68822,603.48736"
       id="guide7238" />
    <sodipodi:guide
       orientation="1,0"
       position="526.71602,603.48736"
       id="guide7240" />
    <sodipodi:guide
       orientation="0,1"
       position="429.5717,709.07902"
       id="guide7242" />
    <sodipodi:guide
       orientation="0,1"
       position="429.5717,618.89132"
       id="guide7244" />
    <sodipodi:guide
       orientation="1,0"
       position="421.62126,644.23332"
       id="guide7246" />
    <sodipodi:guide
       orientation="1,0"
       position="370.68882,649.20234"
       id="guide7248" />
    <sodipodi:guide
       orientation="1,0"
       position="377.397,646.46938"
       id="guide7250" />
    <sodipodi:guide
       orientation="0,1"
       position="401.99364,699.63788"
       id="guide7252" />
    <sodipodi:guide
       orientation="0,1"
       position="402.73899,694.42041"
       id="guide7254" />
    <sodipodi:guide
       orientation="0,1"
       position="412.67703,632.80457"
       id="guide7258" />
    <sodipodi:guide
       orientation="0,1"
       position="421.62126,626.0964"
       id="guide7260" />
    <sodipodi:guide
       orientation="1,0"
       position="469.5723,641.50036"
       id="guide7262" />
    <sodipodi:guide
       orientation="1,0"
       position="390.5649,658.14657"
       id="guide7264" />
    <sodipodi:guide
       orientation="1,0"
       position="384.10517,643.23951"
       id="guide7266" />
    <sodipodi:guide
       orientation="1,0"
       position="407.45956,632.80457"
       id="guide7268" />
  </sodipodi:namedview>
  <metadata
     id="metadata5594">
    <rdf:RDF>
      <cc:Work
         rdf:about="">
        <dc:format>image/svg+xml</dc:format>
        <dc:type
           rdf:resource="http://purl.org/dc/dcmitype/StillImage" />
        <dc:title></dc:title>
      </cc:Work>
    </rdf:RDF>
  </metadata>
  <g
     inkscape:groupmode="layer"
     id="layer11"
     inkscape:label="Layer">
    <g
       transform="scale(0.88840804,1.1256089)"
       style="font-size:745.41668701px;font-style:normal;font-variant:normal;font-weight:bold;font-stretch:normal;text-align:start;line-height:125%;letter-spacing:0px;word-spacing:0px;writing-mode:lr-tb;text-anchor:start;fill:#000000;fill-opacity:1;stroke:none;font-family:Sans;-inkscape-font-specification:Sans Bold"
       id="text7553">
      <path
         d="m 423.02267,706.26455 0,81.89392 -78.98214,0 c -52.89772,-1.2e-4 -91.47881,-10.67665 -115.74341,-32.02962 -24.26509,-21.35315 -36.39751,-55.44526 -36.3973,-102.27641 l 0,-69.88282 c -2.1e-4,-36.39718 -6.55172,-61.63261 -19.65454,-75.70638 -13.10321,-14.3161 -36.88275,-21.47423 -71.33871,-21.47441 l -22.202353,0 0,-81.16597 22.202353,0 c 34.45596,2.6e-4 58.2355,-7.03655 71.33871,-21.11044 13.10282,-14.07332 19.65433,-39.30876 19.65454,-75.70638 l 0,-74.61446 c -2.1e-4,-46.83071 12.13221,-80.80149 36.3973,-101.91244 24.2646,-21.35253 62.84569,-32.02906 115.74341,-32.02962 l 78.98214,0 0,81.89392 -25.11414,0 c -34.21384,4.8e-4 -56.53749,5.33875 -66.97103,16.01481 -10.19158,10.43435 -15.2872,32.87933 -15.28687,67.335 l 0,60.41952 c -3.3e-4,38.09614 -5.45991,65.75806 -16.37878,82.98584 -10.91949,17.2283 -29.72475,28.87542 -56.41581,34.94141 26.93371,6.55173 45.73897,18.4415 56.41581,35.66935 10.91887,17.22823 16.37845,44.76882 16.37878,82.62187 l 0,60.41952 c -3.3e-4,34.69877 5.09529,57.26507 15.28687,67.69898 10.43354,10.6765 32.75719,16.01477 66.97103,16.01481 l 25.11414,0"
         style=""
         id="path7625" />
    </g>
    <g
       transform="scale(-0.88840804,1.1256089)"
       style="font-size:745.41668701px;font-style:normal;font-variant:normal;font-weight:bold;font-stretch:normal;text-align:start;line-height:125%;letter-spacing:0px;word-spacing:0px;writing-mode:lr-tb;text-anchor:start;fill:#000000;fill-opacity:1;stroke:none;font-family:Sans;-inkscape-font-specification:Sans Bold"
       id="text7576">
      <path
         d="m -702.58625,706.26455 0,81.89392 -78.98214,0 c -52.89771,-1.2e-4 -91.47881,-10.67665 -115.74341,-32.02962 -24.26509,-21.35315 -36.39751,-55.44526 -36.3973,-102.27641 l 0,-69.88282 c -2.1e-4,-36.39718 -6.55171,-61.63261 -19.65454,-75.70638 -13.1032,-14.3161 -36.88275,-21.47423 -71.33866,-21.47441 l -22.2024,0 0,-81.16597 22.2024,0 c 34.45591,2.6e-4 58.23546,-7.03655 71.33866,-21.11044 13.10283,-14.07332 19.65433,-39.30876 19.65454,-75.70638 l 0,-74.61446 c -2.1e-4,-46.83071 12.13221,-80.80149 36.3973,-101.91244 24.2646,-21.35253 62.8457,-32.02906 115.74341,-32.02962 l 78.98214,0 0,81.89392 -25.11414,0 c -34.21384,4.8e-4 -56.53749,5.33875 -66.97103,16.01481 -10.19158,10.43435 -15.28719,32.87933 -15.28686,67.335 l 0,60.41952 c -3.3e-4,38.09614 -5.45992,65.75806 -16.37879,82.98584 -10.91949,17.2283 -29.72474,28.87542 -56.41581,34.94141 26.93372,6.55173 45.73897,18.4415 56.41581,35.66935 10.91887,17.22823 16.37846,44.76882 16.37879,82.62187 l 0,60.41952 c -3.3e-4,34.69877 5.09528,57.26507 15.28686,67.69898 10.43354,10.6765 32.75719,16.01477 66.97103,16.01481 l 25.11414,0"
         style=""
         id="path7628" />
    </g>
  </g>
</svg>
