<?xml version="1.0" encoding="UTF-8" standalone="no"?>
<!-- Created with Inkscape (http://www.inkscape.org/) -->

<svg
   xmlns:dc="http://purl.org/dc/elements/1.1/"
   xmlns:cc="http://creativecommons.org/ns#"
   xmlns:rdf="http://www.w3.org/1999/02/22-rdf-syntax-ns#"
   xmlns:svg="http://www.w3.org/2000/svg"
   xmlns="http://www.w3.org/2000/svg"
   xmlns:sodipodi="http://sodipodi.sourceforge.net/DTD/sodipodi-0.dtd"
   xmlns:inkscape="http://www.inkscape.org/namespaces/inkscape"
   width="1000"
   height="1000"
   id="svg4955"
   version="1.1"
   inkscape:version="0.48.4 r9939"
   sodipodi:docname="foundation.svg">
  <defs
     id="defs5498" />
  <sodipodi:namedview
     inkscape:window-height="1056"
     inkscape:window-width="1920"
     inkscape:pageshadow="2"
     inkscape:pageopacity="0.0"
     borderopacity="1.0"
     bordercolor="#666666"
     pagecolor="#ffffff"
     id="base"
     showgrid="false"
     showguides="false"
     inkscape:guide-bbox="true"
     inkscape:zoom="0.53319984"
     inkscape:cx="175.40538"
     inkscape:cy="551.73275"
     inkscape:window-x="0"
     inkscape:window-y="24"
     inkscape:current-layer="g9397"
     inkscape:window-maximized="1">
    <sodipodi:guide
       orientation="0,1"
       position="189.44385,479.26189"
       id="guide7179" />
    <sodipodi:guide
       orientation="1,0"
       position="429.5717,650.94149"
       id="guide7232" />
    <sodipodi:guide
       orientation="0,1"
       position="423.85732,718.7686"
       id="guide7234" />
    <sodipodi:guide
       orientation="0,1"
       position="407.21111,603.48736"
       id="guide7236" />
    <sodipodi:guide
       orientation="1,0"
       position="330.68822,603.48736"
       id="guide7238" />
    <sodipodi:guide
       orientation="1,0"
       position="526.71602,603.48736"
       id="guide7240" />
    <sodipodi:guide
       orientation="0,1"
       position="429.5717,709.07902"
       id="guide7242" />
    <sodipodi:guide
       orientation="0,1"
       position="429.5717,618.89132"
       id="guide7244" />
    <sodipodi:guide
       orientation="1,0"
       position="421.62126,644.23332"
       id="guide7246" />
    <sodipodi:guide
       orientation="1,0"
       position="370.68882,649.20234"
       id="guide7248" />
    <sodipodi:guide
       orientation="1,0"
       position="377.397,646.46938"
       id="guide7250" />
    <sodipodi:guide
       orientation="0,1"
       position="401.99364,699.63788"
       id="guide7252" />
    <sodipodi:guide
       orientation="0,1"
       position="402.73899,694.42041"
       id="guide7254" />
    <sodipodi:guide
       orientation="0,1"
       position="412.67703,632.80457"
       id="guide7258" />
    <sodipodi:guide
       orientation="0,1"
       position="421.62126,626.0964"
       id="guide7260" />
    <sodipodi:guide
       orientation="1,0"
       position="469.5723,641.50036"
       id="guide7262" />
    <sodipodi:guide
       orientation="1,0"
       position="390.5649,658.14657"
       id="guide7264" />
    <sodipodi:guide
       orientation="1,0"
       position="384.10517,643.23951"
       id="guide7266" />
    <sodipodi:guide
       orientation="1,0"
       position="407.45956,632.80457"
       id="guide7268" />
    <sodipodi:guide
       orientation="0,1"
       position="562.25,301.75"
       id="guide9656" />
    <sodipodi:guide
       orientation="0,1"
       position="304.625,414.0625"
       id="guide9658" />
    <sodipodi:guide
       orientation="0,1"
       position="574.5,288.25"
       id="guide9660" />
    <sodipodi:guide
       orientation="0,1"
       position="274,595.875"
       id="guide9707" />
    <sodipodi:guide
       orientation="0,1"
       position="278.41012,505.92896"
       id="guide9709" />
  </sodipodi:namedview>
  <metadata
     id="metadata5594">
    <rdf:RDF>
      <cc:Work
         rdf:about="">
        <dc:format>image/svg+xml</dc:format>
        <dc:type
           rdf:resource="http://purl.org/dc/dcmitype/StillImage" />
        <dc:title></dc:title>
      </cc:Work>
    </rdf:RDF>
  </metadata>
  <g
     inkscape:groupmode="layer"
     id="layer13"
     inkscape:label="Layer#1">
    <g
       id="g9397"
       transform="translate(38.074989,310.11877)">
      <path
         style="fill:#000000"
         d="m 369.91476,560.24957 c -4.3485,-3.00407 -13.59895,-6.48316 -20.55656,-7.73129 -6.9576,-1.24813 -18.69963,-4.92361 -26.09342,-8.16772 -16.50486,-7.24176 -46.14289,-34.77705 -56.55324,-52.54101 -5.60372,-9.56197 -12.42217,-15.47214 -24.88387,-21.56912 -35.97958,-17.60315 -55.77576,-52.70869 -56.25337,-99.75683 -0.31246,-30.77519 3.71128,-45.9454 17.82345,-67.19803 10.06354,-15.15547 14.71473,-18.56596 14.71473,-10.78951 0,7.96858 18.77342,41.82273 28.20095,50.85491 l 9.41303,9.01825 2.29133,-9.12746 c 1.26025,-5.0201 2.40332,-31.18623 2.54022,-58.14694 0.23435,-46.17133 -0.17014,-49.60687 -6.96181,-59.12863 -3.96583,-5.56005 -17.94843,-16.03656 -31.07237,-23.28113 -59.44442,-32.81402 -70.34837,-67.57431 -32.65429,-104.097178 l 15.59275,-15.108217 0,-25.373182 c 0,-22.075973 -1.23288,-27.716945 -9.48764,-43.409442 -12.64684,-24.0420658 -13.20771,-47.275689 -1.47776,-61.215945 7.49837,-8.9113 16.02871,-12.968342 37.05642,-17.62396 8.26345,-1.829566 8.69701,-2.837596 8.69701,-20.220222 0,-16.491174 -1.01322,-19.275254 -10.27828,-28.242374 -10.568,-10.22816 -29.46366,-19.71874 -39.43027,-19.80438 -3.09983,-0.0253 -7.74577,-1.38245 -10.32432,-3.01287 -3.92808,-2.48377 -3.27008,-4.4447 4.05793,-12.09348 20.87104,-21.78467 58.6223,-32.48667 92.954,-26.35123 28.379,5.07158 51.28163,18.27759 76.10854,43.88528 21.65026,22.33112 29.17893,23.98017 29.29648,6.41696 0.0968,-14.47298 10.80026,-36.65459 24.46452,-50.7 6.34575,-6.52275 12.67204,-11.85955 14.05844,-11.85955 1.3864,0 2.52071,4.31514 2.52071,9.58922 0,9.19657 7.55175,31.5239 10.66227,31.5239 0.82356,0 3.22846,-5.3368 5.34417,-11.85956 5.87617,-18.11608 14.61388,-28.54774 32.50859,-38.811 8.97445,-5.14717 17.35732,-9.37186 18.6286,-9.38818 1.27128,-0.0158 1.48036,6.03344 0.46464,13.44389 -1.60546,11.71323 3.09231,40.28975 6.62336,40.28975 0.68706,0 8.10374,-4.2455 16.48146,-9.43441 8.37774,-5.18895 19.85602,-10.34758 25.50727,-11.46361 l 10.27502,-2.02915 -6.34306,14.33956 c -3.48867,7.88673 -7.2311,20.81842 -8.31645,28.73706 -1.82533,13.31726 -1.35487,14.67934 6.2701,18.15349 7.78897,3.54892 9.38871,2.59943 29.01621,-17.22219 24.54694,-24.78966 43.05432,-36.33292 67.46473,-42.07848 24.59345,-5.78863 37.50974,-5.35388 61.55149,2.07188 14.47643,4.4713 25.15851,10.46692 35.77799,20.08135 l 15.13972,13.70686 -12.29051,2.30572 c -18.24638,3.42305 -38.631,13.94554 -47.55007,24.54523 -6.01043,7.14299 -7.88664,12.98469 -7.88664,24.555604 0,17.242272 2.83007,20.541283 20.33161,23.700763 7.82825,1.413184 16.31112,6.128954 22.92847,12.7463 9.46851,9.468477 10.50323,12.300665 10.50323,28.74841 0,14.4282372 -1.98485,21.7621216 -9.48764,35.056364 -8.37879,14.846421 -9.48765,19.80713 -9.48765,42.445404 l 0,25.634218 15.7647,15.194586 c 23.31743,22.474171 27.81944,39.913781 16.16856,62.632611 -8.19723,15.98424 -16.38431,23.01835 -47.75782,41.03209 -19.90827,11.43071 -28.76793,18.64692 -34.19596,27.85265 -7.03079,11.92388 -7.25688,14.35025 -5.60774,60.18018 0.94516,26.26543 2.90265,50.95648 4.34999,54.86903 2.56903,6.94479 2.88099,6.82955 13.13941,-4.85413 10.30933,-11.74169 25.39686,-40.16521 25.45777,-47.96013 0.061,-7.79657 5.92687,-3.70116 15.58624,10.88179 13.3926,20.21918 17.32165,35.74355 17.0559,67.39126 -0.39054,46.51304 -19.60203,80.5282 -56.72588,100.43678 -12.02195,6.44708 -19.81314,13.99877 -30.16542,29.23816 -17.2598,25.40778 -44.8411,45.11416 -71.35087,50.97894 -10.04574,2.22245 -24.66914,8.075 -32.49644,13.00569 -51.53118,29.20869 -131.56223,27.11278 -177.10266,-3.8936 z m 132.15129,-1.37599 c 32.9279,-8.76532 57.57101,-29.58538 77.71517,-65.65882 14.94231,-26.75812 20.25896,-46.9051 15.2684,-57.85817 -7.4521,-16.35565 -15.8647,-17.43582 -135.69131,-17.42295 -103.77378,0.0126 -110.57708,0.3636 -120.1935,6.22699 -13.29595,8.10688 -15.43763,18.01719 -8.59499,39.77176 14.52578,46.18125 46.24549,80.35217 86.78315,93.48945 21.34476,6.91735 61.58992,7.60704 84.71308,1.45174 z M 377.48261,490.72909 c -8.73717,-3.53089 -25.52941,-24.06214 -28.11906,-34.38008 -3.26796,-13.02062 4.73968,-16.28937 39.90505,-16.28937 36.32999,0 42.5752,3.26375 36.97657,19.32396 -1.86846,5.35988 -8.68268,15.30145 -15.14266,22.09232 -11.93358,12.54478 -19.98881,14.76182 -33.6199,9.25317 z m 141.82343,-1.79575 c -8.77104,-6.14351 -22.88938,-29.91211 -22.88938,-38.53492 0,-8.90557 5.43215,-10.33878 39.18605,-10.33878 36.46028,0 42.44079,3.20749 36.95775,19.8213 -4.92674,14.92817 -25.93295,33.94201 -37.49864,33.94201 -4.82617,0 -11.91626,-2.20034 -15.75578,-4.88961 z M 325.7798,508.84505 c -8.99574,-15.76375 -15.30869,-20.24789 -29.6096,-21.03195 -5.25919,-0.28843 -5.15053,0.5264 1.27374,9.54842 5.57687,7.83202 32.10416,28.0869 36.78467,28.0869 0.56432,0 -3.23763,-7.47151 -8.44881,-16.60337 z m 297.45818,-8.52088 c 4.94635,-5.99104 8.53593,-11.35023 7.97686,-11.9093 -0.55908,-0.55908 -6.28885,0.0787 -12.73286,1.41777 -9.8612,2.04885 -13.28023,5.14306 -21.59327,19.54179 l -9.87696,17.10748 13.61645,-7.63246 c 7.489,-4.19787 17.66343,-12.53425 22.60978,-18.52528 z M 305.77865,448.30149 c -0.32929,-14.0652 1.2394,-19.47588 8.93989,-30.83483 5.13661,-7.57696 9.33928,-15.1042 9.33928,-16.72716 0,-1.62299 -10.4185,-4.70631 -23.15222,-6.85188 -12.73371,-2.14557 -31.03006,-7.88686 -40.65859,-12.75844 -18.50457,-9.36247 -41.0265,-32.01131 -44.1307,-44.37943 -2.70546,-10.77951 -6.89685,-9.02117 -9.32296,3.91115 -3.73972,19.93442 0.21189,58.75599 7.40361,72.73281 6.74771,13.11404 25.88195,32.43999 39.21439,39.60724 11.48903,6.17626 31.67408,11.91442 42.7313,12.1475 l 10.0354,0.21157 z m 357.45926,7.56419 c 18.06456,-7.97177 36.85588,-25.43264 45.94043,-42.68769 5.02405,-9.54267 6.98733,-20.13847 7.9921,-43.13376 1.79054,-40.97852 -1.15309,-45.61883 -15.32488,-24.1576 -6.01273,9.10545 -17.03247,21.16621 -24.48836,26.80168 -14.19181,10.72682 -49.7804,23.09567 -66.45253,23.09567 -5.36285,0 -10.57726,1.33747 -11.58757,2.97219 -1.01031,1.63472 2.81935,9.5854 8.51035,17.66817 8.8935,12.63122 10.28767,17.15708 9.923,32.21295 l -0.42426,17.51697 15.44323,-1.82902 c 8.49381,-1.00595 22.20463,-4.81277 30.46849,-8.45956 z m -94.08199,-59.22449 c -3.5e-4,-0.39823 -3.50955,-11.17686 -7.79821,-23.9525 -8.19676,-24.41772 -21.76595,-77.20323 -25.36253,-98.66279 -2.89319,-17.26276 1.39627,-11.56986 14.29744,18.97529 5.87728,13.9152 11.45835,26.01195 12.4024,26.88165 0.94402,0.8697 2.01126,3.00442 2.3716,4.74382 0.92425,4.46122 16.13829,45.48923 17.96342,48.44235 1.95522,3.16366 42.06426,-0.77887 53.19544,-5.22883 7.39043,-2.95451 8.36779,-4.84859 7.13692,-13.83077 -0.7844,-5.72411 -2.36523,-31.99261 -3.51299,-58.37445 -3.1486,-72.37468 2.66085,-85.37807 50.98887,-114.12888 36.93365,-21.97218 45.9935,-39.33384 32.11893,-61.55054 -5.22374,-8.36453 -10.86266,-6.95887 -9.09881,2.26811 4.5393,23.74587 -12.10155,-9.96664 -20.14944,-40.820482 -3.49699,-13.406671 -4.41935,-25.521189 -3.03206,-39.824474 2.85742,-29.460996 5.30935,-41.28300911 8.19267,-39.5010401 1.38539,0.8562281 1.77492,4.4016335 0.86565,7.8786964 -2.44891,9.3646827 0.82012,7.6817957 7.68522,-3.9563153 13.54313,-22.959083 11.09424,-37.70174 -7.55704,-45.494732 -16.01194,-6.690211 -55.41311,-0.425837 -86.43248,13.741902 -17.64357,8.058487 -57.2912,32.4799629 -72.1213,44.424019 -7.48777,6.03063 -14.42106,10.157881 -15.4073,9.171641 -0.98624,-0.986241 5.57599,-11.054052 14.5827,-22.3729362 16.10236,-20.2360978 54.66451,-52.3525578 62.93115,-52.4121718 14.35917,-0.103415 -18.52095,-23.333054 -49.35699,-34.87028 -22.11199,-8.273161 -65.88807,-15.763408 -92.05417,-15.750789 -25.96581,0.01265 -71.53378,7.791479 -93.2608,15.920586 -18.68003,6.989104 -50.0846,25.209899 -51.58754,29.930887 -0.55455,1.741931 5.12908,6.423007 12.6303,10.402409 7.50124,3.979402 20.9095,13.595665 29.79613,21.369492 16.70198,14.610463 40.76584,44.788819 37.95525,47.599407 -0.87796,0.877955 -11.2792,-5.641827 -23.11383,-14.488421 -46.80137,-34.984669 -92.51944,-53.818588 -130.6411,-53.818588 -26.39699,0 -35.15858,5.198817 -35.15858,20.861871 0,6.058555 3.12903,17.0072629 6.95337,24.3304262 l 6.9534,13.3148308 2.00806,-9.4876424 2.00809,-9.4876424 2.80748,12.6501898 c 5.43895,24.506992 3.50006,61.690359 -4.48797,86.068571 -4.11216,12.549716 -9.55108,25.358036 -12.08646,28.462926 -4.18959,5.13073 -4.4498,4.63633 -2.85458,-5.42361 l 1.75524,-11.06892 -7.85342,8.87335 c -10.03998,11.34393 -10.57986,29.50192 -1.23052,41.38769 3.64259,4.63079 17.79695,14.8648 31.4541,22.74223 27.85043,16.06413 41.59259,29.84414 47.44431,47.57502 4.11347,12.46392 2.63342,116.88086 -1.82036,128.42834 -1.57495,4.08335 0.19355,6.40574 6.90081,9.06158 10.72752,4.24781 47.45671,8.66393 51.33181,6.17184 1.49547,-0.96173 9.88369,-19.53797 18.6404,-41.28048 32.2361,-80.0405 37.85747,-87.12021 26.10544,-32.87791 -3.65888,16.88772 -7.23619,31.64939 -7.94957,32.80368 -0.71341,1.1543 -1.98307,5.55685 -2.8215,9.78347 -0.83842,4.22662 -5.18212,18.25185 -9.65269,31.16716 -4.47055,12.91534 -8.12791,23.58894 -8.12747,23.71911 4.5e-4,0.13029 48.38774,0.23655 107.52731,0.23655 59.13958,0 107.52618,-0.32583 107.5258,-0.72406 z M 378.07774,200.12125 c -1.06758,-1.72739 -0.49469,-4.03462 1.27308,-5.12716 3.88241,-2.39945 4.20667,-29.93841 0.42284,-35.90873 -2.21515,-3.49519 -4.5604,-3.28652 -13.1841,1.17299 -13.23905,6.84615 -37.85224,4.81972 -56.40204,-4.6437 -15.91311,-8.11826 -31.39903,-28.60258 -34.02151,-45.00264 -2.01477,-12.599681 -7.45277,-16.818867 -7.45277,-5.78237 0,3.47881 -1.39604,6.3251 -3.1023,6.3251 -6.95327,0 -8.11677,-27.312173 -1.78507,-41.903756 1.85705,-4.279654 0.89073,-5.534458 -4.26191,-5.534458 -3.66492,0 -6.66345,-1.601609 -6.66345,-3.559131 0,-2.46549 8.16737,-3.130479 26.57972,-2.164068 34.3452,1.802652 57.95704,13.029854 91.27245,43.399163 24.9321,22.72733 37.81078,28.46669 54.48588,24.28154 5.98095,-1.50114 7.92715,-0.75041 7.92715,3.05774 0,7.12338 -17.2534,23.53609 -24.74168,23.53609 -4.8745,0 -7.07453,3.42478 -9.9799,15.53582 -3.98711,16.62004 -17.1546,37.51436 -20.36639,32.31757 z m -14.40439,-55.34572 10.29754,-4.32978 -13.88343,-15.06173 c -12.81062,-13.89791 -43.61074,-37.176189 -54.94199,-41.524407 -3.95154,-1.516346 -4.80675,1.338422 -4.80675,16.0449 0,22.292197 6.20292,34.663477 21.40456,42.689807 14.01006,7.3972 27.81676,8.11541 41.93007,2.18121 z m 168.23503,39.90841 c -3.68642,-8.26216 -7.59113,-18.24835 -8.67714,-22.19154 -1.12685,-4.09157 -6.45024,-9.03951 -12.39997,-11.52549 -10.45561,-4.36862 -20.7397,-15.73535 -20.7397,-22.92303 0,-2.6123 3.48648,-3.27551 10.89722,-2.07292 17.49515,2.83908 25.64503,-0.99545 50.74449,-23.87534 13.02404,-11.872329 33.22377,-26.431843 44.88829,-32.354472 18.03689,-9.1582 25.13548,-10.935204 47.4717,-11.88362 15.90578,-0.675362 26.2635,0.114484 26.2635,2.003062 0,1.715018 -2.95277,3.890376 -6.56172,4.834144 -5.47879,1.43276 -6.00071,2.764098 -3.16254,8.067311 3.71023,6.93262 4.53031,25.440037 1.47953,33.390205 -2.98117,7.76886 -7.56801,5.89575 -7.56801,-3.09053 0,-12.629321 -5.36273,-6.185472 -7.67287,9.21971 -5.41074,36.08131 -58.91222,64.15819 -90.81705,47.65959 -5.29347,-2.73735 -10.37068,-4.2308 -11.28273,-3.31875 -3.7085,3.7085 -4.55088,29.96776 -1.16433,36.29558 2.89032,5.40068 2.75101,6.78819 -0.68159,6.78819 -2.37295,0 -7.33066,-6.75995 -11.01708,-15.0221 z m 67.97712,-40.85996 c 15.82264,-7.50833 23.0069,-20.91105 23.02123,-42.94752 0.006,-10.001557 -1.18814,-18.184649 -2.65474,-18.184649 -5.52747,0 -46.84899,31.232999 -58.7428,44.400929 l -12.38988,13.71717 10.80861,3.90711 c 15.20344,5.49575 27.05227,5.23092 39.95758,-0.89304 z M 437.96254,73.180734 c -18.85777,-14.556763 -20.66463,-20.101847 -4.1004,-12.583776 17.15954,7.788279 38.26688,7.83714 55.2473,0.127767 9.8594,-4.476238 12.82346,-4.905459 11.58482,-1.677637 -3.35534,8.743875 -24.00918,21.343306 -37.04374,22.59773 -10.87041,1.046139 -15.22748,-0.389531 -25.68798,-8.464242 z M 295.08939,-68.58286 c 9.33512,-9.743745 9.06222,-11.333336 -5.73012,-33.37519 -7.57079,-11.28112 -38.29538,-25.23802 -31.55694,-14.33501 1.16189,1.87998 3.82978,13.62094 5.92864,26.091026 3.1683,18.823925 5.12307,23.335995 11.51493,26.579409 10.28523,5.218962 10.03014,5.282719 19.84349,-4.960235 z m 358.7289,4.414854 c 0.4777,-0.477703 2.3672,-9.256682 4.19892,-19.50887 1.83168,-10.252189 4.52225,-22.553994 5.97898,-27.337354 1.45673,-4.78335 1.44174,-8.697 -0.0332,-8.697 -12.23543,0 -32.62095,17.37061 -39.57344,33.720666 -3.42601,8.056906 -2.97409,9.878248 4.42352,17.827406 6.37409,6.849319 10.03885,8.402035 16.1881,6.858648 4.37181,-1.097245 8.33958,-2.385825 8.81725,-2.863496 z M 341.45183,-101.77067 c 0,-1.75012 -8.89466,-11.95525 -19.76592,-22.67812 -23.7765,-23.45194 -45.71658,-32.08098 -72.92521,-28.68149 -32.47551,4.05755 -31.65903,14.30489 1.14696,14.39534 22.91044,0.0632 45.97768,11.44523 63.85955,31.5102 11.83957,13.284986 14.30664,14.708196 20.56889,11.865818 3.91366,-1.776371 7.11573,-4.661658 7.11573,-6.411748 z m 297.89648,-28.72466 c 11.61034,-5.78566 21.59558,-8.22073 34.00131,-8.29176 9.9056,-0.0566 20.07797,-2.00638 23.33014,-4.47146 5.21852,-3.95556 4.03019,-4.7313 -12.50639,-8.16427 -33.20415,-6.89316 -63.70715,4.7497 -90.68927,34.61566 -6.42326,7.10979 -11.67866,14.00847 -11.67866,15.33038 0,1.32195 3.20208,3.886301 7.11573,5.698568 6.27829,2.907304 8.6971,1.540293 20.55264,-11.615408 7.3903,-8.20077 20.83382,-18.59653 29.8745,-23.10171 z"
         id="path9796"
         inkscape:connector-curvature="0"
         sodipodi:nodetypes="csssssssscssssscsssssscssssssssssscsssscssssssscsssssssscssssssscsssssccssscssssssssssssssssscssssscscsssssssssssscsssssssssscsscsssccssssssssssssssssssssssssssssscccsssscssssssssscssssccssssssssssssssssssscssssssssssssssssssssssssscsscsssssssssssssscssssssccsssssssscsssssss" />
    </g>
  </g>
</svg>
