<?xml version="1.0" encoding="UTF-8" standalone="no"?>
<!-- Created with Inkscape (http://www.inkscape.org/) -->

<svg
   xmlns:dc="http://purl.org/dc/elements/1.1/"
   xmlns:cc="http://creativecommons.org/ns#"
   xmlns:rdf="http://www.w3.org/1999/02/22-rdf-syntax-ns#"
   xmlns:svg="http://www.w3.org/2000/svg"
   xmlns="http://www.w3.org/2000/svg"
   xmlns:sodipodi="http://sodipodi.sourceforge.net/DTD/sodipodi-0.dtd"
   xmlns:inkscape="http://www.inkscape.org/namespaces/inkscape"
   width="1000"
   height="1000"
   id="svg4955"
   version="1.1"
   inkscape:version="0.48.4 r9939"
   sodipodi:docname="gulp.svg">
  <defs
     id="defs5498" />
  <sodipodi:namedview
     inkscape:window-height="1056"
     inkscape:window-width="1920"
     inkscape:pageshadow="2"
     inkscape:pageopacity="0.0"
     borderopacity="1.0"
     bordercolor="#666666"
     pagecolor="#ffffff"
     id="base"
     showgrid="false"
     showguides="false"
     inkscape:guide-bbox="true"
     inkscape:zoom="0.53319984"
     inkscape:cx="175.40538"
     inkscape:cy="551.73275"
     inkscape:window-x="0"
     inkscape:window-y="24"
     inkscape:current-layer="g9397"
     inkscape:window-maximized="1">
    <sodipodi:guide
       orientation="0,1"
       position="189.44385,479.26189"
       id="guide7179" />
    <sodipodi:guide
       orientation="1,0"
       position="429.5717,650.94149"
       id="guide7232" />
    <sodipodi:guide
       orientation="0,1"
       position="423.85732,718.7686"
       id="guide7234" />
    <sodipodi:guide
       orientation="0,1"
       position="407.21111,603.48736"
       id="guide7236" />
    <sodipodi:guide
       orientation="1,0"
       position="330.68822,603.48736"
       id="guide7238" />
    <sodipodi:guide
       orientation="1,0"
       position="526.71602,603.48736"
       id="guide7240" />
    <sodipodi:guide
       orientation="0,1"
       position="429.5717,709.07902"
       id="guide7242" />
    <sodipodi:guide
       orientation="0,1"
       position="429.5717,618.89132"
       id="guide7244" />
    <sodipodi:guide
       orientation="1,0"
       position="421.62126,644.23332"
       id="guide7246" />
    <sodipodi:guide
       orientation="1,0"
       position="370.68882,649.20234"
       id="guide7248" />
    <sodipodi:guide
       orientation="1,0"
       position="377.397,646.46938"
       id="guide7250" />
    <sodipodi:guide
       orientation="0,1"
       position="401.99364,699.63788"
       id="guide7252" />
    <sodipodi:guide
       orientation="0,1"
       position="402.73899,694.42041"
       id="guide7254" />
    <sodipodi:guide
       orientation="0,1"
       position="412.67703,632.80457"
       id="guide7258" />
    <sodipodi:guide
       orientation="0,1"
       position="421.62126,626.0964"
       id="guide7260" />
    <sodipodi:guide
       orientation="1,0"
       position="469.5723,641.50036"
       id="guide7262" />
    <sodipodi:guide
       orientation="1,0"
       position="390.5649,658.14657"
       id="guide7264" />
    <sodipodi:guide
       orientation="1,0"
       position="384.10517,643.23951"
       id="guide7266" />
    <sodipodi:guide
       orientation="1,0"
       position="407.45956,632.80457"
       id="guide7268" />
    <sodipodi:guide
       orientation="0,1"
       position="562.25,301.75"
       id="guide9656" />
    <sodipodi:guide
       orientation="0,1"
       position="304.625,414.0625"
       id="guide9658" />
    <sodipodi:guide
       orientation="0,1"
       position="574.5,288.25"
       id="guide9660" />
    <sodipodi:guide
       orientation="0,1"
       position="274,595.875"
       id="guide9707" />
    <sodipodi:guide
       orientation="0,1"
       position="278.41012,505.92896"
       id="guide9709" />
  </sodipodi:namedview>
  <metadata
     id="metadata5594">
    <rdf:RDF>
      <cc:Work
         rdf:about="">
        <dc:format>image/svg+xml</dc:format>
        <dc:type
           rdf:resource="http://purl.org/dc/dcmitype/StillImage" />
        <dc:title></dc:title>
      </cc:Work>
    </rdf:RDF>
  </metadata>
  <g
     inkscape:groupmode="layer"
     id="layer13"
     inkscape:label="Layer#1">
    <g
       id="g9397"
       transform="translate(38.074989,310.11877)">
      <path
         style="fill:#000000"
         d="m 422.88157,614.16311 c -26.40561,-2.82784 -52.41699,-10.22557 -60.62106,-17.24084 l -5.0366,-4.30676 -5.00035,-67.80441 -5.00035,-67.80442 -11.81153,-20.22283 c -6.49633,-11.12257 -11.81152,-20.51375 -11.81152,-20.86928 0,-0.35552 3.97546,0.72052 8.83436,2.39121 38.17485,13.12607 104.06124,20.3662 154.72851,17.00279 40.37173,-2.67994 77.64954,-8.93399 99.93088,-16.76526 5.01019,-1.76093 9.10538,-2.6911 9.10044,-2.067 -0.005,0.62407 -4.87038,9.64441 -10.81207,20.0452 l -10.80305,18.91051 -2.75601,47.55755 c -5.66675,97.78498 -4.64045,88.67884 -10.59405,93.99839 -6.88201,6.14907 -27.17863,12.4457 -50.68646,15.72448 -17.26997,2.40873 -70.49091,3.28948 -87.66114,1.45067 z m -6.73095,-188.34759 c -22.15478,-2.63784 -45.34341,-6.47005 -59.89968,-9.89918 -18.24841,-4.29892 -38.11471,-11.57848 -40.96245,-15.0098 -1.51669,-1.82748 -13.535,-116.48773 -13.55617,-129.33207 -0.007,-4.11298 0.39075,-4.47349 3.24712,-2.94479 9.72036,5.20218 26.1513,-1.23849 42.73444,-16.75118 6.17305,-5.77459 11.22373,-9.96286 11.22373,-9.30728 0,0.65558 -2.21966,8.50403 -4.9326,17.44098 -2.71293,8.93693 -5.41365,18.66558 -6.0016,21.61919 -2.12932,10.69673 6.33272,16.63468 11.80463,8.2835 1.4469,-2.20825 7.08124,-18.67803 12.52076,-36.59949 5.43951,-17.92145 12.26425,-39.24213 15.16608,-47.37927 3.73808,-10.4821 5.1274,-17.1041 4.76606,-22.71693 -0.46916,-7.28805 -0.88852,-7.96554 -5.23926,-8.46442 -6.82989,-0.78313 -8.8448,1.68947 -13.91441,17.07521 -5.92441,17.98 -7.30114,20.53856 -17.83481,33.14498 -10.91074,13.05768 -26.94861,25.20383 -33.27935,25.20383 -10.27838,0 -13.58927,-11.38737 -9.3922,-32.30331 6.20552,-30.925 30.05825,-73.94116 47.74897,-86.11077 14.28659,-9.82787 22.71397,-8.95717 29.76546,3.07528 6.16345,10.51714 9.8111,13.38809 14.09629,11.09474 8.39722,-4.49407 6.42349,-16.17825 -4.59399,-27.19572 -12.80765,-12.80766 -25.25836,-14.37063 -42.97209,-5.39442 -21.5242,10.90714 -46.34711,44.32326 -58.19925,78.3467 -1.79733,5.15952 -3.43818,7.79477 -3.93686,6.32269 -0.47029,-1.38825 -2.50721,-18.42595 -4.52649,-37.86155 -2.0193,-19.4356 -6.63996,-62.497967 -10.26815,-95.694153 -3.6282,-33.196193 -6.59671,-62.498108 -6.59671,-65.11538468 l 0,-4.75867572 9.67573,3.3531034 c 25.91053,8.9792462 81.90024,14.763129 156.07374,16.122846 88.71968,1.626364 169.89327,-4.8902148 202.15354,-16.2287742 5.29831,-1.8622164 9.82485,-3.1943036 10.05895,-2.9602014 0.23411,0.2341022 -1.7789,20.8590746 -4.47333,45.8332526 -2.69441,24.974187 -7.97265,74.561007 -11.72941,110.192937 -3.75674,35.63193 -7.20389,66.29979 -7.66032,68.1508 -0.76372,3.09729 -12.57202,13.88043 -29.89797,27.30232 -6.49777,5.03362 -14.57756,7.32569 -14.57756,4.13534 0,-0.75663 5.30299,-7.98514 11.78444,-16.06336 14.28361,-17.80261 18.50481,-25.71436 18.50481,-34.68346 0,-5.89161 -0.74635,-7.27776 -5.4689,-10.15716 -10.40703,-6.34529 -22.23048,-2.85688 -36.26078,10.69845 l -7.23359,6.98872 1.11272,-6.99106 c 0.9493,-5.96426 0.60851,-7.2609 -2.32024,-8.82834 -1.88813,-1.01048 -4.50394,-1.42629 -5.81291,-0.92399 -3.10247,1.19054 -8.48432,11.09068 -12.12471,22.30391 -2.46557,7.59449 -4.81848,10.56825 -15.77336,19.93543 -12.07945,10.32879 -23.11022,17.41381 -27.11175,17.41381 -0.96238,0 -1.74978,-2.03777 -1.74978,-4.52838 0,-4.54424 16.95414,-48.34206 35.64861,-92.09149 10.80499,-25.28622 11.38985,-30.37885 3.71016,-32.30634 -3.2898,-0.82569 -5.25653,-0.1188 -8.1212,2.91916 -2.1027,2.22987 -13.26434,28.27662 -25.15328,58.69762 -11.75526,30.0789 -22.03765,56.29594 -22.84976,58.26007 -1.77824,4.30083 -15.86565,11.48495 -19.6633,10.02765 -4.31777,-1.65687 -2.08129,-12.99422 6.98002,-35.38372 6.52432,-16.12086 7.76527,-20.74686 6.51973,-24.30391 -1.86495,-5.32587 -7.3925,-6.50761 -11.05711,-2.3639 -1.4684,1.66037 -4.75745,8.2817 -7.30898,14.71407 -9.39713,23.68998 -22.89254,41.36811 -34.01546,44.55812 -11.84634,3.39748 -11.03684,-9.70343 2.29162,-37.08823 7.80205,-16.03018 8.56563,-20.92427 3.73678,-23.95042 -7.83608,-4.91072 -15.23905,6.0578 -27.64792,40.96414 -7.31766,20.58473 -7.70915,31.84325 -1.28302,36.89803 5.59071,4.39765 15.87798,4.52385 25.01411,0.30688 6.54039,-3.01884 19.35146,-14.46686 19.35146,-17.29255 0,-0.77124 0.58793,-1.40227 1.30652,-1.40227 0.71858,0 1.0167,3.03899 0.66248,6.75331 -1.44813,15.18517 8.35764,19.1078 24.93136,9.97332 6.0284,-3.32251 9.45871,-4.4067 9.88607,-3.12466 0.35994,1.07983 2.07425,3.38313 3.80957,5.11845 6.53536,6.53536 21.09375,2.62226 36.38916,-9.78094 3.93339,-3.18962 7.15162,-5.48715 7.15162,-5.1056 0,0.38156 -5.21925,12.00357 -11.59835,25.82673 -10.00151,21.67271 -15.28071,35.33326 -15.31603,39.63202 -0.0195,2.37244 5.41069,6.43046 8.60484,6.43046 5.54901,0 10.83288,-7.61078 16.64458,-23.97451 7.42036,-20.89318 22.19355,-54.71364 27.8533,-63.765 11.22511,-17.95174 24.86595,-30.05197 33.87823,-30.05197 6.03986,0 4.82646,5.21784 -3.78094,16.25882 -23.05511,29.57353 -23.73088,30.74084 -22.73499,39.27144 0.56835,4.8683 6.92547,8.41501 15.01443,8.37672 10.41058,-0.0493 19.28652,-4.33733 32.92276,-15.9053 6.22577,-5.28148 11.56628,-9.34502 11.86778,-9.03006 0.30149,0.31497 -3.44497,35.35722 -8.32549,77.87169 -10.0339,87.4058 -7.86468,80.10238 -25.78267,86.80641 -12.53162,4.68873 -38.78025,10.87992 -60.93018,14.37144 -16.93738,2.66988 -97.60591,4.85175 -112.7433,3.04942 z M 393.43369,4.2876045 C 314.62596,-0.08614545 262.09201,-12.007722 271.52743,-23.376723 282.7712,-36.92463 345.59765,-45.444085 448.80771,-47.416437 l 57.05674,-1.090362 4.5809,-17.668725 c 2.51947,-9.717799 7.09182,-27.458737 10.16076,-39.424286 l 5.57988,-21.75555 50.43619,-53.12619 c 27.73991,-29.21941 51.44271,-53.73059 52.67289,-54.46933 5.22447,-3.13729 24.12129,11.50783 24.12129,18.69413 0,1.61185 -21.39177,25.55186 -47.53728,53.20003 l -47.53729,50.26941 -7.94626,31.298884 c -4.37044,17.214393 -7.96728,32.512514 -7.993,33.995845 -0.0387,2.231964 2.94846,2.890587 17.32602,3.82013 9.55503,0.617733 27.48125,2.606777 39.83605,4.420076 49.80938,7.310477 66.05898,17.169188 43.96497,26.673785 C 610.04705,1.8251899 492.22958,9.7706811 393.43369,4.2876045 z M 536.28355,-10.489794 c 1.89961,-1.579096 2.28851,-2.929559 1.16668,-4.051388 -1.12182,-1.121813 -2.63409,-0.893179 -4.53678,0.685917 -3.74974,3.112001 -31.50143,3.324985 -34.56119,0.265233 -2.8423,-2.842309 -4.79579,-2.648862 -4.79579,0.474901 0,4.2711706 6.7195,5.7962845 23.72499,5.3848219 10.92136,-0.2642568 17.07551,-1.1579578 19.00209,-2.7594849 z"
         id="path9828"
         inkscape:connector-curvature="0"
         sodipodi:nodetypes="sscccssssscscssssssscsssssssssssssssssssssssscssssssssssssscssssssssssssssssssssssssssscsssscsssssssscssssssscsscsssscsssssssssssss" />
    </g>
  </g>
</svg>
