<?xml version="1.0" encoding="UTF-8" standalone="no"?>
<!-- Created with Inkscape (http://www.inkscape.org/) -->

<svg
   xmlns:dc="http://purl.org/dc/elements/1.1/"
   xmlns:cc="http://creativecommons.org/ns#"
   xmlns:rdf="http://www.w3.org/1999/02/22-rdf-syntax-ns#"
   xmlns:svg="http://www.w3.org/2000/svg"
   xmlns="http://www.w3.org/2000/svg"
   xmlns:sodipodi="http://sodipodi.sourceforge.net/DTD/sodipodi-0.dtd"
   xmlns:inkscape="http://www.inkscape.org/namespaces/inkscape"
   width="1000"
   height="1000"
   viewBox="0 0 264.58333 264.58334"
   version="1.1"
   id="svg8"
   inkscape:version="0.92.5 (2060ec1f9f, 2020-04-08)"
   sodipodi:docname="gunicorn.svg">
  <defs
     id="defs2" />
  <sodipodi:namedview
     id="base"
     pagecolor="#ffffff"
     bordercolor="#666666"
     borderopacity="1.0"
     inkscape:pageopacity="0.0"
     inkscape:pageshadow="2"
     inkscape:zoom="0.35"
     inkscape:cx="-128.57143"
     inkscape:cy="560"
     inkscape:document-units="mm"
     inkscape:current-layer="layer1"
     showgrid="false"
     units="px"
     inkscape:window-width="1920"
     inkscape:window-height="1043"
     inkscape:window-x="0"
     inkscape:window-y="0"
     inkscape:window-maximized="1" />
  <metadata
     id="metadata5">
    <rdf:RDF>
      <cc:Work
         rdf:about="">
        <dc:format>image/svg+xml</dc:format>
        <dc:type
           rdf:resource="http://purl.org/dc/dcmitype/StillImage" />
        <dc:title></dc:title>
      </cc:Work>
    </rdf:RDF>
  </metadata>
  <g
     inkscape:label="Layer 1"
     inkscape:groupmode="layer"
     id="layer1"
     transform="translate(0,-32.41665)">
    <path
       style="fill:#000000;stroke-width:0.37090781"
       d="m 113.99978,240.98324 c -0.66613,-0.30047 -1.31511,-0.81728 -1.44219,-1.14844 -0.12715,-0.33116 0.41793,-2.63313 1.21113,-5.1155 1.34864,-4.22058 1.44166,-4.8021 1.43382,-8.96427 -0.01,-5.59726 -0.61142,-7.25375 -4.53416,-12.4998 -6.12258,-8.18801 -8.18321,-13.16525 -9.54753,-23.0612 -0.56653,-4.10937 -3.118147,-4.59367 -9.882678,-1.87571 -9.93058,3.99006 -12.523621,5.71802 -14.448636,9.62826 -1.092635,2.21946 -1.163205,2.59429 -0.992122,5.26989 0.291474,4.55873 2.213012,8.79164 4.675106,10.29861 2.471375,1.51265 5.993048,4.72251 5.993048,5.4624 0,2.31627 -5.83025,9.93027 -7.603879,9.93027 -1.278086,0 -4.691073,-2.47922 -9.822974,-7.13549 -6.479983,-5.8794 -6.941291,-6.88683 -7.783947,-16.99915 -1.198559,-14.38345 2.35952,-20.77152 19.737434,-35.43587 3.316344,-2.79849 6.068845,-5.11405 6.116676,-5.14568 0.0478,-0.0317 0.273797,-1.77494 0.502145,-3.87403 0.452982,-4.16387 0.02005,-13.80727 -0.953022,-21.23031 -0.757844,-5.7809 -2.799143,-9.36565 -6.297545,-11.0592 -1.49707,-0.72472 -1.721886,-0.74313 -2.926922,-0.23963 -1.481159,0.61887 -2.854782,2.74734 -4.69797,7.27968 -2.215003,5.44662 -4.410408,7.41816 -8.260424,7.41816 -2.654962,0 -5.214821,-1.61991 -6.447403,-4.07999 -1.571789,-3.1371 -1.909553,-11.35288 -1.009687,-24.55986 l 0.245535,-3.60357 -1.25532,-1.24311 c -1.362422,-1.34918 -5.520664,-3.78072 -12.149426,-7.10444 -2.319777,-1.16315 -5.491042,-2.907324 -7.047257,-3.87595 -1.556215,-0.968613 -3.997842,-2.299563 -5.425828,-2.957651 -3.990132,-1.838843 -12.927288,-6.869768 -12.472848,-7.021239 0.676816,-0.225614 7.013571,1.734433 11.843386,3.663303 2.509799,1.002327 6.016501,2.231012 7.792695,2.730409 1.776194,0.499398 5.564528,1.730311 8.418525,2.735372 2.853997,1.005047 6.826549,2.29125 8.827895,2.858216 5.009547,1.41916 4.921258,1.52584 4.799647,-5.799548 -0.05075,-3.061823 0.03266,-5.498123 0.185466,-5.413997 4.710012,2.592845 9.073416,3.463692 19.750514,3.941795 11.688059,0.523383 17.779376,1.637298 21.836306,3.993174 4.25368,2.47014 9.9811,9.622186 16.74102,20.905166 5.11549,8.53824 7.61305,11.36727 11.88603,13.46341 5.90227,2.89543 9.87712,2.77914 29.28182,-0.85657 11.61717,-2.17662 13.83248,-2.40682 23.18174,-2.4089 l 8.53089,-0.001 3.18499,1.21116 c 5.81452,2.2111 13.68054,6.96862 19.95196,12.06732 6.49269,5.27859 8.52935,8.00781 13.74517,18.41915 3.70523,7.39605 7.8569,17.55059 11.12492,27.21039 1.23272,3.64375 2.92492,8.05054 3.76044,9.79286 2.88444,6.01497 2.95969,5.85385 -2.70289,5.78782 -4.98871,-0.0582 -7.16142,-0.74275 -10.36683,-3.26631 -3.56931,-2.81004 -4.67452,-4.88486 -9.05812,-17.00494 -3.29755,-9.11728 -5.91302,-14.19441 -7.74135,-15.02745 -1.15356,-0.5256 -1.39102,-0.22229 -2.56007,3.2701 -1.2369,3.69502 -1.86048,7.47015 -1.59886,9.67921 0.2588,2.18507 2.64587,7.24349 6.01887,12.75457 8.1294,13.28241 11.14077,25.8787 9.79712,40.98036 l -0.49546,5.5685 h -4.96347 c -2.72989,0 -5.27293,-0.16563 -5.65119,-0.36806 -1.12866,-0.60405 -1.41547,-2.40012 -1.65882,-10.38826 -0.25669,-8.4258 -0.61589,-11.17423 -1.78972,-13.69398 -0.48576,-1.04274 -2.59485,-3.56064 -5.46181,-6.52049 -2.56877,-2.65201 -6.85595,-7.49235 -9.52709,-10.75635 -2.67112,-3.26398 -5.76125,-6.92525 -6.86692,-8.13615 l -2.01032,-2.20161 -0.7716,0.77159 c -1.0846,1.08459 -1.55875,3.73992 -1.79375,10.04519 -0.30506,8.1851 -0.2813,8.0845 -2.65146,11.2215 -3.93276,5.20512 -6.65264,12.32138 -8.4732,22.16904 -0.50217,2.71632 -1.07947,5.24974 -1.28288,5.62982 -0.54419,1.01685 -3.65628,1.52802 -8.55962,1.40597 l -4.23794,-0.10542 -0.11285,-1.55223 c -0.14422,-1.98335 1.04796,-11.06273 2.79138,-21.25859 1.25047,-7.31295 1.36515,-8.58993 1.38254,-15.39267 0.0241,-9.46251 -0.80153,-14.5394 -2.51439,-15.46008 -0.5597,-0.30084 -6.28387,-0.51677 -18.79386,-0.70892 -9.89398,-0.15196 -19.28257,-0.3963 -20.86357,-0.54297 l -2.87453,-0.26666 v 2.20675 c 0,2.90365 0.7592,5.68668 4.97703,18.24436 1.93943,5.77423 4.2138,12.91723 5.05414,15.87336 l 1.52791,5.37475 -1.75297,5.16659 c -2.05804,6.06572 -3.69537,9.47983 -4.9843,10.39309 -1.32365,0.93787 -7.49922,1.30129 -9.18567,0.54057 z"
       id="path846"
       inkscape:connector-curvature="0" />
  </g>
</svg>
