<?xml version="1.0" encoding="UTF-8" standalone="no"?>
<!-- Created with Inkscape (http://www.inkscape.org/) -->

<svg
   xmlns:sketch="http://www.bohemiancoding.com/sketch/ns"
   xmlns:dc="http://purl.org/dc/elements/1.1/"
   xmlns:cc="http://creativecommons.org/ns#"
   xmlns:rdf="http://www.w3.org/1999/02/22-rdf-syntax-ns#"
   xmlns:svg="http://www.w3.org/2000/svg"
   xmlns="http://www.w3.org/2000/svg"
   xmlns:sodipodi="http://sodipodi.sourceforge.net/DTD/sodipodi-0.dtd"
   xmlns:inkscape="http://www.inkscape.org/namespaces/inkscape"
   width="1000"
   height="1000"
   id="svg4955"
   version="1.1"
   inkscape:version="0.48.4 r9939"
   sodipodi:docname="backbone.svg">
  <defs
     id="defs5498" />
  <sodipodi:namedview
     inkscape:window-height="1056"
     inkscape:window-width="1920"
     inkscape:pageshadow="2"
     inkscape:pageopacity="0.0"
     borderopacity="1.0"
     bordercolor="#666666"
     pagecolor="#ffffff"
     id="base"
     showgrid="false"
     showguides="true"
     inkscape:guide-bbox="true"
     inkscape:zoom="0.71151547"
     inkscape:cx="392.71193"
     inkscape:cy="534.6285"
     inkscape:window-x="0"
     inkscape:window-y="24"
     inkscape:current-layer="g6704"
     inkscape:window-maximized="1">
    <sodipodi:guide
       orientation="horizontal"
       position="972.93392,122.23787"
       id="guide5596" />
    <sodipodi:guide
       orientation="1,0"
       position="279.76664,517.28599"
       id="guide6029" />
    <sodipodi:guide
       orientation="0,1"
       position="317.18062,496.69604"
       id="guide6031" />
    <sodipodi:guide
       orientation="0,1"
       position="939.1446,229.56868"
       id="guide6319" />
    <sodipodi:guide
       orientation="0,1"
       position="595.26432,727.42291"
       id="guide6321" />
  </sodipodi:namedview>
  <metadata
     id="metadata5594">
    <rdf:RDF>
      <cc:Work
         rdf:about="">
        <dc:format>image/svg+xml</dc:format>
        <dc:type
           rdf:resource="http://purl.org/dc/dcmitype/StillImage" />
        <dc:title></dc:title>
      </cc:Work>
    </rdf:RDF>
  </metadata>
  <g
     inkscape:groupmode="layer"
     id="layer3"
     inkscape:label="Layer"
     style="opacity:1">
    <g
       id="g6704"
       transform="translate(331.19316,326.43267)"
       sketch:type="MSLayerGroup"
       style="fill:none">
      <path
         id="path6873"
         sketch:type="MSShapeGroup"
         d="m -86.078623,289.89281 -57.966597,28.559 -0.51771,-216.5435 -51.23647,55.5649 -21.73815,124.62739 -46.57716,25.96515 17.59653,-350.521548 40.37008,-23.889008 -6.21243,227.447266 c 16.21421,-25.61824 30.88065,-44.83192 43.98865,-57.64104 4.14162,-4.152291 10.69562,-10.55685 19.66734,-19.21368 11.04253,-10.386061 23.63282,-15.579091 37.78156,-15.579091 14.837233,0 23.632828,3.463799 26.392126,10.386061 4.483192,11.768378 6.730125,29.42361 6.730125,52.96571 0,27.69438 -1.382318,60.92871 -4.141616,99.70298 l -4.141615,58.15874 z M 50.034281,279.50675 c -26.221334,0 -50.03028484,-5.88686 -71.421514,-17.65523 -26.221335,-14.53835 -39.334671,-33.92816 -39.334671,-58.15874 0,-20.0783 9.830999,-37.38662 29.498335,-51.93031 15.178806,-11.4268 34.1576512,-20.07829 56.931198,-25.96515 12.077932,-3.11688 25.703633,-4.67533 40.887776,-4.67533 13.113336,0 28.639056,2.25227 46.577165,6.75148 8.97172,1.38231 17.42573,4.67532 25.36205,9.86835 C 131.63371,123.20347 118.86729,110.39435 100.23535,99.314467 84.709635,89.969147 62.112213,81.830019 32.437754,74.907757 22.089053,72.484699 7.7695247,69.714727 -10.515493,66.597841 L -20.864194,20.901308 c 3.106211,0 11.5602301,1.729231 25.3620562,5.19303 50.7187748,12.80912 90.3950228,31.328971 119.0340778,55.564892 29.67446,25.27133 46.75329,59.54639 51.23648,102.81987 v 95.02765 l -24.84436,-3.11688 -0.5177,-32.19359 c -8.28323,7.963 -17.76731,14.71448 -28.46293,20.25442 -18.97884,10.03915 -42.611669,15.06139 -70.903812,15.06139 z m 16.561124,-85.16463 c -11.731018,2.76997 -21.562017,7.4453 -29.498334,14.02065 -9.313297,7.963 -13.972615,17.48445 -13.972615,28.559 0,18.69597 13.454913,28.04129 40.370075,28.04129 14.14874,0 27.945228,-3.63458 41.405479,-10.90376 16.21421,-8.65683 24.32665,-19.56059 24.32665,-32.71662 0,-1.72923 -0.34691,-3.9815 -1.0354,-6.75148 -3.7947,-14.88526 -17.94344,-22.33056 -42.440884,-22.33056 h -7.765529 c -1.382317,0 -5.177019,0.69383 -11.384105,2.07614 z M 401.4418,242.1148 c -16.90804,11.07989 -43.98866,20.42521 -81.25252,28.0413 -10.00712,2.07614 -27.25674,5.02224 -51.75418,8.82761 l 9.3133,131.37887 -36.22846,3.11689 -15.52572,-180.70999 -18.11423,-2.07615 -11.3841,-160.978603 c 19.66733,-7.616089 35.88154,-13.326821 48.64796,-17.137534 39.33467,-11.768379 73.49233,-17.655237 102.47296,-17.655237 71.42151,0 107.13227,28.905913 107.13227,86.723074 0,56.77642 -17.76732,96.93301 -53.30728,120.47511 z M 345.546,162.1432 c -0.68849,-0.34692 -2.58851,-0.51771 -5.69472,-0.51771 -9.66021,0 -25.70363,1.55845 -48.13027,4.67533 -7.93631,1.04074 -18.80272,2.76998 -32.60454,5.19303 l 6.73012,83.60619 c 6.90092,-0.34691 12.41951,-0.69382 16.56113,-1.04074 39.33467,-3.11688 65.556,-12.11529 78.664,-27.00055 7.93632,-8.99841 11.90181,-19.21368 11.90181,-30.64048 0,-19.38447 -9.14251,-30.81127 -27.42753,-34.27507 z M 523.58208,5.3168794 c -12.07793,0 -22.42663,-2.769972 -31.05144,-8.3099161 -10.69561,-6.5753479 -16.04342,-15.4029663 -16.04342,-26.4828543 0,-8.65683 6.0363,-16.272919 18.11423,-22.848266 10.69562,-5.539945 20.70274,-8.309917 30.01604,-8.309917 11.3841,0 21.73814,2.423059 31.05144,7.269176 11.3841,5.886857 17.07882,14.020648 17.07882,24.406709 0,11.426802 -5.51859,20.2544199 -16.56112,26.4828542 -9.3133,5.1930304 -20.18504,7.7868771 -32.60455,7.7868771 z m -25.36205,276.7783806 2.58851,-148.5164 79.69941,-5.19303 21.22044,157.34402 -103.50836,-3.63459 z"
         inkscape:connector-curvature="0"
         style="fill:#0a0203" />
    </g>
  </g>
  <g
     inkscape:groupmode="layer"
     id="layer4"
     inkscape:label="Layer#1"
     style="display:inline" />
</svg>
