<?xml version="1.0" encoding="UTF-8" standalone="no"?>
<!-- Created with Inkscape (http://www.inkscape.org/) -->

<svg
   xmlns:dc="http://purl.org/dc/elements/1.1/"
   xmlns:cc="http://creativecommons.org/ns#"
   xmlns:rdf="http://www.w3.org/1999/02/22-rdf-syntax-ns#"
   xmlns:svg="http://www.w3.org/2000/svg"
   xmlns="http://www.w3.org/2000/svg"
   xmlns:sodipodi="http://sodipodi.sourceforge.net/DTD/sodipodi-0.dtd"
   xmlns:inkscape="http://www.inkscape.org/namespaces/inkscape"
   width="1000"
   height="1000"
   id="svg4955"
   version="1.1"
   inkscape:version="0.48.4 r9939"
   sodipodi:docname="rackspace.svg">
  <defs
     id="defs5498" />
  <sodipodi:namedview
     inkscape:window-height="1056"
     inkscape:window-width="1920"
     inkscape:pageshadow="2"
     inkscape:pageopacity="0.0"
     borderopacity="1.0"
     bordercolor="#666666"
     pagecolor="#ffffff"
     id="base"
     showgrid="false"
     showguides="false"
     inkscape:guide-bbox="true"
     inkscape:zoom="0.53319984"
     inkscape:cx="455.61674"
     inkscape:cy="519.29348"
     inkscape:window-x="0"
     inkscape:window-y="24"
     inkscape:current-layer="g9397"
     inkscape:window-maximized="1">
    <sodipodi:guide
       orientation="0,1"
       position="189.44385,479.26189"
       id="guide7179" />
    <sodipodi:guide
       orientation="1,0"
       position="429.5717,650.94149"
       id="guide7232" />
    <sodipodi:guide
       orientation="0,1"
       position="423.85732,718.7686"
       id="guide7234" />
    <sodipodi:guide
       orientation="0,1"
       position="407.21111,603.48736"
       id="guide7236" />
    <sodipodi:guide
       orientation="1,0"
       position="330.68822,603.48736"
       id="guide7238" />
    <sodipodi:guide
       orientation="1,0"
       position="526.71602,603.48736"
       id="guide7240" />
    <sodipodi:guide
       orientation="0,1"
       position="429.5717,709.07902"
       id="guide7242" />
    <sodipodi:guide
       orientation="0,1"
       position="429.5717,618.89132"
       id="guide7244" />
    <sodipodi:guide
       orientation="1,0"
       position="421.62126,644.23332"
       id="guide7246" />
    <sodipodi:guide
       orientation="1,0"
       position="370.68882,649.20234"
       id="guide7248" />
    <sodipodi:guide
       orientation="1,0"
       position="377.397,646.46938"
       id="guide7250" />
    <sodipodi:guide
       orientation="0,1"
       position="401.99364,699.63788"
       id="guide7252" />
    <sodipodi:guide
       orientation="0,1"
       position="402.73899,694.42041"
       id="guide7254" />
    <sodipodi:guide
       orientation="0,1"
       position="412.67703,632.80457"
       id="guide7258" />
    <sodipodi:guide
       orientation="0,1"
       position="421.62126,626.0964"
       id="guide7260" />
    <sodipodi:guide
       orientation="1,0"
       position="469.5723,641.50036"
       id="guide7262" />
    <sodipodi:guide
       orientation="1,0"
       position="390.5649,658.14657"
       id="guide7264" />
    <sodipodi:guide
       orientation="1,0"
       position="384.10517,643.23951"
       id="guide7266" />
    <sodipodi:guide
       orientation="1,0"
       position="407.45956,632.80457"
       id="guide7268" />
    <sodipodi:guide
       orientation="0,1"
       position="562.25,301.75"
       id="guide9656" />
    <sodipodi:guide
       orientation="0,1"
       position="304.625,414.0625"
       id="guide9658" />
    <sodipodi:guide
       orientation="0,1"
       position="574.5,288.25"
       id="guide9660" />
    <sodipodi:guide
       orientation="0,1"
       position="274,595.875"
       id="guide9707" />
    <sodipodi:guide
       orientation="0,1"
       position="278.41012,505.92896"
       id="guide9709" />
  </sodipodi:namedview>
  <metadata
     id="metadata5594">
    <rdf:RDF>
      <cc:Work
         rdf:about="">
        <dc:format>image/svg+xml</dc:format>
        <dc:type
           rdf:resource="http://purl.org/dc/dcmitype/StillImage" />
        <dc:title></dc:title>
      </cc:Work>
    </rdf:RDF>
  </metadata>
  <g
     inkscape:groupmode="layer"
     id="layer13"
     inkscape:label="Layer#1">
    <g
       id="g9397"
       transform="translate(38.074989,310.11877)">
      <path
         style="fill:#000000"
         d="m 597.45185,568.87941 c -0.93672,-0.9367 -1.70313,-77.24559 -1.70313,-169.57526 0,-185.32918 0.56379,-178.62552 -16.2659,-193.4022 -13.77158,-12.09158 -24.64223,-14.73288 -59.09763,-14.35928 -70.28254,0.76209 -156.20609,23.58779 -252.73371,67.13905 -25.19185,11.36606 -46.75312,20.66552 -47.9139,20.66552 -1.16081,0 -1.81713,-105.47698 -1.4585,-234.393315 l 0.65203,-234.393325 53.64861,0 53.64861,0 0.65854,153.77597 0.65859,153.77597 14.4571,-4.97397 c 39.78335,-13.687473 104.12977,-26.355512 154.11303,-30.340589 94.19638,-7.510084 157.8281,21.867609 190.55201,87.974699 18.97825,38.33889 18.83855,36.64313 18.88868,229.28393 l 0.0445,170.52594 -53.22283,0 c -29.27257,0 -53.98925,-0.7664 -54.92595,-1.70314 z M 217.65376,460.73064 c 0,-59.24766 0.98044,-107.3398 2.17878,-106.87143 3.09573,1.20996 120.07935,105.32616 120.07935,106.87143 0,1.54526 -116.98362,105.66147 -120.07935,106.87142 -1.19834,0.46838 -2.17878,-47.62377 -2.17878,-106.87142 z m 298.8994,-473.417216 c 0,-0.495074 7.56689,-12.217499 16.81533,-26.049796 27.12476,-40.568777 49.05425,-90.089048 60.51494,-136.652208 l 3.45837,-14.05083 54.42723,-0.69035 54.42723,-0.69033 -1.80544,12.03946 c -7.65879,51.07261 -33.43876,108.859109 -67.0467,150.287055 l -12.4348,15.328173 -54.17807,0.689486 c -29.79795,0.37922 -54.17809,0.284415 -54.17809,-0.210761 z"
         id="path10133"
         inkscape:connector-curvature="0"
         sodipodi:nodetypes="csssssscccccsssscsccssssscsscccsscssc" />
    </g>
  </g>
</svg>
