<?xml version="1.0" encoding="UTF-8" standalone="no"?>
<!-- Created with Inkscape (http://www.inkscape.org/) -->

<svg
   xmlns:dc="http://purl.org/dc/elements/1.1/"
   xmlns:cc="http://creativecommons.org/ns#"
   xmlns:rdf="http://www.w3.org/1999/02/22-rdf-syntax-ns#"
   xmlns:svg="http://www.w3.org/2000/svg"
   xmlns="http://www.w3.org/2000/svg"
   xmlns:sodipodi="http://sodipodi.sourceforge.net/DTD/sodipodi-0.dtd"
   xmlns:inkscape="http://www.inkscape.org/namespaces/inkscape"
   width="1000"
   height="1000"
   id="svg4955"
   version="1.1"
   inkscape:version="0.48.4 r9939"
   sodipodi:docname="html5.svg">
  <defs
     id="defs5498" />
  <sodipodi:namedview
     inkscape:window-height="1056"
     inkscape:window-width="1920"
     inkscape:pageshadow="2"
     inkscape:pageopacity="0.0"
     borderopacity="1.0"
     bordercolor="#666666"
     pagecolor="#ffffff"
     id="base"
     showgrid="false"
     showguides="false"
     inkscape:guide-bbox="true"
     inkscape:zoom="0.5"
     inkscape:cx="1093.0352"
     inkscape:cy="412.55099"
     inkscape:window-x="0"
     inkscape:window-y="24"
     inkscape:current-layer="g9397"
     inkscape:window-maximized="1">
    <sodipodi:guide
       orientation="0,1"
       position="189.44385,479.26189"
       id="guide7179" />
    <sodipodi:guide
       orientation="1,0"
       position="429.5717,650.94149"
       id="guide7232" />
    <sodipodi:guide
       orientation="0,1"
       position="423.85732,718.7686"
       id="guide7234" />
    <sodipodi:guide
       orientation="0,1"
       position="407.21111,603.48736"
       id="guide7236" />
    <sodipodi:guide
       orientation="1,0"
       position="330.68822,603.48736"
       id="guide7238" />
    <sodipodi:guide
       orientation="1,0"
       position="526.71602,603.48736"
       id="guide7240" />
    <sodipodi:guide
       orientation="0,1"
       position="429.5717,709.07902"
       id="guide7242" />
    <sodipodi:guide
       orientation="0,1"
       position="429.5717,618.89132"
       id="guide7244" />
    <sodipodi:guide
       orientation="1,0"
       position="421.62126,644.23332"
       id="guide7246" />
    <sodipodi:guide
       orientation="1,0"
       position="370.68882,649.20234"
       id="guide7248" />
    <sodipodi:guide
       orientation="1,0"
       position="377.397,646.46938"
       id="guide7250" />
    <sodipodi:guide
       orientation="0,1"
       position="401.99364,699.63788"
       id="guide7252" />
    <sodipodi:guide
       orientation="0,1"
       position="402.73899,694.42041"
       id="guide7254" />
    <sodipodi:guide
       orientation="0,1"
       position="412.67703,632.80457"
       id="guide7258" />
    <sodipodi:guide
       orientation="0,1"
       position="421.62126,626.0964"
       id="guide7260" />
    <sodipodi:guide
       orientation="1,0"
       position="469.5723,641.50036"
       id="guide7262" />
    <sodipodi:guide
       orientation="1,0"
       position="390.5649,658.14657"
       id="guide7264" />
    <sodipodi:guide
       orientation="1,0"
       position="384.10517,643.23951"
       id="guide7266" />
    <sodipodi:guide
       orientation="1,0"
       position="407.45956,632.80457"
       id="guide7268" />
  </sodipodi:namedview>
  <metadata
     id="metadata5594">
    <rdf:RDF>
      <cc:Work
         rdf:about="">
        <dc:format>image/svg+xml</dc:format>
        <dc:type
           rdf:resource="http://purl.org/dc/dcmitype/StillImage" />
        <dc:title />
      </cc:Work>
    </rdf:RDF>
  </metadata>
  <g
     inkscape:groupmode="layer"
     id="layer13"
     inkscape:label="Layer#1">
    <g
       id="g9397"
       transform="translate(38.074989,310.11877)">
      <path
         style="fill:#000000"
         d="m 312.83664,554.83615 c -133.96753,-38.44601 -146.07302,-42.29102 -147.469,-46.83989 -1.24961,-4.0719 -63.19081,-714.01804 -63.03949,-722.53426 0.0375,-2.10464 73.39866,-2.64399 359.62948,-2.64399 197.77037,0 359.5744,0.71388 359.56451,1.58639 -0.16519,14.56684 -63.64521,727.02707 -64.87324,728.09644 -2.05539,1.78977 -292.68799,84.76846 -295.76018,84.44265 -1.15715,-0.12268 -67.78057,-19.071 -148.05208,-42.10734 z m 243.77579,-139.93641 95.7124,-23.71024 0.008,-7.53019 c 0.005,-4.14161 4.764,-61.58984 10.57595,-127.66276 5.81225,-66.0729 10.5675,-122.46919 10.5675,-125.32508 l 0,-5.1925 -167.1001,0 c -91.90506,0 -167.11416,-0.71387 -167.13131,-1.58639 -0.0169,-0.87252 -1.90678,-22.05087 -4.19918,-47.063006 -2.2924,-25.012131 -4.18203,-48.094162 -4.19918,-51.293384 l -0.0312,-5.816774 174.31735,0 174.31734,0 1.17818,-7.931965 c 0.648,-4.3625867 2.19369,-20.7817621 3.43483,-36.48705 1.24118,-15.705297 2.67454,-31.172632 3.18525,-34.371859 l 0.9286,-5.816776 -224.15739,0 -224.15738,0 0.008,6.874371 c 0.005,3.780904 4.764,60.9340292 10.57595,127.006953 5.81196,66.0729 10.5672,124.84878 10.5672,130.61306 l 0,10.48047 160.75453,0 c 127.25013,0 160.73241,0.55105 160.64835,2.64399 -0.54186,13.49247 -9.87134,109.56777 -10.72233,110.41875 -0.61216,0.61217 -25.60684,7.30006 -55.54373,14.86198 l -54.43075,13.74895 -52.23242,-12.98867 c -28.72785,-7.14376 -52.44052,-13.13226 -52.69485,-13.30773 -0.37272,-0.25741 -6.94047,-68.43566 -6.94047,-72.05058 0,-0.56257 -18.97689,-1.02286 -42.17085,-1.02286 l -42.17084,0 0.95218,6.87436 c 0.5237,3.78091 3.28597,34.07479 6.13837,67.31971 2.85242,33.24492 5.71459,61.8 6.3604,63.45574 0.77363,1.98345 31.64567,10.67955 90.49862,25.49182 49.12847,12.36479 89.80038,22.61564 90.38206,22.77967 0.58167,0.16414 44.12817,-10.37137 96.77,-23.41201 z"
         id="path9482"
         inkscape:connector-curvature="0"
         sodipodi:nodetypes="sscscccscccsscscsscccsssccccsscsssscscsscssssccc" />
    </g>
  </g>
</svg>
