<?xml version="1.0" encoding="UTF-8" standalone="no"?>
<!-- Created with Inkscape (http://www.inkscape.org/) -->

<svg
   xmlns:dc="http://purl.org/dc/elements/1.1/"
   xmlns:cc="http://creativecommons.org/ns#"
   xmlns:rdf="http://www.w3.org/1999/02/22-rdf-syntax-ns#"
   xmlns:svg="http://www.w3.org/2000/svg"
   xmlns="http://www.w3.org/2000/svg"
   xmlns:sodipodi="http://sodipodi.sourceforge.net/DTD/sodipodi-0.dtd"
   xmlns:inkscape="http://www.inkscape.org/namespaces/inkscape"
   width="1000"
   height="1000"
   id="svg4955"
   version="1.1"
   inkscape:version="0.48.4 r9939"
   sodipodi:docname="sugar.svg">
  <defs
     id="defs5498" />
  <sodipodi:namedview
     inkscape:window-height="1056"
     inkscape:window-width="1920"
     inkscape:pageshadow="2"
     inkscape:pageopacity="0.0"
     borderopacity="1.0"
     bordercolor="#666666"
     pagecolor="#ffffff"
     id="base"
     showgrid="false"
     showguides="false"
     inkscape:guide-bbox="true"
     inkscape:zoom="0.5"
     inkscape:cx="201.50683"
     inkscape:cy="685.27861"
     inkscape:window-x="0"
     inkscape:window-y="24"
     inkscape:current-layer="layer11"
     inkscape:window-maximized="1">
    <sodipodi:guide
       orientation="0,1"
       position="189.44385,479.26189"
       id="guide7179" />
    <sodipodi:guide
       orientation="1,0"
       position="429.5717,650.94149"
       id="guide7232" />
    <sodipodi:guide
       orientation="0,1"
       position="423.85732,718.7686"
       id="guide7234" />
    <sodipodi:guide
       orientation="0,1"
       position="407.21111,603.48736"
       id="guide7236" />
    <sodipodi:guide
       orientation="1,0"
       position="330.68822,603.48736"
       id="guide7238" />
    <sodipodi:guide
       orientation="1,0"
       position="526.71602,603.48736"
       id="guide7240" />
    <sodipodi:guide
       orientation="0,1"
       position="429.5717,709.07902"
       id="guide7242" />
    <sodipodi:guide
       orientation="0,1"
       position="429.5717,618.89132"
       id="guide7244" />
    <sodipodi:guide
       orientation="1,0"
       position="421.62126,644.23332"
       id="guide7246" />
    <sodipodi:guide
       orientation="1,0"
       position="370.68882,649.20234"
       id="guide7248" />
    <sodipodi:guide
       orientation="1,0"
       position="377.397,646.46938"
       id="guide7250" />
    <sodipodi:guide
       orientation="0,1"
       position="401.99364,699.63788"
       id="guide7252" />
    <sodipodi:guide
       orientation="0,1"
       position="402.73899,694.42041"
       id="guide7254" />
    <sodipodi:guide
       orientation="0,1"
       position="412.67703,632.80457"
       id="guide7258" />
    <sodipodi:guide
       orientation="0,1"
       position="421.62126,626.0964"
       id="guide7260" />
    <sodipodi:guide
       orientation="1,0"
       position="469.5723,641.50036"
       id="guide7262" />
    <sodipodi:guide
       orientation="1,0"
       position="390.5649,658.14657"
       id="guide7264" />
    <sodipodi:guide
       orientation="1,0"
       position="384.10517,643.23951"
       id="guide7266" />
    <sodipodi:guide
       orientation="1,0"
       position="407.45956,632.80457"
       id="guide7268" />
  </sodipodi:namedview>
  <metadata
     id="metadata5594">
    <rdf:RDF>
      <cc:Work
         rdf:about="">
        <dc:format>image/svg+xml</dc:format>
        <dc:type
           rdf:resource="http://purl.org/dc/dcmitype/StillImage" />
        <dc:title></dc:title>
      </cc:Work>
    </rdf:RDF>
  </metadata>
  <g
     inkscape:groupmode="layer"
     id="layer11"
     inkscape:label="Layer"
     style="opacity:1">
    <path
       style="fill:#000000"
       d="m 466.07474,907.33945 c -92.52847,-4.67097 -150.82633,-15.59071 -160.28234,-30.02242 -4.15259,-6.33763 -1.09459,-7.22002 10.92679,-3.1529 37.45626,12.67235 99.50468,18.47897 181.08992,16.94679 143.4502,-2.69403 261.47926,-26.62015 295.80957,-59.96469 l 8.68918,-8.43966 0,5.44429 c 0,2.99436 -1.76131,8.97875 -3.91402,13.29867 -15.8651,31.83712 -83.51119,53.71442 -195.06885,63.08682 -25.48521,2.14112 -114.39386,3.95692 -137.25025,2.8031 z M 403.3616,864.33574 c -102.20607,-5.76802 -186.45148,-20.3756 -202.11766,-35.04585 -10.75086,-10.06742 3.209,-21.09509 37.74505,-29.81695 16.82971,-4.25023 59.18109,-11.17443 78.23648,-12.7912 9.32768,-0.79141 9.02313,-0.64505 -6.04463,2.90505 -32.7306,7.71161 -54.16876,15.85172 -57.33657,21.77083 -1.17485,2.19523 -0.8171,3.77187 1.53403,6.76087 7.39743,9.40431 46.5713,16.58996 122.29358,22.43232 33.21146,2.56243 171.75926,2.51397 205.51776,-0.072 74.86907,-5.73486 113.74853,-12.06206 143.49395,-23.35203 15.23698,-5.78323 25.69187,-14.51176 25.8622,-21.59167 0.18068,-7.50988 2.6858,0.40964 2.80989,8.88297 0.13373,9.1304 -2.62196,14.48828 -10.96982,21.32871 -21.48227,17.60311 -65.54267,28.7913 -143.81787,36.51945 -28.50828,2.81463 -159.62173,4.19046 -197.20639,2.06938 z m 50.62386,-82.47157 c -52.57884,-5.23011 -86.99229,-14.44467 -95.80958,-25.65405 -6.78128,-8.621 -1.78153,-16.18881 16.87491,-25.54253 l 10.93247,-5.48119 0.52259,3.49944 c 0.74364,4.97969 3.0605,7.30122 10.44601,10.46701 15.70132,6.73038 28.88894,8.14768 75.16753,8.07844 44.60414,-0.0668 62.8401,-1.67271 102.28033,-9.00734 l 11.61077,-2.15924 18.96145,11.66071 c 10.42881,6.41339 18.75394,12.34074 18.50032,13.17188 -1.28551,4.21257 -34.8671,14.0034 -62.49139,18.21961 -15.61236,2.38286 -91.15824,4.32262 -106.99541,2.74726 z m -29.02544,-88.38473 c -58.24106,-3.94094 -94.13411,-15.06023 -94.13411,-29.16177 0,-6.53957 11.44729,-17.3533 27.11469,-25.61405 7.52765,-3.969 13.68664,-6.53015 13.68664,-5.69146 0,0.8387 -0.65485,1.92962 -1.4552,2.42428 -0.80038,0.49465 -2.13104,3.347 -2.95706,6.33857 -2.13841,7.74472 1.0294,14.59152 8.51888,18.41237 12.64989,6.4535 22.58755,8.02773 55.90548,8.85607 44.62664,1.1095 90.64818,-2.90547 153.29429,-13.37357 l 28.18929,-4.71038 16.21167,11.13592 16.21166,11.1359 -11.00619,3.44698 c -45.24111,14.16891 -138.26849,21.62652 -209.58004,16.80114 z m 245.88001,-1.73801 c 0.41386,-0.35407 6.19266,-3.55995 12.84176,-7.12419 39.57158,-21.21226 69.07042,-53.43738 77.08565,-84.20996 3.04315,-11.68343 2.83004,-19.94177 -0.76235,-29.54329 -7.41775,-19.82576 -28.54629,-29.45087 -56.09645,-25.55477 -6.83182,0.96614 -12.66926,1.50885 -12.97212,1.20599 -0.30284,-0.30283 4.49289,-3.04267 10.6572,-6.08852 26.63473,-13.16045 53.1808,-12.64379 72.37138,1.40858 24.44304,17.89851 30.85404,52.84107 15.15163,82.58251 -2.30296,4.36198 -9.22633,13.24314 -15.38525,19.73594 -21.76166,22.94135 -48.27961,35.5685 -99.11355,47.19526 -2.4917,0.56992 -4.19177,0.74651 -3.7779,0.39245 z M 389.76116,612.62305 c -39.46473,-2.33141 -82.37626,-8.57548 -102.29383,-14.88481 -12.7744,-4.04658 -23.13246,-11.25371 -23.13246,-16.09558 0,-10.21183 28.82701,-22.19316 77.47481,-32.20074 20.128,-4.14064 53.39377,-9.919 57.01844,-9.90426 1.2467,0.005 -7.89705,3.4183 -20.31947,7.58496 -35.86442,12.02947 -52.21621,20.82808 -52.21621,28.09664 0,4.72398 7.88503,8.43016 24.17856,11.3646 17.27966,3.11204 137.23004,2.61935 179.82804,-0.73862 59.8081,-4.71465 107.75891,-10.39716 129.19534,-15.31053 4.98194,-1.14191 9.24422,-1.89006 9.47169,-1.66258 0.84727,0.84728 -17.43747,9.81095 -29.28457,14.35608 -34.54311,13.25242 -81.33608,22.57119 -137.33892,27.35089 -19.14842,1.63426 -95.92207,3.02812 -112.58142,2.04395 z m 143.5602,-49.50073 c 0,-0.42591 2.40088,-3.3623 5.33529,-6.52533 8.30902,-8.95637 14.84709,-23.46176 15.5499,-34.49913 1.08358,-17.01744 -4.2298,-30.12616 -25.09874,-61.92142 -28.14917,-42.88716 -33.72096,-60.70048 -26.00302,-83.13302 9.61456,-27.94525 39.56713,-53.40718 96.70762,-82.20874 25.72858,-12.96844 80.09148,-36.14133 80.09148,-34.14003 0,0.38655 -2.75986,2.1108 -6.13301,3.83165 -25.35335,12.93431 -73.3107,47.5429 -91.60438,66.10662 -21.39486,21.71069 -29.22556,36.52533 -29.16418,55.17483 0.0549,16.6928 5.2373,27.35743 28.1619,57.95335 12.62564,16.85061 16.34675,26.09642 16.36567,40.66364 0.0136,10.90367 -0.53028,13.24393 -5.27328,22.6674 -7.52516,14.95109 -28.37678,35.55797 -54.02397,53.38988 -2.70121,1.87808 -4.91128,3.06622 -4.91128,2.6403 z m -41.67994,-36.129 c -56.5133,-44.9025 -85.41895,-80.0289 -94.44153,-114.76618 -5.55892,-21.40212 -2.19635,-42.3352 10.23985,-63.74624 8.99758,-15.49087 38.24631,-45.16399 71.47986,-72.51703 33.93261,-27.92841 38.45123,-31.85355 54.96673,-47.74728 24.23711,-23.32466 41.34982,-47.14068 48.96694,-68.14809 3.8546,-10.63062 4.05921,-12.60761 4.08604,-39.47883 l 0.0283,-28.287797 2.61232,7.685352 c 1.4368,4.226955 4.14271,14.576395 6.01316,22.998735 4.4242,19.92146 4.71395,51.06166 0.61355,65.93725 -5.86804,21.2883 -17.15877,40.81332 -35.63994,61.63204 -10.73447,12.09221 -15.75188,16.51314 -53.69058,47.30786 -48.16485,39.09524 -63.44869,58.3177 -69.6933,87.65305 -7.58454,35.63003 10.58335,80.14978 55.34776,135.62766 7.48111,9.27156 13.42929,16.83399 13.21819,16.80541 -0.2111,-0.0286 -6.55938,-4.95872 -14.10731,-10.95591 z"
       id="path7903"
       inkscape:connector-curvature="0"
       sodipodi:nodetypes="ssssscsssscsssssssssssssccssscsssscscsssssscsssscccssssssscsssssssssscssssscsssssssssssssscsssssssssscssssssscs" />
  </g>
</svg>
