<?xml version="1.0" encoding="UTF-8" standalone="no"?>
<!-- Created with Inkscape (http://www.inkscape.org/) -->

<svg
   xmlns:dc="http://purl.org/dc/elements/1.1/"
   xmlns:cc="http://creativecommons.org/ns#"
   xmlns:rdf="http://www.w3.org/1999/02/22-rdf-syntax-ns#"
   xmlns:svg="http://www.w3.org/2000/svg"
   xmlns="http://www.w3.org/2000/svg"
   xmlns:sodipodi="http://sodipodi.sourceforge.net/DTD/sodipodi-0.dtd"
   xmlns:inkscape="http://www.inkscape.org/namespaces/inkscape"
   width="1000"
   height="1000"
   id="svg4955"
   version="1.1"
   inkscape:version="0.48.4 r9939"
   sodipodi:docname="mysql.svg">
  <defs
     id="defs5498" />
  <sodipodi:namedview
     inkscape:window-height="1056"
     inkscape:window-width="1920"
     inkscape:pageshadow="2"
     inkscape:pageopacity="0.0"
     borderopacity="1.0"
     bordercolor="#666666"
     pagecolor="#ffffff"
     id="base"
     showgrid="false"
     showguides="false"
     inkscape:guide-bbox="true"
     inkscape:zoom="0.70710678"
     inkscape:cx="283.36459"
     inkscape:cy="544.95588"
     inkscape:window-x="0"
     inkscape:window-y="24"
     inkscape:current-layer="layer11"
     inkscape:window-maximized="1">
    <sodipodi:guide
       orientation="0,1"
       position="189.44385,479.26189"
       id="guide7179" />
    <sodipodi:guide
       orientation="1,0"
       position="429.5717,650.94149"
       id="guide7232" />
    <sodipodi:guide
       orientation="0,1"
       position="423.85732,718.7686"
       id="guide7234" />
    <sodipodi:guide
       orientation="0,1"
       position="407.21111,603.48736"
       id="guide7236" />
    <sodipodi:guide
       orientation="1,0"
       position="330.68822,603.48736"
       id="guide7238" />
    <sodipodi:guide
       orientation="1,0"
       position="526.71602,603.48736"
       id="guide7240" />
    <sodipodi:guide
       orientation="0,1"
       position="429.5717,709.07902"
       id="guide7242" />
    <sodipodi:guide
       orientation="0,1"
       position="429.5717,618.89132"
       id="guide7244" />
    <sodipodi:guide
       orientation="1,0"
       position="421.62126,644.23332"
       id="guide7246" />
    <sodipodi:guide
       orientation="1,0"
       position="370.68882,649.20234"
       id="guide7248" />
    <sodipodi:guide
       orientation="1,0"
       position="377.397,646.46938"
       id="guide7250" />
    <sodipodi:guide
       orientation="0,1"
       position="401.99364,699.63788"
       id="guide7252" />
    <sodipodi:guide
       orientation="0,1"
       position="402.73899,694.42041"
       id="guide7254" />
    <sodipodi:guide
       orientation="0,1"
       position="412.67703,632.80457"
       id="guide7258" />
    <sodipodi:guide
       orientation="0,1"
       position="421.62126,626.0964"
       id="guide7260" />
    <sodipodi:guide
       orientation="1,0"
       position="469.5723,641.50036"
       id="guide7262" />
    <sodipodi:guide
       orientation="1,0"
       position="390.5649,658.14657"
       id="guide7264" />
    <sodipodi:guide
       orientation="1,0"
       position="384.10517,643.23951"
       id="guide7266" />
    <sodipodi:guide
       orientation="1,0"
       position="407.45956,632.80457"
       id="guide7268" />
  </sodipodi:namedview>
  <metadata
     id="metadata5594">
    <rdf:RDF>
      <cc:Work
         rdf:about="">
        <dc:format>image/svg+xml</dc:format>
        <dc:type
           rdf:resource="http://purl.org/dc/dcmitype/StillImage" />
        <dc:title></dc:title>
      </cc:Work>
    </rdf:RDF>
  </metadata>
  <g
     inkscape:groupmode="layer"
     id="layer11"
     inkscape:label="Layer"
     style="opacity:1">
    <path
       style="fill:#000000"
       d="m 229.5002,813.00023 c -33.82735,-3.16674 -55.07072,-8.57362 -79.89715,-20.33543 -35.20696,-16.67973 -65.609678,-46.54864 -86.688409,-85.16639 -2.612734,-4.78671 -4.24499,-9.14453 -3.62722,-9.68403 0.61777,-0.53951 9.737211,-6.17046 20.265429,-12.51324 10.528219,-6.34278 33.00136,-19.93079 49.9403,-30.19558 16.93896,-10.26479 31.09724,-18.66326 31.46284,-18.66326 0.36562,0 2.52246,3.30204 4.79299,7.33785 8.86536,15.75799 16.0954,25.61469 25.99779,35.44278 16.51788,16.39395 28.03917,21.02676 52.29131,21.02676 42.11845,0 60.94809,-18.90368 64.66571,-64.92 0.83654,-10.35467 1.16855,-92.18337 0.92879,-228.91305 l -0.37314,-212.79765 63.5528,3e-5 63.55281,3e-5 -0.49066,227.47333 c -0.50405,233.68403 -0.47313,232.23841 -5.50727,257.4628 -12.28919,61.57691 -51.22591,106.10221 -108.64754,124.24169 -26.48477,8.36654 -65.60495,12.69489 -92.21938,10.20336 z m 476.00309,-0.56884 c -49.16814,-4.23589 -90.60633,-18.20037 -127.72467,-43.04264 -15.79007,-10.56784 -37.59602,-30.85104 -49.35021,-45.904 -7.51119,-9.61914 -24.60099,-36.38114 -24.52892,-38.41134 0.0152,-0.42657 4.17858,-3.11295 9.25207,-5.96976 17.62575,-9.92476 83.26881,-48.0198 87.93617,-51.03252 l 4.69507,-3.03061 9.23286,13.03875 c 11.24678,15.88284 30.75165,35.65566 42.96826,43.55854 10.12892,6.55237 23.66215,12.31895 38.33356,16.33415 8.27029,2.26337 13.45657,2.69314 32.79455,2.71757 19.70319,0.0249 24.42286,-0.36724 33.17984,-2.75675 23.5275,-6.41993 39.34547,-17.86953 47.50207,-34.38368 4.76912,-9.65572 4.81998,-9.92095 4.81998,-25.13252 0,-14.70278 -0.18133,-15.7567 -4.1542,-24.14548 -7.5956,-16.03816 -24.73083,-29.63891 -55.81256,-44.30011 -7.33704,-3.46088 -26.13362,-11.77628 -41.77018,-18.47869 -40.26731,-17.26003 -69.3915,-31.84838 -87.13292,-43.64499 -45.27275,-30.10274 -69.54461,-63.87299 -80.01013,-111.32077 -3.77222,-17.10223 -4.69134,-55.63399 -1.73511,-72.74042 5.8604,-33.91167 20.03412,-61.49591 44.0227,-85.67494 36.90775,-37.20077 93.97041,-55.75426 157.19305,-51.11013 44.24432,3.25006 76.5789,14.12905 104.49341,35.1569 12.36701,9.31601 29.61311,26.76368 38.94954,39.40462 6.68063,9.04525 15.92479,23.75035 15.92479,25.3322 0,0.51173 -3.8763,3.37168 -8.614,6.35543 -12.16526,7.66161 -24.58032,15.62032 -58.89148,37.7526 l -29.98248,19.34008 -4.44324,-7.21668 c -11.41339,-18.53751 -22.95207,-30.28501 -36.99462,-37.66416 -11.44724,-6.01536 -23.40731,-8.6916 -38.60857,-8.63924 -27.55178,0.095 -45.49248,9.92856 -55.66131,30.50908 -4.70956,9.53161 -4.80389,10.00891 -4.70938,23.82773 0.11141,16.2798 2.42159,23.90433 10.45955,34.51967 10.03535,13.25322 32.44521,26.49736 76.86013,45.42403 10.17727,4.33688 23.09827,9.85709 28.71332,12.26715 11.26971,4.83711 47.20835,22.66918 56.57064,28.0693 49.81424,28.73253 79.48021,61.20174 93.1891,101.99479 6.84985,20.38297 8.41963,32.43607 8.37229,64.2839 -0.0434,29.33108 -0.13017,30.31187 -3.94866,44.67438 -12.9238,48.61016 -40.40194,82.5546 -85.48187,105.59767 -38.87605,19.87189 -93.24012,28.97834 -145.90844,24.44089 z"
       id="path8065"
       inkscape:connector-curvature="0" />
  </g>
</svg>
