<?xml version="1.0" encoding="UTF-8" standalone="no"?>
<!-- Created with Inkscape (http://www.inkscape.org/) -->

<svg
   xmlns:dc="http://purl.org/dc/elements/1.1/"
   xmlns:cc="http://creativecommons.org/ns#"
   xmlns:rdf="http://www.w3.org/1999/02/22-rdf-syntax-ns#"
   xmlns:svg="http://www.w3.org/2000/svg"
   xmlns="http://www.w3.org/2000/svg"
   xmlns:sodipodi="http://sodipodi.sourceforge.net/DTD/sodipodi-0.dtd"
   xmlns:inkscape="http://www.inkscape.org/namespaces/inkscape"
   width="1000"
   height="1000"
   id="svg4955"
   version="1.1"
   inkscape:version="0.48.4 r9939"
   sodipodi:docname="javascript.svg">
  <defs
     id="defs5498" />
  <sodipodi:namedview
     inkscape:window-height="1056"
     inkscape:window-width="1920"
     inkscape:pageshadow="2"
     inkscape:pageopacity="0.0"
     borderopacity="1.0"
     bordercolor="#666666"
     pagecolor="#ffffff"
     id="base"
     showgrid="false"
     showguides="false"
     inkscape:guide-bbox="true"
     inkscape:zoom="0.70710678"
     inkscape:cx="283.36459"
     inkscape:cy="544.95588"
     inkscape:window-x="0"
     inkscape:window-y="24"
     inkscape:current-layer="layer11"
     inkscape:window-maximized="1">
    <sodipodi:guide
       orientation="0,1"
       position="189.44385,479.26189"
       id="guide7179" />
    <sodipodi:guide
       orientation="1,0"
       position="429.5717,650.94149"
       id="guide7232" />
    <sodipodi:guide
       orientation="0,1"
       position="423.85732,718.7686"
       id="guide7234" />
    <sodipodi:guide
       orientation="0,1"
       position="407.21111,603.48736"
       id="guide7236" />
    <sodipodi:guide
       orientation="1,0"
       position="330.68822,603.48736"
       id="guide7238" />
    <sodipodi:guide
       orientation="1,0"
       position="526.71602,603.48736"
       id="guide7240" />
    <sodipodi:guide
       orientation="0,1"
       position="429.5717,709.07902"
       id="guide7242" />
    <sodipodi:guide
       orientation="0,1"
       position="429.5717,618.89132"
       id="guide7244" />
    <sodipodi:guide
       orientation="1,0"
       position="421.62126,644.23332"
       id="guide7246" />
    <sodipodi:guide
       orientation="1,0"
       position="370.68882,649.20234"
       id="guide7248" />
    <sodipodi:guide
       orientation="1,0"
       position="377.397,646.46938"
       id="guide7250" />
    <sodipodi:guide
       orientation="0,1"
       position="401.99364,699.63788"
       id="guide7252" />
    <sodipodi:guide
       orientation="0,1"
       position="402.73899,694.42041"
       id="guide7254" />
    <sodipodi:guide
       orientation="0,1"
       position="412.67703,632.80457"
       id="guide7258" />
    <sodipodi:guide
       orientation="0,1"
       position="421.62126,626.0964"
       id="guide7260" />
    <sodipodi:guide
       orientation="1,0"
       position="469.5723,641.50036"
       id="guide7262" />
    <sodipodi:guide
       orientation="1,0"
       position="390.5649,658.14657"
       id="guide7264" />
    <sodipodi:guide
       orientation="1,0"
       position="384.10517,643.23951"
       id="guide7266" />
    <sodipodi:guide
       orientation="1,0"
       position="407.45956,632.80457"
       id="guide7268" />
  </sodipodi:namedview>
  <metadata
     id="metadata5594">
    <rdf:RDF>
      <cc:Work
         rdf:about="">
        <dc:format>image/svg+xml</dc:format>
        <dc:type
           rdf:resource="http://purl.org/dc/dcmitype/StillImage" />
        <dc:title></dc:title>
      </cc:Work>
    </rdf:RDF>
  </metadata>
  <g
     inkscape:groupmode="layer"
     id="layer11"
     inkscape:label="Layer"
     style="opacity:1">
    <path
       style="fill:#000000"
       d="M 495.3735,922.86199 C 345.15331,897.98023 212.7262,807.9762 133.86479,677.16279 111.54482,640.13894 95.905153,602.68059 84.374421,558.62912 72.16089,511.96905 68.883725,441.52104 77.016602,400.45977 87.045098,349.82781 103.43204,310.09089 129.08239,274.2047 c 50.04991,-70.02245 64.97007,-90.34253 67.46843,-91.88658 1.56247,-0.96568 -1.22611,7.00662 -6.19684,17.71621 -49.89735,107.50496 -37.30936,244.44634 33.214,361.32657 39.95935,66.22576 93.73951,120.08289 168.19264,168.43347 49.331,32.03602 87.98997,48.35696 153.16507,64.66282 44.85919,11.22314 116.62928,15.29066 159.41407,9.03469 75.20882,-10.99699 145.2322,-43.29802 192.98128,-89.02013 8.15158,-7.80555 15.56899,-13.44401 16.4831,-12.52986 0.91414,0.91414 -4.52901,9.80715 -12.09591,19.76225 -7.56689,9.9551 -25.99486,34.64816 -40.95104,54.8735 -31.78253,42.97965 -54.72076,66.37971 -86.82612,88.57414 -32.43448,22.42193 -68.60739,38.59013 -111.64245,49.90076 -32.84517,8.63252 -42.55052,9.80356 -89.48982,10.79791 -34.3292,0.72725 -61.27039,-0.31264 -77.4253,-2.98846 z M 630.67944,645.31427 C 578.10683,637.96639 520.95358,614.88572 473.63112,581.8922 421.83211,545.77761 385.07634,503.53867 357.71619,448.6852 335.95234,405.05156 329.42387,379.63435 327.45364,330.86459 c -1.39216,-34.46135 -0.6736,-44.18479 4.89149,-66.19175 3.58785,-14.18803 9.90111,-33.17438 14.02946,-42.19189 7.5323,-16.45269 69.69395,-106.32395 73.72223,-106.58518 1.18173,-0.0765 -0.60612,6.08817 -3.973,13.69957 -24.69561,55.8285 -24.59827,131.14532 0.25302,195.86503 32.42885,84.45341 104.35704,157.47608 193.84101,196.79057 57.97294,25.47023 129.94365,33.54095 188.66272,21.15643 37.435,-7.89546 81.06251,-28.45723 103.84924,-48.94446 8.59489,-7.72754 16.36319,-13.31393 17.26293,-12.41422 0.89972,0.89975 -4.4561,9.78805 -11.90181,19.75185 -7.44572,9.96376 -20.19091,27.1747 -28.32267,38.24651 -8.13176,11.07182 -17.76217,24.08069 -21.40091,28.90859 -14.59018,19.35831 -56.07409,47.51451 -88.9084,60.34441 -37.76003,14.7546 -98.03123,21.7095 -138.7796,16.01422 z m 89.22742,-238.4251 C 677.90667,396.52471 640.94464,375.55209 608.37773,343.60644 550.71091,287.03968 528.99686,202.99167 556.53475,142.93915 c 7.5122,-16.3821 45.98254,-71.276329 48.31586,-68.94304 0.6832,0.683201 -1.0135,6.879702 -3.77046,13.769965 -11.7286,29.312695 -8.48665,82.443445 7.27408,119.211755 27.08126,63.17805 88.58259,114.57684 158.14571,132.16786 21.45638,5.42587 31.87622,6.31016 58.65756,4.97814 36.72948,-1.82684 58.31965,-8.45556 84.14461,-25.83447 8.73122,-5.87568 16.68468,-9.87336 17.67433,-8.88375 0.98962,0.98965 0.37759,2.76883 -1.36008,3.95371 -1.73767,1.18492 -12.58483,14.9464 -24.10476,30.58107 -29.23569,39.67821 -46.70965,51.80124 -90.98893,63.12596 -29.03455,7.4258 -60.0519,7.36516 -90.61581,-0.17715 z"
       id="path8099"
       inkscape:connector-curvature="0" />
  </g>
</svg>
