<?xml version="1.0" encoding="UTF-8" standalone="no"?>
<!-- Created with Inkscape (http://www.inkscape.org/) -->

<svg
   xmlns:dc="http://purl.org/dc/elements/1.1/"
   xmlns:cc="http://creativecommons.org/ns#"
   xmlns:rdf="http://www.w3.org/1999/02/22-rdf-syntax-ns#"
   xmlns:svg="http://www.w3.org/2000/svg"
   xmlns="http://www.w3.org/2000/svg"
   version="1.1"
   width="1000"
   height="1000"
   id="svg4669">
  <defs
     id="defs5498" />
  <metadata
     id="metadata5594">
    <rdf:RDF>
      <cc:Work
         rdf:about="">
        <dc:format>image/svg+xml</dc:format>
        <dc:type
           rdf:resource="http://purl.org/dc/dcmitype/StillImage" />
        <dc:title></dc:title>
      </cc:Work>
    </rdf:RDF>
  </metadata>
  <g
     id="layer1">
    <path
       d="m 599.15945,819.67799 c -4.15424,-1.08818 -7.41519,-3.03141 -11.32126,-6.74654 -4.15785,-3.95461 -7.79136,-8.72021 -12.74195,-16.71196 -12.00066,-19.37271 -37.19388,-63.69695 -79.56371,-139.98206 -11.47192,-20.65474 -20.96931,-37.66378 -21.10531,-37.7978 -0.13603,-0.13397 -5.76166,1.20636 -12.5015,2.97862 -23.35122,6.14027 -61.09015,15.97568 -105.16719,27.40843 -42.3606,10.98755 -80.0627,20.39504 -84.49953,21.08458 -4.74337,0.73715 -12.85931,0.56329 -16.55442,-0.35461 -10.23634,-2.54281 -18.60809,-9.17673 -23.80813,-18.86593 -0.80981,-1.50891 -5.53593,-11.55009 -10.50253,-22.31374 C 207.99797,599.34507 193.73846,568.51317 181.72143,542.59715 176.02451,530.31114 172.60817,522.9303 157.67842,490.6537 146.53449,466.56164 142.2341,457.26666 136.1848,444.19725 118.93047,406.91927 78.465421,319.28706 68.704767,298.0606 66.438173,293.13145 63.596677,286.95859 62.390343,284.34314 59.330647,277.70949 43.41173,242.8527 40.004509,235.32609 34.371697,222.88311 32.379351,216.92728 31.891095,211.0723 c -0.68065,-8.1624 3.090639,-13.51279 11.011989,-15.62291 2.301439,-0.61303 30.526014,-3.03433 113.031856,-9.69655 21.19816,-1.71173 67.57363,-5.23949 77.18357,-5.87134 10.9612,-0.72069 17.21295,-0.073 21.86025,2.26496 5.04474,2.53781 8.32112,7.14779 25.3165,35.62127 5.88425,9.85828 22.2454,37.22414 36.35814,60.81306 28.77264,48.09233 64.37995,107.60757 102.42347,171.19387 14.05367,23.48941 36.37943,60.81508 49.61286,82.94592 13.2334,22.13084 24.17909,40.37 24.32377,40.53147 0.14467,0.16146 6.50133,-1.20572 14.1259,-3.03818 7.62457,-1.83248 19.70648,-4.72974 26.8487,-6.43843 7.14222,-1.70868 19.81715,-4.74349 28.16651,-6.74405 8.34936,-2.00055 21.76503,-5.21348 29.8126,-7.1398 8.04759,-1.92634 21.38095,-5.11965 29.62972,-7.09621 8.24876,-1.9766 21.99365,-5.26867 30.54421,-7.31576 23.44964,-5.61406 40.95696,-9.80718 57.97911,-13.88646 8.44996,-2.02498 22.27716,-5.33389 30.72711,-7.3531 27.68534,-6.61577 35.48075,-8.49992 35.60409,-8.60561 0.0978,-0.0838 -32.02507,-45.67744 -88.90244,-126.1836 -3.12711,-4.42616 -6.09806,-8.87063 -6.60213,-9.87657 -2.53765,-5.06416 -1.21925,-8.87655 4.02229,-11.63088 4.60321,-2.4189 -0.30018,-1.51692 88.8001,-16.33521 58.47946,-9.72572 57.41282,-9.5592 61.27131,-9.56587 5.76982,-0.01 10.55253,2.30341 16.49552,7.97862 4.37473,4.17768 6.35802,6.59829 57.03228,69.60831 38.40538,47.75446 49.53696,61.53604 53.92172,66.7583 5.71074,6.80144 6.73125,9.51805 4.80813,12.79952 -0.99908,1.7047 -2.91962,3.11603 -5.78323,4.24971 -1.80431,0.71434 -12.10451,3.54127 -34.6589,9.51235 -5.33153,1.41146 -13.89122,3.69237 -19.02154,5.06869 -5.13034,1.37632 -15.66534,4.18492 -23.41114,6.24141 -7.74578,2.05644 -17.95158,4.77506 -22.67952,6.0413 -4.72796,1.2663 -13.69917,3.65261 -19.93604,5.30296 -6.23687,1.65037 -11.38871,3.043 -11.44855,3.0948 -0.0599,0.0518 11.55174,15.71056 25.80355,34.79721 14.25182,19.08668 27.31875,36.59609 29.03767,38.90978 1.71892,2.31366 7.29783,9.8034 12.39758,16.64383 26.21776,35.1666 45.32482,61.05305 48.43104,65.61486 3.61922,5.31513 4.50149,9.44983 2.67685,12.54481 -2.18634,3.70851 -7.48996,6.38104 -26.23949,13.22227 -29.73626,10.85 -45.67123,16.62568 -80.10995,29.03606 -42.34112,15.2581 -121.18281,43.51859 -135.52849,48.57963 -3.01784,1.06466 -13.22364,4.68288 -22.67954,8.04052 -45.91898,16.30497 -54.89529,19.34168 -65.42894,22.1347 -8.72954,2.31463 -14.61089,2.75242 -19.56014,1.45603 z m 19.24588,-48.30439 c 3.67717,-1.33865 21.70742,-7.55237 38.30829,-13.20202 35.57713,-12.10776 51.37554,-17.47126 68.22149,-23.161 5.7339,-1.93661 15.19895,-5.14334 21.03343,-7.12608 5.8345,-1.98271 32.00741,-10.84924 58.16203,-19.7034 81.61474,-27.62912 89.9337,-30.47115 91.89798,-31.39546 2.51124,-1.18163 3.52429,-2.46245 3.25587,-4.11644 -0.31397,-1.93485 -0.30677,-1.92469 -33.32517,-47.0357 -39.11824,-53.4449 -57.41729,-78.59175 -63.10898,-86.7255 -3.34357,-4.77818 -5.01462,-5.35969 -10.49783,-3.65312 -1.56962,0.48852 -5.40527,1.54838 -8.52371,2.3553 -5.71834,1.47958 -21.6776,5.62928 -45.90776,11.93682 -7.24281,1.88543 -19.58852,5.09511 -27.43492,7.13256 -7.84638,2.0375 -19.86287,5.16362 -26.70332,6.94693 -6.84044,1.7833 -18.85693,4.91082 -26.70331,6.94996 -29.0328,7.54522 -42.74097,11.11051 -54.86984,14.27084 -6.84044,1.78231 -19.51537,5.07988 -28.16651,7.3279 -19.69333,5.11731 -39.34837,10.23231 -51.16791,13.31585 -5.00556,1.30587 -9.17413,2.44742 -9.26345,2.53674 -0.15773,0.15773 4.63123,8.49429 29.446,51.25921 22.14414,38.16248 37.90976,65.17344 47.93246,82.12185 2.91494,4.92915 5.87714,9.94974 6.58273,11.15687 10.50062,17.96515 14.13477,21.24611 20.83243,18.80789 z M 277.38018,625.20113 c 1.60951,-0.30614 9.42846,-2.10891 17.37544,-4.00609 7.94699,-1.89718 21.03344,-5.02062 29.08102,-6.94099 8.04757,-1.92038 22.5332,-5.37791 32.19029,-7.68339 9.65709,-2.30548 23.40199,-5.58549 30.54421,-7.28884 7.14223,-1.70338 19.48794,-4.64886 27.43492,-6.54556 7.94697,-1.89667 19.38734,-4.62275 25.42302,-6.05793 6.03568,-1.43517 11.4678,-2.89511 12.07137,-3.24434 1.49593,-0.86552 1.93997,-2.68178 1.19217,-4.87643 -0.30676,-0.90035 -5.98728,-11.00586 -12.62331,-22.45669 -18.76245,-32.37546 -40.7312,-70.29056 -49.55782,-85.53008 -4.41658,-7.6254 -12.76418,-22.02873 -18.55024,-32.00739 -5.7861,-9.9787 -16.86037,-29.08961 -24.60949,-42.4687 -15.12341,-26.11091 -35.82993,-61.84873 -45.46204,-78.46386 -35.73789,-61.647 -61.3771,-105.92717 -63.03991,-108.87302 -1.5191,-2.69129 -2.39284,-3.05424 -6.56632,-2.72773 -1.75381,0.13727 -17.18058,1.47326 -34.28168,2.96897 -17.10109,1.49572 -32.9859,2.88375 -35.29959,3.08453 -2.31368,0.20074 -19.10384,1.67909 -37.31149,3.28513 -31.234924,2.75513 -46.442083,4.04511 -47.686726,4.04511 -1.829728,0 -2.237615,3.25565 -0.824912,6.58439 0.46961,1.10653 8.71415,18.14363 18.321212,37.86019 16.667846,34.20742 23.955466,49.19719 44.549206,91.63262 21.35732,44.00875 59.28368,122.24471 75.80769,156.37901 4.67491,9.65709 12.33108,25.4596 17.01375,35.11669 4.68267,9.65709 9.37326,19.36905 10.42355,21.58214 1.05028,2.21309 5.53175,11.51352 9.95883,20.66764 4.42704,9.15412 9.96616,20.67679 12.30909,25.60592 2.34298,4.92915 4.46663,9.36675 4.71925,9.86139 0.77898,1.52512 1.67744,1.58551 7.39851,0.49731 z M 836.72973,491.18555 c 27.69394,-6.86375 51.40674,-12.69703 72.653,-17.8724 4.97585,-1.21206 9.87906,-2.56168 10.89594,-2.99914 2.04972,-0.88175 3.28524,-2.18334 3.28524,-3.46089 0,-0.88195 -0.92887,-2.08531 -32.73524,-42.40901 -20.15558,-25.553 -37.85052,-48.09183 -45.24343,-57.62854 -7.68631,-9.91524 -7.46943,-9.83315 -19.8079,-7.50023 -20.40861,3.85873 -80.14258,14.61655 -93.52625,16.84365 -4.32557,0.71979 -8.38557,1.53979 -9.02225,1.82219 -1.41103,0.62596 -1.77496,1.61749 -1.21565,3.31212 0.23272,0.70526 5.06788,7.65742 10.74472,15.44927 11.80067,16.19717 62.33889,85.52849 69.4553,95.28289 2.60532,3.5711 4.78036,6.49293 4.8334,6.49293 0.053,0 13.41048,-3.29977 29.68312,-7.33284 z"
       id="path4718"
       style="fill:#000000" />
  </g>
</svg>
