<?xml version="1.0" encoding="UTF-8" standalone="no"?>
<!-- Created with Inkscape (http://www.inkscape.org/) -->

<svg
   xmlns:dc="http://purl.org/dc/elements/1.1/"
   xmlns:cc="http://creativecommons.org/ns#"
   xmlns:rdf="http://www.w3.org/1999/02/22-rdf-syntax-ns#"
   xmlns:svg="http://www.w3.org/2000/svg"
   xmlns="http://www.w3.org/2000/svg"
   xmlns:sodipodi="http://sodipodi.sourceforge.net/DTD/sodipodi-0.dtd"
   xmlns:inkscape="http://www.inkscape.org/namespaces/inkscape"
   width="1000"
   height="1000"
   id="svg4955"
   version="1.1"
   inkscape:version="0.48.4 r9939"
   sodipodi:docname="r.svg">
  <defs
     id="defs5498" />
  <sodipodi:namedview
     inkscape:window-height="1056"
     inkscape:window-width="1920"
     inkscape:pageshadow="2"
     inkscape:pageopacity="0.0"
     borderopacity="1.0"
     bordercolor="#666666"
     pagecolor="#ffffff"
     id="base"
     showgrid="false"
     showguides="false"
     inkscape:guide-bbox="true"
     inkscape:zoom="0.70710678"
     inkscape:cx="185.43053"
     inkscape:cy="460.94904"
     inkscape:window-x="0"
     inkscape:window-y="24"
     inkscape:current-layer="layer13"
     inkscape:window-maximized="1">
    <sodipodi:guide
       orientation="0,1"
       position="189.44385,479.26189"
       id="guide7179" />
    <sodipodi:guide
       orientation="1,0"
       position="429.5717,650.94149"
       id="guide7232" />
    <sodipodi:guide
       orientation="0,1"
       position="423.85732,718.7686"
       id="guide7234" />
    <sodipodi:guide
       orientation="0,1"
       position="407.21111,603.48736"
       id="guide7236" />
    <sodipodi:guide
       orientation="1,0"
       position="330.68822,603.48736"
       id="guide7238" />
    <sodipodi:guide
       orientation="1,0"
       position="526.71602,603.48736"
       id="guide7240" />
    <sodipodi:guide
       orientation="0,1"
       position="429.5717,709.07902"
       id="guide7242" />
    <sodipodi:guide
       orientation="0,1"
       position="429.5717,618.89132"
       id="guide7244" />
    <sodipodi:guide
       orientation="1,0"
       position="421.62126,644.23332"
       id="guide7246" />
    <sodipodi:guide
       orientation="1,0"
       position="370.68882,649.20234"
       id="guide7248" />
    <sodipodi:guide
       orientation="1,0"
       position="377.397,646.46938"
       id="guide7250" />
    <sodipodi:guide
       orientation="0,1"
       position="401.99364,699.63788"
       id="guide7252" />
    <sodipodi:guide
       orientation="0,1"
       position="402.73899,694.42041"
       id="guide7254" />
    <sodipodi:guide
       orientation="0,1"
       position="412.67703,632.80457"
       id="guide7258" />
    <sodipodi:guide
       orientation="0,1"
       position="421.62126,626.0964"
       id="guide7260" />
    <sodipodi:guide
       orientation="1,0"
       position="469.5723,641.50036"
       id="guide7262" />
    <sodipodi:guide
       orientation="1,0"
       position="390.5649,658.14657"
       id="guide7264" />
    <sodipodi:guide
       orientation="1,0"
       position="384.10517,643.23951"
       id="guide7266" />
    <sodipodi:guide
       orientation="1,0"
       position="407.45956,632.80457"
       id="guide7268" />
  </sodipodi:namedview>
  <metadata
     id="metadata5594">
    <rdf:RDF>
      <cc:Work
         rdf:about="">
        <dc:format>image/svg+xml</dc:format>
        <dc:type
           rdf:resource="http://purl.org/dc/dcmitype/StillImage" />
        <dc:title></dc:title>
      </cc:Work>
    </rdf:RDF>
  </metadata>
  <g
     inkscape:groupmode="layer"
     id="layer13"
     inkscape:label="Layer#1">
    <path
       style="fill:#000000"
       d="M 181.05272,791.26971 C 127.10979,779.06175 91.232158,744.24393 75.423252,688.76048 72.151509,677.27789 72.141579,676.80428 71.671436,509.998 71.180923,335.96172 71.271147,333.00292 77.434099,320.99871 c 7.073179,-13.77718 22.718131,-22.95392 38.959611,-22.85224 15.01017,0.0939 26.84223,6.23477 35.17152,18.25394 9.15279,13.20747 8.72864,5.4459 9.88275,180.84764 1.1302,171.77027 0.88012,166.50712 8.63185,181.66818 5.12632,10.02617 16.51138,19.11869 29.10522,23.24444 l 10.9481,3.5866 138.74948,0 c 152.94966,0 144.42734,0.50025 157.17916,-9.22606 16.84479,-12.84814 21.25905,-40.70651 9.4105,-59.38973 -8.82395,-13.91396 -18.67239,-18.36081 -45.56195,-20.57258 -31.01179,-2.55085 -55.20452,-11.52748 -74.93999,-27.80621 -22.81822,-18.82153 -37.0974,-41.91869 -46.36959,-75.0047 -2.8509,-10.17293 -3.3591,-15.65402 -3.33786,-35.99987 0.0228,-21.80684 0.39657,-25.20712 4.09079,-37.21106 6.08052,-19.75793 13.34017,-32.99964 27.18618,-49.58799 13.58641,-16.27735 39.434,-33.08083 61.08426,-39.71081 16.2129,-4.96487 35.45456,-6.08775 112.25775,-6.55092 l 72.74973,-0.43872 8.58634,4.21641 c 17.05417,8.37462 26.4755,26.57417 24.70278,47.71929 -1.01719,12.13305 -7.83293,26.47852 -15.27852,32.15754 -11.89346,9.07159 -9.64221,8.83972 -93.76032,9.65641 -77.23119,0.74982 -77.25159,0.75085 -85.09026,4.29489 -14.9061,6.7394 -25.90933,24.02606 -25.90933,40.70494 0,14.65309 10.02115,32.57252 21.54957,38.5341 7.36031,3.80616 12.75516,4.93531 30.95024,6.47792 23.0402,1.95338 39.89767,6.20714 56.47834,14.25153 24.30623,11.79257 42.92812,29.50233 54.32368,51.66281 10.96166,21.31672 15.3225,39.90788 15.3225,65.32299 0,32.14395 -8.1775,58.02587 -25.9502,82.1327 -21.48995,29.14888 -51.67487,45.85801 -88.56232,49.02445 -9.2741,0.7961 -82.67424,1.80427 -163.11144,2.24038 -124.19056,0.67333 -147.69449,0.4659 -155.82995,-1.37527 z m 511.8273,-87.45954 c -15.63271,-5.58276 -24.79027,-16.45344 -27.60815,-32.7729 -1.00804,-5.83801 -1.08043,-37.75441 -0.21554,-95.03951 l 1.30219,-86.24968 4.0981,-11.99996 c 13.288,-38.90964 49.42758,-71.34348 92.73288,-83.22411 6.18392,-1.69654 20.39712,-3.99474 31.5849,-5.10711 14.69777,-1.46137 22.22447,-2.93408 27.12857,-5.3081 15.12437,-7.32158 24.27687,-24.28932 23.11903,-42.86017 -1.17215,-18.80027 -10.49049,-32.35891 -26.30574,-38.27615 -7.79905,-2.918 -12.27978,-2.97336 -239.26576,-2.95589 -248.11628,0.019 -237.77288,-0.28503 -253.77579,7.46183 -9.9687,4.82576 -19.16626,15.877 -23.04339,27.68754 -3.23537,9.85562 -3.24851,10.44964 -3.24851,146.83816 0,91.32491 -0.53821,139.90737 -1.61572,145.84295 -3.85354,21.22803 -20.08189,35.11063 -41.3401,35.36455 -15.56929,0.18597 -25.46641,-3.93956 -34.74855,-14.48462 -11.86787,-13.48261 -11.15782,-4.21356 -12.17862,-158.97892 -0.50064,-75.89972 -0.37484,-143.89697 0.27954,-151.105 5.11937,-56.39064 44.00799,-105.34471 98.14267,-123.54476 24.63056,-8.28078 18.179,-8.08731 269.88826,-8.09347 252.91181,-0.006 245.05347,-0.248 269.49584,8.29165 36.52543,12.76123 64.69347,43.56212 77.05507,84.2574 3.56568,11.73846 4.02247,15.76104 4.13866,36.44475 0.0999,17.77836 -0.52847,26.07394 -2.67002,35.24987 -7.87,33.721 -25.55023,62.26022 -51.0447,82.39586 -20.64346,16.30428 -36.46762,22.39538 -66.36577,25.54581 -23.91843,2.52032 -33.41258,6.23354 -41.6383,16.285 -11.41142,13.94424 -12.84421,23.89182 -13.00238,90.27253 -0.17294,72.57764 -1.04652,85.05888 -6.73139,96.17478 -9.75045,19.06547 -34.29648,28.98391 -54.16728,21.88767 z"
       id="path9327"
       inkscape:connector-curvature="0" />
  </g>
</svg>
