<?xml version="1.0" encoding="UTF-8" standalone="no"?>
<!-- Created with Inkscape (http://www.inkscape.org/) -->

<svg
   xmlns:dc="http://purl.org/dc/elements/1.1/"
   xmlns:cc="http://creativecommons.org/ns#"
   xmlns:rdf="http://www.w3.org/1999/02/22-rdf-syntax-ns#"
   xmlns:svg="http://www.w3.org/2000/svg"
   xmlns="http://www.w3.org/2000/svg"
   xmlns:sodipodi="http://sodipodi.sourceforge.net/DTD/sodipodi-0.dtd"
   xmlns:inkscape="http://www.inkscape.org/namespaces/inkscape"
   width="1000"
   height="1000"
   id="svg4955"
   version="1.1"
   inkscape:version="0.48.4 r9939"
   sodipodi:docname="teslajs.svg">
  <defs
     id="defs5498" />
  <sodipodi:namedview
     inkscape:window-height="1056"
     inkscape:window-width="1920"
     inkscape:pageshadow="2"
     inkscape:pageopacity="0.0"
     borderopacity="1.0"
     bordercolor="#666666"
     pagecolor="#ffffff"
     id="base"
     showgrid="false"
     showguides="false"
     inkscape:guide-bbox="true"
     inkscape:zoom="0.71151547"
     inkscape:cx="336.75188"
     inkscape:cy="419.76821"
     inkscape:window-x="0"
     inkscape:window-y="24"
     inkscape:current-layer="layer11"
     inkscape:window-maximized="1">
    <sodipodi:guide
       orientation="0,1"
       position="189.44385,479.26189"
       id="guide7179" />
    <sodipodi:guide
       orientation="1,0"
       position="429.5717,650.94149"
       id="guide7232" />
    <sodipodi:guide
       orientation="0,1"
       position="423.85732,718.7686"
       id="guide7234" />
    <sodipodi:guide
       orientation="0,1"
       position="407.21111,603.48736"
       id="guide7236" />
    <sodipodi:guide
       orientation="1,0"
       position="330.68822,603.48736"
       id="guide7238" />
    <sodipodi:guide
       orientation="1,0"
       position="526.71602,603.48736"
       id="guide7240" />
    <sodipodi:guide
       orientation="0,1"
       position="429.5717,709.07902"
       id="guide7242" />
    <sodipodi:guide
       orientation="0,1"
       position="429.5717,618.89132"
       id="guide7244" />
    <sodipodi:guide
       orientation="1,0"
       position="421.62126,644.23332"
       id="guide7246" />
    <sodipodi:guide
       orientation="1,0"
       position="370.68882,649.20234"
       id="guide7248" />
    <sodipodi:guide
       orientation="1,0"
       position="377.397,646.46938"
       id="guide7250" />
    <sodipodi:guide
       orientation="0,1"
       position="401.99364,699.63788"
       id="guide7252" />
    <sodipodi:guide
       orientation="0,1"
       position="402.73899,694.42041"
       id="guide7254" />
    <sodipodi:guide
       orientation="0,1"
       position="412.67703,632.80457"
       id="guide7258" />
    <sodipodi:guide
       orientation="0,1"
       position="421.62126,626.0964"
       id="guide7260" />
    <sodipodi:guide
       orientation="1,0"
       position="469.5723,641.50036"
       id="guide7262" />
    <sodipodi:guide
       orientation="1,0"
       position="390.5649,658.14657"
       id="guide7264" />
    <sodipodi:guide
       orientation="1,0"
       position="384.10517,643.23951"
       id="guide7266" />
    <sodipodi:guide
       orientation="1,0"
       position="407.45956,632.80457"
       id="guide7268" />
  </sodipodi:namedview>
  <metadata
     id="metadata5594">
    <rdf:RDF>
      <cc:Work
         rdf:about="">
        <dc:format>image/svg+xml</dc:format>
        <dc:type
           rdf:resource="http://purl.org/dc/dcmitype/StillImage" />
        <dc:title></dc:title>
      </cc:Work>
    </rdf:RDF>
  </metadata>
  <g
     inkscape:groupmode="layer"
     id="layer11"
     inkscape:label="Layer">
    <path
       style="fill:#000000"
       d="M 469.45589,927.9936 C 388.04678,866.79727 360.41082,797.57715 391.74932,733.36107 405.79502,704.57989 450.11955,656.26272 481.162,635.89441 L 500,623.53398 l 18.838,12.36043 c 10.3609,6.79826 32.01028,25.70248 48.10977,42.0094 69.20997,70.10179 72.64899,136.40029 10.73092,206.87321 -19.19596,21.84818 -70.15032,63.50533 -77.67869,63.50533 -1.95476,0 -15.69959,-9.12996 -30.54411,-20.28875 z M 231.83553,763.98647 c -4.87572,-1.07532 -19.83531,-4.13527 -33.24353,-6.7999 -13.40823,-2.66458 -38.88124,-10.82693 -56.60669,-18.13846 l -32.22809,-13.29369 2.7105,-22.81827 c 11.26636,-94.84628 46.22951,-155.85467 99.4485,-173.53118 40.14103,-13.3327 113.46075,-1.81009 168.02468,26.406 14.56856,7.53369 14.60362,7.63209 11.65536,32.68814 -9.57338,81.35999 -39.44398,139.96669 -82.1925,161.26325 -23.53682,11.72566 -59.22432,18.26985 -77.56823,14.22411 z m 485.13639,-3.24519 c -31.64221,-8.89042 -52.68896,-24.48284 -70.73514,-52.40377 -17.33654,-26.82301 -32.56452,-75.0646 -37.83623,-119.86376 l -2.96032,-25.1571 17.0913,-8.58384 c 41.36479,-20.77481 77.93835,-29.74817 121.25436,-29.74981 38.19823,-0.001 44.08092,1.15785 63.34958,12.48405 43.36747,25.49167 70.111,80.56304 80.35439,165.4691 l 2.75292,22.81827 -32.22809,13.34541 c -57.97588,24.00742 -106.2559,31.41545 -141.04277,21.64145 z M 209.9295,471.82668 c -9.61048,-3.42359 -22.57546,-9.99686 -28.81106,-14.60725 -18.77501,-13.88161 -42.61541,-51.81389 -52.75291,-83.93472 -12.76627,-40.45011 -19.68368,-95.19179 -12.59589,-99.67869 2.88979,-1.82937 22.20832,-9.65193 42.93012,-17.38344 29.86399,-11.14257 46.63863,-14.48341 80.90132,-16.1123 40.05274,-1.90419 44.99818,-1.18763 67.37954,9.76256 40.94539,20.03269 70.15214,71.49806 81.91946,144.35068 7.25117,44.89255 7.84596,43.46357 -24.12368,57.9593 -55.08772,24.97799 -117.60869,32.90936 -154.8469,19.64386 z m 479.81765,0.0133 c -39.82885,-10.06007 -83.37357,-31.36305 -83.33439,-40.76889 0.0798,-19.14419 10.14242,-67.96706 19.66311,-95.40357 35.1033,-101.15957 114.53641,-123.70298 243.00324,-68.96525 l 21.13016,9.00323 -2.73616,22.69195 c -10.53465,87.36861 -39.15192,144.91701 -83.4292,167.77371 -23.19065,11.97144 -78.48625,14.71394 -114.29676,5.66882 z M 469.45589,356.20489 C 412.22618,313.18453 379.57478,262.64753 379.13929,216.41531 378.68948,168.66373 420.46255,106.66047 481.48163,64.509758 L 500,51.717648 l 18.73862,12.79211 c 35.3357,24.122215 74.31627,67.145062 88.7152,97.914782 24.57038,52.50572 15.33537,99.19218 -29.78279,150.56376 -19.18538,21.84446 -70.13929,63.50534 -77.67103,63.50534 -1.95476,0 -15.69959,-9.12996 -30.54411,-20.28875 z"
       id="path7500"
       inkscape:connector-curvature="0" />
  </g>
</svg>
