<?xml version="1.0" encoding="UTF-8" standalone="no"?>
<!-- Created with Inkscape (http://www.inkscape.org/) -->

<svg
   xmlns:dc="http://purl.org/dc/elements/1.1/"
   xmlns:cc="http://creativecommons.org/ns#"
   xmlns:rdf="http://www.w3.org/1999/02/22-rdf-syntax-ns#"
   xmlns:svg="http://www.w3.org/2000/svg"
   xmlns="http://www.w3.org/2000/svg"
   xmlns:sodipodi="http://sodipodi.sourceforge.net/DTD/sodipodi-0.dtd"
   xmlns:inkscape="http://www.inkscape.org/namespaces/inkscape"
   width="1000"
   height="1000"
   id="svg4955"
   version="1.1"
   inkscape:version="0.48.4 r9939"
   sodipodi:docname="mariadb.svg">
  <defs
     id="defs5498" />
  <sodipodi:namedview
     inkscape:window-height="1056"
     inkscape:window-width="1920"
     inkscape:pageshadow="2"
     inkscape:pageopacity="0.0"
     borderopacity="1.0"
     bordercolor="#666666"
     pagecolor="#ffffff"
     id="base"
     showgrid="false"
     showguides="false"
     inkscape:guide-bbox="true"
     inkscape:zoom="0.70710678"
     inkscape:cx="595.29512"
     inkscape:cy="654.95245"
     inkscape:window-x="0"
     inkscape:window-y="24"
     inkscape:current-layer="layer13"
     inkscape:window-maximized="1">
    <sodipodi:guide
       orientation="0,1"
       position="189.44385,479.26189"
       id="guide7179" />
    <sodipodi:guide
       orientation="1,0"
       position="429.5717,650.94149"
       id="guide7232" />
    <sodipodi:guide
       orientation="0,1"
       position="423.85732,718.7686"
       id="guide7234" />
    <sodipodi:guide
       orientation="0,1"
       position="407.21111,603.48736"
       id="guide7236" />
    <sodipodi:guide
       orientation="1,0"
       position="330.68822,603.48736"
       id="guide7238" />
    <sodipodi:guide
       orientation="1,0"
       position="526.71602,603.48736"
       id="guide7240" />
    <sodipodi:guide
       orientation="0,1"
       position="429.5717,709.07902"
       id="guide7242" />
    <sodipodi:guide
       orientation="0,1"
       position="429.5717,618.89132"
       id="guide7244" />
    <sodipodi:guide
       orientation="1,0"
       position="421.62126,644.23332"
       id="guide7246" />
    <sodipodi:guide
       orientation="1,0"
       position="370.68882,649.20234"
       id="guide7248" />
    <sodipodi:guide
       orientation="1,0"
       position="377.397,646.46938"
       id="guide7250" />
    <sodipodi:guide
       orientation="0,1"
       position="401.99364,699.63788"
       id="guide7252" />
    <sodipodi:guide
       orientation="0,1"
       position="402.73899,694.42041"
       id="guide7254" />
    <sodipodi:guide
       orientation="0,1"
       position="412.67703,632.80457"
       id="guide7258" />
    <sodipodi:guide
       orientation="0,1"
       position="421.62126,626.0964"
       id="guide7260" />
    <sodipodi:guide
       orientation="1,0"
       position="469.5723,641.50036"
       id="guide7262" />
    <sodipodi:guide
       orientation="1,0"
       position="390.5649,658.14657"
       id="guide7264" />
    <sodipodi:guide
       orientation="1,0"
       position="384.10517,643.23951"
       id="guide7266" />
    <sodipodi:guide
       orientation="1,0"
       position="407.45956,632.80457"
       id="guide7268" />
  </sodipodi:namedview>
  <metadata
     id="metadata5594">
    <rdf:RDF>
      <cc:Work
         rdf:about="">
        <dc:format>image/svg+xml</dc:format>
        <dc:type
           rdf:resource="http://purl.org/dc/dcmitype/StillImage" />
        <dc:title></dc:title>
      </cc:Work>
    </rdf:RDF>
  </metadata>
  <g
     inkscape:groupmode="layer"
     id="layer13"
     inkscape:label="Layer#1">
    <path
       style="fill:#000000;fill-opacity:1;stroke:none"
       d="m 531.55373,766.28382 c 39.25844,-55.54031 55.17231,-94.3865 58.614,-143.0782 1.18636,-16.78411 -0.0539,-18.1925 -8.33897,-9.46975 -4.6332,4.87794 -7.83324,10.93768 -14.82708,28.07723 -9.45785,23.17799 -15.68501,33.983 -21.31682,36.98771 -6.79838,3.62709 -49.79118,2.04584 -98.95764,-3.63961 -35.76979,-4.13631 -49.47001,-5.12737 -70.87899,-5.12737 -49.11497,0 -64.73004,5.07695 -121.73143,39.57873 -29.89585,18.09534 -48.73446,27.51446 -67.60511,33.80184 -23.98432,7.99117 -29.75183,8.85142 -59.26112,8.83909 -26.64164,-0.0111 -32.869898,-0.57863 -32.869898,-2.99501 0,-0.6572 6.601008,-6.00547 14.668908,-11.88505 13.46249,-9.81095 19.27222,-16.36866 19.27222,-21.75342 0,-0.74939 -7.99113,-1.81779 -17.75806,-2.37421 -9.76693,-0.55642 -20.426566,-1.78461 -23.688077,-2.72932 l -5.93002,-1.71763 3.913364,-3.91473 c 7.075417,-7.07787 21.080093,-11.75497 42.755683,-14.279 3.88909,-0.45287 19.79899,-1.76541 35.35534,-2.91673 51.9648,-3.84594 59.7889,-6.3223 74.18926,-23.48109 4.30932,-5.13477 15.15368,-19.4423 24.09858,-31.79451 8.9449,-12.35221 21.17938,-27.3371 27.18772,-33.29977 20.24537,-20.09146 65.81845,-47.2935 102.52107,-61.19364 17.74068,-6.7188 33.53459,-10.95303 71.81665,-19.25343 40.08185,-8.69065 56.72119,-13.4951 81.29028,-23.47178 33.7526,-13.70581 62.01604,-29.82863 79.25543,-45.21103 19.68731,-17.56665 31.80757,-34.13874 66.09293,-90.36919 27.67552,-45.38985 40.06625,-62.77526 55.00036,-77.17092 24.89483,-23.99727 47.43023,-33.94999 83.2281,-36.75755 40.34153,-3.16392 48.32636,-4.10881 53.70201,-6.35491 4.58273,-1.91478 5.71154,-1.99176 6.22702,-0.42465 2.1256,6.46205 17.63093,15.34912 26.77971,15.34912 3.06085,0 1.23908,8.71037 -4.08272,19.52048 -5.97346,12.13379 -16.21308,22.17143 -42.5989,41.75857 -32.50731,24.13135 -41.09685,33.29519 -48.60802,51.85803 -1.73103,4.278 -9.89605,36.416 -18.14449,71.41779 -20.10515,85.31509 -28.01019,110.49687 -45.50468,144.95689 -12.68192,24.98034 -21.90495,38.37782 -36.60604,53.17432 -12.49356,12.57463 -24.06302,21.58024 -25.66542,19.97784 -0.44047,-0.44047 -1.72445,-7.87416 -2.85327,-16.51931 -2.13788,-16.37286 -3.80698,-22.69173 -5.99392,-22.69173 -0.70964,0 -3.36617,5.25027 -5.9034,11.66727 -5.84903,14.793 -18.92137,41.26515 -26.71603,54.10133 -25.08708,41.31317 -60.70096,69.03082 -105.26501,81.92585 -15.62792,4.52207 -17.51604,4.63405 -14.86352,0.88145 l 0,0 z M 872.43299,292.91503 c 1.56046,-6.09556 5.96436,-17.17279 9.78646,-24.61608 7.27378,-14.16526 7.74904,-15.45812 5.68246,-15.45812 -1.97258,0 -9.85615,13.03454 -14.34421,23.71642 -3.959,9.42275 -7.42239,25.32838 -6.0191,27.64291 1.1885,1.96026 1.95742,0.18732 4.89439,-11.28513 l 0,0 z m 9.84337,-0.42541 c 0.6396,-5.98605 3.04063,-14.74633 6.09514,-22.23848 5.71309,-14.01307 6.46565,-18.52606 2.24527,-13.46447 -5.16382,6.19309 -11.39883,25.22582 -12.28688,37.50636 -0.69068,9.55137 -0.51074,11.27348 1.02685,9.82707 1.02536,-0.96455 2.33918,-6.19826 2.91962,-11.63048 z m -22.82504,2.07051 c 2.55418,-8.31822 10.10867,-21.70687 19.13435,-33.91141 8.55459,-11.56752 9.92453,-17.51754 2.12331,-9.22211 -12.30231,13.08167 -25.48141,37.35087 -25.48141,46.92379 0,5.59352 1.85292,3.93076 4.22375,-3.79027 z m -9.71295,-2.47488 c 5.5598,-11.04067 10.31141,-18.05403 23.55342,-34.76475 9.75702,-12.31285 11.95719,-17.04717 6.26314,-13.47703 -4.1677,2.61313 -20.50802,23.74313 -27.59551,35.68433 -6.02052,10.14353 -9.98798,21.39629 -7.54385,21.39629 0.47949,0 2.87474,-3.97748 5.3228,-8.83884 l 0,0 z m -35.88288,1.00673 c 9.74605,-4.07217 14.50202,-11.3662 14.50202,-22.24117 l 0,-5.68623 -11.09655,0.76058 c -14.89983,1.02126 -24.4366,6.05349 -29.3429,15.48326 -3.23701,6.22141 -2.55729,10.58638 1.90213,12.2151 5.93847,2.16891 18.22237,1.89726 24.0353,-0.53154 l 0,0 z"
       id="path9064"
       inkscape:connector-curvature="0" />
    <path
       style="fill:#000000;fill-opacity:1;stroke:none"
       d="m 747.04023,691.82417 c -12.76315,-2.82087 -24.86016,-8.25494 -29.75857,-13.36778 -3.65235,-3.81223 -3.7655,-4.31205 -1.97138,-8.70834 1.04685,-2.56518 3.69429,-7.51219 5.8832,-10.99336 4.90135,-7.79491 30.62685,-35.66168 32.08788,-34.75872 0.58375,0.36078 1.88032,5.29842 2.88128,10.97254 2.35274,13.33694 9.90881,36.46689 15.58869,47.71868 2.45601,4.86533 4.14125,9.17027 3.74498,9.56654 -1.81223,1.81224 -19.52262,1.54489 -28.45608,-0.42956 z"
       id="path9066"
       inkscape:connector-curvature="0" />
  </g>
</svg>
