<?xml version="1.0" encoding="UTF-8" standalone="no"?>
<!-- Created with Inkscape (http://www.inkscape.org/) -->

<svg
   xmlns:dc="http://purl.org/dc/elements/1.1/"
   xmlns:cc="http://creativecommons.org/ns#"
   xmlns:rdf="http://www.w3.org/1999/02/22-rdf-syntax-ns#"
   xmlns:svg="http://www.w3.org/2000/svg"
   xmlns="http://www.w3.org/2000/svg"
   xmlns:sodipodi="http://sodipodi.sourceforge.net/DTD/sodipodi-0.dtd"
   xmlns:inkscape="http://www.inkscape.org/namespaces/inkscape"
   width="1000"
   height="1000"
   id="svg4955"
   version="1.1"
   inkscape:version="0.48.4 r9939"
   sodipodi:docname="react.svg">
  <defs
     id="defs5498" />
  <sodipodi:namedview
     inkscape:window-height="1056"
     inkscape:window-width="1920"
     inkscape:pageshadow="2"
     inkscape:pageopacity="0.0"
     borderopacity="1.0"
     bordercolor="#666666"
     pagecolor="#ffffff"
     id="base"
     showgrid="false"
     showguides="true"
     inkscape:guide-bbox="true"
     inkscape:zoom="0.908"
     inkscape:cx="461.88812"
     inkscape:cy="610.6633"
     inkscape:window-x="0"
     inkscape:window-y="24"
     inkscape:current-layer="layer3"
     inkscape:window-maximized="1">
    <sodipodi:guide
       orientation="horizontal"
       position="200"
       id="guide5596" />
    <sodipodi:guide
       orientation="1,0"
       position="279.76664,517.28599"
       id="guide6029" />
    <sodipodi:guide
       orientation="0,1"
       position="317.18062,496.69604"
       id="guide6031" />
    <sodipodi:guide
       orientation="0,1"
       position="485.16247,273.34194"
       id="guide6319" />
    <sodipodi:guide
       orientation="0,1"
       position="595.26432,727.42291"
       id="guide6321" />
  </sodipodi:namedview>
  <metadata
     id="metadata5594">
    <rdf:RDF>
      <cc:Work
         rdf:about="">
        <dc:format>image/svg+xml</dc:format>
        <dc:type
           rdf:resource="http://purl.org/dc/dcmitype/StillImage" />
        <dc:title></dc:title>
      </cc:Work>
    </rdf:RDF>
  </metadata>
  <g
     inkscape:groupmode="layer"
     id="layer3"
     inkscape:label="Layer"
     style="opacity:1">
    <path
       style="fill:#000000"
       d="m 153.48286,726.87251 c -12.87918,-2.48772 -23.91065,-28.33288 -31.4959,-71.78459 -6.20301,-35.53378 -12.02552,-58.69983 -20.37177,-81.05333 -6.922909,-18.54148 -13.167313,-28.29231 -28.278086,-44.15733 l -11.444283,-12.01548 67.489789,0.83571 c 61.83977,0.76576 67.98323,1.28274 73.38437,6.17557 3.24202,2.9369 6.36864,4.82348 6.94803,4.19241 0.57936,-0.63109 5.61848,-24.41533 11.19802,-52.85387 10.74971,-54.79051 14.66423,-73.60257 18.61068,-89.43816 1.34085,-5.38026 4.49687,-18.58637 7.01341,-29.34689 11.41072,-48.79165 26.23232,-80.90582 38.79565,-84.05902 3.75564,-0.94259 60.27524,-0.89138 96.33031,-0.75153 45.25692,0.17554 48.72116,0.1431 61.85477,28.9117 8.32361,18.23255 25.87177,85.99685 36.18869,139.74712 1.77034,9.22331 4.38795,21.31761 5.81689,26.87622 1.42897,5.55861 2.68652,14.36268 2.79458,19.5646 0.10788,5.20192 1.08049,11.69527 2.16099,14.42965 2.58789,6.54902 6.24544,-6.45945 17.11475,-60.87047 18.26014,-91.40882 26.17209,-121.77134 38.06689,-146.08343 11.74264,-24.00109 10.40851,-23.66206 88.80429,-22.56698 63.33128,0.88463 68.72988,1.35454 74.38407,6.47449 12.5695,11.38181 27.08079,53.43013 40.53553,117.45684 0.96912,4.61166 2.83575,13.41572 4.14811,19.5646 5.52398,25.88209 9.6887,47.76252 16.75767,88.04069 6.41738,36.56556 7.91357,39.49983 14.17519,27.79986 1.6894,-3.15669 7.07898,-8.18289 11.97683,-11.16931 8.15634,-4.9733 14.48711,-5.43077 75.28508,-5.44033 36.50882,-0.006 66.37977,0.94025 66.37977,2.10222 0,1.16196 -4.08761,3.85338 -9.08356,5.98095 -30.44285,12.96428 -44.88709,43.82819 -53.76528,114.88385 -5.01027,40.09918 -12.86752,65.51616 -24.68535,79.85324 l -8.52955,8.701 -67.30459,0 -67.85525,0 -8.7527,-9.40332 c -16.80319,-18.05223 -28.10608,-64.2526 -53.64909,-196.53851 -3.11661,-16.14079 -6.32772,-31.54791 -7.13579,-34.23804 -2.21547,-7.37555 -6.6824,-5.86748 -6.6824,2.25602 0,3.93094 -1.17215,12.42058 -2.60478,18.86586 -1.43263,6.44528 -4.03215,19.8939 -5.77667,29.88582 -1.74455,9.99192 -4.28367,23.19802 -5.64254,29.34689 -1.35887,6.14888 -5.79266,26.27246 -9.85287,44.71908 -15.00758,68.18335 -27.43548,115.1062 -40.84616,115.1062 -12.61037,0 -130.45862,0 -142.61663,0 -10.84265,0 -22.25895,-45.50422 -30.08915,-78.77195 -1.80906,-7.68609 -4.40779,-18.37674 -5.77494,-23.75701 -1.36717,-5.38026 -3.03693,-12.92661 -3.71059,-16.76965 -0.67367,-3.84305 -6.39315,-32.72322 -12.70998,-64.17814 -6.31682,-31.45493 -11.48511,-59.51352 -11.48511,-62.3524 0,-2.83891 -1.0428,-4.51719 -2.31732,-3.72949 -2.40236,1.48476 -6.33244,17.93227 -11.75776,49.2067 -3.8615,22.25973 -6.21956,33.93638 -15.52186,76.86091 -13.04807,60.20913 -26.06658,101.26127 -36.56136,115.29138 l -6.79468,9.08356 -63.4427,-0.38061 c -34.89349,-0.20934 -66.24752,0.15885 -69.67566,-0.5033 z"
       id="path6317"
       inkscape:connector-curvature="0"
       sodipodi:nodetypes="sssscsscsssssssscssssssssssssssscccssssssssssssssssssscss" />
  </g>
  <g
     inkscape:groupmode="layer"
     id="layer4"
     inkscape:label="Layer#1" />
</svg>
