<?xml version="1.0" encoding="UTF-8" standalone="no"?>
<!-- Created with Inkscape (http://www.inkscape.org/) -->

<svg
   xmlns:dc="http://purl.org/dc/elements/1.1/"
   xmlns:cc="http://creativecommons.org/ns#"
   xmlns:rdf="http://www.w3.org/1999/02/22-rdf-syntax-ns#"
   xmlns:svg="http://www.w3.org/2000/svg"
   xmlns="http://www.w3.org/2000/svg"
   version="1.1"
   width="1000"
   height="1000"
   id="svg4778">
  <defs
     id="defs5498" />
  <metadata
     id="metadata5594">
    <rdf:RDF>
      <cc:Work
         rdf:about="">
        <dc:format>image/svg+xml</dc:format>
        <dc:type
           rdf:resource="http://purl.org/dc/dcmitype/StillImage" />
        <dc:title></dc:title>
      </cc:Work>
    </rdf:RDF>
  </metadata>
  <g
     id="layer1">
    <path
       d=""
       id="path4814"
       style="fill:#000000" />
    <path
       d="m 650.49454,820.51682 c -9.2509,-7.30374 -430.37831,-463.83578 -429.07082,-465.14327 1.62206,-1.62206 11.11635,6.70556 69.95246,61.35659 31.41667,29.18195 126.89069,117.50238 212.16449,196.26761 170.6706,157.64406 182.2351,168.56772 186.00238,175.69501 8.70993,16.47827 -4.80208,37.69352 -24.018,37.71073 -5.80197,0.005 -9.30615,-1.36721 -15.03051,-5.88667 z m -94.36232,-4.53343 C 539.81115,799.99627 278.68258,515.91569 278.68258,514.14718 c 0,-0.96383 0.7488,-1.48042 1.66399,-1.14796 0.91519,0.33245 32.53586,29.21168 70.26816,64.17608 37.73229,34.96438 106.71827,98.82993 153.30219,141.92342 73.50149,67.99416 84.85497,79.18826 85.88513,84.6795 2.0486,10.91996 -6.37279,20.6648 -17.94143,20.76102 -5.86698,0.0488 -8.28912,-1.2688 -15.7284,-8.55585 z M 416.22247,736.19504 C 386.0568,703.53168 356.6421,671.67716 350.8565,665.40719 c -10.03197,-10.87181 -13.49397,-16.77745 -7.98668,-13.62404 2.10452,1.20502 125.33919,114.21733 138.42618,126.9437 7.06332,6.86867 4.1392,16.85611 -4.93511,16.85611 -4.62252,0 -12.22774,-7.51033 -60.13842,-59.38792 z m 321.67731,43.69719 c -3.25194,-1.603 -8.49741,-5.8685 -11.65657,-9.47891 -5.05922,-5.7818 -425.35991,-452.98171 -521.55528,-554.93473 -20.14155,-21.34712 -36.62102,-39.50351 -36.62102,-40.34752 0,-0.84402 0.69545,-1.53457 1.54543,-1.53457 0.84998,0 35.10181,31.76967 76.11517,70.59927 61.72636,58.43971 220.17331,207.81835 484.95962,457.20417 45.73067,43.07091 49.19617,47.78212 45.13028,61.35289 -5.02316,16.76581 -22.57796,24.70087 -37.91763,17.1394 z m 49.43354,-78.06526 c -1.99471,-0.52954 -5.98811,-2.63868 -8.87426,-4.68695 -2.88612,-2.04828 -68.92672,-72.7425 -146.75689,-157.09826 C 553.87201,455.686 458.31132,352.15286 419.34508,309.9681 c -38.96622,-42.18477 -71.13989,-78.08953 -71.49703,-79.78835 -0.8028,-3.81872 -13.47709,-15.23118 108.5605,97.75226 55.36172,51.25434 158.6112,146.73374 229.44329,212.17641 70.83209,65.44268 129.78235,121.17426 131.00056,123.84793 5.22499,11.46764 0.88422,27.98981 -9.03208,34.37855 -4.82786,3.11044 -15.2395,4.88512 -20.487,3.49207 z m 9.33109,-102.54149 c -9.36235,-9.25343 -271.78112,-292.53181 -283.63604,-306.18224 -3.25928,-3.75292 -5.29932,-7.20502 -4.53343,-7.67132 1.34427,-0.81847 294.42319,269.77654 313.74578,289.67639 11.89973,12.25522 12.6309,18.25575 3.35474,27.53191 -9.56943,9.56943 -16.69014,8.74375 -28.93105,-3.35474 z M 728.918,429.89543 c -64.72868,-70.0789 -68.64973,-74.53051 -67.05355,-76.1267 1.14618,-1.14617 2.43126,-0.002 77.34596,68.83412 54.81224,50.36513 67.12336,62.64325 67.15377,66.97365 0.0192,2.74175 -7.34627,8.61352 -10.80477,8.61352 -2.3592,0 -24.8478,-23.04649 -66.64141,-68.29459 z"
       id="path4833"
       style="fill:#000000" />
  </g>
</svg>
