<?xml version="1.0" encoding="UTF-8" standalone="no"?>
<!-- Created with Inkscape (http://www.inkscape.org/) -->

<svg
   xmlns:dc="http://purl.org/dc/elements/1.1/"
   xmlns:cc="http://creativecommons.org/ns#"
   xmlns:rdf="http://www.w3.org/1999/02/22-rdf-syntax-ns#"
   xmlns:svg="http://www.w3.org/2000/svg"
   xmlns="http://www.w3.org/2000/svg"
   xmlns:sodipodi="http://sodipodi.sourceforge.net/DTD/sodipodi-0.dtd"
   xmlns:inkscape="http://www.inkscape.org/namespaces/inkscape"
   width="1000"
   height="1000"
   id="svg4955"
   version="1.1"
   inkscape:version="0.48.4 r9939"
   sodipodi:docname="heroku.svg">
  <defs
     id="defs5498" />
  <sodipodi:namedview
     inkscape:window-height="1056"
     inkscape:window-width="1920"
     inkscape:pageshadow="2"
     inkscape:pageopacity="0.0"
     borderopacity="1.0"
     bordercolor="#666666"
     pagecolor="#ffffff"
     id="base"
     showgrid="false"
     showguides="false"
     inkscape:guide-bbox="true"
     inkscape:zoom="0.53319984"
     inkscape:cx="202.86551"
     inkscape:cy="656.20275"
     inkscape:window-x="0"
     inkscape:window-y="24"
     inkscape:current-layer="g9397"
     inkscape:window-maximized="1">
    <sodipodi:guide
       orientation="0,1"
       position="189.44385,479.26189"
       id="guide7179" />
    <sodipodi:guide
       orientation="1,0"
       position="429.5717,650.94149"
       id="guide7232" />
    <sodipodi:guide
       orientation="0,1"
       position="423.85732,718.7686"
       id="guide7234" />
    <sodipodi:guide
       orientation="0,1"
       position="407.21111,603.48736"
       id="guide7236" />
    <sodipodi:guide
       orientation="1,0"
       position="330.68822,603.48736"
       id="guide7238" />
    <sodipodi:guide
       orientation="1,0"
       position="526.71602,603.48736"
       id="guide7240" />
    <sodipodi:guide
       orientation="0,1"
       position="429.5717,709.07902"
       id="guide7242" />
    <sodipodi:guide
       orientation="0,1"
       position="429.5717,618.89132"
       id="guide7244" />
    <sodipodi:guide
       orientation="1,0"
       position="421.62126,644.23332"
       id="guide7246" />
    <sodipodi:guide
       orientation="1,0"
       position="370.68882,649.20234"
       id="guide7248" />
    <sodipodi:guide
       orientation="1,0"
       position="377.397,646.46938"
       id="guide7250" />
    <sodipodi:guide
       orientation="0,1"
       position="401.99364,699.63788"
       id="guide7252" />
    <sodipodi:guide
       orientation="0,1"
       position="402.73899,694.42041"
       id="guide7254" />
    <sodipodi:guide
       orientation="0,1"
       position="412.67703,632.80457"
       id="guide7258" />
    <sodipodi:guide
       orientation="0,1"
       position="421.62126,626.0964"
       id="guide7260" />
    <sodipodi:guide
       orientation="1,0"
       position="469.5723,641.50036"
       id="guide7262" />
    <sodipodi:guide
       orientation="1,0"
       position="390.5649,658.14657"
       id="guide7264" />
    <sodipodi:guide
       orientation="1,0"
       position="384.10517,643.23951"
       id="guide7266" />
    <sodipodi:guide
       orientation="1,0"
       position="407.45956,632.80457"
       id="guide7268" />
    <sodipodi:guide
       orientation="0,1"
       position="562.25,301.75"
       id="guide9656" />
    <sodipodi:guide
       orientation="0,1"
       position="304.625,414.0625"
       id="guide9658" />
    <sodipodi:guide
       orientation="0,1"
       position="574.5,288.25"
       id="guide9660" />
    <sodipodi:guide
       orientation="0,1"
       position="274,595.875"
       id="guide9707" />
    <sodipodi:guide
       orientation="0,1"
       position="278.41012,505.92896"
       id="guide9709" />
  </sodipodi:namedview>
  <metadata
     id="metadata5594">
    <rdf:RDF>
      <cc:Work
         rdf:about="">
        <dc:format>image/svg+xml</dc:format>
        <dc:type
           rdf:resource="http://purl.org/dc/dcmitype/StillImage" />
        <dc:title></dc:title>
      </cc:Work>
    </rdf:RDF>
  </metadata>
  <g
     inkscape:groupmode="layer"
     id="layer13"
     inkscape:label="Layer#1">
    <g
       id="g9397"
       transform="translate(38.074989,310.11877)">
      <path
         style="fill:#000000"
         d="m 138.53652,578.64097 -65.574211,-0.59434 0,-389.06001 c 0,-310.63639 0.564857,-388.72632 2.802317,-387.40452 1.541274,0.91055 13.899491,8.88328 27.462704,17.71721 44.58809,29.04086 75.52098,49.08137 127.78565,82.788467 28.35944,18.28987 54.08471,34.965829 57.16726,37.057635 7.75036,5.259411 137.14249,89.319365 153.05004,99.429362 7.1138,4.521168 14.12159,8.220316 15.57287,8.220316 1.45127,0 14.29433,-7.418629 28.5401,-16.485828 14.24577,-9.067221 32.21888,-20.416604 39.94025,-25.2208511 7.72135,-4.80426956 22.34944,-13.9804896 32.50688,-20.3916299 10.15741,-6.411118 24.01662,-15.086934 30.79822,-19.279559 6.78161,-4.192624 49.65706,-31.142371 95.27877,-59.888312 45.62172,-28.74594 101.86422,-64.13104 124.98333,-78.63355 l 42.03476,-26.36819 0.001,389.35406 0.001,389.35406 -72.20696,-0.62252 c -53.90384,-0.46472 -72.6385,-1.31714 -73.90942,-3.36278 -0.93638,-1.50716 -1.74973,-63.13781 -1.80745,-136.95703 -0.0576,-73.81923 -0.57912,-134.98397 -1.15864,-135.92164 -0.57952,-0.93768 -1.10319,-54.28617 -1.1637,-118.55222 -0.0605,-64.26602 -0.74465,-116.847329 -1.52029,-116.847329 -1.48686,0 -5.74491,2.577975 -48.88169,29.594618 -14.79623,9.266901 -48.59217,30.415791 -75.10209,46.997521 -26.50991,16.58173 -64.10618,40.18009 -83.54724,52.44079 -64.06684,40.40438 -102.6275,64.62458 -188.83795,118.61032 -46.85474,29.34084 -85.94249,54.47711 -86.86167,55.85836 -0.91918,1.38127 -1.63651,48.83893 -1.59402,105.46151 l 0.0771,102.95011 -5.13154,0.17508 c -2.82234,0.0964 -34.63993,-0.0924 -70.70575,-0.41918 z"
         id="path10165"
         inkscape:connector-curvature="0"
         sodipodi:nodetypes="ccscssssssssssscccsssssssssssscccc" />
    </g>
  </g>
</svg>
