<?xml version="1.0" encoding="UTF-8" standalone="no"?>
<!-- Created with Inkscape (http://www.inkscape.org/) -->

<svg
   xmlns:sketch="http://www.bohemiancoding.com/sketch/ns"
   xmlns:dc="http://purl.org/dc/elements/1.1/"
   xmlns:cc="http://creativecommons.org/ns#"
   xmlns:rdf="http://www.w3.org/1999/02/22-rdf-syntax-ns#"
   xmlns:svg="http://www.w3.org/2000/svg"
   xmlns="http://www.w3.org/2000/svg"
   xmlns:sodipodi="http://sodipodi.sourceforge.net/DTD/sodipodi-0.dtd"
   xmlns:inkscape="http://www.inkscape.org/namespaces/inkscape"
   width="1000"
   height="1000"
   id="svg4955"
   version="1.1"
   inkscape:version="0.48.4 r9939"
   sodipodi:docname="mongodb.svg">
  <defs
     id="defs5498" />
  <sodipodi:namedview
     inkscape:window-height="1056"
     inkscape:window-width="1920"
     inkscape:pageshadow="2"
     inkscape:pageopacity="0.0"
     borderopacity="1.0"
     bordercolor="#666666"
     pagecolor="#ffffff"
     id="base"
     showgrid="false"
     showguides="false"
     inkscape:guide-bbox="true"
     inkscape:zoom="0.5"
     inkscape:cx="514.72073"
     inkscape:cy="372.99717"
     inkscape:window-x="0"
     inkscape:window-y="24"
     inkscape:current-layer="layer11"
     inkscape:window-maximized="1">
    <sodipodi:guide
       orientation="0,1"
       position="189.44385,479.26189"
       id="guide7179" />
    <sodipodi:guide
       orientation="1,0"
       position="429.5717,650.94149"
       id="guide7232" />
    <sodipodi:guide
       orientation="0,1"
       position="423.85732,718.7686"
       id="guide7234" />
    <sodipodi:guide
       orientation="0,1"
       position="407.21111,603.48736"
       id="guide7236" />
    <sodipodi:guide
       orientation="1,0"
       position="330.68822,603.48736"
       id="guide7238" />
    <sodipodi:guide
       orientation="1,0"
       position="526.71602,603.48736"
       id="guide7240" />
    <sodipodi:guide
       orientation="0,1"
       position="429.5717,709.07902"
       id="guide7242" />
    <sodipodi:guide
       orientation="0,1"
       position="429.5717,618.89132"
       id="guide7244" />
    <sodipodi:guide
       orientation="1,0"
       position="421.62126,644.23332"
       id="guide7246" />
    <sodipodi:guide
       orientation="1,0"
       position="370.68882,649.20234"
       id="guide7248" />
    <sodipodi:guide
       orientation="1,0"
       position="377.397,646.46938"
       id="guide7250" />
    <sodipodi:guide
       orientation="0,1"
       position="401.99364,699.63788"
       id="guide7252" />
    <sodipodi:guide
       orientation="0,1"
       position="402.73899,694.42041"
       id="guide7254" />
    <sodipodi:guide
       orientation="0,1"
       position="412.67703,632.80457"
       id="guide7258" />
    <sodipodi:guide
       orientation="0,1"
       position="421.62126,626.0964"
       id="guide7260" />
    <sodipodi:guide
       orientation="1,0"
       position="469.5723,641.50036"
       id="guide7262" />
    <sodipodi:guide
       orientation="1,0"
       position="390.5649,658.14657"
       id="guide7264" />
    <sodipodi:guide
       orientation="1,0"
       position="384.10517,643.23951"
       id="guide7266" />
    <sodipodi:guide
       orientation="1,0"
       position="407.45956,632.80457"
       id="guide7268" />
  </sodipodi:namedview>
  <metadata
     id="metadata5594">
    <rdf:RDF>
      <cc:Work
         rdf:about="">
        <dc:format>image/svg+xml</dc:format>
        <dc:type
           rdf:resource="http://purl.org/dc/dcmitype/StillImage" />
        <dc:title />
      </cc:Work>
    </rdf:RDF>
  </metadata>
  <g
     inkscape:groupmode="layer"
     id="layer11"
     inkscape:label="Layer"
     style="opacity:1">
    <g
       sketch:type="MSPage"
       id="Blog"
       style="fill:#000000;fill-opacity:1;stroke:none"
       transform="matrix(26.056139,0,0,26.056139,-1594.2927,-291.71248)">
      <g
         transform="translate(-199,-616)"
         sketch:type="MSArtboardGroup"
         id="Blog-Detail-B"
         style="fill:#000000;fill-opacity:1">
        <g
           transform="translate(198.0625,616)"
           sketch:type="MSLayerGroup"
           id="Author"
           style="fill:#000000;fill-opacity:1">
          <g
             sketch:type="MSShapeGroup"
             transform="translate(0.748752,0)"
             id="Default-Avatar"
             style="fill:#000000;fill-opacity:1">
            <path
               style="fill:#000000;fill-opacity:1"
               d="m 80.412296,14.384594 c -0.048,0.655 -0.07438,0.913113 -0.69738,1.577113 -0.964,0.752 -5.911842,4.897064 -6.315842,13.329064 -0.376,7.868 5.698981,12.55471 6.512981,13.14671 0.001,0.002 0.228175,0.116284 0.229175,0.118284 0.052,0.038 -0.08137,-15.852444 0.369635,-15.852444 0.237,0 0.541202,12.965482 0.675202,15.746481 -0.406,0.224 -0.677837,0.211963 -1.044837,0.105963 l 0.293244,3.58793 0.734343,0.241496 c 0,0 0.05415,-2.23721 0.01725,-3.932924 0.03851,0.02205 0.951375,-0.373064 1.700324,-1.138478 -0.0019,-0.002 -0.0016,-0.0039 0.0049,-0.0099 0,0.002 -6.4e-5,0.0031 0,0.0049 0.0017,-0.0017 0.0033,-0.0032 0.0049,-0.0049 2.017,-1.858 5.898947,-6.543262 4.585947,-14.211262 -1.685,-7.421 -5.663597,-9.858898 -6.091597,-10.790898 -0.47,-0.659001 -0.943803,-1.828465 -0.943803,-1.828465 l 0,0.01479 c -0.011,-0.043 -0.0225,-0.0775 -0.0345,-0.103498 z m 2.479023,26.924266 c -0.0017,0.0017 -0.0033,0.0032 -0.0049,0.0049 0.0019,0.002 0.0049,0.0025 0.0049,0.0025 -6e-4,-0.003 9.6e-5,-0.0047 0,-0.0074 z"
               id="Fill-2"
               inkscape:connector-curvature="0" />
          </g>
        </g>
      </g>
    </g>
  </g>
</svg>
