<?xml version="1.0" encoding="UTF-8" standalone="no"?>
<!-- Created with Inkscape (http://www.inkscape.org/) -->

<svg
   xmlns:dc="http://purl.org/dc/elements/1.1/"
   xmlns:cc="http://creativecommons.org/ns#"
   xmlns:rdf="http://www.w3.org/1999/02/22-rdf-syntax-ns#"
   xmlns:svg="http://www.w3.org/2000/svg"
   xmlns="http://www.w3.org/2000/svg"
   xmlns:sodipodi="http://sodipodi.sourceforge.net/DTD/sodipodi-0.dtd"
   xmlns:inkscape="http://www.inkscape.org/namespaces/inkscape"
   width="1000"
   height="1000"
   id="svg4955"
   version="1.1"
   inkscape:version="0.48.4 r9939"
   sodipodi:docname="php.svg">
  <defs
     id="defs5498" />
  <sodipodi:namedview
     inkscape:window-height="1056"
     inkscape:window-width="1920"
     inkscape:pageshadow="2"
     inkscape:pageopacity="0.0"
     borderopacity="1.0"
     bordercolor="#666666"
     pagecolor="#ffffff"
     id="base"
     showgrid="false"
     showguides="false"
     inkscape:guide-bbox="true"
     inkscape:zoom="0.70710678"
     inkscape:cx="283.36459"
     inkscape:cy="544.95588"
     inkscape:window-x="0"
     inkscape:window-y="24"
     inkscape:current-layer="layer11"
     inkscape:window-maximized="1">
    <sodipodi:guide
       orientation="0,1"
       position="189.44385,479.26189"
       id="guide7179" />
    <sodipodi:guide
       orientation="1,0"
       position="429.5717,650.94149"
       id="guide7232" />
    <sodipodi:guide
       orientation="0,1"
       position="423.85732,718.7686"
       id="guide7234" />
    <sodipodi:guide
       orientation="0,1"
       position="407.21111,603.48736"
       id="guide7236" />
    <sodipodi:guide
       orientation="1,0"
       position="330.68822,603.48736"
       id="guide7238" />
    <sodipodi:guide
       orientation="1,0"
       position="526.71602,603.48736"
       id="guide7240" />
    <sodipodi:guide
       orientation="0,1"
       position="429.5717,709.07902"
       id="guide7242" />
    <sodipodi:guide
       orientation="0,1"
       position="429.5717,618.89132"
       id="guide7244" />
    <sodipodi:guide
       orientation="1,0"
       position="421.62126,644.23332"
       id="guide7246" />
    <sodipodi:guide
       orientation="1,0"
       position="370.68882,649.20234"
       id="guide7248" />
    <sodipodi:guide
       orientation="1,0"
       position="377.397,646.46938"
       id="guide7250" />
    <sodipodi:guide
       orientation="0,1"
       position="401.99364,699.63788"
       id="guide7252" />
    <sodipodi:guide
       orientation="0,1"
       position="402.73899,694.42041"
       id="guide7254" />
    <sodipodi:guide
       orientation="0,1"
       position="412.67703,632.80457"
       id="guide7258" />
    <sodipodi:guide
       orientation="0,1"
       position="421.62126,626.0964"
       id="guide7260" />
    <sodipodi:guide
       orientation="1,0"
       position="469.5723,641.50036"
       id="guide7262" />
    <sodipodi:guide
       orientation="1,0"
       position="390.5649,658.14657"
       id="guide7264" />
    <sodipodi:guide
       orientation="1,0"
       position="384.10517,643.23951"
       id="guide7266" />
    <sodipodi:guide
       orientation="1,0"
       position="407.45956,632.80457"
       id="guide7268" />
  </sodipodi:namedview>
  <metadata
     id="metadata5594">
    <rdf:RDF>
      <cc:Work
         rdf:about="">
        <dc:format>image/svg+xml</dc:format>
        <dc:type
           rdf:resource="http://purl.org/dc/dcmitype/StillImage" />
        <dc:title></dc:title>
      </cc:Work>
    </rdf:RDF>
  </metadata>
  <g
     inkscape:groupmode="layer"
     id="layer11"
     inkscape:label="Layer"
     style="opacity:1">
    <path
       style="fill:#000000"
       d="m 870.62086,867.67795 c -20.23053,-18.07511 -38.89052,-30.44831 -66.43626,-44.05278 -39.48663,-19.50196 -58.63511,-31.68482 -76.01692,-48.36425 -15.23201,-14.61659 -31.35603,-41.25983 -28.35872,-46.86017 1.7262,-3.22549 1.71769,-3.22172 25.20784,-11.28818 23.90942,-8.21042 40.4813,-11.12991 70.64782,-12.44608 l 25.06439,-1.09358 -4.37429,-5.19114 c -2.40584,-2.85511 -13.53761,-11.30713 -24.73733,-18.78226 -11.19972,-7.47512 -29.399,-19.77396 -40.44274,-27.33076 -21.37153,-14.62363 -29.45908,-18.28843 -69.87676,-31.66405 -13.25249,-4.38569 -26.84328,-9.77484 -30.2017,-11.97588 -9.9776,-6.53896 -21.95094,-26.9382 -41.16753,-70.13791 -5.20044,-11.69081 -14.95058,-32.72238 -21.66694,-46.73682 -6.71652,-14.01443 -15.52838,-33.89317 -19.5822,-44.17496 -10.18144,-25.82403 -19.7597,-43.88185 -36.88818,-69.54511 -51.3885,-76.99414 -126.88621,-139.58978 -199.22505,-165.1787 -14.09848,-4.98715 -16.6704,-5.365 -61.9685,-9.1038 -11.16849,-0.92183 -13.04856,-1.59716 -20.07953,-7.21263 -13.875,-11.08169 -26.70191,-19.055 -44.70361,-27.78818 -38.43832,-18.64758 -54.26316,-20.14466 -60.24654,-5.6995 -4.03049,9.73044 1.86304,22.05172 24.96244,52.18756 29.01962,37.85951 32.31822,44.25872 48.68389,94.44607 16.04149,49.19321 24.68339,66.77117 42.0182,85.46651 12.1272,13.079 13.78533,17.46217 11.32901,29.94743 -1.06277,5.40194 -4.74163,17.4995 -8.17526,26.88347 -8.03642,21.96326 -10.66163,33.5971 -12.82152,56.81923 -2.66078,28.6076 1.15434,62.81071 9.83483,88.17084 8.40312,24.54981 21.08394,42.41231 29.27123,41.23217 3.16058,-0.45558 3.61751,-2.25191 6.1052,-24.0022 3.07813,-26.91239 7.42755,-45.74128 13.1696,-57.01187 4.13945,-8.12503 21.60032,-31.12054 23.63032,-31.12054 2.12123,0 4.43099,3.94713 6.2148,10.62049 2.90872,10.88165 20.53021,49.80159 32.64742,72.10717 26.70608,49.161 51.3843,84.66753 75.37373,108.44629 11.54814,11.44661 13.72091,14.22567 9.39835,12.0209 -3.09225,-1.57725 -11.04374,-8.05602 -17.66999,-14.39724 -6.62624,-6.34125 -17.61726,-16.01431 -24.42448,-21.49572 -15.19877,-12.23858 -38.23279,-35.15421 -47.89281,-47.64666 -3.9587,-5.11943 -12.74432,-20.22107 -19.5236,-33.55918 -6.92583,-13.62648 -12.66571,-23.19547 -13.10149,-21.84156 -1.22583,3.8086 -4.16398,20.33007 -6.57045,36.94633 -2.72942,18.84599 -6.09469,27.47252 -13.1254,33.64557 -15.47314,13.5856 -35.80879,8.73724 -53.04235,-12.64617 -8.99999,-11.16718 -21.90324,-37.22032 -26.31185,-53.12664 -7.54622,-27.22685 -10.32542,-69.6365 -6.36874,-97.18492 2.0749,-14.44655 13.7463,-62.64781 16.83583,-69.52968 3.52632,-7.85479 2.94686,-10.90589 -3.24771,-17.10046 -10.67065,-10.67065 -24.7882,-35.03852 -34.69723,-59.88986 -7.83028,-19.63791 -18.9208,-51.42302 -21.68901,-62.16007 -3.8373,-14.88372 -10.66209,-26.39229 -34.38089,-57.97607 -24.40685,-32.50001 -30.61121,-44.27972 -31.75706,-60.29464 -0.61163,-8.54804 -0.0815,-12.17823 2.69581,-18.45654 5.19074,-11.73452 10.68808,-18.01577 19.92561,-22.76694 11.63681,-5.98519 29.66967,-5.90937 50.07802,0.21058 18.69231,5.60535 52.34867,22.97048 65.4245,33.75605 5.6456,4.65675 11.67243,9.1988 13.39295,10.09343 1.72051,0.89463 11.80257,2.11435 22.40456,2.71048 20.91677,1.17613 48.78564,7.32779 69.38428,15.31559 21.3813,8.2913 69.99279,40.20015 103.9541,68.23599 20.77701,17.15187 52.87968,50.01441 69.93829,71.59364 15.51537,19.62702 40.95147,57.585 47.90172,71.48312 2.65098,5.301 9.32108,20.76362 14.82271,34.36138 18.1482,44.85572 63.07799,138.30342 69.66215,144.88761 2.15429,2.15416 6.70046,4.91071 10.10289,6.12564 22.09857,7.89093 58.01426,25.80684 76.85865,38.33971 34.03625,22.63644 74.50212,56.05929 86.31451,71.29145 14.09872,18.18053 13.45248,17.10605 11.47714,19.08146 -3.03683,3.0368 -29.63161,9.54533 -49.59323,12.13697 -10.60199,1.37646 -27.58927,4.58467 -37.74951,7.12934 -10.16024,2.54469 -19.79456,4.8432 -21.40944,5.1078 -2.62335,0.4298 -2.43107,1.17716 1.80218,7.01019 6.22305,8.57461 13.41409,14.12655 37.43868,28.90514 26.73919,16.44858 36.62426,24.73035 64.35923,53.92162 17.97712,18.92079 24.52112,26.97193 27.6214,33.98219 2.23461,5.05277 3.45802,9.18684 2.71861,9.18684 -0.73925,0 -4.85604,-3.13765 -9.14807,-6.97255 z M 294.57116,290.33621 c -3.12192,-6.84712 -9.01796,-16.42505 -13.10231,-21.2843 -4.08435,-4.85925 -8.12633,-9.69403 -8.98217,-10.74395 -1.78923,-2.19499 0.0604,-2.90695 11.63972,-4.48014 6.9039,-0.93797 8.33777,-0.52989 15.03325,4.27843 9.82721,7.05738 15.22506,17.47212 13.60801,26.25567 -1.67195,9.08186 -7.38083,18.4236 -11.25893,18.4236 -0.69375,0 -3.81565,-5.60219 -6.93757,-12.44931 z"
       id="path8031"
       inkscape:connector-curvature="0"
       sodipodi:nodetypes="csscsscsssssssssssssssssssssssssssssssssssssssssssssssssssssssscssscsscssssscssssssss" />
  </g>
</svg>
