<?xml version="1.0" encoding="UTF-8" standalone="no"?>
<!-- Created with Inkscape (http://www.inkscape.org/) -->

<svg
   xmlns:dc="http://purl.org/dc/elements/1.1/"
   xmlns:cc="http://creativecommons.org/ns#"
   xmlns:rdf="http://www.w3.org/1999/02/22-rdf-syntax-ns#"
   xmlns:svg="http://www.w3.org/2000/svg"
   xmlns="http://www.w3.org/2000/svg"
   version="1.1"
   width="1000"
   height="1000"
   id="svg2985">
  <defs
     id="defs5498" />
  <metadata
     id="metadata5594">
    <rdf:RDF>
      <cc:Work
         rdf:about="">
        <dc:format>image/svg+xml</dc:format>
        <dc:type
           rdf:resource="http://purl.org/dc/dcmitype/StillImage" />
        <dc:title></dc:title>
      </cc:Work>
    </rdf:RDF>
  </metadata>
  <g
     id="layer1">
    <path
       d="M 279.41641,861.18882 C 275.70808,854.52199 229.72387,773.55419 177.22931,681.2604 124.73476,588.96661 80.868616,511.71452 79.749012,509.58911 77.995008,506.25934 79.166121,503.15563 88.214018,487.15504 101.36475,463.89885 259.68392,176.36069 275.07578,147.77804 l 11.35596,-21.08803 225.4959,0 225.49588,0 11.94108,24.67748 c 9.9281,20.51746 107.20027,251.30004 107.20027,254.33745 0,0.5293 -35.00093,0.96235 -77.77984,0.96235 l -77.77983,0 -30.25933,-61.91805 -30.25934,-61.91805 -131.12546,0 -131.12546,0 -61.40341,111.05798 -61.40342,111.05797 60.60453,106.55258 60.60455,106.55257 123.91391,0.46088 123.91392,0.46087 22.72382,-46.65437 c 12.49812,-25.65992 22.72384,-46.97809 22.72384,-47.37372 0,-0.39565 -44.21757,-0.29552 -98.26126,0.22247 -87.99164,0.8434 -99.47586,0.6281 -109.88274,-2.05991 -23.19154,-5.99022 -42.64573,-21.96483 -53.49485,-43.92675 -6.3746,-12.90412 -6.67105,-14.31334 -6.63551,-31.54167 0.0346,-16.81059 0.45114,-18.88635 6.13841,-30.59714 11.60696,-23.90011 35.01956,-41.64753 60.43195,-45.80918 6.3725,-1.04358 98.3062,-1.73439 231.64852,-1.74067 l 221.08286,-0.0108 -14.03567,29.1643 c -7.71962,16.0404 -52.50454,106.6965 -99.52204,201.45805 l -85.48634,172.29371 -217.86892,0.45581 -217.8689,0.45582 -6.74245,-12.12154 z"
       id="path3003"
       style="fill:#000000" />
  </g>
</svg>
