<?xml version="1.0" encoding="UTF-8" standalone="no"?>
<!-- Created with Inkscape (http://www.inkscape.org/) -->

<svg
   xmlns:dc="http://purl.org/dc/elements/1.1/"
   xmlns:cc="http://creativecommons.org/ns#"
   xmlns:rdf="http://www.w3.org/1999/02/22-rdf-syntax-ns#"
   xmlns:svg="http://www.w3.org/2000/svg"
   xmlns="http://www.w3.org/2000/svg"
   xmlns:sodipodi="http://sodipodi.sourceforge.net/DTD/sodipodi-0.dtd"
   xmlns:inkscape="http://www.inkscape.org/namespaces/inkscape"
   width="1000"
   height="1000"
   id="svg4914"
   version="1.1"
   inkscape:version="0.48.4 r9939"
   sodipodi:docname="New document 44">
  <defs
     id="defs5498" />
  <sodipodi:namedview
     inkscape:window-height="1056"
     inkscape:window-width="1920"
     inkscape:pageshadow="2"
     inkscape:pageopacity="0.0"
     borderopacity="1.0"
     bordercolor="#666666"
     pagecolor="#ffffff"
     id="base"
     showgrid="false"
     showguides="true"
     inkscape:guide-bbox="true"
     inkscape:zoom="0.454"
     inkscape:cx="259.23424"
     inkscape:cy="431.55333"
     inkscape:window-x="0"
     inkscape:window-y="24"
     inkscape:current-layer="layer1"
     inkscape:window-maximized="1">
    <sodipodi:guide
       orientation="horizontal"
       position="200"
       id="guide5596" />
  </sodipodi:namedview>
  <metadata
     id="metadata5594">
    <rdf:RDF>
      <cc:Work
         rdf:about="">
        <dc:format>image/svg+xml</dc:format>
        <dc:type
           rdf:resource="http://purl.org/dc/dcmitype/StillImage" />
        <dc:title></dc:title>
      </cc:Work>
    </rdf:RDF>
  </metadata>
  <g
     inkscape:label="Layer 1"
     inkscape:groupmode="layer"
     id="layer1">
    <path
       style="fill:#000000"
       d="m 483.99426,853.47089 c -9.54261,-3.09187 -105.43937,-59.24374 -106.47303,-62.34474 -0.52177,-1.5653 16.94381,-10.00659 43.54569,-21.04608 4.90745,-2.03653 9.54418,0.1115 41.78693,19.35853 l 36.26699,21.64925 13.41249,-7.40363 c 7.37687,-4.07197 52.16248,-29.70769 99.52358,-56.96823 47.3611,-27.26052 100.02135,-57.54606 117.02277,-67.30119 17.00142,-9.75512 33.14725,-19.10414 35.87962,-20.77558 l 4.96795,-3.03901 0,-155.58012 0,-155.58013 -8.27991,-5.31436 c -4.55395,-2.9229 -31.13247,-18.45028 -59.06338,-34.50531 -27.93091,-16.05504 -63.20333,-36.41305 -78.38317,-45.24006 -80.44097,-46.77598 -121.2507,-69.56131 -124.58803,-69.56131 -2.04843,0 -43.66018,23.05889 -92.47058,51.24197 -48.81039,28.18308 -108.61797,62.71869 -132.90571,76.74581 l -44.15954,25.50383 -0.56681,154.73614 c -0.53208,145.25924 -0.32923,154.94104 3.31197,158.08153 7.04607,6.0771 73.0638,43.80003 82.44664,47.11048 20.07648,7.08338 40.49913,1.05358 48.71294,-14.38257 3.87454,-7.2814 4.09381,-15.99915 4.09381,-162.76058 0,-178.91099 -3.14855,-159.63847 26.0802,-159.63847 12.32168,0 18.30011,0.91753 20.09862,3.08459 1.9029,2.29287 2.39733,44.65567 1.92633,165.04626 l -0.63365,161.96168 -4.98561,12.31907 c -6.79834,16.79818 -18.07973,29.27349 -33.13116,36.63747 -10.71811,5.24388 -15.98325,6.29496 -35.07309,7.0016 -17.00074,0.62932 -25.3281,-0.091 -34.25133,-2.96266 -24.13091,-7.76585 -101.50316,-51.88015 -111.23433,-63.42097 -13.82693,-16.39829 -13.16204,-6.99801 -13.16204,-186.08444 l 0,-163.39029 6.12647,-12.4754 c 3.36955,-6.86146 9.33109,-14.89967 13.24786,-17.8627 6.08157,-4.60068 232.03401,-135.92087 266.19832,-154.71049 14.39108,-7.91478 34.4232,-10.1887 47.99994,-5.44866 17.02822,5.94506 272.78175,154.61781 282.72087,164.3492 16.70846,16.35928 16.29188,11.54101 16.29188,188.43435 0,173.53229 0.17245,171.31058 -14.56617,187.62452 -5.41803,5.99709 -35.25386,24.36096 -100.89034,62.09772 -51.25852,29.47035 -112.07549,64.4908 -135.14885,77.82323 -52.88153,30.55641 -61.69778,33.46904 -81.69514,26.98975 z M 529.25778,643.57263 C 499.50592,637.59705 477.72498,626.45319 462.32975,609.32998 449.94134,595.5511 442.58637,575.4875 443.5772,558.17493 l 0.67348,-11.76776 21.53861,-0.63208 c 24.2231,-0.71086 22.4028,-1.96377 28.16986,19.38924 3.74751,13.87548 17.47125,27.13601 33.10775,31.99022 17.92387,5.56435 71.22975,7.03477 92.31562,2.54649 20.79514,-4.4264 29.78315,-10.09777 35.84365,-22.6171 5.20374,-10.74947 5.0623,-24.44008 -0.31952,-30.92475 -8.61751,-10.38347 -32.66463,-16.97497 -83.98088,-23.01977 -46.61299,-5.4908 -63.01989,-9.06308 -80.30758,-17.48548 -15.35741,-7.48197 -25.97495,-17.13988 -32.7448,-29.78521 -4.0434,-7.55267 -4.7908,-12.56555 -4.7908,-32.13248 0,-19.87025 0.74121,-24.689 5.18616,-33.71556 11.46825,-23.28908 36.66539,-40.21598 70.18337,-47.14766 13.57214,-2.80676 24.99696,-3.32579 52.6759,-2.39305 37.43421,1.2615 50.66567,3.81987 70.86373,13.70186 26.2201,12.82831 45.59563,41.57329 45.98116,68.21637 l 0.19519,13.48191 -22.45321,0.62726 -22.4532,0.62727 -3.69655,-12.7157 c -5.05064,-17.37357 -17.46757,-29.74403 -35.3556,-35.22323 -10.17454,-3.11652 -20.26376,-4.02402 -44.1041,-3.96701 -27.6663,0.0662 -32.29431,0.64263 -44.08106,5.49087 -16.01355,6.58681 -23.26232,15.85208 -23.26232,29.73345 0,20.15474 10.60216,24.53113 88.2586,36.43151 91.62024,14.04026 115.56963,29.20318 118.71986,75.16434 1.64145,23.94816 -4.52503,43.82132 -18.37847,59.22968 -12.58328,13.99566 -38.80733,27.35937 -63.20422,32.20873 -20.98955,4.17211 -78.3062,4.22156 -98.90005,0.0852 z"
       id="path4934"
       inkscape:connector-curvature="0" />
  </g>
</svg>
