<?xml version="1.0" encoding="UTF-8" standalone="no"?>
<!-- Created with Inkscape (http://www.inkscape.org/) -->

<svg
   xmlns:dc="http://purl.org/dc/elements/1.1/"
   xmlns:cc="http://creativecommons.org/ns#"
   xmlns:rdf="http://www.w3.org/1999/02/22-rdf-syntax-ns#"
   xmlns:svg="http://www.w3.org/2000/svg"
   xmlns="http://www.w3.org/2000/svg"
   xmlns:sodipodi="http://sodipodi.sourceforge.net/DTD/sodipodi-0.dtd"
   xmlns:inkscape="http://www.inkscape.org/namespaces/inkscape"
   width="1000"
   height="1000"
   id="svg4955"
   version="1.1"
   inkscape:version="0.48.4 r9939"
   sodipodi:docname="mongodb.svg">
  <defs
     id="defs5498" />
  <sodipodi:namedview
     inkscape:window-height="1056"
     inkscape:window-width="1920"
     inkscape:pageshadow="2"
     inkscape:pageopacity="0.0"
     borderopacity="1.0"
     bordercolor="#666666"
     pagecolor="#ffffff"
     id="base"
     showgrid="false"
     showguides="false"
     inkscape:guide-bbox="true"
     inkscape:zoom="0.70710678"
     inkscape:cx="378.874"
     inkscape:cy="397.89912"
     inkscape:window-x="0"
     inkscape:window-y="24"
     inkscape:current-layer="layer11"
     inkscape:window-maximized="1">
    <sodipodi:guide
       orientation="0,1"
       position="189.44385,479.26189"
       id="guide7179" />
    <sodipodi:guide
       orientation="1,0"
       position="429.5717,650.94149"
       id="guide7232" />
    <sodipodi:guide
       orientation="0,1"
       position="423.85732,718.7686"
       id="guide7234" />
    <sodipodi:guide
       orientation="0,1"
       position="407.21111,603.48736"
       id="guide7236" />
    <sodipodi:guide
       orientation="1,0"
       position="330.68822,603.48736"
       id="guide7238" />
    <sodipodi:guide
       orientation="1,0"
       position="526.71602,603.48736"
       id="guide7240" />
    <sodipodi:guide
       orientation="0,1"
       position="429.5717,709.07902"
       id="guide7242" />
    <sodipodi:guide
       orientation="0,1"
       position="429.5717,618.89132"
       id="guide7244" />
    <sodipodi:guide
       orientation="1,0"
       position="421.62126,644.23332"
       id="guide7246" />
    <sodipodi:guide
       orientation="1,0"
       position="370.68882,649.20234"
       id="guide7248" />
    <sodipodi:guide
       orientation="1,0"
       position="377.397,646.46938"
       id="guide7250" />
    <sodipodi:guide
       orientation="0,1"
       position="401.99364,699.63788"
       id="guide7252" />
    <sodipodi:guide
       orientation="0,1"
       position="402.73899,694.42041"
       id="guide7254" />
    <sodipodi:guide
       orientation="0,1"
       position="412.67703,632.80457"
       id="guide7258" />
    <sodipodi:guide
       orientation="0,1"
       position="421.62126,626.0964"
       id="guide7260" />
    <sodipodi:guide
       orientation="1,0"
       position="469.5723,641.50036"
       id="guide7262" />
    <sodipodi:guide
       orientation="1,0"
       position="390.5649,658.14657"
       id="guide7264" />
    <sodipodi:guide
       orientation="1,0"
       position="384.10517,643.23951"
       id="guide7266" />
    <sodipodi:guide
       orientation="1,0"
       position="407.45956,632.80457"
       id="guide7268" />
  </sodipodi:namedview>
  <metadata
     id="metadata5594">
    <rdf:RDF>
      <cc:Work
         rdf:about="">
        <dc:format>image/svg+xml</dc:format>
        <dc:type
           rdf:resource="http://purl.org/dc/dcmitype/StillImage" />
        <dc:title></dc:title>
      </cc:Work>
    </rdf:RDF>
  </metadata>
  <g
     inkscape:groupmode="layer"
     id="layer11"
     inkscape:label="Layer"
     style="opacity:1">
    <path
       style="fill:#000000"
       d="M 105.63875,551.50102 C 94.009359,546.97774 81.595516,535.44894 75.928731,523.90922 71.967344,515.84231 71.307,512.49323 71.307,500.46914 c 0,-12.24712 0.615221,-15.24265 4.845048,-23.59056 5.65949,-11.16945 16.158818,-21.4488 27.047942,-26.4813 7.327,-3.38621 10.05086,-3.56634 53.92813,-3.56634 l 46.21137,0 9.07724,4.31218 c 10.93173,5.19318 20.2484,14.24078 26.15035,25.39514 3.83596,7.24972 4.3663,10.15641 4.3663,23.93088 0,13.76549 -0.53204,16.68589 -4.35979,23.93089 -6.00585,11.36761 -15.15755,20.2915 -26.04698,25.3986 -9.11902,4.27678 -9.51741,4.31142 -53.74808,4.67393 -41.29422,0.33847 -45.18987,0.12065 -53.13978,-2.97154 z m 96.51595,-17.28611 c 25.17879,-10.51777 30.27541,-43.28476 9.56141,-61.47188 -9.27397,-8.14266 -14.27849,-8.857 -58.01444,-8.28096 l -39.73542,0.52334 -6.87448,4.55271 c -10.356681,6.85884 -15.716788,16.05251 -16.496289,28.2945 -0.733224,11.51499 1.558233,18.55148 8.86265,27.21486 9.096259,10.78861 13.335969,11.65374 57.310399,11.69435 31.81158,0.0294 40.41303,-0.44951 45.38617,-2.52692 z m 54.823,-33.83154 0,-54.54917 52.40039,0.49837 52.4004,0.49837 6.60162,4.32454 c 12.27947,8.04395 17.32926,17.12385 17.32926,31.1592 0,20.73609 -15.14892,36.30893 -35.32057,36.30893 -4.97508,0 -9.39953,0.57267 -9.8321,1.27259 -0.43257,0.69992 8.06445,8.59541 18.88227,17.54551 10.81783,8.9501 19.66878,16.54696 19.66878,16.88187 0,0.33493 -6.12713,0.60701 -13.61585,0.60461 l -13.61585,-0.005 -29.93248,-25.98894 -29.93249,-25.98954 30.83773,-0.82521 c 34.6677,-0.92769 37.96902,-1.92436 42.52974,-12.83968 3.25863,-7.799 0.74678,-16.96084 -5.95925,-21.73595 -4.46798,-3.18148 -7.07944,-3.38371 -43.69436,-3.38371 l -38.94237,0 0,45.38617 0,45.38617 -9.90244,0 -9.90243,0 0,-54.54918 z m 133.95797,53.22322 c 0.60771,-1.46475 34.00475,-54.30943 53.89322,-85.27615 6.98024,-10.86838 14.54395,-20.72813 16.80826,-21.91056 4.37447,-2.28438 12.27306,-1.58275 15.87983,1.4106 1.19629,0.99283 10.05281,14.17104 19.68115,29.28491 9.62833,15.11387 24.50235,38.41813 33.05335,51.78723 8.55101,13.36912 15.5473,24.69502 15.5473,25.1687 0,0.47368 -5.01311,0.85319 -11.14024,0.84336 l -11.14024,-0.0179 -5.69076,-9.88456 -5.69075,-9.88456 -29.13369,0 -29.13368,0 -5.19791,-8.36171 c -2.85886,-4.59893 -5.19848,-8.498 -5.19915,-8.66463 -6.8e-4,-0.16662 12.06791,-0.30293 26.8191,-0.30293 24.1474,0 26.79921,-0.27753 26.60834,-2.78485 -0.25509,-3.35104 -26.74418,-45.90218 -28.57515,-45.90218 -1.36379,0 -10.229,13.52276 -38.12199,58.15028 l -17.26158,27.61777 -11.27777,0.0266 c -6.20279,0.0149 -11.03023,-0.57013 -10.72764,-1.29942 z M 578.8069,553.3892 c -8.47951,-2.58869 -18.48869,-8.69971 -24.65313,-15.05173 -9.86266,-10.16282 -13.85675,-19.93049 -14.63006,-35.77822 -0.60351,-12.36874 -0.2224,-14.53039 4.24505,-24.07712 5.81738,-12.43145 13.81115,-20.89641 25.60348,-27.11272 l 8.60945,-4.53847 45.0844,-0.51035 45.08441,-0.51036 -5.59456,8.76239 -5.59456,8.76238 -37.01423,0.8252 c -41.30164,0.9208 -42.48618,1.20934 -53.07381,12.92858 -12.08061,13.3718 -11.96216,33.50507 0.27701,47.08116 10.77564,11.95272 13.57608,12.53087 60.89366,12.57189 22.99567,0.02 41.55565,0.59326 41.24443,1.27405 -0.31124,0.68079 -2.78143,4.76556 -5.48934,9.07724 l -4.92348,7.83943 -37.97135,-0.14177 c -20.88424,-0.0781 -39.82806,-0.70879 -42.09737,-1.40158 z m 106.56908,-1.05015 c -2.2477,-2.24769 -2.59349,-9.50948 -2.59349,-54.46341 l 0,-51.8699 9.07723,0 9.07723,0 0,45.38617 0,45.38616 49.51219,0 c 27.2317,0 49.51218,0.37998 49.51218,0.84437 0,0.46441 -2.41371,4.53583 -5.36382,9.04759 l -5.36382,8.20321 -50.6321,0.0298 c -43.85508,0.0258 -50.97925,-0.31748 -53.2256,-2.56385 z M 832.7264,551.0205 c -14.33643,-5.89696 -21.97003,-12.96275 -29.65132,-27.44567 -3.37212,-6.35806 -3.9302,-9.68312 -3.87805,-23.10569 0.053,-13.62173 0.6268,-16.76584 4.37389,-23.96356 5.96305,-11.45425 18.40664,-22.63594 30.03025,-26.98489 8.99576,-3.36575 11.93621,-3.54492 51.36472,-3.12994 l 41.82272,0.44019 -5.23683,8.61293 -5.23682,8.61294 -35.12415,0.0516 c -38.21026,0.0562 -42.9164,0.92626 -52.08592,9.62908 -6.46195,6.13306 -11.79193,16.63236 -8.97624,17.68192 1.16224,0.43322 24.23386,0.97558 51.27027,1.20525 l 49.15712,0.41756 -4.97241,7.83942 -4.9724,7.83943 -45.14744,0 c -24.83111,0 -45.61077,0.46331 -46.17702,1.02956 -1.57196,1.57198 4.54674,12.44689 9.81812,17.44996 9.41427,8.93511 13.32224,9.57739 58.27495,9.57739 22.72225,0 41.31316,0.37997 41.31316,0.84437 0,0.4644 -2.41371,4.53582 -5.36381,9.04758 l -5.36382,8.20321 -37.95935,-0.0103 c -35.93124,-0.008 -38.4573,-0.21436 -47.27962,-3.84323 z"
       id="path8954"
       inkscape:connector-curvature="0"
       sodipodi:nodetypes="sssssscsssssssssscsssssccccssssssccccssssccccccccssssssscccccssssssccccssssscccccsssscscsscscccccssscscccssssscccsssscccsssssscccc" />
  </g>
</svg>
