<?xml version="1.0" encoding="UTF-8" standalone="no"?>
<!-- Created with Inkscape (http://www.inkscape.org/) -->

<svg
   xmlns:dc="http://purl.org/dc/elements/1.1/"
   xmlns:cc="http://creativecommons.org/ns#"
   xmlns:rdf="http://www.w3.org/1999/02/22-rdf-syntax-ns#"
   xmlns:svg="http://www.w3.org/2000/svg"
   xmlns="http://www.w3.org/2000/svg"
   xmlns:sodipodi="http://sodipodi.sourceforge.net/DTD/sodipodi-0.dtd"
   xmlns:inkscape="http://www.inkscape.org/namespaces/inkscape"
   width="1000"
   height="1000"
   id="svg4955"
   version="1.1"
   inkscape:version="0.48.4 r9939"
   sodipodi:docname="cuba.svg">
  <defs
     id="defs5498" />
  <sodipodi:namedview
     inkscape:window-height="1056"
     inkscape:window-width="1920"
     inkscape:pageshadow="2"
     inkscape:pageopacity="0.0"
     borderopacity="1.0"
     bordercolor="#666666"
     pagecolor="#ffffff"
     id="base"
     showgrid="false"
     showguides="false"
     inkscape:guide-bbox="true"
     inkscape:zoom="0.50311741"
     inkscape:cx="-85.107974"
     inkscape:cy="308.66425"
     inkscape:window-x="0"
     inkscape:window-y="24"
     inkscape:current-layer="layer11"
     inkscape:window-maximized="1">
    <sodipodi:guide
       orientation="0,1"
       position="189.44385,479.26189"
       id="guide7179" />
    <sodipodi:guide
       orientation="1,0"
       position="429.5717,650.94149"
       id="guide7232" />
    <sodipodi:guide
       orientation="0,1"
       position="423.85732,718.7686"
       id="guide7234" />
    <sodipodi:guide
       orientation="0,1"
       position="407.21111,603.48736"
       id="guide7236" />
    <sodipodi:guide
       orientation="1,0"
       position="330.68822,603.48736"
       id="guide7238" />
    <sodipodi:guide
       orientation="1,0"
       position="526.71602,603.48736"
       id="guide7240" />
    <sodipodi:guide
       orientation="0,1"
       position="429.5717,709.07902"
       id="guide7242" />
    <sodipodi:guide
       orientation="0,1"
       position="429.5717,618.89132"
       id="guide7244" />
    <sodipodi:guide
       orientation="1,0"
       position="421.62126,644.23332"
       id="guide7246" />
    <sodipodi:guide
       orientation="1,0"
       position="370.68882,649.20234"
       id="guide7248" />
    <sodipodi:guide
       orientation="1,0"
       position="377.397,646.46938"
       id="guide7250" />
    <sodipodi:guide
       orientation="0,1"
       position="401.99364,699.63788"
       id="guide7252" />
    <sodipodi:guide
       orientation="0,1"
       position="402.73899,694.42041"
       id="guide7254" />
    <sodipodi:guide
       orientation="0,1"
       position="412.67703,632.80457"
       id="guide7258" />
    <sodipodi:guide
       orientation="0,1"
       position="421.62126,626.0964"
       id="guide7260" />
    <sodipodi:guide
       orientation="1,0"
       position="469.5723,641.50036"
       id="guide7262" />
    <sodipodi:guide
       orientation="1,0"
       position="390.5649,658.14657"
       id="guide7264" />
    <sodipodi:guide
       orientation="1,0"
       position="384.10517,643.23951"
       id="guide7266" />
    <sodipodi:guide
       orientation="1,0"
       position="407.45956,632.80457"
       id="guide7268" />
  </sodipodi:namedview>
  <metadata
     id="metadata5594">
    <rdf:RDF>
      <cc:Work
         rdf:about="">
        <dc:format>image/svg+xml</dc:format>
        <dc:type
           rdf:resource="http://purl.org/dc/dcmitype/StillImage" />
        <dc:title></dc:title>
      </cc:Work>
    </rdf:RDF>
  </metadata>
  <g
     inkscape:groupmode="layer"
     id="layer11"
     inkscape:label="Layer">
    <path
       style="fill:#000000"
       d="m 460.0053,853.36115 c 3.48337,-31.39058 10.87873,-60.09286 16.43411,-63.78282 5.55539,-3.68996 33.43574,-6.77195 61.95633,-6.84885 56.67501,-0.15283 80.46516,14.13489 80.68027,48.45442 0.0685,10.94187 2.52315,28.83669 5.45456,39.76627 4.53585,16.91158 0.096,21.32527 -29.80309,29.62745 -19.32309,5.36552 -58.96551,9.77839 -88.09425,9.80641 l -52.96136,0.0509 6.33343,-57.07381 z M 344.015,879.80502 C 279.87019,853.41827 250.48947,832.56044 197.16975,775.55733 21.162418,587.39127 67.171331,281.00993 291.70469,146.03268 c 125.21955,-75.275176 292.2435,-75.291452 420.64871,-0.041 48.74093,28.56409 126.82734,110.1157 151.14096,157.84806 65.81077,129.19934 62.08247,285.21571 -9.74466,407.77942 -28.99325,49.47326 -110.32111,126.92279 -159.76719,152.14831 -46.77273,23.86167 -44.45609,24.05223 -51.55729,-4.24126 -4.59934,-18.32522 0.44472,-30.7412 22.86032,-56.27119 25.26059,-28.77022 28.21317,-37.62504 24.25508,-72.74123 -2.47871,-21.99085 -11.80868,-48.05194 -20.73328,-57.91352 -13.47524,-14.88998 -14.43254,-21.86757 -5.64586,-41.15224 5.81939,-12.77215 10.5807,-46.0641 10.5807,-73.98209 0,-40.48505 4.50924,-56.11893 22.27649,-77.23411 43.29549,-51.45374 38.31645,-152.16789 -10.7267,-216.9755 -57.606,-76.12288 -213.1512,-104.21165 -308.57734,-55.7237 -58.22552,29.58557 -90.25355,85.08029 -82.05248,142.17172 4.02545,28.02295 1.69935,40.45156 -9.27547,49.55984 -41.89644,34.77096 -51.32902,99.08997 -23.5135,160.33414 15.85892,34.91818 77.57591,104.27781 92.78757,104.27781 3.77412,0 4.73409,15.86505 2.13326,35.25568 -5.98599,44.62877 17.46058,96.39456 53.23105,117.52469 21.5985,12.75855 26.29011,21.69708 26.29011,50.0883 0,29.81462 -2.82037,34.52859 -20.54659,34.34159 -11.30061,-0.1192 -43.58972,-9.69583 -71.75358,-21.28137 z m 56.50444,-102.92541 c -42.8885,-54.52388 -9.0643,-107.22535 75.60782,-117.80443 97.89268,-12.23088 181.46662,12.12905 192.50539,56.11103 10.50393,41.85099 -29.97365,108.13525 -43.88943,71.87133 -7.1183,-18.54995 -76.2065,-34.33291 -120.93046,-27.62615 -21.34923,3.20151 -49.05009,13.87047 -61.55747,23.70878 l -22.74072,17.88785 -18.99513,-24.14841 z M 342.76296,619.03946 c -41.14308,-36.1241 -61.68855,-79.62358 -61.68855,-130.60881 0,-70.05852 58.13171,-105.30103 99.84244,-60.52979 10.10222,10.84344 24.81462,39.12535 32.69424,62.84868 28.94812,87.15455 65.09737,95.49088 213.58323,49.2541 21.30534,-6.63423 21.78838,-5.69654 16.6811,32.38116 -7.27639,54.24955 -19.91074,63.9301 -72.5852,55.6155 -39.91066,-6.29986 -98.67786,-1.65983 -167.90167,13.25682 -23.51958,5.06808 -33.8683,1.27555 -60.62559,-22.21766 z M 475.79114,500.00856 C 459.21857,489.90349 439.19388,465.44602 429.08956,442.96891 407.69012,395.36569 369.61783,358.133 350.0276,365.65047 c -11.24944,4.31682 -14.12059,-1.54978 -13.95929,-28.52309 0.38582,-64.52514 55.14293,-102.47727 147.73536,-102.3953 77.41937,0.0685 121.29134,13.63723 160.61535,49.67496 30.01703,27.50856 33.19986,35.23035 36.61247,88.8241 3.42203,53.742 1.57384,61.26779 -21.89609,89.16022 -46.43166,55.18089 -127.32114,71.77719 -183.34426,37.6172 z"
       id="path7673"
       inkscape:connector-curvature="0" />
  </g>
</svg>
