<?xml version="1.0" encoding="UTF-8" standalone="no"?>
<!-- Created with Inkscape (http://www.inkscape.org/) -->

<svg
   xmlns:dc="http://purl.org/dc/elements/1.1/"
   xmlns:cc="http://creativecommons.org/ns#"
   xmlns:rdf="http://www.w3.org/1999/02/22-rdf-syntax-ns#"
   xmlns:svg="http://www.w3.org/2000/svg"
   xmlns="http://www.w3.org/2000/svg"
   xmlns:sodipodi="http://sodipodi.sourceforge.net/DTD/sodipodi-0.dtd"
   xmlns:inkscape="http://www.inkscape.org/namespaces/inkscape"
   width="1000"
   height="1000"
   id="svg4955"
   version="1.1"
   inkscape:version="0.48.4 r9939"
   sodipodi:docname="tornado.svg">
  <defs
     id="defs5498" />
  <sodipodi:namedview
     inkscape:window-height="1056"
     inkscape:window-width="1920"
     inkscape:pageshadow="2"
     inkscape:pageopacity="0.0"
     borderopacity="1.0"
     bordercolor="#666666"
     pagecolor="#ffffff"
     id="base"
     showgrid="false"
     showguides="true"
     inkscape:guide-bbox="true"
     inkscape:zoom="0.64205296"
     inkscape:cx="441.97551"
     inkscape:cy="460.6464"
     inkscape:window-x="0"
     inkscape:window-y="24"
     inkscape:current-layer="layer1"
     inkscape:window-maximized="1">
    <sodipodi:guide
       orientation="horizontal"
       position="200"
       id="guide5596" />
  </sodipodi:namedview>
  <metadata
     id="metadata5594">
    <rdf:RDF>
      <cc:Work
         rdf:about="">
        <dc:format>image/svg+xml</dc:format>
        <dc:type
           rdf:resource="http://purl.org/dc/dcmitype/StillImage" />
        <dc:title></dc:title>
      </cc:Work>
    </rdf:RDF>
  </metadata>
  <g
     inkscape:label="Layer 1"
     inkscape:groupmode="layer"
     id="layer1">
    <path
       style="fill:#000000"
       d="m 479.15793,872.72607 c -22.77115,-31.80535 -41.40209,-60.38665 -41.40209,-63.51416 0,-11.79743 53.67063,-119.48357 59.55044,-119.48357 3.38181,0 6.14876,3.28507 6.14876,7.29992 0,4.01509 4.54476,7.29993 10.09945,7.29993 7.22655,0 10.93705,13.15398 13.04388,46.24113 2.24162,35.20388 7.23614,51.6601 20.92517,68.94519 19.25392,24.31189 28.86251,29.07185 29.0424,14.38706 0.0612,-5.01868 2.91052,-13.5408 6.3312,-18.93817 8.96239,-14.14133 54.93881,9.76169 48.92422,25.43545 -2.31852,6.04178 -0.45291,18.01556 4.14579,26.60822 8.18147,15.2874 7.96585,15.36421 -10.02832,3.57396 l -18.38958,-12.0492 3.63672,34.22186 3.63672,34.22187 -22.09161,-20.7291 c -19.0633,-17.88748 -24.28043,-19.55751 -38.05926,-12.18333 -18.17252,9.7255 -16.34346,10.77457 -31.71153,-18.18705 -10.22583,-19.27093 -11.65588,-19.98516 -11.91305,-5.95011 -0.16082,8.77226 3.08457,24.83144 7.21186,35.687 13.18166,34.67042 3.34155,26.39428 -39.10117,-32.8869 z m -123.77227,43.29948 c -15.03294,-36.90129 -27.1285,-96.07758 -27.1285,-132.72317 0,-23.36119 -2.46372,-42.45229 -5.47496,-42.42468 -3.01121,0.0301 -13.33995,11.59834 -22.9528,25.71322 -21.95129,32.23184 -25.87574,28.95327 -12.09523,-10.10489 19.51466,-55.31042 53.0948,-94.51245 117.90229,-137.64092 l 61.60671,-40.99842 -60.36811,-19.99767 c -52.33819,-17.33758 -56.96961,-20.16038 -34.81844,-21.22127 14.05234,-0.67305 32.11962,-4.04686 40.14952,-7.49745 12.56386,-5.39887 11.54587,-6.3491 -7.2999,-6.81411 -20.912,-0.5161 -69.34917,-24.34858 -69.34917,-34.12195 0,-2.55809 4.1062,-1.2744 9.12489,2.85266 5.01868,4.12706 28.83465,13.17705 52.92436,20.11109 24.0897,6.93403 45.44194,14.99248 47.44941,17.90764 3.81932,5.5461 182.62048,24.27505 187.27865,19.61689 7.56077,-7.56079 -153.42763,-72.87806 -247.49996,-100.41731 l -107.67076,-31.52013 -66.0796,-57.79526 c -36.34378,-31.78738 -64.87094,-59.00388 -63.3937,-60.48113 1.47725,-1.47725 13.63339,0.45377 27.01363,4.2912 l 24.32771,6.97708 -15.53311,-16.53425 C 161.4704,269.7548 102.11246,183.44852 105.60923,179.95176 c 1.60566,-1.60567 19.79127,7.46193 40.41242,20.15026 42.52646,26.1668 42.75751,26.83616 -20.72973,-60.05691 C 99.477465,104.71363 79.590684,74.571868 81.099129,73.063432 c 1.508433,-1.508437 86.479461,40.928918 188.824531,94.305218 345.29812,180.08424 312.89966,159.83213 385.93229,241.24464 35.9831,40.11185 62.2324,74.90307 58.33176,77.3138 -3.90062,2.41072 -6.1005,25.41589 -4.88857,51.12259 2.14245,45.44581 2.80956,46.86055 24.10311,51.11288 23.98473,4.78978 19.41726,8.07752 -29.19963,21.01842 -16.86761,4.48981 -45.80447,22.55983 -68.5163,42.7861 -35.55394,31.66263 -38.4985,36.54232 -30.76778,50.98716 11.22493,20.97414 21.3856,20.21049 29.92462,-2.24899 6.88791,-18.11649 7.07832,-18.15107 32.66893,-5.94778 24.70809,11.78234 34.02788,24.17056 18.18394,24.17056 -5.20908,0 -5.20908,4.38683 0,14.11999 11.81616,22.07868 8.95314,25.88447 -8.07644,10.73606 l -15.63318,-13.90627 3.78659,34.67459 c 4.28858,39.27117 -1.49644,43.33081 -21.87734,15.35237 l -14.07522,-19.32197 -35.22098,12.00093 c -19.37154,6.60054 -36.38666,10.83537 -37.81138,9.41061 -6.53025,-6.53023 -29.8398,-81.63855 -26.8417,-86.4897 1.85511,-3.0015 34.4305,-25.57677 72.38977,-50.16688 37.95927,-24.59011 69.01687,-47.20043 69.01687,-50.24494 0,-3.04451 -20.34787,-7.38059 -45.2175,-9.63568 -43.96911,-3.98698 -46.53878,-3.22722 -93.07388,27.519 -26.32102,17.39049 -56.93457,39.31047 -68.03015,48.71086 -24.29002,20.57874 -91.44801,174.77542 -99.64556,228.78894 -3.09744,20.40911 -7.50601,31.67237 -10.00027,25.54961 z m -51.46156,-19.4663 c -2.67662,-2.67665 -4.7667,-18.2801 -4.64462,-34.67459 0.24595,-33.02034 9.22662,-24.58617 16.84134,15.81647 4.17984,22.17753 -0.94829,30.10653 -12.19672,18.85812 z M 262.85462,703.77568 c -0.31287,-12.13181 33.63349,-48.24972 39.67273,-42.2105 1.94009,1.94013 -6.12587,14.81913 -17.92432,28.62005 -14.08852,16.47988 -21.55356,21.1447 -21.74841,13.59045 z m 614.72089,-69.14961 c 0,-23.62199 -13.74558,-33.87452 -84.97812,-63.38324 -51.17443,-21.19953 -55.29245,-24.27044 -36.89703,-27.51556 l 20.70634,-3.65279 -21.50219,-10.23871 -21.50226,-10.23879 29.19966,-6.60817 c 21.5224,-4.87075 41.12704,-3.42284 74.56428,5.50697 40.83536,10.90556 47.21269,15.26857 63.87424,43.69932 27.91685,47.63654 22.55972,91.03361 -11.23754,91.03361 -8.23782,0 -12.22738,-6.06962 -12.22738,-18.60264 z"
       id="path5933"
       inkscape:connector-curvature="0" />
  </g>
</svg>
