<?xml version="1.0" encoding="UTF-8" standalone="no"?>
<!-- Created with Inkscape (http://www.inkscape.org/) -->

<svg
   xmlns:dc="http://purl.org/dc/elements/1.1/"
   xmlns:cc="http://creativecommons.org/ns#"
   xmlns:rdf="http://www.w3.org/1999/02/22-rdf-syntax-ns#"
   xmlns:svg="http://www.w3.org/2000/svg"
   xmlns="http://www.w3.org/2000/svg"
   xmlns:sodipodi="http://sodipodi.sourceforge.net/DTD/sodipodi-0.dtd"
   xmlns:inkscape="http://www.inkscape.org/namespaces/inkscape"
   width="1000"
   height="1000"
   id="svg4955"
   version="1.1"
   inkscape:version="0.48.4 r9939"
   sodipodi:docname="vaadin.svg">
  <defs
     id="defs5498" />
  <sodipodi:namedview
     inkscape:window-height="1056"
     inkscape:window-width="1920"
     inkscape:pageshadow="2"
     inkscape:pageopacity="0.0"
     borderopacity="1.0"
     bordercolor="#666666"
     pagecolor="#ffffff"
     id="base"
     showgrid="false"
     showguides="false"
     inkscape:guide-bbox="true"
     inkscape:zoom="0.50311741"
     inkscape:cx="-133.31613"
     inkscape:cy="388.95822"
     inkscape:window-x="0"
     inkscape:window-y="24"
     inkscape:current-layer="layer11"
     inkscape:window-maximized="1">
    <sodipodi:guide
       orientation="0,1"
       position="189.44385,479.26189"
       id="guide7179" />
    <sodipodi:guide
       orientation="1,0"
       position="429.5717,650.94149"
       id="guide7232" />
    <sodipodi:guide
       orientation="0,1"
       position="423.85732,718.7686"
       id="guide7234" />
    <sodipodi:guide
       orientation="0,1"
       position="407.21111,603.48736"
       id="guide7236" />
    <sodipodi:guide
       orientation="1,0"
       position="330.68822,603.48736"
       id="guide7238" />
    <sodipodi:guide
       orientation="1,0"
       position="526.71602,603.48736"
       id="guide7240" />
    <sodipodi:guide
       orientation="0,1"
       position="429.5717,709.07902"
       id="guide7242" />
    <sodipodi:guide
       orientation="0,1"
       position="429.5717,618.89132"
       id="guide7244" />
    <sodipodi:guide
       orientation="1,0"
       position="421.62126,644.23332"
       id="guide7246" />
    <sodipodi:guide
       orientation="1,0"
       position="370.68882,649.20234"
       id="guide7248" />
    <sodipodi:guide
       orientation="1,0"
       position="377.397,646.46938"
       id="guide7250" />
    <sodipodi:guide
       orientation="0,1"
       position="401.99364,699.63788"
       id="guide7252" />
    <sodipodi:guide
       orientation="0,1"
       position="402.73899,694.42041"
       id="guide7254" />
    <sodipodi:guide
       orientation="0,1"
       position="412.67703,632.80457"
       id="guide7258" />
    <sodipodi:guide
       orientation="0,1"
       position="421.62126,626.0964"
       id="guide7260" />
    <sodipodi:guide
       orientation="1,0"
       position="469.5723,641.50036"
       id="guide7262" />
    <sodipodi:guide
       orientation="1,0"
       position="390.5649,658.14657"
       id="guide7264" />
    <sodipodi:guide
       orientation="1,0"
       position="384.10517,643.23951"
       id="guide7266" />
    <sodipodi:guide
       orientation="1,0"
       position="407.45956,632.80457"
       id="guide7268" />
  </sodipodi:namedview>
  <metadata
     id="metadata5594">
    <rdf:RDF>
      <cc:Work
         rdf:about="">
        <dc:format>image/svg+xml</dc:format>
        <dc:type
           rdf:resource="http://purl.org/dc/dcmitype/StillImage" />
        <dc:title></dc:title>
      </cc:Work>
    </rdf:RDF>
  </metadata>
  <g
     inkscape:groupmode="layer"
     id="layer11"
     inkscape:label="Layer"
     style="opacity:1">
    <path
       style="fill:#000000"
       d="m 638.00909,802.84896 c -10.97286,-2.15242 -25.06272,-8.02813 -34.52036,-14.39552 -2.50781,-1.6884 -10.95696,-9.4932 -18.77576,-17.34399 -20.32615,-20.40914 -37.96484,-31.81162 -57.45799,-37.14362 l -7.35999,-2.01319 16.71875,0.48547 c 25.58333,0.74285 44.46143,4.96068 59.44497,13.28144 9.6912,5.38179 21.57489,17.62503 31.4427,32.39415 8.04283,12.03753 13.9942,18.56802 20.33456,22.31339 1.80177,1.0643 3.27586,2.29274 3.27586,2.72988 0,1.01011 -7.25219,0.83964 -13.10274,-0.30801 z m -48.01604,-79.56743 c -6.42861,-2.69606 -21.1329,-6.54514 -33.11417,-8.66814 -4.83171,-0.85617 -15.16441,-1.31219 -28.3712,-1.25217 -17.54527,0.0797 -24.15576,0.58321 -42.55682,3.24123 -52.74838,7.61946 -74.57034,6.90534 -106.73521,-3.49287 -52.5514,-16.98873 -98.70656,-50.43577 -135.07863,-97.88678 -4.18046,-5.45384 -7.44734,-10.37661 -7.25971,-10.93948 0.18761,-0.56287 1.93199,0.16137 3.87638,1.60942 14.19184,10.56916 43.54245,25.52444 62.59492,31.89455 19.59401,6.55118 28.80104,8.20679 49.03298,8.81714 25.24443,0.76156 33.84469,-0.78162 63.6545,-11.42177 13.20887,-4.7147 25.7267,-5.74307 37.61911,-3.0905 7.74788,1.72815 18.11006,5.98452 18.11006,7.43889 0,0.45843 -4.27788,1.56125 -9.50635,2.45072 -17.20375,2.92674 -26.97727,9.24613 -26.96425,17.43465 0.008,5.21913 2.46321,9.07251 8.23701,12.92934 8.9401,5.97188 31.69487,11.02742 49.64199,11.02921 35.00744,0.003 67.76981,9.21427 87.84507,24.69674 9.42056,7.26526 19.00567,18.16304 15.63051,17.77094 -0.41797,-0.0485 -3.41326,-1.20105 -6.65619,-2.56112 z m 24.33784,-93.23826 c -0.34745,-0.34742 2.99671,-1.88807 7.43153,-3.42369 9.45734,-3.27478 19.75042,-9.17615 28.59565,-16.39482 3.47963,-2.83979 19.09372,-18.00769 34.69789,-33.70643 29.48944,-29.66818 37.22779,-36.13926 52.70681,-44.07494 18.2432,-9.35282 35.09195,-12.80526 58.16017,-11.91742 16.51357,0.63558 29.18243,3.31155 40.62666,8.58131 6.2055,2.8575 15.78483,9.13474 15.02813,9.84778 -0.1911,0.18012 -3.53931,-0.48742 -7.44035,-1.48341 -10.01716,-2.55753 -23.09021,-3.4699 -30.39772,-2.12145 -11.1125,2.0506 -16.02832,5.32568 -30.39773,20.25205 -28.68045,29.79216 -36.53573,37.18395 -46.67722,43.92356 -23.49927,15.6165 -50.78801,24.75099 -85.28984,28.54948 -15.83417,1.74327 -36.18748,2.82455 -37.04398,1.96798 z m -268.20956,-7.00288 c -0.83594,-0.15662 -5.62358,-0.83904 -10.63921,-1.51652 -18.28265,-2.46948 -43.18818,-10.61512 -63.22638,-20.6789 -32.37964,-16.26203 -62.35115,-45.03012 -79.92259,-76.71352 -8.78196,-15.83491 -17.25647,-40.32361 -21.37297,-61.76117 -3.08833,-16.08316 -4.11855,-28.11266 -5.19689,-60.68174 -1.00788,-30.44095 -2.50079,-45.50778 -6.22019,-62.77543 -12.99254,-60.31916 -46.12546,-92.82662 -92.792018,-91.04036 -6.289056,0.24073 -11.434651,0.15604 -11.434651,-0.1882 0,-1.28761 20.17496,-13.97624 30.910767,-19.4407 38.403562,-19.54721 82.952552,-30.29803 132.223682,-31.909 65.55044,-2.14323 114.81884,17.56004 165.02369,65.9958 12.46072,12.02164 27.66745,28.93968 53.3111,59.31055 27.74506,32.85965 43.56684,50.07764 57.46701,62.53824 40.52888,36.33145 74.96809,51.6804 124.68823,55.57127 4.31901,0.33798 7.85274,0.96812 7.85274,1.40032 0,0.94125 -13.31633,7.11693 -25.48059,11.81701 -19.51939,7.54201 -32.04741,9.73928 -48.11666,8.43912 -13.79996,-1.11654 -24.34128,-3.79274 -35.45692,-9.00173 -10.69665,-5.01259 -17.93496,-10.13906 -32.29525,-22.87279 -12.74505,-11.30146 -21.67875,-17.4129 -30.39772,-20.79483 -5.06776,-1.96569 -8.01881,-2.36538 -17.73201,-2.40162 -10.73587,-0.04 -12.15276,0.18581 -18.0126,2.87134 -10.90795,4.99905 -16.25418,13.34577 -17.1776,26.81823 -0.67046,9.78178 1.88624,19.71964 8.81361,34.25847 22.38172,46.97357 68.19616,80.69246 126.18245,92.86874 18.67272,3.921 37.32274,5.72046 59.30211,5.72183 26.09969,0.002 41.99233,-2.0239 59.50233,-7.5836 4.96801,-1.57744 7.34612,-1.94786 7.34612,-1.14429 0,0.65352 -2.84979,3.96117 -6.33286,7.35034 -33.39646,32.49599 -76.62689,52.20702 -120.60175,54.98867 -45.83471,2.89928 -71.28214,-13.11668 -123.84662,-77.94593 -41.96068,-51.75129 -60.19355,-65.84388 -85.18821,-65.84388 -27.94421,0 -44.00212,14.37508 -44.00212,39.39082 0,31.69843 30.88522,73.94208 66.37297,90.78247 8.65872,4.10892 22.66935,8.37249 30.56092,9.29999 11.63924,1.36796 6.03167,2.9275 -14.11841,3.92653 -6.25946,0.31034 -12.9767,0.71387 -14.92722,0.89673 -1.95053,0.18287 -4.23035,0.20435 -5.06629,0.0477 z M 191.5982,244.52827 c 2.44333,-0.61524 6.3112,-2.71821 8.59526,-4.67329 4.39297,-3.76021 9.87438,-13.15904 8.45764,-14.50208 -1.71097,-1.62198 -47.22916,4.0766 -49.41844,6.18686 -0.5908,0.56948 0.18323,2.11211 2.02652,4.03885 7.90789,8.26584 19.48824,11.68192 30.33902,8.94966 z m 700.88028,375.4918 c -12.89522,-2.80013 -18.67687,-6.54672 -37.91954,-24.57225 -15.54955,-14.56605 -24.89199,-19.38485 -41.65775,-21.48711 -4.52521,-0.56741 -8.3536,-1.03165 -8.50762,-1.03165 -0.15391,0 -0.27986,-0.39244 -0.27986,-0.87208 0,-1.33185 11.30461,-7.06408 19.28219,-9.77743 15.88058,-5.40135 32.368,-5.44113 47.04534,-0.11354 10.63779,3.86131 15.44802,7.38328 32.09797,23.5015 17.50646,16.94743 25.2288,21.94991 36.25395,23.48497 3.019,0.42034 5.66472,1.29102 5.87933,1.93483 0.22413,0.67246 -2.97402,2.46607 -7.51564,4.21505 -15.63395,6.02055 -31.13872,7.65774 -44.67837,4.71771 z M 560.93191,541.61074 c -13.84464,-3.08312 -37.58668,-12.13946 -31.91761,-12.17484 1.11459,-0.007 6.58618,0.64797 12.15909,1.4554 13.27206,1.92291 31.65001,1.89885 39.92752,-0.0523 9.20625,-2.1701 20.75171,-7.84392 41.41112,-20.35099 38.33781,-23.20933 61.95239,-31.64733 94.26902,-33.68434 29.00601,-1.82833 52.69689,3.58547 75.4126,17.23316 12.64799,7.599 13.19869,8.92916 2.69638,6.51278 -10.96284,-2.52233 -23.06387,-3.61772 -40.98343,-3.70985 -25.54706,-0.13134 -31.46762,1.64604 -57.77442,17.34403 -36.33997,21.68504 -59.41783,28.11733 -103.78928,28.92828 -19.68547,0.35978 -23.97428,0.1548 -31.41099,-1.50133 z m 258.14407,-92.2991 c -3.93023,-12.6793 -16.41558,-28.25231 -28.23898,-35.22251 -9.81583,-5.7867 -16.45429,-7.6505 -28.95171,-8.12844 -13.74605,-0.52569 -21.09946,0.81808 -43.47067,7.94384 -24.4499,7.78792 -34.88797,9.36498 -62.2365,9.40307 -24.66411,0.0344 -38.23618,-1.36872 -57.75568,-5.97077 -40.73974,-9.60509 -73.67983,-27.13075 -101.73024,-54.12516 -14.51522,-13.96868 -28.44345,-31.92555 -18.59408,-23.97214 19.73501,15.93609 47.66565,29.52613 75.23436,36.60638 20.74047,5.3266 36.66037,6.94816 61.80091,6.29491 24.68437,-0.64141 34.36493,-2.32051 61.41536,-10.65252 31.91406,-9.8301 44.12007,-11.99021 62.20985,-11.00932 40.73843,2.20898 67.45367,23.93772 78.42786,63.78887 2.47974,9.00486 4.43512,22.35757 3.9667,27.08645 -0.34542,3.48617 -0.37136,3.46066 -2.07718,-2.04266 z M 569.03797,354.35498 c -9.46797,-1.0663 -29.15385,-5.69999 -40.04535,-9.42593 -23.32995,-7.98116 -45.17061,-19.84365 -67.55775,-36.69328 -11.91032,-8.96427 -34.25294,-29.47291 -34.25294,-31.44132 0,-1.47961 28.61755,-0.24612 39.28907,1.69346 19.65921,3.57312 37.52395,9.89797 52.10969,18.44899 7.53327,4.41648 12.33327,7.88122 38.80482,28.01051 11.19984,8.51647 26.96552,16.50657 36.47727,18.48686 8.77086,1.82601 27.6827,1.85507 38.50379,0.0592 4.45833,-0.73992 8.29199,-1.17576 8.51926,-0.96853 0.657,0.59907 -12.02382,6.06445 -18.14521,7.82052 -11.20237,3.21365 -23.46735,4.73454 -36.86332,4.57112 -7.31106,-0.0892 -14.8888,-0.34188 -16.83933,-0.56155 z"
       id="path7837"
       inkscape:connector-curvature="0"
       sodipodi:nodetypes="sssscssscsssssssscssssssscscscscsssssscsssssccssssssssssssssssssssssssscsssssssssssccssssssssssssssscssccsssssssssccssssssssssssscscssssssssssscc" />
  </g>
</svg>
