<?xml version="1.0" encoding="UTF-8" standalone="no"?>
<!-- Created with Inkscape (http://www.inkscape.org/) -->

<svg
   xmlns:dc="http://purl.org/dc/elements/1.1/"
   xmlns:cc="http://creativecommons.org/ns#"
   xmlns:rdf="http://www.w3.org/1999/02/22-rdf-syntax-ns#"
   xmlns:svg="http://www.w3.org/2000/svg"
   xmlns="http://www.w3.org/2000/svg"
   xmlns:sodipodi="http://sodipodi.sourceforge.net/DTD/sodipodi-0.dtd"
   xmlns:inkscape="http://www.inkscape.org/namespaces/inkscape"
   width="1000"
   height="1000"
   id="svg4955"
   version="1.1"
   inkscape:version="0.48.4 r9939"
   sodipodi:docname="php.svg">
  <defs
     id="defs5498" />
  <sodipodi:namedview
     inkscape:window-height="1056"
     inkscape:window-width="1920"
     inkscape:pageshadow="2"
     inkscape:pageopacity="0.0"
     borderopacity="1.0"
     bordercolor="#666666"
     pagecolor="#ffffff"
     id="base"
     showgrid="false"
     showguides="false"
     inkscape:guide-bbox="true"
     inkscape:zoom="0.70710678"
     inkscape:cx="283.36459"
     inkscape:cy="544.95588"
     inkscape:window-x="0"
     inkscape:window-y="24"
     inkscape:current-layer="layer11"
     inkscape:window-maximized="1">
    <sodipodi:guide
       orientation="0,1"
       position="189.44385,479.26189"
       id="guide7179" />
    <sodipodi:guide
       orientation="1,0"
       position="429.5717,650.94149"
       id="guide7232" />
    <sodipodi:guide
       orientation="0,1"
       position="423.85732,718.7686"
       id="guide7234" />
    <sodipodi:guide
       orientation="0,1"
       position="407.21111,603.48736"
       id="guide7236" />
    <sodipodi:guide
       orientation="1,0"
       position="330.68822,603.48736"
       id="guide7238" />
    <sodipodi:guide
       orientation="1,0"
       position="526.71602,603.48736"
       id="guide7240" />
    <sodipodi:guide
       orientation="0,1"
       position="429.5717,709.07902"
       id="guide7242" />
    <sodipodi:guide
       orientation="0,1"
       position="429.5717,618.89132"
       id="guide7244" />
    <sodipodi:guide
       orientation="1,0"
       position="421.62126,644.23332"
       id="guide7246" />
    <sodipodi:guide
       orientation="1,0"
       position="370.68882,649.20234"
       id="guide7248" />
    <sodipodi:guide
       orientation="1,0"
       position="377.397,646.46938"
       id="guide7250" />
    <sodipodi:guide
       orientation="0,1"
       position="401.99364,699.63788"
       id="guide7252" />
    <sodipodi:guide
       orientation="0,1"
       position="402.73899,694.42041"
       id="guide7254" />
    <sodipodi:guide
       orientation="0,1"
       position="412.67703,632.80457"
       id="guide7258" />
    <sodipodi:guide
       orientation="0,1"
       position="421.62126,626.0964"
       id="guide7260" />
    <sodipodi:guide
       orientation="1,0"
       position="469.5723,641.50036"
       id="guide7262" />
    <sodipodi:guide
       orientation="1,0"
       position="390.5649,658.14657"
       id="guide7264" />
    <sodipodi:guide
       orientation="1,0"
       position="384.10517,643.23951"
       id="guide7266" />
    <sodipodi:guide
       orientation="1,0"
       position="407.45956,632.80457"
       id="guide7268" />
  </sodipodi:namedview>
  <metadata
     id="metadata5594">
    <rdf:RDF>
      <cc:Work
         rdf:about="">
        <dc:format>image/svg+xml</dc:format>
        <dc:type
           rdf:resource="http://purl.org/dc/dcmitype/StillImage" />
        <dc:title />
      </cc:Work>
    </rdf:RDF>
  </metadata>
  <g
     inkscape:groupmode="layer"
     id="layer11"
     inkscape:label="Layer"
     style="opacity:1">
    <path
       style="fill:#000000"
       d="M 467.90395,730.79628 C 328.69549,725.65384 203.16736,688.82049 124.46619,630.02243 87.419794,602.34484 62.712665,570.87211 51.987999,537.69741 c -4.174464,-12.91281 -5.73082,-23.05024 -5.747331,-37.43519 -0.02359,-20.51115 3.657909,-36.33145 12.937896,-55.5979 25.998541,-53.97623 88.925546,-100.97 178.878846,-133.58638 108.68334,-39.40776 248.02295,-52.17126 378.34828,-34.6567 92.44299,12.42351 176.17321,40.12827 236.83259,78.36345 40.29486,25.39887 69.9437,55.32815 85.8641,86.67613 9.45405,18.61551 13.90703,35.32003 14.58412,54.70978 1.54476,44.2373 -21.47956,87.18535 -67.01087,124.99772 -72.6899,60.36673 -197.26455,100.75599 -335.25449,108.69522 -24.84277,1.42933 -59.57411,1.81726 -83.51719,0.93274 z M 222.47792,640.08745 c 0.1549,-0.40367 3.02953,-15.13704 6.38803,-32.74082 4.53906,-23.79146 6.32084,-32.22108 6.9417,-32.84139 0.77634,-0.77568 3.30377,-0.83758 35.83767,-0.87766 19.2513,-0.0237 36.66683,-0.19395 38.70114,-0.37829 18.96382,-1.71846 40.38839,-10.89571 56.11052,-24.03504 23.32535,-19.49353 37.31273,-47.26303 40.05331,-79.51884 3.59275,-42.28568 -13.52823,-68.60899 -50.52418,-77.68042 -13.39351,-3.28408 -9.8456,-3.13146 -76.86043,-3.30634 -57.97263,-0.1513 -60.74626,-0.11941 -60.99094,0.70134 -0.46968,1.57555 -49.40044,249.81017 -49.40044,250.61737 0,0.72829 2.21371,0.79405 26.73099,0.79405 23.50948,0 26.76492,-0.0885 27.01263,-0.73396 z m 25.99725,-108.9353 c -0.43817,-0.48416 -0.79667,-1.46298 -0.79667,-2.17516 0,-1.4622 15.71503,-96.06555 16.14333,-97.18168 0.64837,-1.68963 2.31656,-1.81269 24.57382,-1.81269 12.10897,0 23.98815,0.22735 26.57288,0.50856 18.52329,2.01528 30.08549,10.13585 33.63002,23.61966 1.53732,5.84808 0.41355,20.23853 -2.48105,31.77133 -6.10391,24.31948 -18.92008,37.92215 -40.91563,43.42651 -9.94383,2.48843 -12.9889,2.72377 -35.24298,2.72377 -19.42997,0 -20.73548,-0.0534 -21.48372,-0.8803 z m 407.48398,77.45398 c 3.35417,-17.58603 6.32997,-32.48267 6.61287,-33.10366 0.28295,-0.62097 1.1071,-1.35437 1.83142,-1.62976 0.87517,-0.33274 13.35162,-0.47771 37.19152,-0.43215 34.13138,0.0652 36.15659,0.0207 41.67829,-0.91803 38.78417,-6.59305 70.96024,-34.19936 84.17791,-72.22267 7.84186,-22.55871 8.99434,-50.05967 2.86476,-68.35987 -6.22937,-18.59806 -19.7875,-31.3678 -40.37741,-38.02942 -7.13107,-2.30718 -13.38504,-3.60336 -22.14288,-4.58927 -5.83504,-0.65688 -14.48814,-0.741 -64.50062,-0.6271 l -57.7615,0.13154 -24.83893,125.63681 c -13.66143,69.10024 -24.75021,125.80108 -24.64175,126.00186 0.10849,0.20078 12.25964,0.30909 27.00257,0.24069 l 26.80531,-0.12437 6.09844,-31.9746 z m 19.90183,-77.5293 c -0.54164,-0.59848 -0.89414,-1.64674 -0.85977,-2.55657 0.0318,-0.8482 3.63726,-22.96778 8.01164,-49.15463 5.79811,-34.71003 8.16056,-47.81975 8.71794,-48.37739 0.67179,-0.67213 3.43421,-0.78313 22.7703,-0.91497 29.55086,-0.2015 35.8717,0.49531 45.1113,4.97299 13.59452,6.58815 18.54611,16.9002 16.63768,34.64915 -2.46051,22.88353 -9.96257,39.73009 -21.90202,49.18324 -6.95623,5.50763 -15.13362,9.07937 -26.49677,11.57332 -5.70984,1.25317 -6.08175,1.2722 -28.42887,1.45453 -22.53164,0.18384 -22.64794,0.17975 -23.56143,-0.82967 z M 463.11886,503.00982 c 7.71962,-38.59873 14.27294,-70.70024 14.56293,-71.33669 0.34431,-0.75569 1.08078,-1.26105 2.12257,-1.45649 2.85736,-0.53604 55.76407,0.063 58.33543,0.6605 5.88779,1.36818 9.94986,4.18616 12.24126,8.49214 1.19913,2.25343 1.27808,2.79036 1.23822,8.42393 -0.0404,5.75248 -0.53278,8.59964 -11.19125,64.74387 -6.1318,32.29973 -11.2614,59.21417 -11.39911,59.80986 l -0.25037,1.08308 28.61228,0 28.61226,0 0.27164,-1.32376 c 0.14937,-0.72807 5.2959,-30.67512 11.4367,-66.549 10.5211,-61.46322 11.16469,-65.57229 11.15824,-71.24234 -0.0135,-11.69939 -3.70615,-20.50548 -11.82965,-28.20953 -7.57056,-7.17962 -17.13012,-11.78245 -30.76523,-14.81308 -10.89324,-2.42121 -15.95645,-2.70604 -48.1137,-2.70667 -28.72843,-4.9e-4 -29.67607,-0.0296 -30.49461,-0.93407 -0.47333,-0.52302 -0.82736,-1.63425 -0.80516,-2.52718 0.0218,-0.87653 2.7111,-15.51121 5.97622,-32.52152 l 5.93658,-30.92784 -27.10823,0 c -14.90953,0 -27.10824,0.11376 -27.10824,0.2528 0,0.23268 -48.73855,247.18179 -49.3767,250.18246 l -0.28237,1.32779 27.09231,-0.12438 27.09231,-0.12437 14.03567,-70.17951 z"
       id="path7999"
       inkscape:connector-curvature="0" />
  </g>
</svg>
