<?xml version="1.0" encoding="UTF-8" standalone="no"?>
<!-- Created with Inkscape (http://www.inkscape.org/) -->

<svg
   xmlns:dc="http://purl.org/dc/elements/1.1/"
   xmlns:cc="http://creativecommons.org/ns#"
   xmlns:rdf="http://www.w3.org/1999/02/22-rdf-syntax-ns#"
   xmlns:svg="http://www.w3.org/2000/svg"
   xmlns="http://www.w3.org/2000/svg"
   xmlns:sodipodi="http://sodipodi.sourceforge.net/DTD/sodipodi-0.dtd"
   xmlns:inkscape="http://www.inkscape.org/namespaces/inkscape"
   width="1000"
   height="1000"
   id="svg4955"
   version="1.1"
   inkscape:version="0.48.4 r9939"
   sodipodi:docname="play.svg">
  <defs
     id="defs5498" />
  <sodipodi:namedview
     inkscape:window-height="1056"
     inkscape:window-width="1920"
     inkscape:pageshadow="2"
     inkscape:pageopacity="0.0"
     borderopacity="1.0"
     bordercolor="#666666"
     pagecolor="#ffffff"
     id="base"
     showgrid="false"
     showguides="true"
     inkscape:guide-bbox="true"
     inkscape:zoom="0.908"
     inkscape:cx="453.92045"
     inkscape:cy="452.25945"
     inkscape:window-x="0"
     inkscape:window-y="24"
     inkscape:current-layer="layer1"
     inkscape:window-maximized="1">
    <sodipodi:guide
       orientation="horizontal"
       position="200"
       id="guide5596" />
  </sodipodi:namedview>
  <metadata
     id="metadata5594">
    <rdf:RDF>
      <cc:Work
         rdf:about="">
        <dc:format>image/svg+xml</dc:format>
        <dc:type
           rdf:resource="http://purl.org/dc/dcmitype/StillImage" />
        <dc:title></dc:title>
      </cc:Work>
    </rdf:RDF>
  </metadata>
  <g
     inkscape:label="Layer 1"
     inkscape:groupmode="layer"
     id="layer1">
    <g
       id="g5226"
       transform="matrix(3.71668,0,0,3.71668,131.40942,-1.879234)">
      <path
         style="fill:#000000;fill-opacity:1"
         d="m 351.0625,48.375 c -21.45076,0.234958 -42.91791,8.435879 -59.46875,24.8125 L 268.5625,96.25 c -30.84844,30.84844 -33.47218,79.89363 -5.96875,113.34375 L 455.875,451.1875 c 41.7123,68.23445 69.52319,157.17595 70.25,225 0,59.35904 -13.59796,115.56736 -38.0625,165.625 L 735,561.9375 c 28.24677,-31.96345 28.6251,-79.91488 0.75,-112.25 L 416.84375,78.03125 C 399.66572,58.088939 375.37336,48.108714 351.0625,48.375 z m 137,793.4375 c -325.375,105.45834 -162.6875,52.72917 0,0 z"
         transform="matrix(0.26905733,0,0,0.26905733,-35.356668,0.50562168)"
         id="path5228"
         inkscape:connector-curvature="0"
         sodipodi:nodetypes="scccccccccscc" />
      <g
         id="g5232"
         style="fill:#49691f" />
    </g>
    <path
       id="path5230-9"
       d="M 432.55755,571.76658 242.26354,799.97073 c -28.24677,33.82179 -26.01676,83.99697 5.20335,115.21708 l 23.04342,23.04342 c 34.93679,34.93679 91.80199,33.07845 124.50878,-3.71668 l 68.75858,-78.05028 c 26.01676,-51.29019 40.51181,-109.27039 40.51181,-170.59561 0,-75.82028 -22.30008,-146.06553 -60.21022,-205.16074 14.12339,28.99011 10.40671,65.0419 -11.52171,91.05866 z"
       inkscape:connector-curvature="0"
       style="fill:#000000;fill-opacity:1"
       sodipodi:nodetypes="ccssccscc" />
  </g>
</svg>
