<?xml version="1.0" encoding="UTF-8" standalone="no"?>
<!-- Created with Inkscape (http://www.inkscape.org/) -->

<svg
   xmlns:dc="http://purl.org/dc/elements/1.1/"
   xmlns:cc="http://creativecommons.org/ns#"
   xmlns:rdf="http://www.w3.org/1999/02/22-rdf-syntax-ns#"
   xmlns:svg="http://www.w3.org/2000/svg"
   xmlns="http://www.w3.org/2000/svg"
   xmlns:sodipodi="http://sodipodi.sourceforge.net/DTD/sodipodi-0.dtd"
   xmlns:inkscape="http://www.inkscape.org/namespaces/inkscape"
   width="1000"
   height="1000"
   id="svg4955"
   version="1.1"
   inkscape:version="0.48.4 r9939"
   sodipodi:docname="postgresql.svg">
  <defs
     id="defs5498" />
  <sodipodi:namedview
     inkscape:window-height="1056"
     inkscape:window-width="1920"
     inkscape:pageshadow="2"
     inkscape:pageopacity="0.0"
     borderopacity="1.0"
     bordercolor="#666666"
     pagecolor="#ffffff"
     id="base"
     showgrid="false"
     showguides="false"
     inkscape:guide-bbox="true"
     inkscape:zoom="0.70710678"
     inkscape:cx="127.09399"
     inkscape:cy="544.95588"
     inkscape:window-x="0"
     inkscape:window-y="24"
     inkscape:current-layer="layer11"
     inkscape:window-maximized="1">
    <sodipodi:guide
       orientation="0,1"
       position="189.44385,479.26189"
       id="guide7179" />
    <sodipodi:guide
       orientation="1,0"
       position="429.5717,650.94149"
       id="guide7232" />
    <sodipodi:guide
       orientation="0,1"
       position="423.85732,718.7686"
       id="guide7234" />
    <sodipodi:guide
       orientation="0,1"
       position="407.21111,603.48736"
       id="guide7236" />
    <sodipodi:guide
       orientation="1,0"
       position="330.68822,603.48736"
       id="guide7238" />
    <sodipodi:guide
       orientation="1,0"
       position="526.71602,603.48736"
       id="guide7240" />
    <sodipodi:guide
       orientation="0,1"
       position="429.5717,709.07902"
       id="guide7242" />
    <sodipodi:guide
       orientation="0,1"
       position="429.5717,618.89132"
       id="guide7244" />
    <sodipodi:guide
       orientation="1,0"
       position="421.62126,644.23332"
       id="guide7246" />
    <sodipodi:guide
       orientation="1,0"
       position="370.68882,649.20234"
       id="guide7248" />
    <sodipodi:guide
       orientation="1,0"
       position="377.397,646.46938"
       id="guide7250" />
    <sodipodi:guide
       orientation="0,1"
       position="401.99364,699.63788"
       id="guide7252" />
    <sodipodi:guide
       orientation="0,1"
       position="402.73899,694.42041"
       id="guide7254" />
    <sodipodi:guide
       orientation="0,1"
       position="412.67703,632.80457"
       id="guide7258" />
    <sodipodi:guide
       orientation="0,1"
       position="421.62126,626.0964"
       id="guide7260" />
    <sodipodi:guide
       orientation="1,0"
       position="469.5723,641.50036"
       id="guide7262" />
    <sodipodi:guide
       orientation="1,0"
       position="390.5649,658.14657"
       id="guide7264" />
    <sodipodi:guide
       orientation="1,0"
       position="384.10517,643.23951"
       id="guide7266" />
    <sodipodi:guide
       orientation="1,0"
       position="407.45956,632.80457"
       id="guide7268" />
  </sodipodi:namedview>
  <metadata
     id="metadata5594">
    <rdf:RDF>
      <cc:Work
         rdf:about="">
        <dc:format>image/svg+xml</dc:format>
        <dc:type
           rdf:resource="http://purl.org/dc/dcmitype/StillImage" />
        <dc:title></dc:title>
      </cc:Work>
    </rdf:RDF>
  </metadata>
  <g
     inkscape:groupmode="layer"
     id="layer11"
     inkscape:label="Layer"
     style="opacity:1">
    <path
       style="fill:#000000"
       d="m 551.43121,901.56316 c -12.34346,-2.92029 -16.87734,-4.46996 -25.81776,-8.82445 -5.61137,-2.73305 -13.26082,-7.28065 -16.99874,-10.10578 -8.04074,-6.07719 -19.22684,-19.46981 -23.95304,-28.67786 -9.06214,-17.65581 -17.6467,-80.70327 -17.68233,-129.86434 -0.007,-9.45536 -0.40288,-20.04008 -0.88009,-23.52158 l -0.86762,-6.33 -5.49181,2.71713 c -17.80422,8.80883 -41.61465,10.23148 -76.18104,4.55173 -29.67323,-4.87574 -49.23901,-12.22899 -55.4448,-20.83743 -1.74893,-2.42604 -2.36502,-2.20196 -9.93698,3.61418 -15.8863,12.20248 -27.78264,16.03656 -42.39007,13.66193 -35.95497,-5.84493 -68.79255,-49.13063 -101.20098,-133.40067 -10.16924,-26.44255 -24.54361,-70.02415 -30.43377,-92.27195 -1.96374,-7.41725 -5.51114,-20.51277 -7.88312,-29.10116 -4.72864,-17.12122 -18.40567,-79.88481 -22.28753,-102.27692 -3.03468,-17.50531 -3.41424,-67.36885 -0.65861,-86.52571 2.83013,-19.67475 12.02508,-50.45349 19.24183,-64.40914 5.26499,-10.18138 15.56066,-24.11138 24.61217,-33.30021 13.54657,-13.75207 26.4129,-22.85314 42.47356,-30.04386 30.75165,-13.76826 52.25905,-17.18452 99.80731,-15.85349 32.98857,0.92346 50.58832,3.32678 79.49584,10.85553 8.97877,2.33846 20.59213,5.32909 25.80747,6.64585 l 9.48243,2.39414 14.33702,-6.65438 c 33.88464,-15.72719 70.27071,-19.66495 120.49706,-13.04046 8.63914,1.13945 17.20302,2.44708 19.03086,2.90584 1.82783,0.45875 10.64111,-1.07174 19.58506,-3.40109 63.37191,-16.504485 114.66349,-16.527278 171.59705,-0.0762 37.48279,10.83072 79.62435,38.91911 104.36473,69.5617 11.7801,14.59044 14.61812,20.7828 17.92225,39.10515 8.2748,45.88609 -3.6723,121.81795 -31.2415,198.56107 -4.76817,13.27297 -11.52911,30.6117 -15.0243,38.53054 -3.49519,7.91882 -6.35488,14.88177 -6.35488,15.4732 0,4.00785 -37.96939,77.96341 -45.65539,88.9261 l -2.67271,3.81213 6.66738,0.99985 c 8.63268,1.29455 33.57459,-0.31866 48.04878,-3.10771 6.2461,-1.20358 16.467,-2.49673 22.7131,-2.87366 13.31058,-0.80325 18.49392,1.204 25.38738,9.83129 17.90256,22.40538 -14.08513,77.35832 -54.24365,93.18732 -22.40325,8.83054 -51.97311,13.44824 -80.86175,12.62756 -18.83183,-0.53498 -21.59291,-0.33168 -21.59851,1.59031 -0.0288,9.87909 -14.27879,114.67298 -17.8658,131.38444 -6.52563,30.40212 -22.19517,54.49415 -45.22885,69.53969 -9.91751,6.47808 -31.06668,14.9455 -50.29176,20.13514 -11.48302,3.09973 -17.27628,3.75637 -36.37165,4.12249 -12.49221,0.23952 -23.99071,0.13315 -25.55224,-0.23621 z m 58.20232,-26.14565 c 19.74699,-4.67116 27.14622,-7.61801 41.33862,-16.46374 27.2762,-17.00052 39.1885,-45.1951 46.71769,-110.57361 1.1689,-10.14992 3.3917,-27.71707 4.93957,-39.03813 1.54789,-11.32106 3.74201,-28.09746 4.87584,-37.28087 1.13386,-9.18342 2.49646,-17.4008 3.028,-18.26088 0.67484,-1.09189 6.58691,-1.26905 19.59224,-0.58711 45.45052,2.38325 83.16948,-7.39724 111.39716,-28.88514 19.15131,-14.57865 25.80856,-25.25398 22.72132,-36.43507 -1.02302,-3.7051 -2.7943,-5.63929 -7.24242,-7.90855 -6.6831,-3.40947 -13.19883,-3.26322 -39.40122,0.88441 -20.02483,3.16977 -55.26419,2.5018 -62.15255,-1.17809 -2.90056,-1.54957 -4.28327,-3.13664 -3.66223,-4.20351 0.54878,-0.94269 2.83364,-4.42523 5.07745,-7.73896 10.43519,-15.4109 33.84102,-58.45903 45.34997,-83.40786 26.93749,-58.39445 44.49971,-113.35591 55.33982,-173.18738 4.56376,-25.1895 4.6213,-65.8472 0.11826,-83.59397 -4.57408,-18.02691 -7.12966,-22.94534 -18.57029,-35.74012 -22.33132,-24.97456 -50.71379,-43.9122 -81.13303,-54.13437 -26.0553,-8.75571 -43.25922,-11.82121 -71.61785,-12.76131 -38.48145,-1.27568 -67.57169,2.00528 -99.42948,11.21421 l -11.35655,3.28279 -14.19569,-2.63643 c -18.00779,-3.34439 -69.15041,-4.09802 -82.33497,-1.21329 -17.13341,3.74874 -34.14038,9.07099 -36.90879,11.55045 -1.56152,1.39853 -6.74715,4.67702 -11.52363,7.28552 l -8.6845,4.74274 -21.646,-6.84048 c -31.87409,-10.0727 -78.33607,-17.84307 -106.90163,-17.87836 -24.24278,-0.03 -60.41326,6.2109 -77.37617,13.35048 -27.75665,11.68262 -49.13239,31.9009 -61.31983,57.99947 -13.3844,28.66178 -17.57982,51.82892 -17.66843,97.56505 -0.0809,41.72638 1.39098,51.43397 20.36672,134.33202 8.94171,39.06303 28.77264,102.68803 41.75529,133.96644 18.15691,43.74452 35.19548,71.49121 54.18808,88.24335 19.83755,17.49739 43.91871,19.09806 63.65463,4.23107 3.77545,-2.84403 15.9055,-15.71124 26.95568,-28.59382 33.68811,-39.27445 49.29546,-55.66027 51.90211,-54.49087 8.77178,3.9352 26.35102,9.05893 33.82784,9.85964 4.90652,0.52545 8.92095,1.49933 8.92095,2.16419 0,0.66486 -4.11294,5.92473 -9.13989,11.68858 -10.89687,12.49431 -14.60995,14.33474 -45.03334,22.32132 -23.11595,6.06828 -29.78174,9.22964 -33.98096,16.11603 -9.74697,15.98427 7.13099,33.23187 38.95148,39.80457 14.22357,2.93797 42.43507,2.93726 53.9663,-0.001 11.26031,-2.86957 29.68505,-11.74479 37.82347,-18.21963 3.51343,-2.79524 6.78075,-5.08847 7.26071,-5.09604 0.47996,-0.007 1.22556,23.14293 1.65691,51.44558 1.22112,80.12575 4.06558,100.58695 18.00774,129.53564 7.26328,15.08107 20.56967,26.9498 37.59383,33.53205 19.65254,7.59852 35.73242,7.90863 63.95177,1.23334 z m -50.62697,-18.32514 c -10.59039,-3.3869 -16.92761,-7.43609 -23.72676,-15.16033 -6.59567,-7.49308 -16.18107,-25.58619 -18.38164,-34.69665 -4.31817,-17.87731 -7.64804,-89.20405 -7.1216,-152.54676 l 0.36572,-44.00662 -3.66323,-7.80763 c -5.99751,-12.78281 -11.2512,-18.77711 -20.45811,-23.34204 -6.23451,-3.09117 -10.51641,-4.19058 -16.56818,-4.25401 -4.48849,-0.047 -8.16163,-0.33607 -8.16252,-0.64228 -0.0104,-3.25662 8.01465,-25.68295 16.53786,-46.22074 17.24527,-41.55475 19.90541,-51.83612 21.32053,-82.40326 1.5781,-34.08819 -4.71763,-80.56178 -13.43815,-99.19711 -10.17637,-21.7464 -28.2026,-32.40026 -54.69606,-32.32641 -17.90685,0.05 -42.32256,6.56826 -62.0535,16.56669 -4.02843,2.04138 -7.57654,3.45945 -7.88469,3.1513 -0.30814,-0.30814 0.41529,-8.49587 1.60766,-18.19493 6.16015,-50.10852 24.15359,-93.34212 50.37875,-121.0472 16.28808,-17.20723 31.77785,-27.10741 53.19446,-33.99887 18.74219,-6.03088 27.27009,-7.28687 48.97511,-7.21307 22.85977,0.0778 33.80839,1.51004 58.9121,7.70686 21.38462,5.2788 50.83944,19.49433 69.55886,33.57067 17.90768,13.46591 40.68119,36.98921 53.46303,55.22324 11.32728,16.159 29.14517,49.30477 30.4481,56.6411 l 0.75633,4.2587 -21.74998,0.11258 c -18.68139,0.0967 -23.0518,0.56288 -30.97718,3.30447 -17.06745,5.90406 -29.56648,16.17435 -35.20939,28.93111 -14.04854,31.75904 -3.35855,75.49038 36.85678,150.77622 7.50706,14.05373 16.0451,30.34329 18.97343,36.199 5.41864,10.83557 15.24171,26.08028 23.22226,36.03931 5.41104,6.75249 5.46072,7.65931 0.51844,9.45966 -13.25687,4.82919 -21.81953,13.1945 -25.29051,24.70767 -1.1872,3.93791 -2.75248,15.46433 -3.47837,25.61425 -1.27007,17.75859 -4.06492,42.01875 -12.0201,104.33829 -7.18263,56.26748 -10.58432,72.43581 -18.54517,88.1458 -6.99205,13.79813 -21.09976,25.6509 -37.19833,31.25265 -26.97096,9.38495 -49.48364,11.84985 -64.46595,7.05837 z M 392.98079,661.86663 c -9.62335,-2.00989 -21.12501,-6.99423 -21.12501,-9.1547 0,-0.66468 7.82537,-3.23074 17.38972,-5.70238 37.34303,-9.65022 42.68831,-12.72342 61.24575,-35.21254 5.9363,-7.19398 12.13906,-13.80022 13.78393,-14.68052 10.73343,-5.74436 27.40824,10.95788 24.80319,24.84399 -1.14362,6.09601 -15.61103,21.97897 -26.17629,28.73749 -14.39824,9.21044 -24.32621,12.09686 -43.49075,12.64435 -10.87412,0.31065 -20.43281,-0.22304 -26.43054,-1.47569 z m -117.17511,-12.0527 c -9.55493,-4.33842 -21.71203,-17.75578 -33.52763,-37.00328 -13.6208,-22.18818 -36.08394,-76.86459 -46.36539,-112.8557 -2.23039,-7.80763 -6.3944,-22.18077 -9.25338,-31.9403 -8.53708,-29.14254 -20.59864,-82.9605 -25.83743,-115.28508 -4.72333,-29.14396 -5.24387,-64.07902 -1.31752,-88.42301 9.24052,-57.29292 37.56251,-90.65423 88.1392,-103.82181 14.95247,-3.89286 16.94083,-4.06248 46.84576,-3.99635 27.60449,0.0611 33.7028,0.51641 52.52404,3.92198 20.20644,3.65623 48.92271,11.08915 53.30479,13.79741 1.63729,1.01192 1.17709,2.14814 -2.40075,5.9274 -17.57011,18.55931 -33.49849,47.33787 -43.57499,78.72899 -12.81102,39.90991 -14.19015,51.9725 -14.49897,126.81549 -0.14753,35.75183 -0.88757,64.38011 -1.81645,70.26865 -3.4235,21.70288 -1.26886,47.05008 5.54835,65.2707 4.07039,10.87912 13.48676,25.80702 22.84013,36.20875 4.55371,5.06411 8.27948,9.65743 8.27948,10.20736 0,0.54994 -7.20403,8.86328 -16.00896,18.47411 -8.80491,9.61081 -23.4906,26.20604 -32.63483,36.87826 -9.14424,10.67223 -18.38946,20.79145 -20.54495,22.48717 -9.40536,7.39918 -19.66124,8.89757 -29.7005,4.33926 z m 453.07161,-18.45694 c -5.46534,-0.53691 -11.45541,-1.80135 -13.31128,-2.80985 -3.17505,-1.72537 -3.33238,-2.41944 -2.66449,-11.75402 0.84297,-11.7817 3.46789,-16.10405 12.51255,-20.60389 8.14875,-4.05411 11.57467,-4.01793 18.04424,0.19057 9.31891,6.062 16.21225,7.19753 42.91151,7.06872 16.45831,-0.0793 29.12294,-0.9067 37.52568,-2.45129 6.97579,-1.28228 12.92381,-2.09086 13.21784,-1.79684 1.05256,1.05258 -16.13217,13.30422 -24.77488,17.66294 -22.96838,11.58352 -55.52817,17.23776 -83.46117,14.49366 z M 425.0896,568.1582 c -30.33443,-6.76533 -53.42498,-28.0629 -63.06683,-58.16971 -5.71446,-17.84346 -6.50478,-28.96484 -3.63848,-51.20104 1.72922,-13.4149 2.38385,-29.42886 2.39726,-58.64255 l 0.0185,-40.18814 7.30237,-4.8221 c 15.46416,-10.21174 47.65181,-20.55946 63.95231,-20.55946 15.08354,0 29.76819,8.68902 35.14197,20.79377 7.10446,16.00318 11.86806,55.65079 10.71999,89.2228 -0.84973,24.84763 -3.48197,38.11127 -11.224,56.55657 -2.34619,5.58973 -6.5374,15.593 -9.31385,22.22949 -2.77644,6.63648 -7.70672,19.732 -10.95619,29.10116 -6.71547,19.36264 -6.27355,19.03784 -21.333,15.67921 z m 25.76832,-197.43557 c 9.93898,-5.82464 10.21128,-12.7355 0.69314,-17.5913 -10.82786,-5.52396 -24.56622,-5.54589 -30.06409,-0.048 -2.2644,2.26439 -2.47858,3.41001 -1.24583,6.66378 3.10515,8.19589 11.80336,14.40574 20.339,14.52046 2.27369,0.0305 6.89869,-1.56465 10.27778,-3.54492 z m 283.7941,181.3505 c -0.50893,-1.60349 0.60429,-5.30919 2.74613,-9.14134 13.61855,-24.36625 16.05525,-51.56537 9.82746,-109.69658 -2.49871,-23.32338 -2.14999,-33.83882 2.32791,-70.1977 5.18876,-42.13074 3.54064,-53.88452 -11.9293,-85.07538 -26.39681,-53.22181 -70.28928,-99.01588 -115.4691,-120.47167 -5.91411,-2.8086 -10.02498,-5.55513 -9.33997,-6.24014 0.67296,-0.67296 8.53686,-2.24728 17.47536,-3.49849 23.58134,-3.30092 73.35252,-2.12585 92.07071,2.17377 41.05259,9.42986 71.98549,27.43735 99.8246,58.11261 14.13277,15.57257 18.12935,28.15947 18.09168,56.97813 -0.0822,62.89038 -31.46192,164.40914 -76.37524,247.08737 -21.30806,39.22476 -27.01256,47.01974 -29.25024,39.96942 z m -15.26453,-22.34626 c -0.45134,-0.7593 -5.76361,-10.96264 -11.80507,-22.67408 -6.04145,-11.71144 -13.09671,-24.81269 -15.67834,-29.11387 -7.90286,-13.16668 -23.05188,-47.13357 -28.26716,-63.38011 -11.90293,-37.07989 -11.44314,-56.89559 1.63153,-70.3138 9.23589,-9.47855 16.46608,-11.58768 41.948,-12.23674 20.54246,-0.52322 22.42524,-0.36211 23.33029,1.99645 0.54149,1.41108 -0.42974,15.37193 -2.15828,31.02409 -3.63715,32.93487 -3.83874,49.95329 -0.94246,79.56296 2.63588,26.94761 2.66761,52.64622 0.0801,64.85522 -2.29212,10.81506 -6.91594,22.33678 -8.13857,20.27988 z M 695.91791,363.85119 c 5.28569,-2.26159 11.638,-8.72402 12.99415,-13.2194 1.36725,-4.53212 -3.64887,-6.64604 -15.27187,-6.43596 -11.13789,0.20131 -18.42812,3.5045 -19.17835,8.68967 -0.59178,4.09022 4.49786,9.70855 10.3306,11.40371 6.01782,1.74896 6.01381,1.74911 11.12547,-0.43802 z"
       id="path8327"
       inkscape:connector-curvature="0"
       sodipodi:nodetypes="cssscscsssssssssssssssscssssssssssscsssssssssssccssssscssssssssssssssscsssscssssssssssssssssssscsssscssscssccsssssssssssssscssssssssssssccsssssssssssssssssssssssssssssssssssssssssssscsssssssscssscccssssssssssssssssssssssssssssss" />
  </g>
</svg>
