<?xml version="1.0" encoding="UTF-8" standalone="no"?>
<!-- Created with Inkscape (http://www.inkscape.org/) -->

<svg
   xmlns:dc="http://purl.org/dc/elements/1.1/"
   xmlns:cc="http://creativecommons.org/ns#"
   xmlns:rdf="http://www.w3.org/1999/02/22-rdf-syntax-ns#"
   xmlns:svg="http://www.w3.org/2000/svg"
   xmlns="http://www.w3.org/2000/svg"
   xmlns:sodipodi="http://sodipodi.sourceforge.net/DTD/sodipodi-0.dtd"
   xmlns:inkscape="http://www.inkscape.org/namespaces/inkscape"
   width="1000"
   height="1000"
   id="svg4955"
   version="1.1"
   inkscape:version="0.48.4 r9939"
   sodipodi:docname="java.svg">
  <defs
     id="defs5498" />
  <sodipodi:namedview
     inkscape:window-height="1056"
     inkscape:window-width="1920"
     inkscape:pageshadow="2"
     inkscape:pageopacity="0.0"
     borderopacity="1.0"
     bordercolor="#666666"
     pagecolor="#ffffff"
     id="base"
     showgrid="false"
     showguides="false"
     inkscape:guide-bbox="true"
     inkscape:zoom="0.70710678"
     inkscape:cx="411.57972"
     inkscape:cy="653.69778"
     inkscape:window-x="0"
     inkscape:window-y="24"
     inkscape:current-layer="layer11"
     inkscape:window-maximized="1">
    <sodipodi:guide
       orientation="0,1"
       position="189.44385,479.26189"
       id="guide7179" />
    <sodipodi:guide
       orientation="1,0"
       position="429.5717,650.94149"
       id="guide7232" />
    <sodipodi:guide
       orientation="0,1"
       position="423.85732,718.7686"
       id="guide7234" />
    <sodipodi:guide
       orientation="0,1"
       position="407.21111,603.48736"
       id="guide7236" />
    <sodipodi:guide
       orientation="1,0"
       position="330.68822,603.48736"
       id="guide7238" />
    <sodipodi:guide
       orientation="1,0"
       position="526.71602,603.48736"
       id="guide7240" />
    <sodipodi:guide
       orientation="0,1"
       position="429.5717,709.07902"
       id="guide7242" />
    <sodipodi:guide
       orientation="0,1"
       position="429.5717,618.89132"
       id="guide7244" />
    <sodipodi:guide
       orientation="1,0"
       position="421.62126,644.23332"
       id="guide7246" />
    <sodipodi:guide
       orientation="1,0"
       position="370.68882,649.20234"
       id="guide7248" />
    <sodipodi:guide
       orientation="1,0"
       position="377.397,646.46938"
       id="guide7250" />
    <sodipodi:guide
       orientation="0,1"
       position="401.99364,699.63788"
       id="guide7252" />
    <sodipodi:guide
       orientation="0,1"
       position="402.73899,694.42041"
       id="guide7254" />
    <sodipodi:guide
       orientation="0,1"
       position="412.67703,632.80457"
       id="guide7258" />
    <sodipodi:guide
       orientation="0,1"
       position="421.62126,626.0964"
       id="guide7260" />
    <sodipodi:guide
       orientation="1,0"
       position="469.5723,641.50036"
       id="guide7262" />
    <sodipodi:guide
       orientation="1,0"
       position="390.5649,658.14657"
       id="guide7264" />
    <sodipodi:guide
       orientation="1,0"
       position="384.10517,643.23951"
       id="guide7266" />
    <sodipodi:guide
       orientation="1,0"
       position="407.45956,632.80457"
       id="guide7268" />
  </sodipodi:namedview>
  <metadata
     id="metadata5594">
    <rdf:RDF>
      <cc:Work
         rdf:about="">
        <dc:format>image/svg+xml</dc:format>
        <dc:type
           rdf:resource="http://purl.org/dc/dcmitype/StillImage" />
        <dc:title></dc:title>
      </cc:Work>
    </rdf:RDF>
  </metadata>
  <g
     inkscape:groupmode="layer"
     id="layer11"
     inkscape:label="Layer"
     style="opacity:1">
    <path
       style="fill:#000000"
       d="m 463.27765,928.04444 c -25.21039,-1.90108 -45.18513,-4.95418 -65.89895,-10.07272 -57.48654,-14.20513 -94.02922,-43.54469 -102.48392,-82.2827 -1.62891,-7.46345 -1.66254,-10.35981 -1.36185,-117.31225 0.33217,-118.15531 0.14338,-112.98534 4.74069,-129.82018 2.36855,-8.67335 10.55788,-25.33001 15.92241,-32.38533 14.8188,-19.48935 38.63404,-33.33974 68.91156,-40.07736 l 9.65398,-2.14829 120.04523,-0.51436 c 107.1645,-0.45917 120.93412,-0.66605 128.32944,-1.92802 14.71482,-2.511 25.18163,-5.80766 36.71342,-11.56339 29.31695,-14.6326 48.69586,-42.36021 57.15924,-81.78424 1.7295,-8.05631 1.81521,-10.84189 2.12568,-69.08844 l 0.32352,-60.69367 43.8171,0.29115 43.8171,0.29115 7.97503,2.28317 c 33.76882,9.66765 61.72221,37.47006 78.39113,77.96775 6.91041,16.78902 11.90237,35.10969 15.69706,57.60894 l 2.45169,14.5364 -1.7e-4,57.65863 c -1.7e-4,64.39426 -0.0386,64.94436 -6.33394,90.56872 -14.39205,58.58106 -45.81464,97.39511 -90.2138,111.43452 -17.10225,5.40788 -2.61198,4.97231 -175.23282,5.26743 l -157.19209,0.26875 0,14.67379 0,14.6738 104.5149,0 104.5149,0 -0.01,54.77588 c -0.0107,58.71858 0.0729,57.42746 -4.42359,68.38734 -4.54498,11.07816 -15.71839,24.14882 -28.34661,33.15985 -27.97566,19.96226 -71.18474,31.81299 -130.91785,35.90603 -14.27931,0.97841 -69.34861,0.92359 -82.6885,-0.0823 z m 164.88454,-65.84011 c 19.03365,-4.4865 31.89712,-23.23916 28.79258,-41.97444 -2.55443,-15.41558 -13.24182,-27.06794 -28.46239,-31.03239 -16.37246,-4.26449 -34.31788,3.96659 -41.82126,19.18224 -3.97113,8.05285 -5.17217,14.78068 -3.99559,22.38197 2.39403,15.46678 12.97145,27.31038 27.8622,31.19749 6.90454,1.80244 10.78867,1.85642 17.62446,0.24513 z M 177.85543,711.16114 C 165.31708,708.85746 150.9779,702.74019 138.82,694.50817 129.18085,687.98156 115.11056,673.35403 107.54721,661.99686 88.613131,633.56532 77.196059,596.84505 71.927626,547.43507 70.112593,530.4128 69.832174,472.99006 71.491031,458.03076 c 4.365071,-39.36356 10.96363,-64.94581 23.277046,-90.24379 19.116753,-39.27549 47.744263,-62.79174 87.607343,-71.9656 l 8.07216,-1.85768 155.93288,-0.25241 155.93288,-0.25241 0,-14.25392 0,-14.25393 -104.37764,0 -104.37765,0 -0.5386,-52.59176 c -0.58423,-57.04711 -0.47034,-59.02903 4.02837,-70.10044 9.19438,-22.6275 35.43118,-42.96067 70.1097,-54.334083 37.67273,-12.355424 82.56557,-17.636087 141.43242,-16.636446 44.08407,0.748603 73.30884,4.328679 103.99968,12.740106 20.1057,5.510362 39.67877,14.101873 54.14165,23.765233 16.22986,10.84398 31.14623,28.37407 37.45385,44.0167 5.826,14.44824 5.57415,8.15554 5.25048,131.18945 -0.28619,108.79214 -0.32352,110.95682 -2.04894,118.81582 -9.39605,42.79748 -36.62263,69.98723 -81.4341,81.32394 -16.96348,4.29153 -16.36888,4.27271 -135.0799,4.27579 -114.39064,0.003 -122.69403,0.21312 -137.93868,3.49115 -48.83857,10.50168 -79.54135,47.10729 -86.47258,103.09756 -0.53408,4.31429 -0.88061,29.00731 -0.88061,62.75091 l 0,55.63738 -40.92451,-0.0757 c -29.45454,-0.0546 -42.57148,-0.37836 -46.80085,-1.15543 z m 216.089,-500.68762 c 26.98671,-8.3992 35.3115,-42.37205 15.24595,-62.21755 -17.86798,-17.67203 -48.25077,-12.7857 -59.25065,9.52904 -7.78968,15.80241 -4.64822,32.92462 8.21644,44.78284 9.31468,8.58598 23.52007,11.72396 35.78826,7.90567 z"
       id="path7935"
       inkscape:connector-curvature="0" />
  </g>
</svg>
