<?xml version="1.0" encoding="UTF-8" standalone="no"?>
<!-- Created with Inkscape (http://www.inkscape.org/) -->

<svg
   xmlns:dc="http://purl.org/dc/elements/1.1/"
   xmlns:cc="http://creativecommons.org/ns#"
   xmlns:rdf="http://www.w3.org/1999/02/22-rdf-syntax-ns#"
   xmlns:svg="http://www.w3.org/2000/svg"
   xmlns="http://www.w3.org/2000/svg"
   xmlns:sodipodi="http://sodipodi.sourceforge.net/DTD/sodipodi-0.dtd"
   xmlns:inkscape="http://www.inkscape.org/namespaces/inkscape"
   width="1000"
   height="1000"
   id="svg4955"
   version="1.1"
   inkscape:version="0.48.4 r9939"
   sodipodi:docname="go.svg">
  <defs
     id="defs5498" />
  <sodipodi:namedview
     inkscape:window-height="1056"
     inkscape:window-width="1920"
     inkscape:pageshadow="2"
     inkscape:pageopacity="0.0"
     borderopacity="1.0"
     bordercolor="#666666"
     pagecolor="#ffffff"
     id="base"
     showgrid="false"
     showguides="false"
     inkscape:guide-bbox="true"
     inkscape:zoom="0.5"
     inkscape:cx="8.6032401"
     inkscape:cy="369.88681"
     inkscape:window-x="0"
     inkscape:window-y="24"
     inkscape:current-layer="layer13"
     inkscape:window-maximized="1">
    <sodipodi:guide
       orientation="0,1"
       position="189.44385,479.26189"
       id="guide7179" />
    <sodipodi:guide
       orientation="1,0"
       position="429.5717,650.94149"
       id="guide7232" />
    <sodipodi:guide
       orientation="0,1"
       position="423.85732,718.7686"
       id="guide7234" />
    <sodipodi:guide
       orientation="0,1"
       position="407.21111,603.48736"
       id="guide7236" />
    <sodipodi:guide
       orientation="1,0"
       position="330.68822,603.48736"
       id="guide7238" />
    <sodipodi:guide
       orientation="1,0"
       position="526.71602,603.48736"
       id="guide7240" />
    <sodipodi:guide
       orientation="0,1"
       position="429.5717,709.07902"
       id="guide7242" />
    <sodipodi:guide
       orientation="0,1"
       position="429.5717,618.89132"
       id="guide7244" />
    <sodipodi:guide
       orientation="1,0"
       position="421.62126,644.23332"
       id="guide7246" />
    <sodipodi:guide
       orientation="1,0"
       position="370.68882,649.20234"
       id="guide7248" />
    <sodipodi:guide
       orientation="1,0"
       position="377.397,646.46938"
       id="guide7250" />
    <sodipodi:guide
       orientation="0,1"
       position="401.99364,699.63788"
       id="guide7252" />
    <sodipodi:guide
       orientation="0,1"
       position="402.73899,694.42041"
       id="guide7254" />
    <sodipodi:guide
       orientation="0,1"
       position="412.67703,632.80457"
       id="guide7258" />
    <sodipodi:guide
       orientation="0,1"
       position="421.62126,626.0964"
       id="guide7260" />
    <sodipodi:guide
       orientation="1,0"
       position="469.5723,641.50036"
       id="guide7262" />
    <sodipodi:guide
       orientation="1,0"
       position="390.5649,658.14657"
       id="guide7264" />
    <sodipodi:guide
       orientation="1,0"
       position="384.10517,643.23951"
       id="guide7266" />
    <sodipodi:guide
       orientation="1,0"
       position="407.45956,632.80457"
       id="guide7268" />
  </sodipodi:namedview>
  <metadata
     id="metadata5594">
    <rdf:RDF>
      <cc:Work
         rdf:about="">
        <dc:format>image/svg+xml</dc:format>
        <dc:type
           rdf:resource="http://purl.org/dc/dcmitype/StillImage" />
        <dc:title></dc:title>
      </cc:Work>
    </rdf:RDF>
  </metadata>
  <g
     inkscape:groupmode="layer"
     id="layer13"
     inkscape:label="Layer#1">
    <path
       style="fill:#000000"
       d="m 462.22507,826.0777 c -34.78499,-0.23678 -60.42395,-0.64388 -61.47274,-0.97607 l -1.7992,-0.56981 -0.15416,-40.28904 c -0.0848,-22.15892 -0.27448,-40.289 -0.42156,-40.289 -1.21644,0 -25.37037,-4.6859 -34.07092,-6.60977 C 256.40138,713.48365 166.1591,661.51549 114.44799,593.45706 91.422812,563.15298 76.354427,529.71252 70.652299,496.2636 c -2.133722,-12.51649 -2.702234,-19.86611 -2.667491,-34.48471 0.0451,-18.96913 1.514382,-30.80952 6.028197,-48.57846 8.18643,-32.22644 24.054386,-62.24228 48.667335,-92.05918 7.26064,-8.79577 28.14689,-29.68755 37.87849,-37.88853 45.21613,-38.10436 105.25849,-68.8315 170.32448,-87.16487 55.60869,-15.66863 107.74704,-22.64932 169.72475,-22.72407 26.59881,-0.0321 36.52699,0.37132 58.47407,2.37593 91.93596,8.39725 178.41099,37.01162 244.79198,81.00105 33.0303,21.88855 62.0729,48.69578 83.09046,76.69504 20.95615,27.91752 35.44267,59.63314 41.55372,90.97441 2.72303,13.96511 3.49657,22.42698 3.49843,38.26828 0,19.1801 -1.43343,30.85031 -6.01306,48.87833 -15.19414,59.8127 -58.46951,115.03487 -123.42947,157.50385 -5.93739,3.88169 -11.2514,7.40971 -11.80897,7.84005 -0.91531,0.70648 3.07334,7.59758 41.08655,70.98462 23.15513,38.61124 42.76781,71.46064 43.58375,72.99872 1.20625,2.27383 1.33993,2.94013 0.71507,3.56512 -0.61593,0.61592 -17.12403,0.79956 -83.13289,0.92479 -45.30037,0.0859 -82.96571,-0.0663 -83.70074,-0.33819 -1.00072,-0.37022 -7.45824,-12.03421 -25.70857,-46.43638 -13.40465,-25.26818 -24.53137,-46.10133 -24.72603,-46.29599 -0.19466,-0.19465 -5.457,0.88267 -11.6941,2.39407 -28.25418,6.84663 -58.76958,11.87042 -87.9562,14.48028 l -11.84475,1.05913 0,37.04066 c 0,36.24096 -0.0259,37.06649 -1.19946,38.24005 -1.12522,1.12523 -1.91418,1.19228 -12.74435,1.08288 -6.34969,-0.0641 -38.39798,-0.29938 -71.21843,-0.52278 z m 139.5145,-146.2792 c 14.39,-1.14139 23.29659,-2.11678 25.62521,-2.80629 0.89293,-0.26441 1.03801,-0.70208 0.7353,-2.21816 -1.08975,-5.45779 -8.91289,-18.17696 -15.667,-25.47202 -7.01116,-7.5727 -15.46744,-12.65765 -23.06437,-13.86914 -2.14405,-0.34191 -12.46698,-0.6237 -22.93983,-0.62619 l -19.04157,-0.005 0,22.76655 0,22.76654 5.24768,0.19989 c 16.95471,0.64583 35.10862,0.37349 49.10458,-0.73665 z M 400.38038,336.07236 c 1.40198,-1.13524 4.07752,-1.15267 151.13298,-0.98478 l 149.70575,0.17092 7.94299,1.32908 c 34.7895,5.82129 63.15752,19.06325 83.73464,39.08662 16.62603,16.17859 26.11538,32.75637 32.19255,56.23982 3.28204,12.68261 4.37266,22.2189 4.40996,38.56101 0.036,15.82217 -0.43277,20.87727 -3.22675,34.78458 -5.41398,26.94856 -18.88263,50.37029 -38.34156,66.67509 -20.17482,16.90472 -45.61398,27.86407 -76.29931,32.87022 -4.01162,0.65448 -7.40474,1.30083 -7.54022,1.43634 -0.26766,0.26766 0.1756,0.4377 14.82465,5.68671 16.93619,6.06855 27.88631,11.43644 38.67781,18.96034 4.88525,3.40605 10.49559,9.06644 10.49559,10.58928 0,1.02299 1.47042,0.45778 11.64083,-4.47455 19.85762,-9.63033 40.17394,-22.27128 56.12914,-34.92394 9.60774,-7.61905 27.26529,-25.07745 34.05584,-33.67171 17.43451,-22.06568 27.74484,-45.28327 31.37131,-70.64446 1.1197,-7.83065 0.96599,-24.37514 -0.30089,-32.38564 -3.92603,-24.82348 -14.66853,-48.2677 -32.01518,-69.86902 -9.86862,-12.28923 -27.5233,-28.78912 -42.40696,-39.63323 -73.19451,-53.32887 -186.34929,-79.69277 -299.5672,-69.79606 -135.09907,11.80942 -243.56417,72.57912 -273.71209,153.35259 -4.89047,13.10275 -7.56319,28.31178 -7.56319,43.03815 0,29.65556 10.1689,57.43933 30.94747,84.55557 6.6481,8.67584 24.63028,26.736 34.12368,34.27166 23.31446,18.50651 48.51,33.01871 79.06844,45.54203 l 8.49273,3.48045 0.29987,-156.54568 0.29987,-156.54569 z m 244.46373,188.43413 c 7.35474,-1.53743 11.5481,-3.22175 16.85054,-6.76824 11.13593,-7.44817 16.91011,-20.81977 16.26569,-37.66747 -0.60837,-15.90582 -6.37397,-25.69918 -18.72261,-31.80183 -5.64397,-2.78923 -10.19987,-4.05004 -16.79256,-4.64722 -2.63883,-0.23903 -25.10825,-0.35151 -49.93204,-0.24996 l -45.13418,0.18464 0.15412,40.59728 0.15411,40.59728 7.79654,0.32736 c 4.2881,0.18004 24.93395,0.37891 45.87967,0.44192 35.2344,0.10599 38.48686,0.0302 43.48072,-1.01376 z"
       id="path9295"
       inkscape:connector-curvature="0"
       sodipodi:nodetypes="sccssssssssssssssscsscsscssscsscsssscssssccccsccsscssssssscsssssssssssssssscccssssssscccsss" />
  </g>
</svg>
