<?xml version="1.0" encoding="UTF-8" standalone="no"?>
<!-- Created with Inkscape (http://www.inkscape.org/) -->

<svg
   xmlns:dc="http://purl.org/dc/elements/1.1/"
   xmlns:cc="http://creativecommons.org/ns#"
   xmlns:rdf="http://www.w3.org/1999/02/22-rdf-syntax-ns#"
   xmlns:svg="http://www.w3.org/2000/svg"
   xmlns="http://www.w3.org/2000/svg"
   xmlns:sodipodi="http://sodipodi.sourceforge.net/DTD/sodipodi-0.dtd"
   xmlns:inkscape="http://www.inkscape.org/namespaces/inkscape"
   width="1000"
   height="1000"
   id="svg4955"
   version="1.1"
   inkscape:version="0.48.4 r9939"
   sodipodi:docname="namecheap.svg">
  <defs
     id="defs5498" />
  <sodipodi:namedview
     inkscape:window-height="1056"
     inkscape:window-width="1920"
     inkscape:pageshadow="2"
     inkscape:pageopacity="0.0"
     borderopacity="1.0"
     bordercolor="#666666"
     pagecolor="#ffffff"
     id="base"
     showgrid="false"
     showguides="false"
     inkscape:guide-bbox="true"
     inkscape:zoom="0.53319984"
     inkscape:cx="151.79069"
     inkscape:cy="616.81789"
     inkscape:window-x="0"
     inkscape:window-y="24"
     inkscape:current-layer="g9397"
     inkscape:window-maximized="1">
    <sodipodi:guide
       orientation="0,1"
       position="189.44385,479.26189"
       id="guide7179" />
    <sodipodi:guide
       orientation="1,0"
       position="429.5717,650.94149"
       id="guide7232" />
    <sodipodi:guide
       orientation="0,1"
       position="423.85732,718.7686"
       id="guide7234" />
    <sodipodi:guide
       orientation="0,1"
       position="407.21111,603.48736"
       id="guide7236" />
    <sodipodi:guide
       orientation="1,0"
       position="330.68822,603.48736"
       id="guide7238" />
    <sodipodi:guide
       orientation="1,0"
       position="526.71602,603.48736"
       id="guide7240" />
    <sodipodi:guide
       orientation="0,1"
       position="429.5717,709.07902"
       id="guide7242" />
    <sodipodi:guide
       orientation="0,1"
       position="429.5717,618.89132"
       id="guide7244" />
    <sodipodi:guide
       orientation="1,0"
       position="421.62126,644.23332"
       id="guide7246" />
    <sodipodi:guide
       orientation="1,0"
       position="370.68882,649.20234"
       id="guide7248" />
    <sodipodi:guide
       orientation="1,0"
       position="377.397,646.46938"
       id="guide7250" />
    <sodipodi:guide
       orientation="0,1"
       position="401.99364,699.63788"
       id="guide7252" />
    <sodipodi:guide
       orientation="0,1"
       position="402.73899,694.42041"
       id="guide7254" />
    <sodipodi:guide
       orientation="0,1"
       position="412.67703,632.80457"
       id="guide7258" />
    <sodipodi:guide
       orientation="0,1"
       position="421.62126,626.0964"
       id="guide7260" />
    <sodipodi:guide
       orientation="1,0"
       position="469.5723,641.50036"
       id="guide7262" />
    <sodipodi:guide
       orientation="1,0"
       position="390.5649,658.14657"
       id="guide7264" />
    <sodipodi:guide
       orientation="1,0"
       position="384.10517,643.23951"
       id="guide7266" />
    <sodipodi:guide
       orientation="1,0"
       position="407.45956,632.80457"
       id="guide7268" />
    <sodipodi:guide
       orientation="0,1"
       position="562.25,301.75"
       id="guide9656" />
    <sodipodi:guide
       orientation="0,1"
       position="304.625,414.0625"
       id="guide9658" />
    <sodipodi:guide
       orientation="0,1"
       position="574.5,288.25"
       id="guide9660" />
    <sodipodi:guide
       orientation="0,1"
       position="274,595.875"
       id="guide9707" />
    <sodipodi:guide
       orientation="0,1"
       position="278.41012,505.92896"
       id="guide9709" />
  </sodipodi:namedview>
  <metadata
     id="metadata5594">
    <rdf:RDF>
      <cc:Work
         rdf:about="">
        <dc:format>image/svg+xml</dc:format>
        <dc:type
           rdf:resource="http://purl.org/dc/dcmitype/StillImage" />
        <dc:title></dc:title>
      </cc:Work>
    </rdf:RDF>
  </metadata>
  <g
     inkscape:groupmode="layer"
     id="layer13"
     inkscape:label="Layer#1">
    <g
       id="g9397"
       transform="translate(38.074989,310.11877)">
      <path
         style="fill:#000000"
         d="M 221.23859,609.11389 C 159.94813,580.6845 112.7079,534.25259 83.160374,473.39832 64.247985,434.44751 54.733943,395.89841 52.509768,349.20775 48.594355,267.01427 72.502916,178.90204 120.22777,99.64092 175.74313,7.4413942 261.1202,-68.671321 357.40784,-111.80248 c 91.55949,-41.01322 188.71866,-51.44819 273.76268,-29.4023 14.15514,3.66942 39.77854,12.25912 41.59576,13.94409 1.35869,1.25982 -11.39804,32.193778 -23.41781,56.78612 C 614.77742,0.25751218 575.77035,49.329209 529.34957,80.486462 501.75139,99.010143 476.34883,106.52074 457.71075,101.6674 423.61436,92.78875 419.61922,43.458801 447.9291,-19.111705 c 12.73537,-28.147723 32.90141,-58.416822 56.5829,-84.930575 l 5.3776,-6.02075 -4.54978,0.5998 c -7.50172,0.98896 -25.935,4.51028 -35.40675,6.76379 l -8.87804,2.11224 -9.31322,11.88841 C 350.91278,40.010216 281.33658,197.75773 249.64494,369.50783 c -12.84575,69.61645 -19.19423,145.15839 -18.07049,215.02433 0.25814,16.04922 0.2172,29.15639 -0.091,29.12717 -0.30819,-0.029 -4.91837,-2.07475 -10.24487,-4.54544 z M 508.24328,54.266656 c 43.33889,-17.019439 79.98076,-86.907824 58.63789,-111.842167 -9.68071,-11.309741 -27.70183,-9.754066 -48.54522,4.190661 -7.40809,4.956187 -24.14615,22.156163 -30.10186,30.932581 -20.51514,30.2313445 -25.18351,61.61757 -11.05446,74.32081 5.21555,4.689219 7.93918,5.529167 16.9879,5.238928 6.02646,-0.193303 8.71652,-0.736215 14.07575,-2.840813 z M 357.64069,573.98022 c -22.99989,-1.80108 -47.71208,-5.96746 -67.11506,-11.31534 -5.91886,-1.63137 -11.5715,-3.14407 -12.56143,-3.36156 -1.58806,-0.3489 -1.8698,-1.14049 -2.39406,-6.72646 -0.89803,-9.56862 0.18455,-54.18304 1.69029,-69.6587 5.98844,-61.54783 21.96047,-117.07586 45.3602,-157.6983 22.65766,-39.33418 49.87184,-63.45748 80.07361,-70.97916 9.9095,-2.46794 24.93936,-2.44173 35.07817,0.0612 27.71958,6.84293 53.73902,29.25913 74.30675,64.01656 22.73125,38.41357 38.9301,92.25066 44.17067,146.80177 0.74356,7.74005 1.60735,15.65485 1.91951,17.58847 l 0.56758,3.51564 13.54937,-7.91405 c 19.49052,-11.38423 37.60089,-23.38841 37.10465,-24.59428 C 568.6842,354.7967 560.2908,269.99828 581.88262,175.79968 601.18911,91.571353 647.84218,-5.4984924 716.75643,-104.82879 l 11.19938,-16.14235 -3.06991,-2.75213 c -4.37343,-3.92073 -19.77985,-14.02388 -29.97381,-19.6561 -47.81289,-26.41689 -112.13605,-39.36143 -179.43445,-36.10981 -11.26526,0.5443 -25.64696,1.56689 -31.95932,2.27244 -6.31237,0.70553 -11.65066,1.10916 -11.86288,0.89695 -0.54107,-0.54108 19.99549,-23.75649 36.66986,-41.45316 10.88582,-11.55322 14.63327,-15.01806 16.88657,-15.61306 4.51693,-1.19271 50.76062,-0.12948 63.74021,1.46551 57.61832,7.08042 105.31438,24.37279 148.87652,53.97573 110.08099,74.80625 157.01247,212.223004 123.07505,360.36695 -34.6989,151.46777 -152.65605,290.45275 -300.51111,354.08225 -46.16647,19.86776 -90.9402,31.53331 -140.72814,36.6659 -11.27772,1.16262 -50.91063,1.68013 -62.02371,0.80989 z"
         id="path10101"
         inkscape:connector-curvature="0" />
    </g>
  </g>
</svg>
