<?xml version="1.0" encoding="UTF-8" standalone="no"?>
<!-- Created with Inkscape (http://www.inkscape.org/) -->

<svg
   xmlns:dc="http://purl.org/dc/elements/1.1/"
   xmlns:cc="http://creativecommons.org/ns#"
   xmlns:rdf="http://www.w3.org/1999/02/22-rdf-syntax-ns#"
   xmlns:svg="http://www.w3.org/2000/svg"
   xmlns="http://www.w3.org/2000/svg"
   xmlns:sodipodi="http://sodipodi.sourceforge.net/DTD/sodipodi-0.dtd"
   xmlns:inkscape="http://www.inkscape.org/namespaces/inkscape"
   version="1.1"
   width="1000"
   height="1000"
   id="svg4111"
   inkscape:version="0.48.4 r9939"
   sodipodi:docname="rails.svg">
  <sodipodi:namedview
     pagecolor="#ffffff"
     bordercolor="#666666"
     borderopacity="1"
     objecttolerance="10"
     gridtolerance="10"
     guidetolerance="10"
     inkscape:pageopacity="0"
     inkscape:pageshadow="2"
     inkscape:window-width="1138"
     inkscape:window-height="862"
     id="namedview7"
     showgrid="false"
     inkscape:zoom="0.472"
     inkscape:cx="263.31895"
     inkscape:cy="438.76729"
     inkscape:window-x="0"
     inkscape:window-y="24"
     inkscape:window-maximized="0"
     inkscape:current-layer="svg4111" />
  <defs
     id="defs5498" />
  <metadata
     id="metadata5594">
    <rdf:RDF>
      <cc:Work
         rdf:about="">
        <dc:format>image/svg+xml</dc:format>
        <dc:type
           rdf:resource="http://purl.org/dc/dcmitype/StillImage" />
        <dc:title />
      </cc:Work>
    </rdf:RDF>
  </metadata>
  <g
     id="layer1">
    <path
       d="m 186.16414,887.37757 c -2.73182,-10.88382 1.10332,-93.72474 5.82749,-125.9467 12.42501,-84.71113 33.89277,-163.59767 65.15072,-239.40518 15.3174,-37.14862 63.02213,-132.53859 83.05057,-166.06827 72.22238,-120.9064 174.98641,-191.80384 294.08093,-202.88785 39.76663,-3.70104 83.02988,2.27021 124.97417,17.24908 39.37806,14.06238 91.40566,45.21696 125.22499,74.98629 l 13.55074,11.92764 -8.38562,12.62961 c -4.61212,6.94627 -8.77361,12.62944 -9.24798,12.62944 -0.47341,0 -6.31501,-4.42604 -12.97955,-9.83579 -22.09227,-17.9325 -61.74299,-31.82215 -90.84278,-31.82215 -54.17007,0 -121.46211,31.31533 -170.99979,79.57714 -25.90249,25.23528 -45.31492,52.24554 -61.66839,85.80441 -25.59971,52.53346 -35.3609,100.45808 -35.13676,172.51159 0.19323,63.146 6.97815,113.25582 25.14486,185.79759 9.69588,38.71724 32.09692,108.50536 39.34888,122.58785 l 3.2775,6.36448 -194.41953,0 -194.41971,0 z m 419.18051,-63.44066 c -12.72893,-0.91203 -27.91146,-1.78154 -33.73915,-1.93227 l -10.59553,-0.27051 -2.62245,-10.99319 c -1.4434,-6.04623 -4.68032,-18.05116 -7.19496,-26.67752 l -4.57268,-15.68433 32.66113,0.64151 32.66097,0.64151 13.35711,28.35067 c 12.43832,26.39965 13.00756,28.32457 8.27316,27.96904 -2.79637,-0.21254 -15.49884,-1.12844 -28.2276,-2.04259 z M 129.16988,773.71058 c -26.73587,-3.48793 -27.19363,-3.64791 -27.19363,-9.49184 0,-7.30798 7.08018,-66.01731 8.08534,-67.04431 0.39804,-0.40771 17.47553,0.53524 37.94818,2.09167 l 37.22321,2.83307 -1.35451,8.32224 c -0.74391,4.57713 -3.59535,21.34044 -6.3349,37.25142 l -4.98098,28.92918 -8.10002,0.32848 c -4.45521,0.1739 -20.3372,-1.26949 -35.29326,-3.21972 z m 425.37476,-124.13888 -27.6568,-12.20259 0.63766,-22.95657 c 0.35167,-12.62634 1.52454,-23.86899 2.60584,-24.98371 1.67333,-1.72357 49.1661,21.2958 53.51657,25.9396 0.79611,0.85018 2.01496,11.69905 2.70769,24.10975 0.91974,16.44119 0.52363,22.52838 -1.44727,22.43061 -1.48783,-0.0579 -15.15276,-5.62557 -30.36408,-12.33709 z M 195.70698,523.47952 c -17.82043,-5.83136 -32.89861,-10.95088 -33.50669,-11.37694 -1.51683,-1.06081 19.23987,-60.66438 21.12535,-60.66438 1.25211,0 17.00756,5.96758 61.39557,23.25414 l 5.04184,1.96374 -7.7097,21.57095 c -4.24035,11.86408 -9.11272,24.78489 -10.82761,28.71277 l -3.11807,7.14182 z m 359.87933,-12.26307 c -13.36523,-11.45964 -24.01525,-21.86118 -23.66687,-23.11444 0.3478,-1.25403 4.51414,-9.94011 9.25726,-19.3048 l 8.62386,-17.02609 21.05948,16.11329 21.05967,16.11368 -5.55774,23.56949 c -3.05684,12.96332 -5.76432,23.77565 -6.01666,24.02742 -0.2512,0.25119 -11.39356,-8.91872 -24.759,-20.37855 z m 44.72829,-128.6217 c -10.13237,-11.14197 -19.13861,-21.46796 -20.01355,-22.94634 -1.65594,-2.7983 23.16139,-28.53597 27.35788,-28.37172 1.27334,0.0387 8.4142,9.60912 15.86983,21.24305 l 13.55575,21.15281 -6.61277,12.39833 c -3.63671,6.81913 -7.76497,13.38456 -9.17378,14.59047 -1.74096,1.48978 -8.44958,-4.28343 -20.98336,-18.0666 z M 298.69497,319.52701 c -13.36543,-8.90209 -24.30065,-17.18645 -24.30065,-18.40939 0,-2.86321 36.23659,-44.08369 38.75355,-44.08369 1.04728,0 12.86999,7.35901 26.27562,16.35328 l 24.37408,16.35328 -11.03358,13.15462 c -16.69124,19.89974 -27.02668,31.60516 -28.47009,32.2432 -0.71493,0.31496 -12.2337,-6.70919 -25.59893,-15.6113 z m 378.74859,-18.69767 c -4.89652,-8.9906 -8.54153,-16.64931 -8.10021,-17.01972 0.76517,-0.64152 33.26169,-8.53904 37.58396,-9.1336 1.13617,-0.15457 3.37836,4.68785 4.98194,10.7652 l 2.9154,11.04943 -12.71561,10.35804 c -6.99343,5.69689 -13.40098,10.35112 -14.23901,10.3426 -0.8386,-0.009 -5.52992,-7.37135 -10.42647,-16.36195 z m 135.61282,-11.94889 -19.09342,-2.22326 0,-11.26739 c 0,-7.94776 0.85214,-11.0042 2.89318,-10.3739 1.59024,0.49273 10.44328,2.65395 19.67173,4.80533 l 16.77895,3.91186 0,9.00799 c 0,4.9543 -0.26085,8.86289 -0.57775,8.6855 -0.31689,-0.1739 -9.17048,-1.32167 -19.67192,-2.54613 z m 7.91357,-100.73556 -20.43692,-10.95551 1.49556,-11.5296 c 0.82122,-6.34147 1.84725,-11.88164 2.2768,-12.31195 1.2347,-1.23472 45.20263,31.94619 45.20263,34.11363 0,1.06852 -1.82404,4.12536 -4.05,6.79148 l -4.0502,4.84746 -20.43692,-10.95551 z m -374.80198,-12.54481 -17.44229,-21.40206 22.82441,-12.22636 c 12.55329,-6.72426 23.65275,-12.14116 24.66506,-12.03739 1.01251,0.11588 9.38826,8.86674 18.61307,19.4731 l 16.77237,19.2845 -19.08665,10.97524 c -10.49756,6.03637 -21.29541,12.40625 -23.99516,14.15532 -4.63046,2.99964 -5.89685,1.96802 -22.35081,-18.22235 z m 161.68689,-29.88893 c -0.59514,-1.77961 -2.25437,-9.48545 -3.69023,-17.1227 -1.43566,-7.63744 -3.1747,-15.85108 -3.86452,-18.25269 -1.19413,-4.15937 0.19323,-4.31453 29.09671,-3.27053 16.69296,0.60286 30.95206,1.69652 31.68691,2.43212 1.83371,1.83372 6.67054,33.82591 5.31911,35.17733 -0.59707,0.59708 -13.77274,1.80474 -29.27757,2.68024 -23.12429,1.30622 -28.38467,1.01058 -29.27041,-1.64435 z"
       id="path3940"
       style="fill:#000000"
       inkscape:connector-curvature="0"
       sodipodi:nodetypes="ccssssccsssssscsscccccccccccccccccsccccscccccccccccccscsccsscsscccccscscccsccccsssscscssccccscsccscccscccccccsccccccscscscccccscsccc" />
  </g>
</svg>
