<?xml version="1.0" encoding="UTF-8" standalone="no"?>
<!-- Created with Inkscape (http://www.inkscape.org/) -->

<svg
   xmlns:dc="http://purl.org/dc/elements/1.1/"
   xmlns:cc="http://creativecommons.org/ns#"
   xmlns:rdf="http://www.w3.org/1999/02/22-rdf-syntax-ns#"
   xmlns:svg="http://www.w3.org/2000/svg"
   xmlns="http://www.w3.org/2000/svg"
   xmlns:sodipodi="http://sodipodi.sourceforge.net/DTD/sodipodi-0.dtd"
   xmlns:inkscape="http://www.inkscape.org/namespaces/inkscape"
   width="1000"
   height="1000"
   id="svg4955"
   version="1.1"
   inkscape:version="0.48.4 r9939"
   sodipodi:docname="pyramid.svg">
  <defs
     id="defs5498" />
  <sodipodi:namedview
     inkscape:window-height="1056"
     inkscape:window-width="1920"
     inkscape:pageshadow="2"
     inkscape:pageopacity="0.0"
     borderopacity="1.0"
     bordercolor="#666666"
     pagecolor="#ffffff"
     id="base"
     showgrid="false"
     showguides="true"
     inkscape:guide-bbox="true"
     inkscape:zoom="0.64205296"
     inkscape:cx="497.58625"
     inkscape:cy="539.61322"
     inkscape:window-x="0"
     inkscape:window-y="24"
     inkscape:current-layer="layer3"
     inkscape:window-maximized="1">
    <sodipodi:guide
       orientation="horizontal"
       position="200"
       id="guide5596" />
    <sodipodi:guide
       orientation="1,0"
       position="279.76664,517.28599"
       id="guide6029" />
    <sodipodi:guide
       orientation="0,1"
       position="317.18062,496.69604"
       id="guide6031" />
  </sodipodi:namedview>
  <metadata
     id="metadata5594">
    <rdf:RDF>
      <cc:Work
         rdf:about="">
        <dc:format>image/svg+xml</dc:format>
        <dc:type
           rdf:resource="http://purl.org/dc/dcmitype/StillImage" />
        <dc:title></dc:title>
      </cc:Work>
    </rdf:RDF>
  </metadata>
  <g
     inkscape:groupmode="layer"
     id="layer3"
     inkscape:label="Layer"
     style="opacity:1">
    <path
       style="fill:#000000"
       d="m 313.91141,884.8314 c -9.71755,-1.52741 -16.64995,-3.79555 -26.03924,-8.51948 -33.36395,-16.78607 -51.95981,-56.36202 -53.99456,-114.91188 -0.99224,-28.55183 1.57041,-53.65483 9.40397,-92.11835 2.34589,-11.51858 4.26527,-21.72599 4.26527,-22.68313 0,-1.29159 -4.79597,-3.35817 -18.60268,-8.01588 -25.78456,-8.69845 -42.33641,-15.45958 -64.97457,-26.54096 -35.61256,-17.43234 -59.10876,-35.5073 -76.307235,-58.70097 -6.373331,-8.59501 -14.619774,-24.39659 -16.923088,-32.4275 -1.943694,-6.77702 -2.641344,-28.0896 -1.217898,-37.20536 4.315131,-27.63402 35.056271,-63.85863 72.258771,-85.14799 22.91554,-13.11355 56.88612,-28.0809 88.34697,-38.92544 9.1027,-3.1377 16.77593,-6.29272 17.05163,-7.01116 0.27569,-0.71843 -1.44335,-11.19054 -3.82009,-23.27134 -8.29658,-42.17089 -10.91301,-71.84357 -8.86273,-100.51102 4.56506,-63.82934 28.22872,-101.42972 70.74618,-112.41214 10.09377,-2.60725 32.02093,-2.64675 45.07076,-0.0812 15.69319,3.08525 32.5471,9.19693 50.83901,18.43561 28.36734,14.32747 52.78197,31.79675 82.33846,58.91525 l 16.48583,15.12597 14.78824,-13.34736 c 33.3992,-30.14497 60.47849,-49.14608 90.8166,-63.72448 27.66148,-13.29224 44.06743,-17.43611 68.47942,-17.29678 14.47116,0.0826 17.08557,0.39388 24.80357,2.95336 34.75002,11.524 56.07311,40.24698 64.25883,86.5593 1.53879,8.70599 2.45415,19.60306 2.84702,33.89334 0.8499,30.90986 -1.81929,56.81171 -9.95163,96.57161 -2.0464,10.00507 -3.36843,18.53225 -2.93782,18.9493 0.43051,0.41706 9.27535,3.66664 19.65511,7.22129 31.15803,10.67039 70.23465,28.30649 91.10351,41.11694 18.53258,11.37632 36.99884,28.02525 49.07149,44.24237 7.29452,9.79851 15.3601,25.48949 17.18456,33.4309 1.68341,7.32762 1.44573,32.99086 -0.36989,39.94442 -8.50515,32.57275 -40.66438,65.59461 -88.07414,90.43653 -18.81243,9.85741 -37.71448,17.72801 -63.91179,26.61212 -13.11893,4.44896 -24.21476,8.45111 -24.65734,8.89368 -0.44247,0.44257 1.13094,10.2152 3.49666,21.71695 11.76929,57.22102 13.27099,100.98892 4.72875,137.82216 -9.08782,39.18599 -30.46289,65.95707 -60.93893,76.32264 -37.05631,12.60369 -85.20835,-1.85986 -142.4813,-42.79751 -13.4745,-9.63132 -20.10073,-14.90504 -42.14051,-33.53893 -8.24309,-6.96927 -15.30293,-12.66841 -15.68851,-12.66475 -0.38558,0.003 -7.25244,5.62146 -15.25968,12.48401 -53.22132,45.61299 -96.00934,70.5913 -134.70064,78.63404 -10.15179,2.11026 -27.8656,2.87968 -36.18634,1.57181 z m 35.65942,-38.73767 c 21.8105,-5.2093 49.33692,-19.70751 76.10632,-40.08531 12.10963,-9.21828 34.83713,-28.68678 41.62632,-35.65733 l 5.69104,-5.84306 -3.03219,-4.51483 c -1.66772,-2.48315 -8.149,-10.46176 -14.40285,-17.73024 -6.25386,-7.26847 -18.33658,-21.95057 -26.8505,-32.62689 -19.01128,-23.83988 -28.64715,-34.76694 -32.27103,-36.59532 -1.52113,-0.76748 -7.61858,-1.9793 -13.54987,-2.69295 -22.47505,-2.70417 -49.26171,-6.68566 -69.45428,-10.32347 -11.50905,-2.07343 -22.99572,-3.76986 -25.52594,-3.76986 l -4.60039,0 -1.79828,7.81852 c -7.65173,33.26815 -10.24518,56.11968 -10.21613,90.01707 0.032,37.39339 2.50889,51.19878 12.33944,68.77745 5.51246,9.85719 11.05552,15.67763 18.92497,19.87201 12.79272,6.81845 27.97422,7.90157 47.01337,3.35421 z m 332.57772,2.08091 c 16.31094,-2.55964 28.4524,-12.53389 37.23577,-30.58912 2.67232,-5.49313 5.56873,-13.34539 6.43653,-17.44947 5.84695,-27.65152 4.39659,-79.70807 -3.28594,-117.93067 -3.62293,-18.02543 -5.91489,-26.03312 -7.64068,-26.69538 -0.78315,-0.30052 -10.71191,1.20624 -22.06386,3.34835 -19.70255,3.71784 -52.12772,8.60786 -76.4652,11.53167 l -11.32337,1.36035 -6.33946,6.00185 c -3.48663,3.30102 -14.69817,16.43554 -24.91444,29.18781 -10.21616,12.75227 -23.96218,29.47373 -30.54657,37.15881 -6.58441,7.68506 -12.82527,15.55791 -13.86858,17.49521 -1.89606,3.52077 -1.89546,3.52387 1.29833,6.91259 5.87169,6.23002 34.31684,30.27037 47.41032,40.06862 33.501,25.06994 67.27839,39.8478 92.74379,40.57604 2.37251,0.0678 7.46803,-0.37165 11.32336,-0.97666 z M 508.66412,726.62112 c 10.30371,-10.57518 25.7776,-28.20205 33.99018,-38.71944 5.49981,-7.04331 6.84551,-9.43539 5.86154,-10.41934 -1.48965,-1.48962 -94.57918,-1.85695 -96.8935,-0.38234 -1.01962,0.64967 -0.47653,2.10918 2.15683,5.79622 9.5999,13.44111 43.90657,51.00421 46.58254,51.00421 0.66549,0 4.40157,-3.27569 8.30241,-7.27931 z m 67.32224,-88.92411 c 8.75049,-3.98699 51.43991,-73.6 75.53982,-123.18158 7.72965,-15.90271 7.80622,-16.14484 6.13683,-19.41149 -23.78069,-46.53233 -73.68256,-130.71876 -78.60348,-132.60709 -0.92723,-0.35585 -10.01925,-1.18599 -20.20435,-1.84477 -19.45444,-1.25833 -130.30224,-0.7021 -135.72628,0.68108 -5.57797,1.42242 -46.2446,68.35998 -74.84246,123.19121 l -7.4566,14.29668 8.62733,16.92887 c 26.26934,51.54667 57.03356,103.18327 70.03552,117.55202 l 4.66797,5.15866 21.96114,0.67601 c 33.52277,1.03189 126.70739,-0.001 129.86456,-1.4396 z m -91.42902,-62.82006 c -30.61397,-6.39216 -54.09676,-30.93694 -59.81078,-62.51567 -2.78313,-15.38111 -0.41306,-30.85013 7.11637,-46.44725 15.09679,-31.2728 49.30068,-47.93578 83.98539,-40.91486 4.7598,0.96349 12.66825,3.78423 18.5047,6.60015 8.55673,4.12839 11.68642,6.41155 19.50166,14.22683 7.71056,7.71055 10.17755,11.06816 14.36525,19.55143 5.84254,11.8354 8.19866,21.65904 8.22508,34.29367 0.0259,12.27489 -2.46881,22.60938 -8.38112,34.7222 -8.74164,17.90941 -25.36647,32.10838 -44.98173,38.41811 -10.71688,3.44735 -27.57711,4.35127 -38.52482,2.06539 z m -114.07106,55.89084 c 0,-1.43321 -7.70991,-15.6689 -18.28243,-33.75699 -6.04474,-10.34169 -14.41234,-25.18562 -18.59465,-32.98651 -9.32772,-17.39812 -11.20776,-20.0242 -12.72045,-17.76826 -2.8452,4.24313 -25.89159,65.64402 -25.89159,68.98114 0,4.53315 4.63312,5.96221 35.04852,10.81061 30.82304,4.91337 40.4406,6.03588 40.4406,4.72001 z m 281.63604,-2.03548 c 38.19179,-5.55147 50.41455,-8.04036 52.63706,-10.71839 1.46697,-1.76762 -1.93554,-12.48453 -13.70926,-43.17987 -8.75932,-22.8365 -11.74804,-29.65644 -12.99642,-29.65644 -0.53802,0 -3.11252,3.91809 -5.721,8.70687 -2.60858,4.78878 -10.73142,19.22607 -18.05085,32.08288 -7.31932,12.8568 -15.69052,27.56743 -18.60268,32.69029 -5.4612,9.60735 -6.4018,12.79325 -3.77715,12.79325 0.8347,0 9.93383,-1.22337 20.2203,-2.71859 z M 259.24419,603.68168 c 1.11948,-2.22423 5.8004,-14.23509 10.40203,-26.69079 10.36199,-28.04782 17.30277,-45.62075 24.94572,-63.15851 l 5.90568,-13.55136 -13.39708,-33.35974 c -7.36839,-18.34785 -16.41942,-42.0949 -20.11342,-52.77122 -8.63872,-24.96752 -7.83021,-23.5903 -13.34228,-22.72693 -6.90729,1.08191 -34.02451,10.49008 -51.36696,17.8215 -48.80506,20.63204 -79.36901,43.46754 -91.72595,68.53198 -10.632902,21.56744 -6.56904,40.53619 13.45253,62.79195 20.77657,23.09501 71.31967,50.49862 118.15031,64.05909 13.81513,4.00036 14.62235,3.95568 17.08942,-0.94597 z m 505.03535,-0.91177 c 25.86581,-8.36187 58.73949,-23.21485 77.86444,-35.18072 25.65196,-16.04958 43.55669,-34.43194 50.36743,-51.71084 2.93275,-7.44053 3.8232,-18.40952 2.0959,-25.81867 -4.68291,-20.08727 -24.92435,-42.3293 -54.31292,-59.68107 -24.28905,-14.34086 -72.44227,-34.58829 -94.66552,-39.80489 -3.67513,-0.8627 -4.32175,0.0481 -7.93326,11.17455 -4.36025,13.43308 -17.39507,47.83132 -28.35393,74.82453 l -9.58119,23.59976 7.26497,16.84085 c 7.3549,17.04947 17.71816,43.5595 26.56225,67.94834 2.66509,7.34962 5.78009,15.54272 6.92203,18.20688 l 2.07638,4.84393 4.75355,-0.65155 c 2.61451,-0.35834 10.2374,-2.42434 16.93987,-4.5911 z M 338.91285,425.47342 c 7.63738,-13.34539 18.20021,-31.70095 23.47293,-40.79012 9.77624,-16.85238 10.25297,-18.72986 4.52593,-17.82442 -13.09842,2.07085 -54.02942,9.62137 -61.47509,11.34027 -5.27065,1.21677 -9.76125,2.84728 -10.07199,3.65708 -0.94819,2.47095 10.73374,36.15312 20.86536,60.16046 4.76247,11.2849 5.0006,11.62156 6.86515,9.70575 1.06234,-1.09156 8.18031,-12.90362 15.81771,-26.24902 z m 343.44308,20.75951 c 7.23003,-15.91307 24.33155,-64.52027 23.1248,-65.72703 -1.28536,-1.2853 -58.92896,-11.86091 -70.62676,-12.95755 l -6.85387,-0.64254 1.87159,3.67143 c 1.02935,2.01928 8.78337,15.56096 17.23115,30.09261 8.44777,14.53166 17.92575,31.03143 21.062,36.66615 5.98305,10.74916 9.45555,16.17624 10.35032,16.17624 0.29332,0 2.0217,-3.27569 3.84077,-7.27931 z M 323.29097,337.59457 c 19.13643,-3.25558 44.46848,-7.14753 56.29343,-8.64878 11.82494,-1.50125 21.56572,-2.84122 21.64617,-2.9777 0.0804,-0.13648 5.16614,-7.04218 11.30156,-15.34598 13.16092,-17.81227 22.60794,-29.63977 45.14392,-56.5194 l 16.64504,-19.85326 -3.31044,-2.79348 c -1.82073,-1.53642 -8.80511,-7.69636 -15.52085,-13.68876 -33.45901,-29.85526 -72.35895,-54.85912 -96.93081,-62.30458 -10.14071,-3.07272 -26.0938,-6.06373 -32.34193,-6.06373 -5.81994,0 -16.99725,3.00201 -22.05337,5.92311 -6.47131,3.7387 -18.15718,16.44611 -21.84026,23.74947 -4.06753,8.06571 -7.20388,18.1435 -9.64837,31.00245 -1.51904,7.99078 -1.88291,15.61429 -1.83948,38.53926 0.0541,28.55595 0.0576,28.59768 4.5107,54.03502 2.45111,14.00134 5.2451,28.92392 6.20887,33.16129 1.57699,6.93349 2.01194,7.7043 4.34729,7.7043 1.42724,0 18.25207,-2.66365 37.38853,-5.91923 z m 397.33677,-11.87463 c 15.98848,-79.50447 11.41244,-136.16522 -13.05348,-161.62824 -18.52729,-19.28238 -46.87314,-18.99693 -87.43463,0.88051 -17.84056,8.74289 -36.53544,20.68063 -53.56946,34.2071 -12.3347,9.79486 -39.71355,34.15007 -39.71355,35.3277 0,0.41293 5.90844,7.75937 13.12987,16.32542 17.78273,21.09382 40.64256,49.7724 50.81052,63.74386 9.35137,12.84943 7.05036,11.6257 26.10737,13.88391 14.47903,1.71574 49.13382,7.15627 71.71467,11.25867 10.97289,1.99349 21.88301,3.54156 24.24474,3.44013 l 4.29403,-0.18441 3.46992,-17.25465 z m -179.97235,-4.69031 8.94591,-0.70177 -16.24079,-19.9507 c -17.29599,-21.24696 -31.92861,-37.74457 -33.4777,-37.74457 -0.51847,0 -4.91184,4.48891 -9.76306,9.97535 -9.41893,10.65226 -38.75226,46.6903 -38.75226,47.60985 0,1.40405 73.24888,2.07005 89.2879,0.81184 z"
       id="path6285"
       inkscape:connector-curvature="0" />
  </g>
  <g
     inkscape:groupmode="layer"
     id="layer4"
     inkscape:label="Layer#1" />
</svg>
