<?xml version="1.0" encoding="UTF-8" standalone="no"?>
<!-- Created with Inkscape (http://www.inkscape.org/) -->

<svg
   xmlns:dc="http://purl.org/dc/elements/1.1/"
   xmlns:cc="http://creativecommons.org/ns#"
   xmlns:rdf="http://www.w3.org/1999/02/22-rdf-syntax-ns#"
   xmlns:svg="http://www.w3.org/2000/svg"
   xmlns="http://www.w3.org/2000/svg"
   xmlns:sodipodi="http://sodipodi.sourceforge.net/DTD/sodipodi-0.dtd"
   xmlns:inkscape="http://www.inkscape.org/namespaces/inkscape"
   width="1000"
   height="1000"
   id="svg4955"
   version="1.1"
   inkscape:version="0.92.5 (2060ec1f9f, 2020-04-08)"
   sodipodi:docname="redux.svg">
  <defs
     id="defs5498" />
  <sodipodi:namedview
     inkscape:window-height="1043"
     inkscape:window-width="1920"
     inkscape:pageshadow="2"
     inkscape:pageopacity="0.0"
     borderopacity="1.0"
     bordercolor="#666666"
     pagecolor="#ffffff"
     id="base"
     showgrid="false"
     showguides="false"
     inkscape:guide-bbox="true"
     inkscape:zoom="0.53319984"
     inkscape:cx="151.79069"
     inkscape:cy="616.81789"
     inkscape:window-x="0"
     inkscape:window-y="0"
     inkscape:current-layer="g9397"
     inkscape:window-maximized="1">
    <sodipodi:guide
       orientation="0,1"
       position="189.44385,479.26189"
       id="guide7179"
       inkscape:locked="false" />
    <sodipodi:guide
       orientation="1,0"
       position="429.5717,650.94149"
       id="guide7232"
       inkscape:locked="false" />
    <sodipodi:guide
       orientation="0,1"
       position="423.85732,718.7686"
       id="guide7234"
       inkscape:locked="false" />
    <sodipodi:guide
       orientation="0,1"
       position="407.21111,603.48736"
       id="guide7236"
       inkscape:locked="false" />
    <sodipodi:guide
       orientation="1,0"
       position="330.68822,603.48736"
       id="guide7238"
       inkscape:locked="false" />
    <sodipodi:guide
       orientation="1,0"
       position="526.71602,603.48736"
       id="guide7240"
       inkscape:locked="false" />
    <sodipodi:guide
       orientation="0,1"
       position="429.5717,709.07902"
       id="guide7242"
       inkscape:locked="false" />
    <sodipodi:guide
       orientation="0,1"
       position="429.5717,618.89132"
       id="guide7244"
       inkscape:locked="false" />
    <sodipodi:guide
       orientation="1,0"
       position="421.62126,644.23332"
       id="guide7246"
       inkscape:locked="false" />
    <sodipodi:guide
       orientation="1,0"
       position="370.68882,649.20234"
       id="guide7248"
       inkscape:locked="false" />
    <sodipodi:guide
       orientation="1,0"
       position="377.397,646.46938"
       id="guide7250"
       inkscape:locked="false" />
    <sodipodi:guide
       orientation="0,1"
       position="401.99364,699.63788"
       id="guide7252"
       inkscape:locked="false" />
    <sodipodi:guide
       orientation="0,1"
       position="402.73899,694.42041"
       id="guide7254"
       inkscape:locked="false" />
    <sodipodi:guide
       orientation="0,1"
       position="412.67703,632.80457"
       id="guide7258"
       inkscape:locked="false" />
    <sodipodi:guide
       orientation="0,1"
       position="421.62126,626.0964"
       id="guide7260"
       inkscape:locked="false" />
    <sodipodi:guide
       orientation="1,0"
       position="469.5723,641.50036"
       id="guide7262"
       inkscape:locked="false" />
    <sodipodi:guide
       orientation="1,0"
       position="390.5649,658.14657"
       id="guide7264"
       inkscape:locked="false" />
    <sodipodi:guide
       orientation="1,0"
       position="384.10517,643.23951"
       id="guide7266"
       inkscape:locked="false" />
    <sodipodi:guide
       orientation="1,0"
       position="407.45956,632.80457"
       id="guide7268"
       inkscape:locked="false" />
    <sodipodi:guide
       orientation="0,1"
       position="562.25,301.75"
       id="guide9656"
       inkscape:locked="false" />
    <sodipodi:guide
       orientation="0,1"
       position="304.625,414.0625"
       id="guide9658"
       inkscape:locked="false" />
    <sodipodi:guide
       orientation="0,1"
       position="574.5,288.25"
       id="guide9660"
       inkscape:locked="false" />
    <sodipodi:guide
       orientation="0,1"
       position="274,595.875"
       id="guide9707"
       inkscape:locked="false" />
    <sodipodi:guide
       orientation="0,1"
       position="278.41012,505.92896"
       id="guide9709"
       inkscape:locked="false" />
  </sodipodi:namedview>
  <metadata
     id="metadata5594">
    <rdf:RDF>
      <cc:Work
         rdf:about="">
        <dc:format>image/svg+xml</dc:format>
        <dc:type
           rdf:resource="http://purl.org/dc/dcmitype/StillImage" />
        <dc:title></dc:title>
      </cc:Work>
    </rdf:RDF>
  </metadata>
  <g
     inkscape:groupmode="layer"
     id="layer13"
     inkscape:label="Layer#1">
    <g
       id="g9397"
       transform="translate(38.074989,310.11877)">
      <path
         style="fill:#000000;stroke-width:1.44033158"
         d="m 607.30197,554.22702 c -25.50972,-3.63917 -47.64728,-9.64633 -74.54708,-20.22876 l -18.37414,-7.22842 13.33298,-10.16482 c 7.33313,-5.59064 17.05753,-13.37776 21.60976,-17.3047 l 8.27677,-7.1399 12.21582,4.42019 c 24.0382,8.69805 49.59207,14.01914 74.21434,15.45371 51.20569,2.98338 98.11954,-16.47473 127.1246,-52.72656 34.7035,-43.37402 41.43428,-90.04942 20.72001,-143.68551 C 767.11646,251.51417 720.18749,202.69769 647.48253,165.42221 597.49745,139.79512 546.50172,126.99081 484.0268,124.38076 l -23.89228,-0.99815 -3.78245,6.45428 c -11.5889,19.77496 -35.76426,31.28593 -56.64616,26.97178 -18.15617,-3.75103 -31.96424,-14.61337 -39.87407,-31.3676 -4.03943,-8.5561 -4.54624,-11.04044 -4.46655,-21.89406 0.1158,-15.771822 3.9209,-25.905592 13.77625,-36.688923 22.86449,-25.01738 62.82744,-23.303846 82.87844,3.553687 3.3432,4.478078 6.49348,7.221362 8.31551,7.24121 20.44567,0.222675 65.42155,3.390426 81.51089,5.740988 96.31665,14.07134 181.14737,59.839728 241.57937,130.338418 38.85192,45.32381 59.37535,91.81409 63.64221,144.16423 3.33601,40.92953 -5.41939,79.39648 -24.74982,108.73875 -28.69019,43.54968 -81.97493,76.18481 -140.65953,86.14923 -19.03209,3.23159 -56.69384,3.96218 -74.35664,1.44242 z M 252.69438,551.39494 C 184.98024,544.84051 129.15337,513.27442 101.2967,465.79042 75.337189,421.54028 68.871123,360.01709 84.491908,305.89649 c 11.386774,-39.4512 34.225672,-76.06104 67.864342,-108.78381 16.58887,-16.13718 33.4566,-30.19107 36.23589,-30.19107 0.75109,0 1.75689,2.43056 2.23508,5.40124 0.47818,2.97069 3.12231,13.50311 5.87586,23.40539 l 5.00641,18.00415 -6.77202,5.75467 c -21.78601,18.51314 -42.07013,41.97895 -53.38591,61.75981 -29.41063,51.41203 -32.19994,99.83227 -8.47359,147.09494 23.98526,47.77839 62.90852,72.12021 123.63943,77.32161 48.01332,4.11217 95.32926,-5.72879 143.1768,-29.77853 73.11801,-36.7515 124.51682,-82.91784 158.47381,-142.34098 l 8.07983,-14.13933 -3.78777,-4.966 c -2.08327,-2.7313 -5.51126,-8.68345 -7.61776,-13.22698 -5.18871,-11.19157 -5.40683,-28.68263 -0.51162,-41.0237 4.57514,-11.53413 15.35507,-22.90222 27.28789,-28.77673 8.80719,-4.33577 10.68431,-4.71374 23.29259,-4.69022 12.49987,0.0233 14.56169,0.43829 23.29861,4.68923 12.01023,5.84357 22.77706,17.20265 27.27727,28.77772 4.14012,10.64887 4.56129,28.11832 0.92877,38.52405 -5.60391,16.05294 -19.5672,29.18958 -36.24047,34.09493 l -10.36566,3.04962 -6.86927,13.4691 c -8.23073,16.13861 -28.56417,46.97575 -42.12969,63.89272 -12.58688,15.69655 -38.12839,41.23642 -53.81182,53.80837 -40.2972,32.30253 -91.33982,58.09576 -141.28214,71.39374 -47.37719,12.61499 -79.22872,16.26494 -113.22239,12.97451 z m 70.50738,-148.83937 c -15.44514,-5.03351 -29.18225,-18.22704 -34.90578,-33.52455 -4.18273,-11.17936 -4.25801,-27.18501 -0.17817,-37.88858 l 3.01075,-7.89883 -11.37967,-22.34814 c -24.15144,-47.43012 -37.69954,-88.565 -45.78574,-139.01502 -1.9763,-12.33008 -2.5355,-24.46787 -2.52158,-54.73261 0.0155,-33.749712 0.44465,-41.344925 3.2473,-57.473371 17.32258,-99.686361 62.02768,-168.570119 132.73568,-204.525479 28.83473,-14.66259 54.58129,-21.07355 84.83874,-21.12506 29.17503,-0.0497 51.29995,4.81162 75.74937,16.64363 21.27883,10.29765 34.69876,20.10916 54.11238,39.56238 32.34459,32.41058 52.97085,69.882478 65.60867,119.19193362 4.89756,19.10892338 11.84025,61.69541138 10.30778,63.22786738 -0.44231,0.442311 -8.15075,-1.478098 -17.12986,-4.267559 -8.97913,-2.789462 -19.40439,-5.836238 -23.16726,-6.770596 -3.76287,-0.934357 -6.84418,-2.107998 -6.84737,-2.608081 -0.0312,-4.88451 -5.10609,-29.93303 -8.50107,-41.9587196 C 585.37154,-53.258778 548.9819,-102.30523 507.69986,-120.58786 c -28.39851,-12.57688 -63.44907,-12.68085 -100.43685,-0.29792 -26.81381,8.97688 -46.94946,21.320254 -63.76132,39.086457 -30.5935,32.330199 -51.8231,77.2413588 -61.40092,129.893561 -4.33376,23.823921 -4.65795,90.582542 -0.55958,115.226542 7.41037,44.55943 21.80041,86.49246 41.76618,121.70802 l 6.12457,10.80249 12.94334,0.82377 c 10.98074,0.69887 14.3031,1.54852 21.91107,5.60352 10.86179,5.78927 19.43516,14.76509 24.57432,25.7279 3.34855,7.14307 3.83187,9.99085 3.83187,22.57741 0,12.62334 -0.47849,15.42429 -3.87185,22.66476 -4.97081,10.60628 -16.24966,21.85274 -26.75566,26.67879 -10.00287,4.59493 -28.93185,5.88475 -38.86327,2.64813 z"
         id="path868"
         inkscape:connector-curvature="0" />
    </g>
  </g>
</svg>
