<?xml version="1.0" encoding="UTF-8" standalone="no"?>
<!-- Created with Inkscape (http://www.inkscape.org/) -->

<svg
   xmlns:dc="http://purl.org/dc/elements/1.1/"
   xmlns:cc="http://creativecommons.org/ns#"
   xmlns:rdf="http://www.w3.org/1999/02/22-rdf-syntax-ns#"
   xmlns:svg="http://www.w3.org/2000/svg"
   xmlns="http://www.w3.org/2000/svg"
   xmlns:sodipodi="http://sodipodi.sourceforge.net/DTD/sodipodi-0.dtd"
   xmlns:inkscape="http://www.inkscape.org/namespaces/inkscape"
   width="1000"
   height="1000"
   id="svg4955"
   version="1.1"
   inkscape:version="0.48.4 r9939"
   sodipodi:docname="html5.svg">
  <defs
     id="defs5498" />
  <sodipodi:namedview
     inkscape:window-height="1056"
     inkscape:window-width="1920"
     inkscape:pageshadow="2"
     inkscape:pageopacity="0.0"
     borderopacity="1.0"
     bordercolor="#666666"
     pagecolor="#ffffff"
     id="base"
     showgrid="false"
     showguides="false"
     inkscape:guide-bbox="true"
     inkscape:zoom="0.70710678"
     inkscape:cx="197.77998"
     inkscape:cy="519.63189"
     inkscape:window-x="0"
     inkscape:window-y="24"
     inkscape:current-layer="g9397"
     inkscape:window-maximized="1">
    <sodipodi:guide
       orientation="0,1"
       position="189.44385,479.26189"
       id="guide7179" />
    <sodipodi:guide
       orientation="1,0"
       position="429.5717,650.94149"
       id="guide7232" />
    <sodipodi:guide
       orientation="0,1"
       position="423.85732,718.7686"
       id="guide7234" />
    <sodipodi:guide
       orientation="0,1"
       position="407.21111,603.48736"
       id="guide7236" />
    <sodipodi:guide
       orientation="1,0"
       position="330.68822,603.48736"
       id="guide7238" />
    <sodipodi:guide
       orientation="1,0"
       position="526.71602,603.48736"
       id="guide7240" />
    <sodipodi:guide
       orientation="0,1"
       position="429.5717,709.07902"
       id="guide7242" />
    <sodipodi:guide
       orientation="0,1"
       position="429.5717,618.89132"
       id="guide7244" />
    <sodipodi:guide
       orientation="1,0"
       position="421.62126,644.23332"
       id="guide7246" />
    <sodipodi:guide
       orientation="1,0"
       position="370.68882,649.20234"
       id="guide7248" />
    <sodipodi:guide
       orientation="1,0"
       position="377.397,646.46938"
       id="guide7250" />
    <sodipodi:guide
       orientation="0,1"
       position="401.99364,699.63788"
       id="guide7252" />
    <sodipodi:guide
       orientation="0,1"
       position="402.73899,694.42041"
       id="guide7254" />
    <sodipodi:guide
       orientation="0,1"
       position="412.67703,632.80457"
       id="guide7258" />
    <sodipodi:guide
       orientation="0,1"
       position="421.62126,626.0964"
       id="guide7260" />
    <sodipodi:guide
       orientation="1,0"
       position="469.5723,641.50036"
       id="guide7262" />
    <sodipodi:guide
       orientation="1,0"
       position="390.5649,658.14657"
       id="guide7264" />
    <sodipodi:guide
       orientation="1,0"
       position="384.10517,643.23951"
       id="guide7266" />
    <sodipodi:guide
       orientation="1,0"
       position="407.45956,632.80457"
       id="guide7268" />
  </sodipodi:namedview>
  <metadata
     id="metadata5594">
    <rdf:RDF>
      <cc:Work
         rdf:about="">
        <dc:format>image/svg+xml</dc:format>
        <dc:type
           rdf:resource="http://purl.org/dc/dcmitype/StillImage" />
        <dc:title></dc:title>
      </cc:Work>
    </rdf:RDF>
  </metadata>
  <g
     inkscape:groupmode="layer"
     id="layer13"
     inkscape:label="Layer#1">
    <g
       id="g9397"
       transform="translate(38.074989,310.11877)">
      <path
         style="fill:#000000"
         d="M 245.43338,303.45681 C 129.30819,180.70266 34.296664,77.84104 34.296664,74.875426 c 0,-5.711217 136.644496,-210.770626 144.797006,-217.293716 3.71426,-2.97191 49.178,-3.82362 203.85743,-3.819 109.49238,0.003 236.98578,0.90602 283.31869,2.00614 l 84.24165,2.00023 69.52096,104.372468 c 38.23652,57.40489 69.52096,105.731973 69.52096,107.393588 0,4.714163 -423.33404,455.735354 -428.44239,456.463654 -2.52513,0.36 -98.26618,-98.4282 -215.67759,-222.54198 z M 538.62715,251.55059 610.50522,87.843137 464.9737,87.048192 c -80.04236,-0.437236 -146.04369,-0.282739 -146.66964,0.343143 -0.62597,0.625944 31.60481,75.608275 71.62391,166.627355 40.01913,91.01908 73.67533,164.53302 74.79157,163.36431 1.11624,-1.16872 34.37468,-75.79331 73.90761,-165.83241 z M 404.60846,400.72327 C 402.28743,395.2536 369.3699,322.61798 331.45837,239.31078 l -68.93002,-151.467643 -81.56863,-0.81563 -81.568627,-0.8156 27.121857,28.629433 c 105.01607,110.85342 281.13741,295.82677 281.66981,295.82677 0.3552,0 -1.25323,-4.47518 -3.5743,-9.94484 z M 679.61721,236.25083 815.71502,87.843137 741.91959,87.022489 c -40.58752,-0.451374 -74.88655,0.2705 -76.22008,1.603966 -1.33356,1.333557 -34.16183,72.454865 -72.95171,158.047365 -38.78992,85.5925 -71.3666,157.16209 -72.39266,159.04354 -4.39293,8.05504 31.08755,-29.69877 159.26207,-169.46653 z M 237.7835,34.491552 c 0,-3.651197 -45.69011,-108.040707 -48.65233,-111.157391 -2.08174,-2.190314 -74.13092,101.89978 -76.26509,110.180838 -0.76961,2.986268 12.99333,3.838924 61.96404,3.838924 37.03179,0 62.95338,-1.178602 62.95338,-2.862371 z m 354.44447,0.07497 c -1.56223,-4.269215 -122.9786,-130.320533 -125.52861,-130.320533 -2.85481,0 -124.74015,127.738667 -124.81879,130.812971 -0.0321,1.26223 56.51218,2.294964 125.65434,2.294964 74.31954,0 125.29606,-1.139526 124.69306,-2.787372 z m 226.94648,1.244207 c 0,-4.603056 -77.91899,-117.56331 -79.72271,-115.575075 -4.33008,4.773036 -51.02964,113.863919 -49.4283,115.465284 2.08976,2.089764 129.15101,2.197811 129.15101,0.109852 z m -463.45353,-81.130568 62.52795,-65.73393 -47.39334,-0.84268 c -26.06635,-0.46349 -68.5563,-0.46349 -94.42211,0 l -47.02878,0.84268 29.24914,66.615594 c 16.08703,36.6385849 30.4394,66.218839 31.89416,65.733928 1.45476,-0.484911 30.78263,-30.4619485 65.17298,-66.615592 z m 316.55195,-6.963258 c 13.89117,-31.629106 24.60706,-58.157092 23.81313,-58.951032 -0.79394,-0.79393 -41.78371,-1.07814 -91.08842,-0.6316 l -89.64488,0.81196 62.23389,65.191676 c 59.60858,62.441572 62.38567,64.894185 65.83175,58.139095 1.97881,-3.8789178 14.96335,-32.930963 28.85453,-64.560099 z"
         id="path9552"
         inkscape:connector-curvature="0" />
    </g>
  </g>
</svg>
