<?xml version="1.0" encoding="UTF-8" standalone="no"?>
<!-- Created with Inkscape (http://www.inkscape.org/) -->

<svg
   xmlns:dc="http://purl.org/dc/elements/1.1/"
   xmlns:cc="http://creativecommons.org/ns#"
   xmlns:rdf="http://www.w3.org/1999/02/22-rdf-syntax-ns#"
   xmlns:svg="http://www.w3.org/2000/svg"
   xmlns="http://www.w3.org/2000/svg"
   xmlns:sodipodi="http://sodipodi.sourceforge.net/DTD/sodipodi-0.dtd"
   xmlns:inkscape="http://www.inkscape.org/namespaces/inkscape"
   width="1000"
   height="1000"
   id="svg4955"
   version="1.1"
   inkscape:version="0.48.4 r9939"
   sodipodi:docname="haskell.svg">
  <defs
     id="defs5498" />
  <sodipodi:namedview
     inkscape:window-height="1056"
     inkscape:window-width="1920"
     inkscape:pageshadow="2"
     inkscape:pageopacity="0.0"
     borderopacity="1.0"
     bordercolor="#666666"
     pagecolor="#ffffff"
     id="base"
     showgrid="false"
     showguides="false"
     inkscape:guide-bbox="true"
     inkscape:zoom="0.70710678"
     inkscape:cx="427.75825"
     inkscape:cy="575.84618"
     inkscape:window-x="0"
     inkscape:window-y="24"
     inkscape:current-layer="layer13"
     inkscape:window-maximized="1">
    <sodipodi:guide
       orientation="0,1"
       position="189.44385,479.26189"
       id="guide7179" />
    <sodipodi:guide
       orientation="1,0"
       position="429.5717,650.94149"
       id="guide7232" />
    <sodipodi:guide
       orientation="0,1"
       position="423.85732,718.7686"
       id="guide7234" />
    <sodipodi:guide
       orientation="0,1"
       position="407.21111,603.48736"
       id="guide7236" />
    <sodipodi:guide
       orientation="1,0"
       position="330.68822,603.48736"
       id="guide7238" />
    <sodipodi:guide
       orientation="1,0"
       position="526.71602,603.48736"
       id="guide7240" />
    <sodipodi:guide
       orientation="0,1"
       position="429.5717,709.07902"
       id="guide7242" />
    <sodipodi:guide
       orientation="0,1"
       position="429.5717,618.89132"
       id="guide7244" />
    <sodipodi:guide
       orientation="1,0"
       position="421.62126,644.23332"
       id="guide7246" />
    <sodipodi:guide
       orientation="1,0"
       position="370.68882,649.20234"
       id="guide7248" />
    <sodipodi:guide
       orientation="1,0"
       position="377.397,646.46938"
       id="guide7250" />
    <sodipodi:guide
       orientation="0,1"
       position="401.99364,699.63788"
       id="guide7252" />
    <sodipodi:guide
       orientation="0,1"
       position="402.73899,694.42041"
       id="guide7254" />
    <sodipodi:guide
       orientation="0,1"
       position="412.67703,632.80457"
       id="guide7258" />
    <sodipodi:guide
       orientation="0,1"
       position="421.62126,626.0964"
       id="guide7260" />
    <sodipodi:guide
       orientation="1,0"
       position="469.5723,641.50036"
       id="guide7262" />
    <sodipodi:guide
       orientation="1,0"
       position="390.5649,658.14657"
       id="guide7264" />
    <sodipodi:guide
       orientation="1,0"
       position="384.10517,643.23951"
       id="guide7266" />
    <sodipodi:guide
       orientation="1,0"
       position="407.45956,632.80457"
       id="guide7268" />
  </sodipodi:namedview>
  <metadata
     id="metadata5594">
    <rdf:RDF>
      <cc:Work
         rdf:about="">
        <dc:format>image/svg+xml</dc:format>
        <dc:type
           rdf:resource="http://purl.org/dc/dcmitype/StillImage" />
        <dc:title></dc:title>
      </cc:Work>
    </rdf:RDF>
  </metadata>
  <g
     inkscape:groupmode="layer"
     id="layer13"
     inkscape:label="Layer#1">
    <path
       style="fill:#000000"
       d="m 494.38995,904.04183 c -2.22683,-1.20432 -5.07365,-5.13793 -13.81092,-19.0834 -6.05325,-9.66156 -11.12579,-17.90754 -11.27234,-18.32428 -0.14654,-0.41675 -2.47008,-0.96846 -5.16341,-1.22596 l -4.89698,-0.4682 -13.82684,14.85038 c -7.60477,8.16776 -14.75443,15.4791 -15.88814,16.2476 -2.36615,1.60391 -8.84718,1.88842 -11.53086,0.50618 -4.18975,-2.15778 -5.40222,-4.45919 -12.62566,-23.96447 l -7.35424,-19.85839 -4.68445,-1.31443 -4.68445,-1.31436 -16.25473,11.79186 c -17.13219,12.42843 -20.64085,14.30002 -25.20348,13.44409 -2.98577,-0.56012 -6.96459,-3.4711 -8.3933,-6.14061 -0.48205,-0.90073 -2.40125,-10.86763 -4.2649,-22.14873 l -3.38845,-20.511 -4.18526,-2.51315 -4.18526,-2.51322 -18.98097,8.71354 c -15.18707,6.97193 -19.70181,8.71417 -22.58743,8.71658 -4.88844,0.008 -8.52758,-2.34132 -10.47965,-6.75435 -1.48339,-3.35345 -1.51641,-4.46608 -0.71862,-24.22205 l 0.83621,-20.70719 -3.7234,-3.26377 -3.72341,-3.26385 -19.34619,4.63855 c -10.64041,2.55113 -20.78879,4.6497 -22.55195,4.66332 -6.09359,0.0473 -11.61174,-5.33909 -11.61783,-11.34008 -0.002,-1.62564 1.98056,-11.29527 4.40491,-21.48802 2.42434,-10.19275 4.39713,-19.14107 4.38398,-19.88517 -0.0131,-0.74409 -1.36557,-2.88937 -3.00539,-4.76728 l -2.98147,-3.41439 -21.00971,0.84029 c -20.54735,0.82179 -21.08158,0.80362 -24.2749,-0.82549 -4.17974,-2.13234 -6.4039,-5.7549 -6.39572,-10.41691 0.005,-2.88211 1.75415,-7.41112 8.70853,-22.54937 l 8.7022,-18.94291 -2.34285,-4.05797 c -1.28857,-2.23188 -2.95471,-4.24285 -3.70255,-4.4688 -0.74783,-0.22597 -9.29391,-1.6874 -18.99129,-3.24765 -22.78269,-3.66558 -21.71623,-3.40041 -24.89289,-6.18955 -3.10155,-2.7232 -4.6259,-7.13365 -3.83403,-11.09306 0.31237,-1.56182 5.56061,-9.6549 12.82067,-19.77015 l 12.29181,-17.12588 -1.29175,-4.64619 -1.29176,-4.6462 -19.95029,-7.44306 c -21.54056,-8.03634 -23.04318,-8.9566 -24.70564,-15.13049 -1.79422,-6.6632 -0.56265,-8.2516 23.77772,-30.66723 l 8.18704,-7.53965 0.0277,-4.48404 c 0.0204,-3.29309 -0.34482,-4.81049 -1.37482,-5.71312 -0.77139,-0.67599 -9.01668,-5.94891 -18.32289,-11.71759 -9.69477,-6.00956 -17.566333,-11.44141 -18.433038,-12.71993 -2.179298,-3.21477 -2.069309,-10.27016 0.209704,-13.4515 0.950984,-1.3275 6.975584,-5.63474 13.451764,-9.61724 6.45116,-3.96711 14.51193,-9.01616 17.91282,-11.22011 l 6.18343,-4.00718 0.19519,-4.80862 0.19519,-4.80861 -8.20955,-7.53965 c -24.27941,-22.29817 -25.635,-24.04914 -23.79051,-30.72932 1.68803,-6.11355 3.19081,-7.03146 24.69549,-15.08415 l 19.9642,-7.47584 1.28502,-4.62193 1.28501,-4.62193 -12.3089,-17.14969 c -7.71327,-10.7467 -12.49928,-18.16453 -12.81883,-19.86785 -1.04042,-5.54597 2.60001,-11.80595 7.83665,-13.47571 1.35986,-0.4336 10.4067,-2.06356 20.10408,-3.62212 9.69738,-1.55857 18.41288,-3.01467 19.36777,-3.23577 1.01961,-0.2361 2.71059,-2.08976 4.09705,-4.49119 l 2.36086,-4.08917 -8.69078,-18.95369 c -6.92374,-15.09995 -8.69313,-19.68697 -8.70231,-22.56015 -0.0157,-4.90897 2.32369,-8.5235 6.79728,-10.50239 3.42577,-1.51538 4.38025,-1.54289 24.22209,-0.69823 l 20.65577,0.87932 3.00322,-3.45479 c 1.65177,-1.90014 3.00419,-4.02992 3.00539,-4.73285 8e-4,-0.70294 -1.98139,-9.65246 -4.40574,-19.88786 -2.42434,-10.23538 -4.40655,-19.93868 -4.4049,-21.56287 0.006,-5.99839 5.52545,-11.38451 11.61783,-11.33737 1.76316,0.0136 11.91153,2.11214 22.55195,4.66332 l 19.34619,4.63853 3.7234,-3.26381 3.7234,-3.26381 -0.8362,-20.70716 c -0.79779,-19.75597 -0.76478,-20.86862 0.71862,-24.22208 1.95304,-4.41518 5.59172,-6.75946 10.47965,-6.75167 2.87224,0.005 7.34057,1.71713 21.94834,8.41208 10.08803,4.62349 18.85965,8.40635 19.49248,8.40635 2.15344,0 8.25498,-4.1548 8.64862,-5.88921 0.21525,-0.94844 1.65161,-9.47834 3.19191,-18.95532 3.46678,-21.32998 3.8043,-22.5332 7.14327,-25.46486 3.37202,-2.96067 7.35471,-3.77955 11.42864,-2.34982 1.69457,0.5947 10.44655,6.38962 19.44885,12.87761 9.84669,7.09654 16.83261,11.61799 17.53443,11.34867 0.64164,-0.24622 2.67959,-0.82865 4.52878,-1.29427 l 3.36217,-0.84661 7.39722,-19.86773 c 7.97894,-21.43013 9.05582,-23.22278 14.89923,-24.80256 6.98615,-1.88871 9.22484,-0.15607 32.01517,24.77826 l 6.98151,7.63829 4.71653,-0.45094 c 2.59409,-0.24802 4.84748,-0.61976 5.00752,-0.82609 0.16005,-0.20633 5.13748,-8.252 11.06097,-17.87927 6.40717,-10.4134 11.74393,-18.205073 13.17428,-19.234478 3.33931,-2.403251 10.27112,-2.408917 13.62441,-0.01114 1.41036,1.00848 6.35136,8.131808 11.95199,17.230878 13.5166,21.9598 12.44677,20.72566 17.9423,20.69811 l 4.56748,-0.0229 7.13515,-7.79111 c 22.33604,-24.38946 24.43214,-26.00233 31.35906,-24.12962 5.80914,1.57051 6.88592,3.35979 14.89788,24.75568 l 7.43687,19.86015 4.57719,1.27256 4.57718,1.27257 17.20839,-12.29906 c 10.68054,-7.63354 18.2342,-12.49152 19.91261,-12.8064 5.53099,-1.03762 11.78846,2.60527 13.46565,7.83927 0.43576,1.35986 2.06399,10.40669 3.61831,20.10407 1.5543,9.69738 3.00833,18.41166 3.23117,19.36506 0.39198,1.67705 6.70827,5.88019 8.83649,5.88019 0.55661,0 9.28581,-3.78679 19.39821,-8.41508 14.53412,-6.65206 19.12829,-8.41445 21.92833,-8.41209 4.59486,0.004 8.23633,2.25683 10.35259,6.40505 1.62969,3.19445 1.6474,3.72019 0.8177,24.27489 l -0.84807,21.00971 3.71018,3.26296 3.71019,3.26296 19.65867,-4.66547 c 10.81226,-2.56601 20.96108,-4.66413 22.55292,-4.66248 5.80849,0.006 11.30041,5.52652 11.30634,11.36517 0.002,1.6242 -1.98056,11.3275 -4.40491,21.56288 -2.42434,10.23539 -4.40692,19.18492 -4.40573,19.88785 8e-4,0.70294 1.35362,2.83221 3.00538,4.73172 l 3.00323,3.45365 20.9911,-0.88905 c 20.6081,-0.87283 21.05101,-0.85848 24.27489,0.78622 4.19688,2.14108 6.42235,5.75823 6.41492,10.42641 -0.005,2.87224 -1.71713,7.34057 -8.41208,21.94833 -4.62349,10.08803 -8.40635,18.85965 -8.40635,19.49248 0,2.14734 4.1553,8.25506 5.88921,8.65632 0.94844,0.21949 9.65865,1.67427 19.35604,3.23284 9.69738,1.55856 18.74421,3.18852 20.10407,3.62212 5.23665,1.66976 8.87707,7.92974 7.83664,13.47571 -0.31954,1.70332 -5.10556,9.12114 -12.81883,19.86785 l -12.30889,17.14968 1.28501,4.62194 1.28501,4.62193 19.96421,7.47584 c 21.54458,8.06761 23.04719,8.98886 24.7052,15.14624 1.79434,6.66371 0.45025,8.39561 -23.80021,30.66723 l -8.20956,7.53964 0.19519,4.80862 0.19519,4.80862 6.18344,4.00718 c 3.40088,2.20395 11.46165,7.253 17.91281,11.22011 6.47615,3.9825 12.50079,8.28974 13.45178,9.61724 2.27904,3.18134 2.389,10.23673 0.20973,13.4515 -0.86675,1.27851 -8.73831,6.71037 -18.43308,12.71992 -9.3062,5.76869 -17.5515,11.04161 -18.32288,11.7176 -1.02484,0.8981 -1.39998,2.43655 -1.3931,5.71312 l 0.009,4.48404 8.20531,7.53246 c 24.21224,22.22677 25.63006,24.05889 23.78627,30.73651 -1.69295,6.13132 -3.19268,7.04598 -24.72512,15.07929 l -19.97948,7.45395 -1.28991,4.59721 -1.28991,4.59721 12.31916,17.16398 c 7.27818,10.1405 12.53556,18.246 12.84801,19.80824 1.20693,6.03464 -3.36208,12.95086 -9.29033,14.06301 -1.45047,0.2721 -10.90849,1.83239 -21.01785,3.46732 l -18.38065,2.97257 -2.55078,4.24789 -2.55077,4.24788 8.71558,18.97209 c 6.9659,15.16335 8.71686,19.6961 8.72192,22.57855 0.008,4.66201 -2.21598,8.28457 -6.39572,10.41691 -3.19332,1.62911 -3.72754,1.64728 -24.27489,0.82549 l -21.00968,-0.84029 -2.98148,3.41439 c -1.63981,1.87791 -2.99223,3.98951 -3.00538,4.69244 -0.0131,0.70293 1.95964,9.65246 4.38398,19.88785 2.42435,10.23539 4.40656,19.93871 4.40491,21.5629 -0.006,5.83862 -5.49785,11.35916 -11.30634,11.36517 -1.59184,0 -11.74066,-2.09648 -22.55292,-4.66252 l -19.65867,-4.66548 -3.71153,3.26297 -3.71153,3.26297 0.82423,20.27569 c 0.45333,11.15159 0.58889,21.24969 0.30126,22.44022 -0.75156,3.11062 -3.26153,6.41053 -5.92268,7.78668 -4.91206,2.54015 -8.03081,1.70538 -28.13604,-7.53078 l -18.94291,-8.70223 -4.05797,2.34291 c -2.23188,1.28855 -4.23354,2.95466 -4.44813,3.70248 -0.21459,0.7479 -1.69296,9.47426 -3.28526,19.39204 -1.59231,9.91777 -3.24649,19.14495 -3.67596,20.50483 -1.64963,5.22328 -7.91935,8.87759 -13.45089,7.83989 -1.68198,-0.31561 -9.18802,-5.16278 -19.89676,-12.84879 l -17.19587,-12.34204 -4.63904,1.30161 -4.63903,1.30169 -7.36713,19.86016 c -7.23581,19.50616 -8.45239,21.81261 -12.64426,23.97152 -2.68386,1.38232 -9.16487,1.09773 -11.52925,-0.50618 -1.13283,-0.7685 -8.16544,-7.97053 -15.62801,-16.00453 l -13.56832,-14.6073 -4.56748,-0.0192 c -5.50307,-0.0224 -4.43153,-1.25842 -18.1394,20.91684 -5.60981,9.07499 -10.65019,16.33499 -11.91733,17.16528 -3.25634,2.13359 -8.86847,2.38652 -12.25982,0.55251 z m 38.86967,-112.75657 c 22.72674,-2.71254 43.80086,-7.53558 64.11492,-14.67334 16.90744,-5.9408 23.65979,-8.94613 24.49718,-10.90318 0.40057,-0.93616 3.39663,-14.1839 6.65792,-29.43942 3.26129,-15.25552 6.5789,-29.10557 7.37247,-30.77789 1.82135,-3.83823 5.88453,-7.92881 9.9213,-9.98821 6.43498,-3.28288 9.4323,-3.03319 38.38339,3.19759 l 26.72454,5.75158 2.40086,-2.28034 c 3.10698,-2.95102 14.34886,-15.93443 20.01677,-23.11768 l 4.42659,-5.61005 -62.51089,0.21483 c -70.90483,0.24368 -68.30959,0.44131 -77.66964,-5.91459 -6.72369,-4.56568 -13.23598,-11.53811 -18.92711,-20.26443 -7.9074,-12.12458 -9.47501,-17.15339 -17.75765,-56.96577 -5.25548,-25.26164 -8.09511,-34.3373 -13.0964,-41.85698 -4.14633,-6.23421 -11.48999,-12.84408 -17.54136,-15.7886 -9.91411,-4.82409 -10.61035,-4.88517 -55.68613,-4.88517 l -41.10558,0 0,26.41682 0,26.41682 36.89578,0.23094 c 31.75282,0.19875 37.00164,0.39852 37.65523,1.4331 1.01842,1.61207 1.01801,88.14966 -4.1e-4,89.76087 -0.6682,1.05712 -15.50249,1.2505 -122.95759,1.60288 l -122.19773,0.40071 7.06232,8.8158 c 3.88427,4.84869 9.38984,11.32613 12.23461,14.39431 l 5.17229,5.57849 25.80836,-5.48582 c 21.65041,-4.60202 26.63841,-5.41921 30.96044,-5.07228 9.33339,0.7492 16.05088,6.39703 18.82872,15.83055 0.84368,2.86513 3.94563,16.75002 6.8932,30.8553 2.94758,14.10528 5.7607,26.04765 6.25138,26.5386 1.38342,1.38419 14.90998,6.90908 27.74025,11.33046 21.57317,7.43412 45.54694,12.68056 66.51921,14.55713 5.50988,0.49304 11.46054,1.03657 13.2237,1.20792 6.88432,0.66912 39.81341,-0.33227 49.68906,-1.51095 z m 154.13472,-21.59673 c 11.59123,-5.87372 16.29553,-19.99851 10.51396,-31.56846 -3.96893,-7.94254 -10.31933,-12.15915 -19.28112,-12.80249 -13.75133,-0.98717 -24.99601,9.30831 -25.10863,22.98911 -0.14614,17.75372 18.19286,29.32899 33.87579,21.38184 z m -358.4502,-0.21313 c 2.5892,-0.88223 5.34756,-2.74822 8.03469,-5.43535 14.76337,-14.76337 4.36014,-40.00906 -16.50056,-40.04219 -21.55336,-0.0342 -31.71224,26.88558 -15.52352,41.13547 1.99152,1.753 5.12692,3.72091 6.96757,4.37312 4.54623,1.61092 12.24412,1.59687 17.02182,-0.0311 z M 734.84622,577.99376 c 6.44832,-1.9118 10.17847,-4.03432 14.84327,-8.4461 7.64721,-7.23241 10.69966,-17.62773 10.74939,-36.60776 0.0154,-5.86944 0.40129,-11.3693 0.85759,-12.2219 0.77847,-1.45458 1.83446,-1.55019 17.12195,-1.55019 l 16.29232,0 0.50965,-3.71832 c 0.63844,-4.65791 0.52575,-31.26026 -0.17097,-40.36068 l -0.52153,-6.81221 -28.68699,-12.82298 c -15.77785,-7.05264 -29.9361,-13.83243 -31.46278,-15.0662 -1.52668,-1.23378 -3.75772,-4.11895 -4.95784,-6.41149 -1.85966,-3.55239 -2.17694,-5.1156 -2.14741,-10.57976 l 0.0346,-6.4115 14.62778,-32.81363 c 8.04527,-18.0475 14.69466,-33.05521 14.77643,-33.35048 0.22438,-0.81024 -9.44652,-16.17434 -15.60961,-24.79892 -33.66615,-47.1122 -79.00692,-82.67778 -132.10673,-103.62533 -7.27303,-2.86917 -16.2892,-6.1777 -20.03591,-7.3523 -6.74584,-2.11483 -25.75433,-6.93151 -31.35622,-7.94554 -2.9039,-0.52565 -2.91517,-0.51636 -24.82696,20.4549 -22.84165,21.86122 -25.13424,23.57972 -32.64321,24.46904 -4.61778,0.54691 -11.43801,-1.22871 -15.00228,-3.9058 -1.34584,-1.01083 -10.87703,-10.67372 -21.18042,-21.47308 -21.64052,-22.68219 -17.54017,-20.75717 -35.05367,-16.45684 -21.89991,5.37739 -38.19206,11.37425 -59.93152,22.05977 -29.62617,14.56204 -54.80443,32.66698 -78.54077,56.47634 l -10.41867,10.45073 163.0923,0.42804 163.09231,0.42804 6.94912,1.72714 c 18.60948,4.62518 37.43081,13.07525 49.95286,22.42695 23.90163,17.8502 37.61119,40.26473 40.53839,66.27849 1.59927,14.21257 -0.79451,26.84301 -7.68478,40.54762 -7.92981,15.77227 -23.5455,32.21443 -44.07372,46.40635 -3.96711,2.74262 -7.21293,5.27798 -7.21293,5.63415 0,0.35616 2.16388,2.38865 4.80862,4.51663 10.18856,8.19782 15.15722,12.92052 20.13756,19.14069 8.7746,10.95899 15.56125,26.73679 19.58127,45.52307 0.96639,4.5161 2.09168,9.58395 2.50066,11.26189 1.57992,6.48205 10.51759,13.04939 21.0226,15.44729 5.86407,1.33854 15.87318,0.91074 22.13623,-0.94612 z m -435.2053,-94.08915 0,-94.56949 -20.5301,0 c -19.17765,0 -20.50253,0.0924 -20.11151,1.40251 0.23023,0.77139 2.80974,6.86799 5.73224,13.54802 6.08118,13.89986 6.87392,17.89606 4.8983,24.69197 -1.05373,3.6247 -2.2649,5.54949 -5.50547,8.74929 -3.82857,3.7804 -6.27083,5.03684 -31.12515,16.01259 -26.28471,11.60741 -26.98236,11.97427 -27.43302,14.42586 -1.11087,6.04309 -1.48561,39.86987 -0.56735,51.2125 1.55999,19.26928 5.15481,40.43415 9.32277,54.8887 l 1.21325,4.20755 42.05301,0 42.05303,0 0,-94.5695 z m 233.6187,-37.66333 c 21.73488,-2.31872 34.0811,-10.5457 35.42931,-23.60855 1.34013,-12.98471 -9.08463,-24.26801 -27.01122,-29.23572 -5.75918,-1.59596 -7.88167,-1.65758 -57.08924,-1.65758 l -51.10767,0 0,27.64955 0,27.64956 46.28294,-0.0139 c 25.45562,-0.008 49.52877,-0.36015 53.49588,-0.78337 z m 262.86161,-15.59242 c 14.18896,-6.94201 17.59788,-25.8994 6.69717,-37.24379 -1.83675,-1.91151 -5.30357,-4.37463 -7.70402,-5.47359 -3.77632,-1.72886 -5.18989,-1.94881 -10.48984,-1.63217 -7.51948,0.44925 -11.39728,2.28926 -16.2876,7.72848 -5.77719,6.42562 -7.51481,14.05697 -5.07297,22.27955 4.18911,14.10628 19.59447,20.8304 32.85726,14.34152 z m -576.41045,-0.1 c 5.10178,-1.73836 10.47716,-6.71225 13.1433,-12.16165 5.69694,-11.64413 0.35054,-26.2233 -11.63437,-31.72592 -5.57723,-2.56066 -14.36768,-2.34778 -19.8536,0.48081 -18.67341,9.62815 -17.03027,36.48784 2.66184,43.51187 4.13188,1.47382 11.18772,1.42652 15.68283,-0.10511 z M 508.48021,211.90866 c 13.25163,-6.17051 17.84512,-22.38687 9.78728,-34.55198 -4.55194,-6.87217 -14.44289,-11.54014 -22.15175,-10.45437 -18.53614,2.61076 -27.08992,23.48959 -15.72254,38.377 6.08728,7.97227 18.77282,10.96643 28.08701,6.62935 z"
       id="path9143"
       inkscape:connector-curvature="0" />
  </g>
</svg>
