<?xml version="1.0" encoding="UTF-8" standalone="no"?>
<!-- Created with Inkscape (http://www.inkscape.org/) -->

<svg
   xmlns:dc="http://purl.org/dc/elements/1.1/"
   xmlns:cc="http://creativecommons.org/ns#"
   xmlns:rdf="http://www.w3.org/1999/02/22-rdf-syntax-ns#"
   xmlns:svg="http://www.w3.org/2000/svg"
   xmlns="http://www.w3.org/2000/svg"
   xmlns:sodipodi="http://sodipodi.sourceforge.net/DTD/sodipodi-0.dtd"
   xmlns:inkscape="http://www.inkscape.org/namespaces/inkscape"
   width="1000"
   height="1000"
   id="svg4955"
   version="1.1"
   inkscape:version="0.48.4 r9939"
   sodipodi:docname="yii.svg">
  <defs
     id="defs5498" />
  <sodipodi:namedview
     inkscape:window-height="1056"
     inkscape:window-width="1920"
     inkscape:pageshadow="2"
     inkscape:pageopacity="0.0"
     borderopacity="1.0"
     bordercolor="#666666"
     pagecolor="#ffffff"
     id="base"
     showgrid="false"
     showguides="true"
     inkscape:guide-bbox="true"
     inkscape:zoom="0.64205296"
     inkscape:cx="377.50573"
     inkscape:cy="509.10475"
     inkscape:window-x="0"
     inkscape:window-y="24"
     inkscape:current-layer="layer1"
     inkscape:window-maximized="1">
    <sodipodi:guide
       orientation="horizontal"
       position="200"
       id="guide5596" />
  </sodipodi:namedview>
  <metadata
     id="metadata5594">
    <rdf:RDF>
      <cc:Work
         rdf:about="">
        <dc:format>image/svg+xml</dc:format>
        <dc:type
           rdf:resource="http://purl.org/dc/dcmitype/StillImage" />
        <dc:title></dc:title>
      </cc:Work>
    </rdf:RDF>
  </metadata>
  <g
     inkscape:label="Layer 1"
     inkscape:groupmode="layer"
     id="layer1">
    <path
       style="fill:#000000"
       d="M 128.92321,880.85257 C 115.75785,852.7293 100.12071,807.23825 90.251113,768.34897 75.368656,709.70749 73.655622,696.11247 73.426624,634.82506 73.207903,576.31294 75.035899,559.08515 86.255058,513.91948 129.1951,341.05296 250.81936,204.19415 464.56699,88.220494 c 16.51061,-8.958205 31.21244,-16.28765 32.67075,-16.28765 1.45832,0 2.0956,192.058516 1.41616,426.796676 l -1.23531,426.7967 -173.1964,1.27046 -173.19639,1.27048 -22.10259,-47.21459 z m 479.52866,41.04648 c -1.27294,-3.32492 -1.74872,-121.10528 -1.05729,-261.73417 l 1.25713,-255.68889 22.19478,35.64075 c 12.20711,19.6024 40.29676,65.02078 62.42152,100.92973 22.12475,35.90896 53.78752,87.05204 70.36172,113.65125 111.19213,178.44725 165.22981,268.19933 162.88719,270.5419 -1.48756,1.48757 -73.14003,2.70471 -159.22767,2.70471 -120.7599,0 -157.05179,-1.38128 -158.83738,-6.04528 z"
       id="path5837"
       inkscape:connector-curvature="0" />
  </g>
</svg>
