<?xml version="1.0" encoding="UTF-8" standalone="no"?>
<!-- Created with Inkscape (http://www.inkscape.org/) -->

<svg
   xmlns:dc="http://purl.org/dc/elements/1.1/"
   xmlns:cc="http://creativecommons.org/ns#"
   xmlns:rdf="http://www.w3.org/1999/02/22-rdf-syntax-ns#"
   xmlns:svg="http://www.w3.org/2000/svg"
   xmlns="http://www.w3.org/2000/svg"
   xmlns:sodipodi="http://sodipodi.sourceforge.net/DTD/sodipodi-0.dtd"
   xmlns:inkscape="http://www.inkscape.org/namespaces/inkscape"
   width="1000"
   height="1000"
   id="svg4955"
   version="1.1"
   inkscape:version="0.48.4 r9939"
   sodipodi:docname="totaljs.svg">
  <defs
     id="defs5498" />
  <sodipodi:namedview
     inkscape:window-height="1056"
     inkscape:window-width="1920"
     inkscape:pageshadow="2"
     inkscape:pageopacity="0.0"
     borderopacity="1.0"
     bordercolor="#666666"
     pagecolor="#ffffff"
     id="base"
     showgrid="false"
     showguides="false"
     inkscape:guide-bbox="true"
     inkscape:zoom="0.71151547"
     inkscape:cx="269.15476"
     inkscape:cy="520.68217"
     inkscape:window-x="0"
     inkscape:window-y="24"
     inkscape:current-layer="layer5"
     inkscape:window-maximized="1">
    <sodipodi:guide
       orientation="0,1"
       position="189.44385,479.26189"
       id="guide7179" />
    <sodipodi:guide
       orientation="1,0"
       position="429.5717,650.94149"
       id="guide7232" />
    <sodipodi:guide
       orientation="0,1"
       position="423.85732,718.7686"
       id="guide7234" />
    <sodipodi:guide
       orientation="0,1"
       position="407.21111,603.48736"
       id="guide7236" />
    <sodipodi:guide
       orientation="1,0"
       position="330.68822,603.48736"
       id="guide7238" />
    <sodipodi:guide
       orientation="1,0"
       position="526.71602,603.48736"
       id="guide7240" />
    <sodipodi:guide
       orientation="0,1"
       position="429.5717,709.07902"
       id="guide7242" />
    <sodipodi:guide
       orientation="0,1"
       position="429.5717,618.89132"
       id="guide7244" />
    <sodipodi:guide
       orientation="1,0"
       position="421.62126,644.23332"
       id="guide7246" />
    <sodipodi:guide
       orientation="1,0"
       position="370.68882,649.20234"
       id="guide7248" />
    <sodipodi:guide
       orientation="1,0"
       position="377.397,646.46938"
       id="guide7250" />
    <sodipodi:guide
       orientation="0,1"
       position="401.99364,699.63788"
       id="guide7252" />
    <sodipodi:guide
       orientation="0,1"
       position="402.73899,694.42041"
       id="guide7254" />
    <sodipodi:guide
       orientation="0,1"
       position="412.67703,632.80457"
       id="guide7258" />
    <sodipodi:guide
       orientation="0,1"
       position="421.62126,626.0964"
       id="guide7260" />
    <sodipodi:guide
       orientation="1,0"
       position="469.5723,641.50036"
       id="guide7262" />
    <sodipodi:guide
       orientation="1,0"
       position="390.5649,658.14657"
       id="guide7264" />
    <sodipodi:guide
       orientation="1,0"
       position="384.10517,643.23951"
       id="guide7266" />
    <sodipodi:guide
       orientation="1,0"
       position="407.45956,632.80457"
       id="guide7268" />
  </sodipodi:namedview>
  <metadata
     id="metadata5594">
    <rdf:RDF>
      <cc:Work
         rdf:about="">
        <dc:format>image/svg+xml</dc:format>
        <dc:type
           rdf:resource="http://purl.org/dc/dcmitype/StillImage" />
        <dc:title></dc:title>
      </cc:Work>
    </rdf:RDF>
  </metadata>
  <g
     inkscape:groupmode="layer"
     id="layer5"
     inkscape:label="Layer#1"
     style="display:inline;opacity:1">
    <path
       style="fill:#000000"
       d="m 485.56172,846.69085 c -17.65566,-6.05537 -27.55557,-14.247 -71.08626,-58.81995 -8.54889,-8.75358 -20.43841,-20.60146 -26.42116,-26.32864 -5.98273,-5.72715 -17.83062,-17.57504 -26.32863,-26.32863 -8.498,-8.75357 -20.3375,-20.60146 -26.30997,-26.32863 -5.97247,-5.72716 -17.05598,-16.77841 -24.63001,-24.55833 -7.57404,-7.77991 -19.38583,-19.6278 -26.24843,-26.32864 -6.8626,-6.70082 -18.71048,-18.59184 -26.32863,-26.42447 -7.61815,-7.83263 -21.03315,-21.20928 -29.81111,-29.72588 -8.77797,-8.5166 -19.86148,-19.58952 -24.63002,-24.60648 -4.76854,-5.01697 -33.23715,-33.6812 -63.26356,-63.69831 l -54.593509,-54.57656 -0.61169,-44.16416 -0.611708,-44.16416 43.889497,-0.45363 43.88951,-0.45364 205.59651,205.56219 c 113.0781,113.0592 206.26492,205.56218 207.08184,205.56218 0.81692,0 1.45833,1.71986 1.42538,3.8219 -0.0391,2.48944 -3.69226,7.07906 -10.47842,13.16432 -5.73018,5.13833 -17.36,16.24553 -25.84405,24.68265 -14.72403,14.64258 -22.4744,19.77153 -36.77893,24.33913 -7.27783,2.3239 -20.87331,2.23997 -27.90665,-0.17226 z M 426.05697,608.80074 C 334.47212,517.04941 257.85776,439.58963 255.80284,436.66793 c -21.90633,-22.94909 -12.84979,-51.56706 1.64756,-66.39001 8.4625,-9.69262 49.78488,-53.16364 52.65815,-53.09108 1.20656,0.0304 5.63348,3.97704 9.83757,8.77012 4.20408,4.79309 14.82577,15.66056 23.60374,24.14995 8.77796,8.48939 19.86147,19.51976 24.63001,24.51198 9.89141,10.35534 137.20894,137.60285 150.85845,150.77545 4.94391,4.77119 15.98148,15.8547 24.52793,24.63001 8.54644,8.77534 21.92308,22.21123 29.72587,29.85758 7.80279,7.64634 19.66939,19.49423 26.37022,26.32863 6.70084,6.8344 18.54872,18.66804 26.32863,26.29695 7.77993,7.62892 19.64055,19.47681 26.35697,26.32864 6.71642,6.85183 16.03825,15.89758 20.71518,20.10167 4.67692,4.20409 8.53838,9.17256 8.58103,11.04104 0.0426,1.86849 -2.36596,5.30819 -5.35244,7.6438 -5.54899,4.33962 -17.86688,16.48852 -36.34011,35.84153 -17.57164,18.4085 -43.23454,42.29873 -45.35929,42.22611 -1.10959,-0.0379 -76.95049,-75.13821 -168.53534,-166.88956 z M 503.4969,496.92738 C 401.60973,395.05386 318.2475,310.62977 318.2475,309.31828 c 0,-2.57086 83.92505,-87.30965 86.47121,-87.30965 2.35132,0 331.69623,329.87867 336.83806,337.38395 8.10088,11.82447 10.69262,20.67018 10.63942,36.31279 -0.0741,21.79345 -4.40639,29.82523 -29.34362,54.40136 -10.92701,10.7688 -21.79482,21.89465 -24.15071,24.72413 -2.35587,2.82946 -5.55964,5.63423 -7.11948,6.2328 -2.13692,0.82001 -48.50457,-44.57408 -188.08548,-184.13628 z M 620.17747,423.91032 C 506.43353,309.93976 413.3703,215.63734 413.3703,214.34936 c 0,-2.70188 44.84573,-48.39524 47.4975,-48.39524 22.94327,-20.23814 59.83865,-18.29438 78.35084,-0.42466 1.97252,1.63492 87.40069,86.67217 189.84037,188.97165 l 186.25396,185.99906 0,45.01347 0,45.01347 -44.16416,0.3012 -44.16416,0.30121 z"
       id="path7312"
       inkscape:connector-curvature="0"
       sodipodi:nodetypes="ssssssssssscccccsscssssscccssssssssssssscssssssssssssccscccccs" />
  </g>
</svg>
