<?xml version="1.0" encoding="UTF-8" standalone="no"?>
<!-- Created with Inkscape (http://www.inkscape.org/) -->

<svg
   xmlns:dc="http://purl.org/dc/elements/1.1/"
   xmlns:cc="http://creativecommons.org/ns#"
   xmlns:rdf="http://www.w3.org/1999/02/22-rdf-syntax-ns#"
   xmlns:svg="http://www.w3.org/2000/svg"
   xmlns="http://www.w3.org/2000/svg"
   xmlns:sodipodi="http://sodipodi.sourceforge.net/DTD/sodipodi-0.dtd"
   xmlns:inkscape="http://www.inkscape.org/namespaces/inkscape"
   width="1000"
   height="1000"
   id="svg4955"
   version="1.1"
   inkscape:version="0.48.4 r9939"
   sodipodi:docname="spark.svg">
  <defs
     id="defs5498" />
  <sodipodi:namedview
     inkscape:window-height="1056"
     inkscape:window-width="1920"
     inkscape:pageshadow="2"
     inkscape:pageopacity="0.0"
     borderopacity="1.0"
     bordercolor="#666666"
     pagecolor="#ffffff"
     id="base"
     showgrid="false"
     showguides="false"
     inkscape:guide-bbox="true"
     inkscape:zoom="0.53319984"
     inkscape:cx="534.38646"
     inkscape:cy="605.56508"
     inkscape:window-x="0"
     inkscape:window-y="24"
     inkscape:current-layer="g9397"
     inkscape:window-maximized="1">
    <sodipodi:guide
       orientation="0,1"
       position="189.44385,479.26189"
       id="guide7179" />
    <sodipodi:guide
       orientation="1,0"
       position="429.5717,650.94149"
       id="guide7232" />
    <sodipodi:guide
       orientation="0,1"
       position="423.85732,718.7686"
       id="guide7234" />
    <sodipodi:guide
       orientation="0,1"
       position="407.21111,603.48736"
       id="guide7236" />
    <sodipodi:guide
       orientation="1,0"
       position="330.68822,603.48736"
       id="guide7238" />
    <sodipodi:guide
       orientation="1,0"
       position="526.71602,603.48736"
       id="guide7240" />
    <sodipodi:guide
       orientation="0,1"
       position="429.5717,709.07902"
       id="guide7242" />
    <sodipodi:guide
       orientation="0,1"
       position="429.5717,618.89132"
       id="guide7244" />
    <sodipodi:guide
       orientation="1,0"
       position="421.62126,644.23332"
       id="guide7246" />
    <sodipodi:guide
       orientation="1,0"
       position="370.68882,649.20234"
       id="guide7248" />
    <sodipodi:guide
       orientation="1,0"
       position="377.397,646.46938"
       id="guide7250" />
    <sodipodi:guide
       orientation="0,1"
       position="401.99364,699.63788"
       id="guide7252" />
    <sodipodi:guide
       orientation="0,1"
       position="402.73899,694.42041"
       id="guide7254" />
    <sodipodi:guide
       orientation="0,1"
       position="412.67703,632.80457"
       id="guide7258" />
    <sodipodi:guide
       orientation="0,1"
       position="421.62126,626.0964"
       id="guide7260" />
    <sodipodi:guide
       orientation="1,0"
       position="469.5723,641.50036"
       id="guide7262" />
    <sodipodi:guide
       orientation="1,0"
       position="390.5649,658.14657"
       id="guide7264" />
    <sodipodi:guide
       orientation="1,0"
       position="384.10517,643.23951"
       id="guide7266" />
    <sodipodi:guide
       orientation="1,0"
       position="407.45956,632.80457"
       id="guide7268" />
    <sodipodi:guide
       orientation="0,1"
       position="562.25,301.75"
       id="guide9656" />
    <sodipodi:guide
       orientation="0,1"
       position="304.625,414.0625"
       id="guide9658" />
    <sodipodi:guide
       orientation="0,1"
       position="574.5,288.25"
       id="guide9660" />
    <sodipodi:guide
       orientation="0,1"
       position="274,595.875"
       id="guide9707" />
    <sodipodi:guide
       orientation="0,1"
       position="278.41012,505.92896"
       id="guide9709" />
  </sodipodi:namedview>
  <metadata
     id="metadata5594">
    <rdf:RDF>
      <cc:Work
         rdf:about="">
        <dc:format>image/svg+xml</dc:format>
        <dc:type
           rdf:resource="http://purl.org/dc/dcmitype/StillImage" />
        <dc:title></dc:title>
      </cc:Work>
    </rdf:RDF>
  </metadata>
  <g
     inkscape:groupmode="layer"
     id="layer13"
     inkscape:label="Layer#1">
    <g
       id="g9397"
       transform="translate(38.074989,310.11877)">
      <path
         style="fill:#000000"
         d="M 159.24727,597.44112 C 133.98631,590.94519 115.20467,580.04906 95.972988,560.7327 76.682358,541.35711 68.82339,529.16575 60.340575,505.45727 c -5.636662,-15.75375 -5.920849,-17.90793 -5.920849,-44.87981 0,-29.58891 0.323832,-31.36452 10.506383,-57.60793 3.023038,-7.79124 16.208209,-51.13885 29.300358,-96.32802 13.092153,-45.18917 33.186873,-113.18542 44.654913,-151.10277 11.46806,-37.91735 22.77519,-75.315285 25.12697,-83.106521 19.58558,-64.8852848 47.46444,-145.986433 53.18427,-154.715991 l 3.00056,-4.57943 2.53341,4.835167 c 4.90689,9.365133 12.50649,35.16363 24.35742,82.68643945 3.75632,15.06305755 7.68586,30.66598455 8.73231,34.67319155 l 1.90261,7.285798 35.4549,-62.06055 C 355.9583,-129.34165 402.97655,-206.0357 407.62245,-206.12657 c 5.10718,-0.0999 2.63854,55.22407 -6.69404,150.017847 -3.0115,30.588554 -5.28131,55.80968364 -5.04404,56.04697165 0.23729,0.23726912 15.84311,-17.14015365 34.67964,-38.61650165 70.53946,-80.425127 151.6953,-168.708267 164.11712,-178.530267 3.7413,-2.95825 7.30512,-4.87588 7.91961,-4.2614 3.93619,3.93621 -34.65096,118.46007 -81.39196,241.56546 -2.67848,7.054502 -3.95881,12.263261 -2.84517,11.575006 1.11363,-0.688273 29.77452,-21.8068097 63.69086,-46.930082 C 735.42713,-128.86921 839.97859,-201.63521 845.203,-198.40633 c 2.58428,1.59716 -8.19171,19.62162 -36.36917,60.83295 -35.27256,51.588347 -160.41302,226.726121 -190.20431,266.19656 l -4.63294,6.13819 12.0288,-4.58232 c 136.3235,-51.931774 228.23044,-84.189816 239.86667,-84.189816 1.94604,0 3.53824,1.020944 3.53824,2.26877 0,5.114338 -84.84122,85.252806 -184.56293,174.332596 -19.76989,17.66013 -35.79071,32.30099 -35.60177,32.53522 0.18891,0.23425 20.26739,-1.63465 44.61883,-4.1531 97.53569,-10.08724 161.59499,-13.32014 160.05835,-8.07769 -1.70195,5.80643 -98.05289,65.62218 -207.72325,128.9569 l -39.05426,22.55389 40.94305,10.58677 c 44.18615,11.42537 75.98159,21.02946 83.31994,25.16754 l 4.60117,2.59463 -7.87642,4.01823 c -24.12987,12.31016 -139.84565,49.87344 -321.47494,104.35619 -37.91735,11.37394 -85.08975,25.34254 -104.82755,31.04132 -19.7378,5.69879 -41.46849,12.87749 -48.29044,15.9527 -29.62122,13.35264 -65.02185,16.85016 -94.3128,9.31792 z"
         id="path9941"
         inkscape:connector-curvature="0" />
    </g>
  </g>
</svg>
