<?xml version="1.0" encoding="UTF-8" standalone="no"?>
<!-- Created with Inkscape (http://www.inkscape.org/) -->

<svg
   xmlns:dc="http://purl.org/dc/elements/1.1/"
   xmlns:cc="http://creativecommons.org/ns#"
   xmlns:rdf="http://www.w3.org/1999/02/22-rdf-syntax-ns#"
   xmlns:svg="http://www.w3.org/2000/svg"
   xmlns="http://www.w3.org/2000/svg"
   xmlns:sodipodi="http://sodipodi.sourceforge.net/DTD/sodipodi-0.dtd"
   xmlns:inkscape="http://www.inkscape.org/namespaces/inkscape"
   width="1000"
   height="1000"
   id="svg4854"
   version="1.1"
   inkscape:version="0.48.4 r9939"
   sodipodi:docname="New document 40">
  <defs
     id="defs5498" />
  <sodipodi:namedview
     inkscape:window-height="879"
     inkscape:window-width="897"
     inkscape:pageshadow="2"
     inkscape:pageopacity="0.0"
     borderopacity="1.0"
     bordercolor="#666666"
     pagecolor="#ffffff"
     id="base"
     showgrid="false"
     showguides="true"
     inkscape:guide-bbox="true"
     inkscape:zoom="0.32102648"
     inkscape:cx="320.19423"
     inkscape:cy="440.28828"
     inkscape:window-x="430"
     inkscape:window-y="109"
     inkscape:current-layer="layer1"
     inkscape:window-maximized="0">
    <sodipodi:guide
       orientation="horizontal"
       position="200"
       id="guide5596" />
  </sodipodi:namedview>
  <metadata
     id="metadata5594">
    <rdf:RDF>
      <cc:Work
         rdf:about="">
        <dc:format>image/svg+xml</dc:format>
        <dc:type
           rdf:resource="http://purl.org/dc/dcmitype/StillImage" />
        <dc:title></dc:title>
      </cc:Work>
    </rdf:RDF>
  </metadata>
  <g
     inkscape:label="Layer 1"
     inkscape:groupmode="layer"
     id="layer1">
    <path
       style="fill:#0c0000;fill-opacity:1;stroke:#000000;stroke-width:38.0447731;stroke-miterlimit:4;stroke-opacity:0;stroke-dasharray:none"
       d="m 451.01067,847.65816 c -40.05407,-6.42239 -69.60124,-15.91058 -108.56212,-34.86154 -15.85201,-7.71056 -35.23459,-18.55585 -43.07245,-24.10064 -15.1777,-10.73726 -15.21373,-11.13069 -1.29595,-14.14624 13.44192,-2.91247 23.88253,-21.86489 21.52405,-39.07181 -1.63576,-11.93419 -6.27819,-18.58637 -17.07022,-24.46013 -7.99966,-4.35397 -11.18075,-5.01358 -20.81709,-4.31655 -17.56181,1.2703 -28.76323,11.88583 -31.4712,29.82504 l -1.38541,9.17784 -8.73259,-9.60728 C 227.84736,722.5865 210.8756,701.21807 204.2889,690.97375 194.13758,675.18536 172.54997,628.95434 165.72515,608.38744 137.0782,522.0585 144.01803,426.70475 184.91336,344.74019 c 14.77799,-29.61886 25.96479,-46.94502 44.44158,-68.83144 56.97858,-67.49316 127.70106,-107.52424 217.81281,-123.28868 21.68117,-3.79297 86.47325,-3.2934 110.79292,0.85426 66.41772,11.32739 130.21286,42.99985 182.57633,90.64386 8.16368,7.42792 11.13013,9.10036 13.49528,7.60844 3.0227,-1.90667 14.64062,-20.62202 28.39858,-45.74759 5.44294,-9.94023 7.65603,-12.52762 8.86593,-10.36555 3.3093,5.91325 34.47368,117.07948 41.9018,149.46759 14.95729,65.21547 20.97371,122.77732 17.54124,167.82422 -5.82833,76.48634 -22.10829,125.29688 -62.05263,186.04432 -18.8464,28.66155 -55.1123,65.75676 -85.00539,86.94915 -37.61936,26.66984 -87.66305,48.33808 -133.54102,57.8215 -30.0327,6.20802 -92.16359,8.26179 -119.13012,3.93789 z M 438.52122,743.06524 c 29.59038,0.39458 82.35979,0.53733 117.26535,0.31723 59.60454,-0.37587 65.02494,-0.70446 89.11769,-5.40215 71.01364,-13.84655 115.28521,-39.0504 150.12559,-85.4667 11.9876,-15.97041 29.86392,-54.01362 35.25304,-75.02277 21.77347,-84.88388 9.40311,-204.88169 -34.65482,-336.16827 -3.54516,-10.56431 -6.57707,-16.53415 -8.58465,-16.90376 -2.09751,-0.38617 -7.32617,5.84304 -16.12808,19.21452 -16.48764,25.04726 -53.68469,62.53574 -79.49508,80.118 -24.00227,16.35051 -63.95274,36.46751 -87.65405,44.13805 -26.43104,8.55395 -54.93957,12.97976 -112.44583,17.45668 -26.97085,2.09969 -55.42295,4.7232 -63.22694,5.82999 -36.57098,5.1867 -73.39562,18.94963 -95.93421,35.85467 -39.90599,29.93145 -62.47436,60.12009 -74.47949,99.62771 -4.85595,15.98044 -5.26562,19.91832 -5.39717,51.87923 -0.12789,31.06514 0.31193,36.03236 4.31983,48.79193 6.42464,20.45345 14.60271,33.88426 30.02222,49.30537 18.07037,18.07224 24.26197,20.88492 39.96339,18.15434 35.10025,-6.10414 124.18899,-28.26398 159.96955,-39.79065 69.18745,-22.28867 129.07732,-58.43766 182.27719,-110.02093 21.17227,-20.52889 44.9441,-48.48924 56.82235,-66.83397 3.59166,-5.54707 6.8373,-9.77862 7.21249,-9.40344 1.16736,1.16736 -10.13379,25.0059 -19.7956,41.75661 -24.14702,41.86381 -73.52923,96.82512 -113.16487,125.95006 -18.33099,13.46993 -46.43008,30.34137 -67.23669,40.37069 -9.5112,4.58465 -51.48261,19.59019 -93.26982,33.34565 -41.78718,13.75545 -77.90095,26.35771 -80.25282,28.005 -7.3211,5.12789 -3.02611,7.15074 11.8917,5.60077 7.52348,-0.78168 37.88933,-1.09841 67.47973,-0.70386 z"
       id="path4893"
       inkscape:connector-curvature="0" />
  </g>
</svg>
