<?xml version="1.0" encoding="UTF-8" standalone="no"?>
<!-- Created with Inkscape (http://www.inkscape.org/) -->

<svg
   xmlns:dc="http://purl.org/dc/elements/1.1/"
   xmlns:cc="http://creativecommons.org/ns#"
   xmlns:rdf="http://www.w3.org/1999/02/22-rdf-syntax-ns#"
   xmlns:svg="http://www.w3.org/2000/svg"
   xmlns="http://www.w3.org/2000/svg"
   xmlns:sodipodi="http://sodipodi.sourceforge.net/DTD/sodipodi-0.dtd"
   xmlns:inkscape="http://www.inkscape.org/namespaces/inkscape"
   width="1000"
   height="1000"
   id="svg4955"
   version="1.1"
   inkscape:version="0.48.4 r9939"
   sodipodi:docname="squarespace.svg">
  <defs
     id="defs5498" />
  <sodipodi:namedview
     inkscape:window-height="1056"
     inkscape:window-width="1920"
     inkscape:pageshadow="2"
     inkscape:pageopacity="0.0"
     borderopacity="1.0"
     bordercolor="#666666"
     pagecolor="#ffffff"
     id="base"
     showgrid="false"
     showguides="false"
     inkscape:guide-bbox="true"
     inkscape:zoom="0.75405844"
     inkscape:cx="327.38922"
     inkscape:cy="555.63529"
     inkscape:window-x="0"
     inkscape:window-y="24"
     inkscape:current-layer="layer16"
     inkscape:window-maximized="1">
    <sodipodi:guide
       orientation="0,1"
       position="189.44385,479.26189"
       id="guide7179" />
    <sodipodi:guide
       orientation="1,0"
       position="429.5717,650.94149"
       id="guide7232" />
    <sodipodi:guide
       orientation="0,1"
       position="423.85732,718.7686"
       id="guide7234" />
    <sodipodi:guide
       orientation="0,1"
       position="407.21111,603.48736"
       id="guide7236" />
    <sodipodi:guide
       orientation="1,0"
       position="330.68822,603.48736"
       id="guide7238" />
    <sodipodi:guide
       orientation="1,0"
       position="526.71602,603.48736"
       id="guide7240" />
    <sodipodi:guide
       orientation="0,1"
       position="429.5717,709.07902"
       id="guide7242" />
    <sodipodi:guide
       orientation="0,1"
       position="429.5717,618.89132"
       id="guide7244" />
    <sodipodi:guide
       orientation="1,0"
       position="421.62126,644.23332"
       id="guide7246" />
    <sodipodi:guide
       orientation="1,0"
       position="370.68882,649.20234"
       id="guide7248" />
    <sodipodi:guide
       orientation="1,0"
       position="377.397,646.46938"
       id="guide7250" />
    <sodipodi:guide
       orientation="0,1"
       position="401.99364,699.63788"
       id="guide7252" />
    <sodipodi:guide
       orientation="0,1"
       position="402.73899,694.42041"
       id="guide7254" />
    <sodipodi:guide
       orientation="0,1"
       position="412.67703,632.80457"
       id="guide7258" />
    <sodipodi:guide
       orientation="0,1"
       position="421.62126,626.0964"
       id="guide7260" />
    <sodipodi:guide
       orientation="1,0"
       position="469.5723,641.50036"
       id="guide7262" />
    <sodipodi:guide
       orientation="1,0"
       position="390.5649,658.14657"
       id="guide7264" />
    <sodipodi:guide
       orientation="1,0"
       position="384.10517,643.23951"
       id="guide7266" />
    <sodipodi:guide
       orientation="1,0"
       position="407.45956,632.80457"
       id="guide7268" />
    <sodipodi:guide
       orientation="0,1"
       position="562.25,301.75"
       id="guide9656" />
    <sodipodi:guide
       orientation="0,1"
       position="304.625,414.0625"
       id="guide9658" />
    <sodipodi:guide
       orientation="0,1"
       position="574.5,288.25"
       id="guide9660" />
    <sodipodi:guide
       orientation="0,1"
       position="274,595.875"
       id="guide9707" />
    <sodipodi:guide
       orientation="0,1"
       position="278.41012,505.92896"
       id="guide9709" />
    <sodipodi:guide
       orientation="1,0"
       position="399.47499,579.75449"
       id="guide10200" />
    <sodipodi:guide
       orientation="1,0"
       position="438.12917,549.60926"
       id="guide10206" />
    <sodipodi:guide
       orientation="1,0"
       position="366.59957,560.79871"
       id="guide10208" />
    <sodipodi:guide
       orientation="1,0"
       position="396.27234,559.2239"
       id="guide10210" />
    <sodipodi:guide
       orientation="0,1"
       position="399.47499,581.27126"
       id="guide10212" />
    <sodipodi:guide
       orientation="0,1"
       position="403.89774,578.28741"
       id="guide10214" />
  </sodipodi:namedview>
  <metadata
     id="metadata5594">
    <rdf:RDF>
      <cc:Work
         rdf:about="">
        <dc:format>image/svg+xml</dc:format>
        <dc:type
           rdf:resource="http://purl.org/dc/dcmitype/StillImage" />
        <dc:title></dc:title>
      </cc:Work>
    </rdf:RDF>
  </metadata>
  <g
     inkscape:groupmode="layer"
     id="layer13"
     inkscape:label="Layer#1">
    <g
       inkscape:groupmode="layer"
       id="layer16"
       inkscape:label="Layer">
      <path
         style="fill:#008d00;stroke:none;stroke-width:1px;stroke-linecap:butt;stroke-linejoin:miter;stroke-opacity:1;fill-opacity:1"
         d="m 396.27234,421.71259 0,28.59527 -29.67277,-3.72982 0,-24.86545 29.67277,0 -29.67277,0 0,24.78257 29.67277,3.89558 z"
         id="path10220"
         inkscape:connector-curvature="0" />
      <path
         style="fill:#000000"
         d="m 403.0278,827.36742 c -9.92,-0.85493 -22.218,-3.1735 -31.52152,-5.94285 -18.18738,-5.4138 -35.2314,-14.04583 -50.24242,-25.44555 -4.12661,-3.13384 -5.695,-4.40274 -10.01614,-8.10349 -1.23308,-1.05605 -3.46958,-2.90769 -4.97,-4.11476 -6.19559,-4.98427 -10.98175,-12.30111 -13.11299,-20.0464 -1.25366,-4.55601 -1.62001,-7.85597 -1.40099,-12.61969 0.2739,-5.95805 1.45838,-10.64205 3.96708,-15.68789 5.45056,-10.96287 14.71357,-18.33356 26.81309,-21.33547 3.70364,-0.91885 10.93359,-1.15259 14.79227,-0.47819 7.7077,1.3471 14.7162,4.67763 20.18152,9.59054 1.10671,0.99487 2.18843,1.80882 2.40383,1.80882 0.2154,0 1.54202,1.04578 2.94804,2.32398 13.83428,12.57642 30.01998,19.47128 48.63268,20.71675 18.52996,1.2399 37.17179,-4.50168 52.80851,-16.26481 3.70235,-2.7852 6.82167,-5.89805 116.14877,-115.9082 29.57942,-29.76422 63.14811,-63.52335 107.55203,-108.16224 18.34309,-18.44016 29.16071,-29.55318 30.37052,-31.19988 5.94013,-8.08512 14.42742,-13.56033 24.34211,-15.70326 1.88243,-0.40686 4.00023,-0.54959 8.00039,-0.53922 5.00113,0.0131 5.74475,0.0929 9.21244,0.99019 11.20643,2.89979 20.54019,10.38985 25.71078,20.63223 2.89806,5.74072 4.27431,11.58104 4.27549,18.1436 0,6.40145 -1.30216,11.87187 -4.23152,17.76086 -2.99759,6.02618 -2.89077,5.9076 -29.84464,33.12159 -18.03035,18.20437 -56.39671,56.9873 -85.78668,86.71818 -8.26126,8.35711 -21.21796,21.46174 -28.79264,29.12141 -7.5747,7.65966 -20.10331,20.33352 -27.84134,28.1641 -7.73807,7.83059 -15.07871,15.24695 -16.31259,16.4808 -1.23389,1.23386 -14.05051,14.18436 -28.48138,28.77896 -49.0712,49.62777 -47.99531,48.58318 -57.43948,55.76974 -23.56354,17.93075 -52.38733,28.93199 -82.40398,31.45127 -4.4676,0.37497 -21.32573,0.36114 -25.76124,-0.0211 z m 212.61225,-7.1904 c -9.04498,-1.09672 -19.72418,-4.32327 -26.56564,-8.02643 -7.77851,-4.21034 -11.67857,-6.97134 -18.79377,-13.3048 l -1.5553,-1.38442 17.86518,-18.07358 c 9.82585,-9.94044 24.43011,-24.69786 32.45395,-32.79426 8.02381,-8.09639 21.49339,-21.70241 29.93236,-30.2356 8.43897,-8.53321 21.75981,-21.99786 29.60193,-29.92144 16.00848,-16.17487 39.10671,-39.5223 59.67865,-60.32251 7.57576,-7.65982 20.47779,-20.69527 28.67118,-28.96766 25.59666,-25.84346 41.36183,-41.84772 43.18723,-43.84212 8.95064,-9.77938 15.19456,-21.82566 18.32905,-35.36171 4.1066,-17.73426 2.04797,-36.09332 -5.90291,-52.64254 -9.97578,-20.76385 -29.2129,-36.54701 -51.30261,-42.09138 -7.97229,-2.00099 -11.13211,-2.3773 -19.87475,-2.36696 -8.44972,0.01 -12.03238,0.44543 -19.80092,2.40651 -11.33844,2.86223 -23.22679,9.18983 -31.88158,16.96902 -2.37086,2.13098 -24.08397,23.87309 -74.90522,75.00522 -14.34499,14.43269 -38.38937,38.62276 -53.43203,53.75568 -15.04265,15.13296 -39.08682,39.32193 -53.4315,53.75335 -55.87323,56.21088 -76.34139,76.57615 -78.40379,78.00966 -2.35483,1.63675 -7.17433,4.12699 -10.17348,5.25661 -4.51759,1.70155 -7.46107,2.15722 -13.98768,2.16528 -5.2329,0.007 -6.504,-0.0937 -9.12044,-0.71907 -17.27626,-4.1291 -29.81562,-19.21958 -30.62369,-36.85401 -0.624,-13.61805 5.05618,-25.68952 16.06299,-34.13681 1.41833,-1.08853 11.61982,-11.0767 22.87419,-22.39587 11.17269,-11.23706 32.27592,-32.45562 46.89602,-47.15232 14.62009,-14.69672 50.54468,-50.84246 79.83242,-80.32388 105.19145,-105.88707 104.72289,-105.42237 112.6257,-111.69269 14.06185,-11.15709 31.33337,-20.46109 48.18663,-25.95777 15.43604,-5.03445 29.61919,-7.46042 45.92223,-7.85474 29.12546,-0.70452 57.69634,6.65357 82.88045,21.3448 32.70295,19.07743 57.99153,49.9764 70.08808,85.63745 4.03107,11.88368 6.36732,22.29723 7.88864,35.16278 0.71731,6.06635 0.82541,25.99947 0.17354,32.00155 -3.29661,30.35314 -13.6412,57.15342 -31.00409,80.32388 -6.1474,8.20359 -8.75069,11.0637 -25.34912,27.84986 -6.61818,6.69299 -18.00219,18.21355 -25.2978,25.60124 -17.2432,17.46077 -35.34008,35.77193 -51.70186,52.31401 -12.67869,12.81841 -49.24682,49.8544 -78.99316,80.00386 -16.5334,16.75746 -18.01527,18.21425 -21.4882,21.1249 -9.79981,8.21313 -21.69784,14.00384 -33.92162,16.5095 -8.3576,1.71317 -17.8754,2.16881 -25.63926,1.22741 z M 237.73982,658.84795 c -8.7681,-0.58079 -21.618,-2.73996 -30.08145,-5.0546 -23.2913,-6.36991 -44.65656,-17.70832 -62.083,-32.9471 -29.21229,-25.54511 -47.657314,-58.98554 -53.405652,-96.82346 -1.428261,-9.40142 -1.637007,-12.44173 -1.637007,-23.84116 0,-13.78255 0.653023,-20.40236 3.251514,-32.96159 5.159929,-24.93925 16.337625,-48.33679 32.563585,-68.16329 3.71084,-4.53424 4.4469,-5.34333 10.62145,-11.67506 7.88122,-8.0818 8.02859,-8.23166 22.36677,-22.73988 7.39236,-7.48004 19.33665,-19.57349 26.54285,-26.87436 12.2917,-12.45314 20.5201,-20.77956 51.70026,-52.31618 6.96078,-7.04034 24.23816,-24.53719 38.3942,-38.88188 40.34547,-40.88316 45.10084,-45.64989 48.17065,-48.28596 11.64619,-10.0005 25.95024,-16.27789 41.76202,-18.32734 3.95907,-0.51318 14.68621,-0.51689 18.5609,-0.007 14.19927,1.87058 26.6824,6.83134 37.60181,14.9428 3.37191,2.50486 9.10428,7.5235 9.01375,7.89146 -0.0485,0.19706 -25.75833,26.24308 -64.0688,64.90652 -8.10967,8.18439 -21.57697,21.79135 -29.92733,30.23765 -8.35035,8.44633 -21.67425,21.91098 -29.60866,29.92145 -7.9344,8.01049 -21.47105,21.68882 -30.08145,30.39628 -31.57346,31.92951 -43.87095,44.35664 -59.54412,60.1719 -30.25823,30.53252 -30.78507,31.09945 -35.38792,38.08184 -2.57222,3.90198 -6.43743,11.50821 -7.91491,15.57544 -4.57696,12.59977 -6.04548,25.82109 -4.29487,38.66718 1.91984,14.08772 7.81991,28.02247 16.39507,38.72187 12.62183,15.74851 29.56828,25.69516 49.65027,29.14211 4.68394,0.80397 16.71882,0.98142 21.76105,0.32088 16.0945,-2.10845 30.02654,-8.35768 42.30457,-18.97583 1.70645,-1.47575 10.34686,-10.00986 19.20092,-18.96462 14.49012,-14.65502 60.90301,-61.36092 137.21607,-138.08242 98.39989,-98.92654 91.87496,-92.31982 94.03287,-95.2118 3.962,-5.30989 8.72429,-9.28025 14.62041,-12.18929 12.8243,-6.32728 27.40705,-5.27421 39.67852,2.86532 5.42263,3.59679 11.19149,10.68154 13.91517,17.08931 2.18258,5.13478 2.93192,8.57458 3.11862,14.31573 0.2442,7.50939 -0.9269,12.94276 -4.2165,19.56309 -2.86161,5.75893 -2.49672,5.36135 -35.64623,38.83973 -23.30278,23.53397 -49.62518,50.14281 -85.31967,86.24811 -8.08916,8.18221 -21.05328,21.28508 -28.80919,29.11747 -19.28546,19.47549 -65.88652,66.60144 -90.0304,91.04439 -10.95285,11.08854 -21.31521,21.43597 -23.02745,22.99433 -11.85215,10.78685 -24.21915,19.17923 -38.31487,26.00087 -17.4636,8.45149 -35.95512,13.41741 -56.48274,15.16851 -3.35439,0.28616 -18.71376,0.35291 -22.56108,0.098 z m 2.91121,-119.65855 c -14.46643,-2.61244 -26.41612,-13.07685 -30.84052,-27.00719 -1.61138,-5.0734 -1.82237,-6.49996 -1.82237,-12.32059 0,-5.82038 0.21093,-7.24659 1.82217,-12.3206 2.39948,-7.5562 7.09984,-14.23137 13.52881,-19.21293 2.79438,-2.16522 37.99275,-37.29962 97.1247,-96.94813 90.08784,-90.87489 157.9817,-158.79762 162.24782,-162.31683 26.09567,-21.5269 56.53982,-33.85515 89.90831,-36.40803 5.53269,-0.42329 16.91458,-0.42258 22.43316,0 27.57013,2.11805 53.29073,10.91835 75.98761,25.99914 8.42752,5.5996 14.56509,10.57209 22.37773,18.1298 6.61225,6.39647 10.0239,12.20523 12.04237,20.50352 0.63395,2.60631 0.73881,3.86214 0.73491,8.80043 -0.005,6.33188 -0.35703,8.62307 -2.0815,13.54763 -4.01937,11.47818 -13.16612,20.85742 -24.05278,24.66416 -8.35958,2.92309 -17.28004,3.08015 -25.63786,0.45142 -7.1335,-2.24366 -12.78292,-6.19684 -18.95676,-13.26502 -1.37481,-1.57397 -5.6707,-4.87208 -9.54826,-7.3306 -12.52791,-7.94311 -27.06858,-12.14731 -42.01269,-12.14731 -12.63361,0 -24.0931,2.72672 -35.59106,8.4687 -3.21904,1.60756 -7.94836,4.44854 -10.0805,6.05553 -6.27486,4.72931 -7.96085,6.39566 -90.86947,89.80993 -14.95253,15.0437 -39.00463,39.23278 -53.44914,53.75347 -14.4445,14.5207 -47.11907,47.38069 -72.61016,73.02222 -36.07707,36.28995 -46.96089,47.0584 -49.11581,48.59515 -5.11823,3.64993 -11.74883,6.44613 -17.77104,7.49425 -3.51738,0.61219 -10.32312,0.60252 -13.76767,-0.0195 z"
         id="path10431"
         inkscape:connector-curvature="0" />
    </g>
  </g>
</svg>
