<?xml version="1.0" encoding="UTF-8" standalone="no"?>
<!-- Created with Inkscape (http://www.inkscape.org/) -->

<svg
   xmlns:dc="http://purl.org/dc/elements/1.1/"
   xmlns:cc="http://creativecommons.org/ns#"
   xmlns:rdf="http://www.w3.org/1999/02/22-rdf-syntax-ns#"
   xmlns:svg="http://www.w3.org/2000/svg"
   xmlns="http://www.w3.org/2000/svg"
   xmlns:sodipodi="http://sodipodi.sourceforge.net/DTD/sodipodi-0.dtd"
   xmlns:inkscape="http://www.inkscape.org/namespaces/inkscape"
   width="1000"
   height="1000"
   id="svg4955"
   version="1.1"
   inkscape:version="0.48.4 r9939"
   sodipodi:docname="phoenix.svg">
  <defs
     id="defs5498" />
  <sodipodi:namedview
     inkscape:window-height="1056"
     inkscape:window-width="1920"
     inkscape:pageshadow="2"
     inkscape:pageopacity="0.0"
     borderopacity="1.0"
     bordercolor="#666666"
     pagecolor="#ffffff"
     id="base"
     showgrid="false"
     showguides="false"
     inkscape:guide-bbox="true"
     inkscape:zoom="0.50311741"
     inkscape:cx="-133.31613"
     inkscape:cy="388.95822"
     inkscape:window-x="0"
     inkscape:window-y="24"
     inkscape:current-layer="layer11"
     inkscape:window-maximized="1">
    <sodipodi:guide
       orientation="0,1"
       position="189.44385,479.26189"
       id="guide7179" />
    <sodipodi:guide
       orientation="1,0"
       position="429.5717,650.94149"
       id="guide7232" />
    <sodipodi:guide
       orientation="0,1"
       position="423.85732,718.7686"
       id="guide7234" />
    <sodipodi:guide
       orientation="0,1"
       position="407.21111,603.48736"
       id="guide7236" />
    <sodipodi:guide
       orientation="1,0"
       position="330.68822,603.48736"
       id="guide7238" />
    <sodipodi:guide
       orientation="1,0"
       position="526.71602,603.48736"
       id="guide7240" />
    <sodipodi:guide
       orientation="0,1"
       position="429.5717,709.07902"
       id="guide7242" />
    <sodipodi:guide
       orientation="0,1"
       position="429.5717,618.89132"
       id="guide7244" />
    <sodipodi:guide
       orientation="1,0"
       position="421.62126,644.23332"
       id="guide7246" />
    <sodipodi:guide
       orientation="1,0"
       position="370.68882,649.20234"
       id="guide7248" />
    <sodipodi:guide
       orientation="1,0"
       position="377.397,646.46938"
       id="guide7250" />
    <sodipodi:guide
       orientation="0,1"
       position="401.99364,699.63788"
       id="guide7252" />
    <sodipodi:guide
       orientation="0,1"
       position="402.73899,694.42041"
       id="guide7254" />
    <sodipodi:guide
       orientation="0,1"
       position="412.67703,632.80457"
       id="guide7258" />
    <sodipodi:guide
       orientation="0,1"
       position="421.62126,626.0964"
       id="guide7260" />
    <sodipodi:guide
       orientation="1,0"
       position="469.5723,641.50036"
       id="guide7262" />
    <sodipodi:guide
       orientation="1,0"
       position="390.5649,658.14657"
       id="guide7264" />
    <sodipodi:guide
       orientation="1,0"
       position="384.10517,643.23951"
       id="guide7266" />
    <sodipodi:guide
       orientation="1,0"
       position="407.45956,632.80457"
       id="guide7268" />
  </sodipodi:namedview>
  <metadata
     id="metadata5594">
    <rdf:RDF>
      <cc:Work
         rdf:about="">
        <dc:format>image/svg+xml</dc:format>
        <dc:type
           rdf:resource="http://purl.org/dc/dcmitype/StillImage" />
        <dc:title></dc:title>
      </cc:Work>
    </rdf:RDF>
  </metadata>
  <g
     inkscape:groupmode="layer"
     id="layer11"
     inkscape:label="Layer"
     style="opacity:1">
    <path
       style="fill:#000000"
       d="m 423.70496,923.54521 c -66.3658,-2.85909 -143.887,-20.02471 -193.08948,-42.75632 l -13.08698,-6.04628 18.86251,-76.547 c 10.37438,-42.10085 19.2374,-76.9219 19.6956,-77.38009 0.45819,-0.4582 5.73097,1.63345 11.71727,4.64811 35.11456,17.68341 89.5461,34.31078 134.36747,41.04567 26.80898,4.02831 66.86265,5.4906 87.68017,3.20104 56.11491,-6.17165 92.07359,-30.60557 100.45135,-68.25665 1.20494,-5.41518 1.66275,-14.86777 1.21149,-25.01416 -0.66794,-15.01814 -1.18528,-17.24019 -6.53351,-28.06159 C 569.8045,617.67069 535.76294,596.23869 455.36581,566.77445 377.31658,538.1707 330.63952,511.45396 292.52313,473.56755 254.16075,435.43664 234.13336,393.27172 229.55625,340.99941 c -5.52378,-63.0834 16.57389,-127.07987 59.69836,-172.89076 43.97546,-46.71493 102.56504,-75.339253 179.98802,-87.934359 28.36284,-4.614041 96.55201,-5.832117 129.77349,-2.318168 51.77734,5.476654 93.1368,15.268397 135.42786,32.062177 8.48028,3.36752 15.58633,6.28679 15.79123,6.48726 0.55659,0.54453 -40.48001,148.68554 -41.45848,149.66401 -0.46302,0.46302 -6.32568,-1.6595 -13.02814,-4.71671 -6.70244,-3.05722 -22.24695,-8.90409 -34.54335,-12.99305 -37.60964,-12.50646 -69.27388,-18.07113 -111.01452,-19.50969 -40.8645,-1.40838 -66.83092,3.16582 -91.62952,16.14126 -24.69613,12.92183 -39.04192,33.29142 -40.5523,57.58026 -2.86112,46.00992 25.34835,70.90695 124.47247,109.85655 16.53654,6.49782 37.35176,14.67265 46.25605,18.16629 56.69043,22.24271 101.85541,50.51415 134.22654,84.02029 30.42547,31.49228 47.16026,63.1602 56.48351,106.88602 4.32913,20.30361 3.93097,76.85911 -0.68671,97.53629 -30.77077,137.78672 -161.11414,212.86305 -355.0558,204.50813 z"
       id="path7869"
       inkscape:connector-curvature="0" />
  </g>
</svg>
