<?xml version="1.0" encoding="UTF-8" standalone="no"?>
<!-- Created with Inkscape (http://www.inkscape.org/) -->

<svg
   xmlns:dc="http://purl.org/dc/elements/1.1/"
   xmlns:cc="http://creativecommons.org/ns#"
   xmlns:rdf="http://www.w3.org/1999/02/22-rdf-syntax-ns#"
   xmlns:svg="http://www.w3.org/2000/svg"
   xmlns="http://www.w3.org/2000/svg"
   xmlns:sodipodi="http://sodipodi.sourceforge.net/DTD/sodipodi-0.dtd"
   xmlns:inkscape="http://www.inkscape.org/namespaces/inkscape"
   width="1000"
   height="1000"
   id="svg4955"
   version="1.1"
   inkscape:version="0.48.4 r9939"
   sodipodi:docname="c.svg">
  <defs
     id="defs5498" />
  <sodipodi:namedview
     inkscape:window-height="1056"
     inkscape:window-width="1920"
     inkscape:pageshadow="2"
     inkscape:pageopacity="0.0"
     borderopacity="1.0"
     bordercolor="#666666"
     pagecolor="#ffffff"
     id="base"
     showgrid="false"
     showguides="false"
     inkscape:guide-bbox="true"
     inkscape:zoom="0.70710678"
     inkscape:cx="283.36459"
     inkscape:cy="544.95588"
     inkscape:window-x="0"
     inkscape:window-y="24"
     inkscape:current-layer="layer11"
     inkscape:window-maximized="1">
    <sodipodi:guide
       orientation="0,1"
       position="189.44385,479.26189"
       id="guide7179" />
    <sodipodi:guide
       orientation="1,0"
       position="429.5717,650.94149"
       id="guide7232" />
    <sodipodi:guide
       orientation="0,1"
       position="423.85732,718.7686"
       id="guide7234" />
    <sodipodi:guide
       orientation="0,1"
       position="407.21111,603.48736"
       id="guide7236" />
    <sodipodi:guide
       orientation="1,0"
       position="330.68822,603.48736"
       id="guide7238" />
    <sodipodi:guide
       orientation="1,0"
       position="526.71602,603.48736"
       id="guide7240" />
    <sodipodi:guide
       orientation="0,1"
       position="429.5717,709.07902"
       id="guide7242" />
    <sodipodi:guide
       orientation="0,1"
       position="429.5717,618.89132"
       id="guide7244" />
    <sodipodi:guide
       orientation="1,0"
       position="421.62126,644.23332"
       id="guide7246" />
    <sodipodi:guide
       orientation="1,0"
       position="370.68882,649.20234"
       id="guide7248" />
    <sodipodi:guide
       orientation="1,0"
       position="377.397,646.46938"
       id="guide7250" />
    <sodipodi:guide
       orientation="0,1"
       position="401.99364,699.63788"
       id="guide7252" />
    <sodipodi:guide
       orientation="0,1"
       position="402.73899,694.42041"
       id="guide7254" />
    <sodipodi:guide
       orientation="0,1"
       position="412.67703,632.80457"
       id="guide7258" />
    <sodipodi:guide
       orientation="0,1"
       position="421.62126,626.0964"
       id="guide7260" />
    <sodipodi:guide
       orientation="1,0"
       position="469.5723,641.50036"
       id="guide7262" />
    <sodipodi:guide
       orientation="1,0"
       position="390.5649,658.14657"
       id="guide7264" />
    <sodipodi:guide
       orientation="1,0"
       position="384.10517,643.23951"
       id="guide7266" />
    <sodipodi:guide
       orientation="1,0"
       position="407.45956,632.80457"
       id="guide7268" />
  </sodipodi:namedview>
  <metadata
     id="metadata5594">
    <rdf:RDF>
      <cc:Work
         rdf:about="">
        <dc:format>image/svg+xml</dc:format>
        <dc:type
           rdf:resource="http://purl.org/dc/dcmitype/StillImage" />
        <dc:title></dc:title>
      </cc:Work>
    </rdf:RDF>
  </metadata>
  <g
     inkscape:groupmode="layer"
     id="layer11"
     inkscape:label="Layer"
     style="opacity:1">
    <path
       style="fill:#000000"
       d="M 474.81498,899.74441 C 410.38591,890.63335 371.68347,881.45525 330.3192,865.47796 239.68876,830.47118 153.44367,766.89495 90.599903,688.76705 71.805169,665.40125 43.487798,624.29601 45.085328,622.69848 c 0.465477,-0.46548 7.224022,3.2071 15.018989,8.16128 61.370053,39.00446 140.477603,72.01765 204.225683,85.22756 74.06388,15.34753 174.70551,8.64999 242.40129,-16.13142 18.74333,-6.86138 45.30001,-20.92012 44.95913,-23.80072 -0.0832,-0.70222 -5.14907,-5.40191 -11.25772,-10.44376 C 512.10044,642.32704 429.07162,565.15646 375.62303,512.53018 296.67472,434.79652 229.90668,357.6212 157.52778,260.43997 127.30397,219.85931 125.35965,216.97968 130.19943,219.9657 c 1.83082,1.12957 27.85875,21.34382 57.83984,44.9206 83.34259,65.5396 156.00795,121.56441 184.86368,142.52942 33.35939,24.23715 99.74389,69.56375 101.88176,69.56375 0.90067,0 -7.85938,-10.39858 -19.46678,-23.10796 -50.63419,-55.44128 -86.74645,-101.3102 -147.87419,-187.82623 -51.25784,-72.54689 -62.56709,-89.26615 -57.571,-85.11136 2.49032,2.07099 27.99132,24.49472 56.66889,49.83053 144.87032,127.9887 173.70479,151.16044 300.99599,241.88421 81.89262,58.36701 74.00622,53.723 77.20478,45.46312 5.9465,-15.35613 14.15677,-58.52331 16.68907,-87.74611 8.29953,-95.77711 -22.18559,-210.80223 -81.78253,-308.57813 -7.4424,-12.21015 -13.18306,-22.548862 -12.75699,-22.974925 1.3008,-1.300801 57.05905,39.296945 80.64746,58.719675 30.28994,24.94076 84.68677,81.08083 105.50026,108.88117 44.69812,59.70286 75.20553,126.09741 89.63815,195.08335 11.42486,54.60918 10.4146,128.92412 -2.44608,179.93713 l -5.43606,21.56259 7.62619,9.496 c 35.4511,44.14322 58.19568,94.39222 67.58498,149.31368 4.30654,25.19062 6.69621,79.4117 3.4999,79.4117 -0.68353,0 -12.14863,-11.02704 -25.47801,-24.50453 -35.9798,-36.37966 -67.28099,-52.74071 -106.06556,-55.44024 -28.00365,-1.94915 -49.31509,4.62441 -108.95846,33.6085 -81.58949,39.64897 -99.44633,44.21866 -176.56851,45.18512 -29.9811,0.37572 -57.71065,0.2306 -61.62123,-0.32235 z"
       id="path8186"
       inkscape:connector-curvature="0" />
  </g>
</svg>
