<?xml version="1.0" encoding="UTF-8" standalone="no"?>
<!-- Created with Inkscape (http://www.inkscape.org/) -->

<svg
   xmlns:dc="http://purl.org/dc/elements/1.1/"
   xmlns:cc="http://creativecommons.org/ns#"
   xmlns:rdf="http://www.w3.org/1999/02/22-rdf-syntax-ns#"
   xmlns:svg="http://www.w3.org/2000/svg"
   xmlns="http://www.w3.org/2000/svg"
   xmlns:sodipodi="http://sodipodi.sourceforge.net/DTD/sodipodi-0.dtd"
   xmlns:inkscape="http://www.inkscape.org/namespaces/inkscape"
   width="1000"
   height="1000"
   id="svg4955"
   version="1.1"
   inkscape:version="0.48.4 r9939"
   sodipodi:docname="codeigniter.svg">
  <defs
     id="defs5498" />
  <sodipodi:namedview
     inkscape:window-height="1056"
     inkscape:window-width="1920"
     inkscape:pageshadow="2"
     inkscape:pageopacity="0.0"
     borderopacity="1.0"
     bordercolor="#666666"
     pagecolor="#ffffff"
     id="base"
     showgrid="false"
     showguides="true"
     inkscape:guide-bbox="true"
     inkscape:zoom="0.64205296"
     inkscape:cx="572.36255"
     inkscape:cy="451.00823"
     inkscape:window-x="0"
     inkscape:window-y="24"
     inkscape:current-layer="layer1"
     inkscape:window-maximized="1">
    <sodipodi:guide
       orientation="horizontal"
       position="200"
       id="guide5596" />
  </sodipodi:namedview>
  <metadata
     id="metadata5594">
    <rdf:RDF>
      <cc:Work
         rdf:about="">
        <dc:format>image/svg+xml</dc:format>
        <dc:type
           rdf:resource="http://purl.org/dc/dcmitype/StillImage" />
        <dc:title></dc:title>
      </cc:Work>
    </rdf:RDF>
  </metadata>
  <g
     inkscape:label="Layer 1"
     inkscape:groupmode="layer"
     id="layer1">
    <path
       style="fill:#000000"
       d="M 469.45447,898.60673 C 370.82679,890.5863 281.57062,848.58242 212.94002,777.89127 180.96416,744.95537 160.38683,715.45503 139.33044,672.36219 111.18912,614.76974 98.662361,554.62861 100.66439,486.72603 102.06545,439.20674 110.51808,396.94918 126.9977,355.07692 168.47747,249.68306 249.58877,168.57176 354.98262,127.092 c 42.33394,-16.66133 84.15528,-24.96112 132.73601,-26.34253 69.21826,-1.968252 128.49689,10.83356 188.351,40.67629 45.2695,22.57098 76.56328,45.36759 110.75528,80.68204 105.65947,109.12805 140.07743,265.39909 90.29668,409.98233 -13.32018,38.68718 -39.55636,85.58383 -66.73783,119.29268 -62.83643,77.92598 -157.43871,131.25938 -256.30634,144.49644 -24.86067,3.32851 -62.36663,4.53737 -84.62295,2.72748 z M 393.92806,784.08364 c 40.74896,-11.31461 79.00478,-42.94047 111.0137,-91.77436 28.38424,-43.30398 47.52117,-99.99014 62.79428,-186.00507 3.33909,-18.8051 6.46111,-36.11434 6.93782,-38.46498 l 0.86674,-4.27388 27.73339,-0.007 c 24.29969,-0.005 29.31551,-0.50271 40.51192,-4.01241 18.07659,-5.6664 28.27195,-11.24747 39.03912,-21.3705 16.42487,-15.44223 21.36934,-32.89851 13.76682,-48.60323 -5.00809,-10.34533 -11.89431,-14.41639 -23.00227,-13.59872 -11.0736,0.81516 -18.86847,6.22776 -23.25725,16.14934 l -3.32305,7.51229 5.2481,11.2149 c 2.88644,6.1682 5.24809,13.02181 5.24809,15.23027 0,7.41198 -12.88848,15.59528 -30.42874,19.32022 -10.88439,2.31143 -45.89991,2.57028 -47.27248,0.34943 -1.18381,-1.91545 9.54756,-59.38184 15.50863,-83.04852 12.73038,-50.54222 29.29012,-79.82592 52.1887,-92.28889 7.35214,-4.00153 11.77767,-5.09671 22.9693,-5.68412 22.80561,-1.19699 26.9016,3.88065 17.75186,22.0062 -4.53652,8.98682 -5.31308,12.18774 -4.64455,19.14509 1.72096,17.91034 17.27945,28.40477 36.87673,24.87389 10.32638,-1.86054 17.11766,-7.28592 21.85465,-17.45915 8.17976,-17.56697 4.33754,-35.52889 -10.3691,-48.47419 -23.12722,-20.35739 -66.79225,-22.70162 -104.48786,-5.60961 -24.77222,11.23226 -50.10735,33.77036 -71.24691,63.38118 -12.96382,18.15877 -33.94023,58.50905 -41.51416,79.85675 -2.75212,7.7571 -5.41362,14.10382 -5.91444,14.10382 -0.5008,0 -8.97629,-7.35382 -18.83442,-16.3418 -36.20378,-33.00817 -61.93761,-45.20211 -95.39362,-45.20211 -41.74736,0 -76.93144,22.95884 -91.07827,59.43174 -2.91842,7.52416 -3.80574,13.38456 -3.81412,25.1912 -0.0197,27.8049 8.74806,45.56936 38.49588,77.99653 19.75579,21.53516 25.23446,30.58266 25.23446,41.67229 0,19.63205 -21.30723,38.46498 -43.51856,38.46498 -12.62131,0 -32.4527,-8.60935 -37.47005,-16.26679 -3.76324,-5.74343 -3.50337,-7.35781 3.27896,-20.36984 4.70581,-9.02815 5.98345,-13.47225 5.98345,-20.81257 0,-16.59203 -7.87792,-27.76166 -22.29053,-31.60438 -17.63371,-4.70154 -31.9588,4.56738 -35.82247,23.17861 -5.62596,27.10011 12.63954,55.98576 44.843,70.91624 36.84514,17.08248 72.25007,17.70988 104.78049,1.85679 34.57915,-16.85151 54.46603,-53.61707 46.26818,-85.53757 -1.56962,-6.11165 -4.49102,-14.50391 -6.49201,-18.64948 -4.78909,-9.9217 -19.89596,-29.64963 -37.98669,-49.60644 -16.86518,-18.60488 -20.59142,-26.3292 -19.43402,-40.28583 1.02674,-12.38114 7.95606,-22.22729 20.16274,-28.65 12.16805,-6.40239 25.03305,-6.35469 43.75334,0.16224 17.29822,6.02183 26.84356,12.40066 52.97415,35.40085 l 20.73367,18.24981 -4.89624,18.18306 c -7.46924,27.73819 -15.99002,67.11887 -23.7237,109.64421 -20.26249,111.41789 -36.98814,158.55959 -66.59684,187.70491 -20.89138,20.56448 -53.01956,27.99579 -53.01956,12.26356 0,-3.99193 1.53113,-6.15768 7.26561,-10.27707 3.99608,-2.8706 8.61188,-7.67155 10.25733,-10.66878 11.12641,-20.26704 -11.67854,-48.51654 -36.48042,-45.18992 -22.41458,3.00643 -39.79353,25.18203 -36.80762,46.96665 4.84974,35.38273 46.90509,53.00289 94.77884,39.71 z"
       id="path5005"
       inkscape:connector-curvature="0" />
  </g>
</svg>
