<?xml version="1.0" encoding="UTF-8" standalone="no"?>
<!-- Created with Inkscape (http://www.inkscape.org/) -->

<svg
   xmlns:dc="http://purl.org/dc/elements/1.1/"
   xmlns:cc="http://creativecommons.org/ns#"
   xmlns:rdf="http://www.w3.org/1999/02/22-rdf-syntax-ns#"
   xmlns:svg="http://www.w3.org/2000/svg"
   xmlns="http://www.w3.org/2000/svg"
   xmlns:sodipodi="http://sodipodi.sourceforge.net/DTD/sodipodi-0.dtd"
   xmlns:inkscape="http://www.inkscape.org/namespaces/inkscape"
   width="1000"
   height="1000"
   id="svg4955"
   version="1.1"
   inkscape:version="0.48.4 r9939"
   sodipodi:docname="grails.svg">
  <defs
     id="defs5498" />
  <sodipodi:namedview
     inkscape:window-height="1056"
     inkscape:window-width="1920"
     inkscape:pageshadow="2"
     inkscape:pageopacity="0.0"
     borderopacity="1.0"
     bordercolor="#666666"
     pagecolor="#ffffff"
     id="base"
     showgrid="false"
     showguides="true"
     inkscape:guide-bbox="true"
     inkscape:zoom="0.64205296"
     inkscape:cx="482.47061"
     inkscape:cy="320.47105"
     inkscape:window-x="0"
     inkscape:window-y="24"
     inkscape:current-layer="layer1"
     inkscape:window-maximized="1">
    <sodipodi:guide
       orientation="horizontal"
       position="200"
       id="guide5596" />
  </sodipodi:namedview>
  <metadata
     id="metadata5594">
    <rdf:RDF>
      <cc:Work
         rdf:about="">
        <dc:format>image/svg+xml</dc:format>
        <dc:type
           rdf:resource="http://purl.org/dc/dcmitype/StillImage" />
        <dc:title></dc:title>
      </cc:Work>
    </rdf:RDF>
  </metadata>
  <g
     inkscape:label="Layer 1"
     inkscape:groupmode="layer"
     id="layer1">
    <path
       style="fill:#000000"
       d="M 559.02075,905.08524 C 556.6596,888.6851 534.8928,863.09916 509.48452,846.85751 484.55617,830.92278 440.85059,801.05343 412.36103,780.48124 383.87148,759.90894 339.74582,736.21521 314.304,727.82841 267.20791,712.30328 200.54637,651.70962 174.34362,600.60803 153.68868,560.32587 156.41151,442.84736 179.57585,374.8639 205.19533,299.67492 294.10698,199.44799 381.71806,146.99639 462.81967,98.44177 609.24369,56.558368 628.96002,76.274695 c 21.06906,21.069068 1.21468,37.136395 -55.24916,44.709695 -75.6149,10.14202 -190.88663,71.42733 -256.05157,136.13204 -202.39357,200.96417 -93.59753,488.16727 152.43403,402.40023 33.85012,-11.80024 44.41211,-11.1613 53.52112,3.23745 17.51124,27.67994 7.28633,42.4664 -41.00217,59.2948 -48.86581,17.02951 -42.69924,20.54848 30.1097,17.18256 35.57362,-1.64449 48.56175,2.96124 48.56175,17.22052 0,10.70599 -10.19796,22.44058 -22.66214,26.07687 -12.46419,3.63631 0.0906,5.52051 27.9138,4.18707 55.6743,-2.66896 81.75856,26.55317 34.68914,38.86208 -21.485,5.61853 -24.33202,11.06262 -12.95432,24.77193 20.65596,24.88886 60.90238,0.77052 84.95962,-50.91368 23.3407,-50.14472 46.39187,-90.77408 64.74885,-114.12477 15.19788,-19.33211 31.63118,-75.84244 22.05519,-75.84244 -3.31203,0 -28.69352,18.21946 -56.40323,40.48756 -29.79606,23.94481 -58.5871,37.33867 -70.46451,32.78098 -31.24606,-11.99035 -23.73414,-25.30883 34.02118,-60.31874 51.75568,-31.37309 127.1928,-129.31034 127.1928,-165.12986 0,-9.83784 -13.35396,-2.08674 -30.25345,17.56018 -17.89468,20.80372 -36.54666,31.28244 -45.65853,25.65082 -10.94129,-6.76199 -5.92726,-20.78468 17.30366,-48.39288 39.13946,-46.51463 41.1156,-75.43295 7.95323,-116.3867 -20.59094,-25.42874 -36.74777,-30.57162 -96.04425,-30.57162 -77.21538,0 -105.94566,13.9301 -70.10191,33.98921 60.45509,33.83239 -0.16966,150.0422 -92.74465,177.7782 C 354.53967,555.95336 281.05708,443.29504 366.20667,335.04483 393.59368,300.228 557.72382,208.0253 592.31442,208.0253 c 40.78888,0 19.6508,21.5969 -48.97899,50.04243 -90.4537,37.49096 -176.29869,115.8261 -176.29869,160.87573 0,18.47975 5.82741,37.20102 12.9498,41.60292 7.27286,4.49487 12.9498,-5.75826 12.9498,-23.3889 0,-77.8507 140.87309,-170.19855 258.99598,-169.78222 141.46049,0.49857 210.60412,77.48072 180.87992,201.38542 -8.32425,34.69925 -19.99318,66.0919 -25.93092,69.76174 -5.93774,3.66971 -7.59001,26.42743 -3.67179,50.57259 6.96026,42.89141 -2.63684,68.07942 -89.2943,234.35587 -23.17431,44.46624 -74.49061,87.25185 -122.51999,102.15267 -22.60893,7.01426 -28.99318,2.9681 -32.37449,-20.51831 z M 263.43835,421.28102 c 0,-75.0262 98.87962,-182.4633 215.32628,-233.96141 82.19418,-36.35022 182.10071,-56.02407 167.91161,-33.06576 -5.07217,8.20719 -22.66395,14.92205 -39.09259,14.92205 -16.42875,0 -71.25444,20.70362 -121.83493,46.00804 -99.25102,49.65329 -176.5876,126.31402 -190.26945,188.60683 -8.57057,39.02201 -32.04092,51.83378 -32.04092,17.49025 z"
       id="path5901"
       inkscape:connector-curvature="0"
       sodipodi:nodetypes="sssssssssssssssscsssssscssscssssssssssssscsssssscssss" />
  </g>
</svg>
