<?xml version="1.0" encoding="UTF-8" standalone="no"?>
<!-- Created with Inkscape (http://www.inkscape.org/) -->

<svg
   xmlns:dc="http://purl.org/dc/elements/1.1/"
   xmlns:cc="http://creativecommons.org/ns#"
   xmlns:rdf="http://www.w3.org/1999/02/22-rdf-syntax-ns#"
   xmlns:svg="http://www.w3.org/2000/svg"
   xmlns="http://www.w3.org/2000/svg"
   xmlns:sodipodi="http://sodipodi.sourceforge.net/DTD/sodipodi-0.dtd"
   xmlns:inkscape="http://www.inkscape.org/namespaces/inkscape"
   width="1000"
   height="1000"
   id="svg4955"
   version="1.1"
   inkscape:version="0.48.4 r9939"
   sodipodi:docname="celluloid.svg">
  <defs
     id="defs5498" />
  <sodipodi:namedview
     inkscape:window-height="1056"
     inkscape:window-width="1920"
     inkscape:pageshadow="2"
     inkscape:pageopacity="0.0"
     borderopacity="1.0"
     bordercolor="#666666"
     pagecolor="#ffffff"
     id="base"
     showgrid="false"
     showguides="false"
     inkscape:guide-bbox="true"
     inkscape:zoom="0.50311741"
     inkscape:cx="286.52028"
     inkscape:cy="469.9658"
     inkscape:window-x="0"
     inkscape:window-y="24"
     inkscape:current-layer="layer11"
     inkscape:window-maximized="1">
    <sodipodi:guide
       orientation="0,1"
       position="189.44385,479.26189"
       id="guide7179" />
    <sodipodi:guide
       orientation="1,0"
       position="429.5717,650.94149"
       id="guide7232" />
    <sodipodi:guide
       orientation="0,1"
       position="423.85732,718.7686"
       id="guide7234" />
    <sodipodi:guide
       orientation="0,1"
       position="407.21111,603.48736"
       id="guide7236" />
    <sodipodi:guide
       orientation="1,0"
       position="330.68822,603.48736"
       id="guide7238" />
    <sodipodi:guide
       orientation="1,0"
       position="526.71602,603.48736"
       id="guide7240" />
    <sodipodi:guide
       orientation="0,1"
       position="429.5717,709.07902"
       id="guide7242" />
    <sodipodi:guide
       orientation="0,1"
       position="429.5717,618.89132"
       id="guide7244" />
    <sodipodi:guide
       orientation="1,0"
       position="421.62126,644.23332"
       id="guide7246" />
    <sodipodi:guide
       orientation="1,0"
       position="370.68882,649.20234"
       id="guide7248" />
    <sodipodi:guide
       orientation="1,0"
       position="377.397,646.46938"
       id="guide7250" />
    <sodipodi:guide
       orientation="0,1"
       position="401.99364,699.63788"
       id="guide7252" />
    <sodipodi:guide
       orientation="0,1"
       position="402.73899,694.42041"
       id="guide7254" />
    <sodipodi:guide
       orientation="0,1"
       position="412.67703,632.80457"
       id="guide7258" />
    <sodipodi:guide
       orientation="0,1"
       position="421.62126,626.0964"
       id="guide7260" />
    <sodipodi:guide
       orientation="1,0"
       position="469.5723,641.50036"
       id="guide7262" />
    <sodipodi:guide
       orientation="1,0"
       position="390.5649,658.14657"
       id="guide7264" />
    <sodipodi:guide
       orientation="1,0"
       position="384.10517,643.23951"
       id="guide7266" />
    <sodipodi:guide
       orientation="1,0"
       position="407.45956,632.80457"
       id="guide7268" />
  </sodipodi:namedview>
  <metadata
     id="metadata5594">
    <rdf:RDF>
      <cc:Work
         rdf:about="">
        <dc:format>image/svg+xml</dc:format>
        <dc:type
           rdf:resource="http://purl.org/dc/dcmitype/StillImage" />
        <dc:title></dc:title>
      </cc:Work>
    </rdf:RDF>
  </metadata>
  <g
     inkscape:groupmode="layer"
     id="layer11"
     inkscape:label="Layer"
     style="opacity:1">
    <path
       style="fill:#000000;fill-opacity:1;stroke:none"
       d="m 706.86759,307.91954 101.83312,-94.21087 -30.18406,-30.18406 34.14763,-37.19654 -35.3672,-27.13519 -39.33075,35.36722 -38.1112,-23.17161 20.4276,-39.940537 -39.63565,-17.073807 -29.87918,41.769864 -38.41608,-9.1467 6.40268,-45.42855 -43.29432,-2.439115 -18.90316,41.464995 -39.94053,2.74398 -7.92713,-41.76986 -41.16009,4.573343 -6.0978,40.245447 -36.28186,14.63469 -22.86672,-32.623177 -39.02586,17.378697 1.82932,40.55031 -34.7574,17.98849 -27.13518,-26.83027 -36.58674,26.52538 13.72003,34.14763 -33.23297,31.40363 -33.23297,-21.95203 -27.13517,31.40362 26.52539,28.65961 -26.83028,38.72098 -40.55032,-13.41513 -24.08626,39.02586 30.48895,23.78138 -14.6347,37.19654 -44.818767,0 -14.024935,39.02586 38.111202,16.46405 -7.92712,38.11119 -44.208999,14.63471 -3.963569,39.33075 42.684548,5.18313 3.0489,38.1112 -43.59922,23.17161 7.012476,42.37965 44.818754,-9.75648 12.80537,37.19654 -39.33075,33.53786 16.15914,37.19652 43.9041,-19.51292 26.83028,30.48895 -33.84274,43.90411 25.00094,29.2694 40.24543,-30.79386 37.19654,26.22052 -22.86672,48.47743 35.67207,21.95206 32.6232,-43.59923 39.94054,16.76894 -5.79291,53.96546 39.02586,9.14669 23.7814,-48.17257 50.30677,3.35379 3.3538,51.83124 45.73343,-2.13423 6.40269,-54.57524 47.86766,-7.31734 23.78139,49.697 42.37964,-17.37871 -2.13423,-56.70946 39.33077,-20.4276 33.84275,40.24542 45.73343,-29.2694 -21.34226,-48.78234 37.5014,-30.79385 46.953,27.44006 37.19654,-35.06229 -37.80631,-46.64812 29.2694,-36.28186 53.05078,13.72003 27.74497,-40.55031 -49.39212,-36.28186 18.59826,-43.59921 59.45346,0.91466 15.24449,-50.61166 -163.7257,-24.69606 -214.03249,-32.92808 c 0,0 4.97387,-37.95428 -33.74711,-57.77209 -38.72097,-19.81783 -88.23041,-15.52769 -120.85358,35.08397 -32.6232,50.61168 -9.48238,109.03617 34.71778,120.57935 59.09101,15.43205 80.7001,-16.07619 101.43259,-35.89402 38.84201,2.1723 185.8347,30.68922 185.8347,30.68922 0,0 -30.18408,66.46594 -73.17351,106.71137 C 612.6567,698.48312 498.93288,776.83977 361.12278,727.44765 223.31269,678.05554 219.04424,532.92808 226.3616,481.70663 c 7.31735,-51.22144 58.5388,-177.44575 174.39684,-232.32587 115.85804,-54.88014 218.91072,-15.24448 256.71704,12.19559 37.80631,27.44006 49.39211,46.34321 49.39211,46.34321 z"
       id="path7741"
       inkscape:connector-curvature="0"
       sodipodi:nodetypes="cccccccccccccccccccccccccccccccccccccccccccccccccccccccccccccccccccccccccccccccccccccccsssccsssssc" />
  </g>
</svg>
