<?xml version="1.0" encoding="UTF-8" standalone="no"?>
<!-- Created with Inkscape (http://www.inkscape.org/) -->

<svg
   xmlns:dc="http://purl.org/dc/elements/1.1/"
   xmlns:cc="http://creativecommons.org/ns#"
   xmlns:rdf="http://www.w3.org/1999/02/22-rdf-syntax-ns#"
   xmlns:svg="http://www.w3.org/2000/svg"
   xmlns="http://www.w3.org/2000/svg"
   xmlns:sodipodi="http://sodipodi.sourceforge.net/DTD/sodipodi-0.dtd"
   xmlns:inkscape="http://www.inkscape.org/namespaces/inkscape"
   width="1000"
   height="1000"
   id="svg4955"
   version="1.1"
   inkscape:version="0.48.4 r9939"
   sodipodi:docname="wordpress.svg">
  <defs
     id="defs5498" />
  <sodipodi:namedview
     inkscape:window-height="1056"
     inkscape:window-width="1920"
     inkscape:pageshadow="2"
     inkscape:pageopacity="0.0"
     borderopacity="1.0"
     bordercolor="#666666"
     pagecolor="#ffffff"
     id="base"
     showgrid="false"
     showguides="false"
     inkscape:guide-bbox="true"
     inkscape:zoom="0.50311741"
     inkscape:cx="-17.294669"
     inkscape:cy="411.44258"
     inkscape:window-x="0"
     inkscape:window-y="24"
     inkscape:current-layer="layer11"
     inkscape:window-maximized="1">
    <sodipodi:guide
       orientation="0,1"
       position="189.44385,479.26189"
       id="guide7179" />
    <sodipodi:guide
       orientation="1,0"
       position="429.5717,650.94149"
       id="guide7232" />
    <sodipodi:guide
       orientation="0,1"
       position="423.85732,718.7686"
       id="guide7234" />
    <sodipodi:guide
       orientation="0,1"
       position="407.21111,603.48736"
       id="guide7236" />
    <sodipodi:guide
       orientation="1,0"
       position="330.68822,603.48736"
       id="guide7238" />
    <sodipodi:guide
       orientation="1,0"
       position="526.71602,603.48736"
       id="guide7240" />
    <sodipodi:guide
       orientation="0,1"
       position="429.5717,709.07902"
       id="guide7242" />
    <sodipodi:guide
       orientation="0,1"
       position="429.5717,618.89132"
       id="guide7244" />
    <sodipodi:guide
       orientation="1,0"
       position="421.62126,644.23332"
       id="guide7246" />
    <sodipodi:guide
       orientation="1,0"
       position="370.68882,649.20234"
       id="guide7248" />
    <sodipodi:guide
       orientation="1,0"
       position="377.397,646.46938"
       id="guide7250" />
    <sodipodi:guide
       orientation="0,1"
       position="401.99364,699.63788"
       id="guide7252" />
    <sodipodi:guide
       orientation="0,1"
       position="402.73899,694.42041"
       id="guide7254" />
    <sodipodi:guide
       orientation="0,1"
       position="412.67703,632.80457"
       id="guide7258" />
    <sodipodi:guide
       orientation="0,1"
       position="421.62126,626.0964"
       id="guide7260" />
    <sodipodi:guide
       orientation="1,0"
       position="469.5723,641.50036"
       id="guide7262" />
    <sodipodi:guide
       orientation="1,0"
       position="390.5649,658.14657"
       id="guide7264" />
    <sodipodi:guide
       orientation="1,0"
       position="384.10517,643.23951"
       id="guide7266" />
    <sodipodi:guide
       orientation="1,0"
       position="407.45956,632.80457"
       id="guide7268" />
  </sodipodi:namedview>
  <metadata
     id="metadata5594">
    <rdf:RDF>
      <cc:Work
         rdf:about="">
        <dc:format>image/svg+xml</dc:format>
        <dc:type
           rdf:resource="http://purl.org/dc/dcmitype/StillImage" />
        <dc:title></dc:title>
      </cc:Work>
    </rdf:RDF>
  </metadata>
  <g
     inkscape:groupmode="layer"
     id="layer11"
     inkscape:label="Layer"
     style="opacity:1">
    <path
       style="fill:#000000"
       d="m 907.01809,512.4759 c -0.94923,8.32283 -4.24627,18.51804 -7.77244,24.03415 -3.77162,5.90009 -11.64713,12.83147 -18.07306,15.90645 -3.06514,1.46675 -72.78806,25.391 -154.93982,53.16501 l -149.36683,50.49819 -0.0264,6.48531 c -0.0956,23.5153 -14.20587,42.29323 -36.00652,47.9176 -6.84409,1.76571 -19.71222,1.76571 -26.55631,0 -17.34804,-4.47564 -31.14332,-18.60735 -34.74193,-35.58924 -1.53846,-7.25993 -1.78835,-54.67963 -0.32563,-61.7903 0.51844,-2.52025 2.49817,-7.84006 4.39941,-11.8218 4.1655,-8.72376 12.23882,-17.28472 20.16685,-21.38498 3.38378,-1.75003 50.80721,-16.18582 136.35252,-41.50595 72.14035,-21.35247 130.89721,-39.06786 130.57081,-39.36751 -0.3264,-0.29967 -59.35032,-17.9556 -131.16427,-39.23542 -82.17865,-24.35107 -132.37312,-39.6353 -135.43376,-41.23961 -9.60676,-5.03562 -19.19089,-16.4259 -23.34178,-27.74063 -1.86849,-5.09324 -1.99088,-6.83224 -2.28963,-32.5316 -0.36546,-31.43801 0.14183,-36.04722 5.03914,-45.78529 5.46354,-10.86401 15.22002,-19.35814 26.99199,-23.49963 7.48757,-2.63419 21.52892,-3.29093 29.17115,-1.3644 8.62612,2.17457 15.98983,6.19948 22.39253,12.23947 9.56756,9.02555 13.77576,18.66526 14.53461,33.29437 l 0.47349,9.12802 150.1284,50.86545 c 82.57061,27.976 152.41504,52.01264 155.20985,53.41475 19.5061,9.78597 28.3169,33.38431 24.6076,65.90759 z m -484.63435,-2.9641 c -1.86746,9.66468 -6.28112,17.88483 -13.09007,24.37947 -8.76921,8.36441 -15.59122,10.76472 -33.92728,11.93726 -13.12766,0.83947 -17.18953,1.64359 -22.91475,4.5364 -11.43146,5.77604 -17.5719,15.48077 -21.76648,34.40111 -1.27808,5.76498 -1.49624,19.30893 -2.02614,125.79023 -0.52396,105.28544 -0.76199,120.29642 -2.02252,127.54431 -4.83683,27.8115 -13.16454,46.80236 -26.83741,61.20138 -14.04765,14.79359 -28.79132,22.83511 -51.86242,28.28675 -16.80432,3.97073 -22.98866,4.33261 -74.0471,4.33261 -52.63133,0 -52.46687,0.0138 -62.48447,-5.40719 -4.85281,-2.6262 -11.836218,-9.74196 -14.299562,-14.57058 -4.697291,-9.2074 -6.331282,-25.03457 -3.695566,-35.79585 2.665536,-10.88303 9.049508,-19.5691 17.938388,-24.40705 7.38426,-4.01899 13.59165,-4.96533 32.7088,-4.98668 9.51178,-0.0104 19.82342,-0.42267 22.91475,-0.91564 16.68799,-2.66123 28.58039,-14.37092 33.94074,-33.41913 1.89675,-6.74022 1.89852,-6.82712 2.42656,-119.15708 0.46591,-99.1131 0.69522,-113.23347 1.93833,-119.35595 9.0396,-44.52155 34.6845,-65.45747 87.83751,-71.70858 5.05096,-0.59402 8.59989,-1.30802 7.8865,-1.58667 -0.71338,-0.27864 -5.57736,-1.15208 -10.80884,-1.94096 -18.41493,-2.7769 -35.26918,-8.09505 -46.3251,-14.61732 -17.25092,-10.17689 -28.11081,-23.56972 -34.44663,-42.48087 -5.78461,-17.26588 -5.49938,-10.94239 -6.08177,-134.83385 -0.52804,-112.32995 -0.52981,-112.41688 -2.42656,-119.1571 -5.36035,-19.04823 -17.25275,-30.75785 -33.94074,-33.41909 -3.09133,-0.49297 -13.40297,-0.905 -22.91475,-0.91563 -23.88586,-0.0266 -31.65196,-2.11088 -40.72585,-10.92969 -7.373644,-7.16636 -11.104885,-17.92139 -11.055641,-31.86707 0.04927,-13.954317 3.757552,-23.685284 11.994751,-31.475684 5.03642,-4.76324 8.98631,-6.994739 16.46567,-9.302306 4.75149,-1.465947 8.98064,-1.59267 53.15348,-1.59267 51.05844,0 57.24278,0.361855 74.0471,4.332651 23.0711,5.451592 37.81477,13.493076 51.86242,28.286739 13.67287,14.39898 22.00058,33.3899 26.83741,61.20136 1.26053,7.24791 1.49856,22.25891 2.02252,127.54434 0.5299,106.48129 0.74806,120.02524 2.02614,125.79023 4.16621,18.79235 10.41235,28.66413 21.76648,34.4011 5.72522,2.89281 9.78709,3.69694 22.91475,4.5364 18.31416,1.17115 25.16097,3.57562 33.8898,11.90152 9.25809,8.83072 12.81041,17.34492 13.2532,31.76523 0.16063,5.23148 0.1041,10.48458 -0.12565,11.67355 z"
       id="path7805"
       inkscape:connector-curvature="0" />
  </g>
</svg>
