<?xml version="1.0" encoding="UTF-8" standalone="no"?>
<!-- Created with Inkscape (http://www.inkscape.org/) -->

<svg
   xmlns:dc="http://purl.org/dc/elements/1.1/"
   xmlns:cc="http://creativecommons.org/ns#"
   xmlns:rdf="http://www.w3.org/1999/02/22-rdf-syntax-ns#"
   xmlns:svg="http://www.w3.org/2000/svg"
   xmlns="http://www.w3.org/2000/svg"
   xmlns:sodipodi="http://sodipodi.sourceforge.net/DTD/sodipodi-0.dtd"
   xmlns:inkscape="http://www.inkscape.org/namespaces/inkscape"
   width="1000"
   height="1000"
   id="svg4955"
   version="1.1"
   inkscape:version="0.48.4 r9939"
   sodipodi:docname="webpy.svg">
  <defs
     id="defs5498" />
  <sodipodi:namedview
     inkscape:window-height="1056"
     inkscape:window-width="1920"
     inkscape:pageshadow="2"
     inkscape:pageopacity="0.0"
     borderopacity="1.0"
     bordercolor="#666666"
     pagecolor="#ffffff"
     id="base"
     showgrid="false"
     showguides="true"
     inkscape:guide-bbox="true"
     inkscape:zoom="0.454"
     inkscape:cx="635.03613"
     inkscape:cy="549.65546"
     inkscape:window-x="0"
     inkscape:window-y="24"
     inkscape:current-layer="layer1"
     inkscape:window-maximized="1">
    <sodipodi:guide
       orientation="horizontal"
       position="200"
       id="guide5596" />
    <sodipodi:guide
       orientation="1,0"
       position="226.87225,462.55507"
       id="guide6029" />
    <sodipodi:guide
       orientation="0,1"
       position="317.18062,496.69604"
       id="guide6031" />
  </sodipodi:namedview>
  <metadata
     id="metadata5594">
    <rdf:RDF>
      <cc:Work
         rdf:about="">
        <dc:format>image/svg+xml</dc:format>
        <dc:type
           rdf:resource="http://purl.org/dc/dcmitype/StillImage" />
        <dc:title></dc:title>
      </cc:Work>
    </rdf:RDF>
  </metadata>
  <g
     inkscape:label="Layer 1"
     inkscape:groupmode="layer"
     id="layer1">
    <path
       style="fill:#000000"
       d="m 228.6021,834.4035 0,-91.20095 250.26783,0 c 280.71734,0 270.29601,-4.29507 285.82747,117.80123 l 8.21762,64.60068 -272.15644,0 -272.15648,0 z m -1.72985,-237.19987 0,-93.89967 216.12684,0.0815 c 235.40493,0.0888 240.28607,-2.6415 253.05273,110.62408 l 7.70881,68.39239 -238.33782,0 -238.33783,0 z m 1.72985,-332.8061 0,-190.001987 134.94025,0 c 154.37484,0 164.23962,6.167788 178.70915,111.734647 l 9.68603,70.66726 -62.86668,0 -62.86668,0 0,98.80104 0,98.80103 -98.80104,0 -98.80103,0 z M 458.80713,158.54708 c 0,-12.54013 -11.9121,-25.55354 -24.45222,-25.55354 -23.73617,0 -38.41654,24.58514 -20.92671,42.07497 17.48979,17.48983 45.37893,7.21474 45.37893,-16.52143 z"
       id="path6027"
       inkscape:connector-curvature="0"
       sodipodi:nodetypes="ccssccccccssccccccssccccccccssss" />
  </g>
</svg>
