<?xml version="1.0" encoding="UTF-8" standalone="no"?>
<!-- Created with Inkscape (http://www.inkscape.org/) -->

<svg
   xmlns:dc="http://purl.org/dc/elements/1.1/"
   xmlns:cc="http://creativecommons.org/ns#"
   xmlns:rdf="http://www.w3.org/1999/02/22-rdf-syntax-ns#"
   xmlns:svg="http://www.w3.org/2000/svg"
   xmlns="http://www.w3.org/2000/svg"
   xmlns:sodipodi="http://sodipodi.sourceforge.net/DTD/sodipodi-0.dtd"
   xmlns:inkscape="http://www.inkscape.org/namespaces/inkscape"
   width="1000"
   height="1000"
   viewBox="0 0 264.58333 264.58334"
   version="1.1"
   id="svg8"
   inkscape:version="0.92.5 (2060ec1f9f, 2020-04-08)"
   sodipodi:docname="webpack.svg">
  <defs
     id="defs2" />
  <sodipodi:namedview
     id="base"
     pagecolor="#ffffff"
     bordercolor="#666666"
     borderopacity="1.0"
     inkscape:pageopacity="0.0"
     inkscape:pageshadow="2"
     inkscape:zoom="0.35"
     inkscape:cx="-128.57143"
     inkscape:cy="560"
     inkscape:document-units="mm"
     inkscape:current-layer="layer1"
     showgrid="false"
     units="px"
     inkscape:window-width="1920"
     inkscape:window-height="1043"
     inkscape:window-x="0"
     inkscape:window-y="0"
     inkscape:window-maximized="1" />
  <metadata
     id="metadata5">
    <rdf:RDF>
      <cc:Work
         rdf:about="">
        <dc:format>image/svg+xml</dc:format>
        <dc:type
           rdf:resource="http://purl.org/dc/dcmitype/StillImage" />
        <dc:title></dc:title>
      </cc:Work>
    </rdf:RDF>
  </metadata>
  <g
     inkscape:label="Layer 1"
     inkscape:groupmode="layer"
     id="layer1"
     transform="translate(0,-32.41665)">
    <g
       id="g925"
       transform="matrix(3.5171374,0,0,3.5171374,-1357.567,-858.27326)"
       style="fill:#000000">
      <path
         id="path865"
         d="m 424.66638,316.05786 0.008,-5.49941 4.95269,-2.71101 c 2.72398,-1.49106 6.1379,-3.3663 7.58649,-4.16719 1.4486,-0.8009 2.79589,-1.45617 2.99398,-1.45617 0.51058,0 9.31632,5.08547 9.18202,5.30277 -0.097,0.15692 -2.84001,1.73176 -7.13689,4.09747 -0.7276,0.40059 -3.34698,1.88389 -5.82083,3.29621 -5.83853,3.33321 -10.43058,5.93103 -11.17865,6.32401 l -0.59531,0.31274 0.008,-5.49942 z"
         style="fill:#000000;fill-opacity:1;stroke-width:0.26458335"
         inkscape:connector-curvature="0" />
      <path
         id="path863"
         d="m 418.04355,319.07204 c -2.11005,-1.19081 -4.25318,-2.41683 -4.7625,-2.72449 -0.50932,-0.30765 -1.58089,-0.9148 -2.38125,-1.34921 -0.80036,-0.43441 -2.5863,-1.44125 -3.96875,-2.23742 -1.38245,-0.79617 -3.97422,-2.25739 -5.7595,-3.24714 -1.78528,-0.98975 -3.29617,-1.88079 -3.35753,-1.98009 -0.13835,-0.22385 8.7124,-5.30961 9.24033,-5.30961 0.21042,0 0.95337,0.3351 1.65099,0.74467 0.69763,0.40957 2.28045,1.2934 3.51738,1.96406 1.23692,0.67066 3.55864,1.94618 5.15937,2.8345 1.60073,0.88832 3.41643,1.87369 4.0349,2.18971 l 1.12448,0.57458 v 5.37124 c 0,4.13044 -0.0764,5.36697 -0.33073,5.35278 -0.1819,-0.0102 -2.05714,-0.99276 -4.16719,-2.18358 z"
         style="fill:#000000;fill-opacity:1;stroke-width:0.26458335"
         inkscape:connector-curvature="0" />
      <path
         id="path861"
         d="m 418.70501,306.12291 c -1.89177,-1.04097 -5.2627,-2.91176 -7.49094,-4.15732 l -4.05136,-2.26466 0.002,-8.29324 c 10e-4,-4.56129 0.0549,-8.34598 0.11938,-8.41044 0.0645,-0.0644 1.82705,0.89107 3.91689,2.12338 2.08983,1.23232 5.46656,3.18958 7.50385,4.34948 l 3.70417,2.1089 0.0699,8.23295 c 0.0385,4.52812 -0.0211,8.22635 -0.13229,8.21828 -0.11122,-0.008 -1.75002,-0.86637 -3.6418,-1.90733 z"
         style="fill:#000000;fill-opacity:1;stroke-width:0.26458335"
         inkscape:connector-curvature="0" />
      <path
         id="path859"
         d="m 424.65813,299.87298 v -8.17193 l 1.78594,-1.05189 c 0.98227,-0.57854 2.32172,-1.3494 2.97656,-1.71302 2.44956,-1.36018 3.65947,-2.05803 6.96345,-4.01638 1.86536,-1.10565 3.44294,-2.01027 3.50573,-2.01027 0.0628,0 0.11416,3.78838 0.11416,8.41863 v 8.41862 l -3.77032,2.09703 c -2.07367,1.15336 -4.00843,2.22525 -4.29947,2.38196 -3.73827,2.01291 -5.42427,2.93752 -6.08542,3.33727 -0.43656,0.26396 -0.88305,0.48038 -0.99219,0.48092 -0.10914,5.3e-4 -0.19844,-3.67638 -0.19844,-8.17094 z"
         style="fill:#000000;fill-opacity:1;stroke-width:0.26458335"
         inkscape:connector-curvature="0" />
      <path
         id="path857"
         d="m 395.81855,291.2743 c 0,-8.09315 0.0953,-14.71481 0.21171,-14.71481 0.23701,0 8.13566,4.5987 8.69272,5.06102 0.28595,0.23732 0.35599,2.13166 0.35599,9.62866 v 9.33321 l -4.0349,2.31422 c -2.21919,1.27283 -4.30279,2.48934 -4.63021,2.70336 l -0.59531,0.38914 z"
         style="fill:#000000;fill-opacity:1;stroke-width:0.26458335"
         inkscape:connector-curvature="0" />
      <path
         id="path855"
         d="m 450.44178,305.42136 c -0.13824,-0.13327 -1.97776,-1.22023 -4.08781,-2.41547 -2.11005,-1.19524 -3.92145,-2.3066 -4.02532,-2.46968 -0.10388,-0.16308 -0.16341,-4.46079 -0.1323,-9.55046 l 0.0566,-9.25396 1.59717,-0.96582 c 2.6934,-1.62874 7.21397,-4.20648 7.37687,-4.20648 0.0847,0 0.15408,6.54844 0.15408,14.55209 0,14.87469 -0.021,15.19496 -0.93927,14.30978 z"
         style="fill:#000000;fill-opacity:1;stroke-width:0.26458335"
         inkscape:connector-curvature="0" />
      <path
         id="path853"
         d="m 415.73633,285.47859 c -4.10662,-2.35889 -7.43736,-4.38722 -7.40164,-4.5074 0.0357,-0.12018 0.77631,-0.60558 1.64576,-1.07866 0.86944,-0.47308 3.06909,-1.67994 4.8881,-2.68191 4.67462,-2.57492 6.87784,-3.77247 7.88311,-4.28483 0.85921,-0.43793 0.89508,-0.4317 2.51354,0.43604 5.31861,2.8516 13.68011,7.54258 13.67825,7.67379 -10e-4,0.0847 -0.44768,0.40274 -0.99219,0.70666 -0.5445,0.30391 -3.43078,1.9566 -6.41396,3.67262 -7.62569,4.38656 -7.60439,4.37492 -7.98842,4.36317 -0.19027,-0.006 -3.70592,-1.94059 -7.81255,-4.29948 z"
         style="fill:#000000;fill-opacity:1;stroke-width:0.26458335"
         inkscape:connector-curvature="0" />
      <path
         id="path851"
         d="m 405.19049,279.23514 c -0.42514,-0.25818 -1.30876,-0.769 -1.96361,-1.13516 -4.20589,-2.35179 -6.08541,-3.47581 -6.08541,-3.63928 0,-0.1029 0.56554,-0.48856 1.25677,-0.85701 0.69122,-0.36846 2.09021,-1.14259 3.10885,-1.72028 1.01865,-0.5777 3.34037,-1.88995 5.15938,-2.91612 1.81901,-1.02617 6.07625,-3.42866 9.46053,-5.33886 3.38429,-1.91021 6.21202,-3.4731 6.28386,-3.4731 0.0718,0 0.13061,2.36919 0.13061,5.26488 v 5.26488 l -2.31511,1.21457 c -1.2733,0.66801 -3.02948,1.61176 -3.9026,2.09721 -3.29356,1.83121 -9.28164,5.13771 -9.81036,5.41709 -0.4315,0.228 -0.7164,0.18949 -1.32291,-0.17882 z"
         style="fill:#000000;fill-opacity:1;stroke-width:0.26458335"
         inkscape:connector-curvature="0" />
      <path
         id="path847"
         d="m 438.94563,278.45912 c -0.94588,-0.55079 -2.85088,-1.60361 -4.23333,-2.33961 -1.38245,-0.73599 -3.9217,-2.12872 -5.64277,-3.09493 -1.72108,-0.96622 -3.22068,-1.75675 -3.33244,-1.75675 -0.11175,0 -0.40024,-0.21774 -0.64107,-0.48386 -0.37541,-0.41481 -0.43789,-1.20763 -0.43789,-5.55625 0,-2.78982 0.0548,-5.07239 0.12188,-5.07239 0.067,0 1.46602,0.7542 3.10886,1.676 1.64283,0.9218 4.65385,2.6036 6.69114,3.73734 2.03729,1.13373 4.23995,2.37777 4.89479,2.76452 0.65484,0.38676 3.30392,1.88988 5.88683,3.34027 2.58291,1.45039 4.69627,2.71 4.69635,2.79912 1.3e-4,0.13818 -4.88893,3.04983 -7.60566,4.52951 -1.19546,0.65111 -1.55044,0.59615 -3.50669,-0.54297 z"
         style="fill:#000000;fill-opacity:1;stroke-width:0.26458335"
         inkscape:connector-curvature="0" />
    </g>
  </g>
</svg>
