<?xml version="1.0" encoding="UTF-8" standalone="no"?>
<!-- Created with Inkscape (http://www.inkscape.org/) -->

<svg
   xmlns:dc="http://purl.org/dc/elements/1.1/"
   xmlns:cc="http://creativecommons.org/ns#"
   xmlns:rdf="http://www.w3.org/1999/02/22-rdf-syntax-ns#"
   xmlns:svg="http://www.w3.org/2000/svg"
   xmlns="http://www.w3.org/2000/svg"
   xmlns:sodipodi="http://sodipodi.sourceforge.net/DTD/sodipodi-0.dtd"
   xmlns:inkscape="http://www.inkscape.org/namespaces/inkscape"
   width="1000"
   height="1000"
   id="svg4955"
   version="1.1"
   inkscape:version="0.48.4 r9939"
   sodipodi:docname="turbogears.svg">
  <defs
     id="defs5498" />
  <sodipodi:namedview
     inkscape:window-height="1056"
     inkscape:window-width="1920"
     inkscape:pageshadow="2"
     inkscape:pageopacity="0.0"
     borderopacity="1.0"
     bordercolor="#666666"
     pagecolor="#ffffff"
     id="base"
     showgrid="false"
     showguides="false"
     inkscape:guide-bbox="true"
     inkscape:zoom="0.50311741"
     inkscape:cx="-17.294669"
     inkscape:cy="411.44258"
     inkscape:window-x="0"
     inkscape:window-y="24"
     inkscape:current-layer="layer11"
     inkscape:window-maximized="1">
    <sodipodi:guide
       orientation="0,1"
       position="189.44385,479.26189"
       id="guide7179" />
    <sodipodi:guide
       orientation="1,0"
       position="429.5717,650.94149"
       id="guide7232" />
    <sodipodi:guide
       orientation="0,1"
       position="423.85732,718.7686"
       id="guide7234" />
    <sodipodi:guide
       orientation="0,1"
       position="407.21111,603.48736"
       id="guide7236" />
    <sodipodi:guide
       orientation="1,0"
       position="330.68822,603.48736"
       id="guide7238" />
    <sodipodi:guide
       orientation="1,0"
       position="526.71602,603.48736"
       id="guide7240" />
    <sodipodi:guide
       orientation="0,1"
       position="429.5717,709.07902"
       id="guide7242" />
    <sodipodi:guide
       orientation="0,1"
       position="429.5717,618.89132"
       id="guide7244" />
    <sodipodi:guide
       orientation="1,0"
       position="421.62126,644.23332"
       id="guide7246" />
    <sodipodi:guide
       orientation="1,0"
       position="370.68882,649.20234"
       id="guide7248" />
    <sodipodi:guide
       orientation="1,0"
       position="377.397,646.46938"
       id="guide7250" />
    <sodipodi:guide
       orientation="0,1"
       position="401.99364,699.63788"
       id="guide7252" />
    <sodipodi:guide
       orientation="0,1"
       position="402.73899,694.42041"
       id="guide7254" />
    <sodipodi:guide
       orientation="0,1"
       position="412.67703,632.80457"
       id="guide7258" />
    <sodipodi:guide
       orientation="0,1"
       position="421.62126,626.0964"
       id="guide7260" />
    <sodipodi:guide
       orientation="1,0"
       position="469.5723,641.50036"
       id="guide7262" />
    <sodipodi:guide
       orientation="1,0"
       position="390.5649,658.14657"
       id="guide7264" />
    <sodipodi:guide
       orientation="1,0"
       position="384.10517,643.23951"
       id="guide7266" />
    <sodipodi:guide
       orientation="1,0"
       position="407.45956,632.80457"
       id="guide7268" />
  </sodipodi:namedview>
  <metadata
     id="metadata5594">
    <rdf:RDF>
      <cc:Work
         rdf:about="">
        <dc:format>image/svg+xml</dc:format>
        <dc:type
           rdf:resource="http://purl.org/dc/dcmitype/StillImage" />
        <dc:title></dc:title>
      </cc:Work>
    </rdf:RDF>
  </metadata>
  <g
     inkscape:groupmode="layer"
     id="layer11"
     inkscape:label="Layer"
     style="opacity:1">
    <path
       style="fill:#000000"
       d="M 464.93046,914.04411 C 393.97632,905.75657 342.53112,889.09029 288.62979,856.92937 128.16458,761.18573 51.646793,572.68614 99.80808,391.772 c 14.14484,-53.13404 42.87174,-109.27361 78.34302,-153.1019 13.67078,-16.89164 43.75887,-46.97971 60.6505,-60.65051 43.8283,-35.47127 99.96786,-64.19817 153.1019,-78.343011 180.91413,-48.161285 369.41373,28.356501 465.15737,188.821711 27.71659,46.45271 45.38566,95.88644 54.19546,151.62573 4.21071,26.64099 4.27453,92.7598 0.11557,119.72564 -6.60476,42.82367 -18.12855,80.333 -36.25233,117.9994 -22.3045,46.35517 -46.08107,80.0213 -81.59937,115.53962 -35.51833,35.51831 -69.18445,59.29487 -115.53962,81.59937 -37.20586,17.90218 -75.37035,29.69767 -116.33186,35.95466 -16.66588,2.54575 -83.20723,4.67949 -96.71824,3.1014 z m 87.50602,-21.47461 c 72.57869,-10.1939 140.93291,-39.74369 196.85356,-85.10058 19.91589,-16.15364 52.09694,-49.45457 67.00862,-69.34048 57.0287,-76.05223 86.19499,-173.61787 78.96743,-264.15792 -6.43032,-80.55307 -32.13966,-149.01341 -79.78403,-212.45355 -15.95347,-21.24258 -45.61793,-52.02393 -65.94057,-68.42325 -54.66258,-44.10991 -118.99735,-72.44273 -192.06167,-84.58326 -25.71513,-4.2729 -87.09579,-4.28534 -114.16814,-0.0232 -88.52793,13.93756 -165.20776,53.56636 -226.84706,117.23649 -58.50787,60.43553 -94.5742,133.15837 -107.84583,217.45639 -4.26217,27.07234 -4.24973,88.45301 0.0232,114.16814 12.14056,73.06431 40.47335,137.39909 84.58326,192.06168 44.4086,55.03273 109.82143,101.11256 175.85922,123.88334 61.37362,21.16253 123.45346,27.68911 183.35205,19.27618 z m -84.17091,-37.70535 c -32.9711,-3.15423 -67.65796,-10.95776 -67.34547,-15.15073 0.28461,-3.8191 104.72115,-306.5397 105.755,-306.54236 0.48926,-9.5e-4 25.36339,66.97091 55.27587,148.82707 29.91249,81.85615 54.89864,150.09082 55.52478,151.63262 0.9425,2.32077 -1.20743,3.54432 -12.49099,7.10878 -40.57011,12.81611 -93.37401,18.27133 -136.71919,14.12462 z M 328.19088,812.00579 c -63.97057,-35.99232 -112.11265,-85.91047 -144.927,-150.27373 -25.44715,-49.91298 -36.31699,-93.11442 -38.01173,-151.07531 -1.0707,-36.61791 1.58732,-63.1539 9.62155,-96.05538 4.64827,-19.03536 16.70795,-53.99894 19.63497,-56.92596 0.74717,-0.74716 38.95486,101.65441 84.90604,227.55903 45.95115,125.90463 84.0563,230.23069 84.67806,231.83573 1.67928,4.33485 -0.33832,3.69229 -15.90189,-5.06438 z m 351.85431,-6.03917 c 0,-0.67411 96.48937,-279.61108 113.98493,-329.51418 16.09862,-45.9185 22.2291,-82.37387 20.60787,-122.54595 l -0.94217,-23.34578 5.50221,10.83911 c 27.85275,54.86866 41.3589,124.81452 36.06351,186.76626 -9.37823,109.71775 -65.33011,205.76071 -155.50826,266.93427 -15.47954,10.50074 -19.70809,12.83221 -19.70809,10.86627 z m -268.4411,-87.69915 c -0.12456,-0.45858 -29.3008,-87.1298 -64.83613,-192.60271 l -64.60965,-191.76894 21.7656,-2.10545 c 23.38622,-2.2622 28.72522,-4.37271 31.62107,-12.49984 1.88219,-5.28237 -1.35907,-13.92849 -6.19094,-16.51445 -2.44092,-1.30633 -15.2546,-1.24393 -46.04596,0.22428 -23.46514,1.11888 -51.22498,1.77446 -61.68851,1.45688 l -19.02461,-0.57743 12.60734,-16.73061 c 34.58036,-45.88991 77.50917,-81.4215 128.83035,-106.63107 53.2988,-26.18102 105.19663,-37.19746 166.7556,-35.39749 34.36552,1.00484 53.21602,3.5786 81.84622,11.17493 47.52054,12.60842 99.2905,39.41799 135.75489,70.30198 l 12.49173,10.58003 -10.65645,1.17688 c -14.37264,1.5873 -26.52034,7.86098 -36.62138,18.91313 -12.1182,13.25923 -15.97654,24.14654 -15.92788,44.94466 0.0345,14.77218 0.64413,18.20023 5.34037,30.03321 2.91574,7.34669 11.42692,23.4803 18.91373,35.85245 16.98419,28.0668 26.64584,48.18985 32.41769,67.51882 3.68407,12.33728 4.62047,19.31084 5.26211,39.18757 0.88997,27.57044 -1.29127,41.34448 -12.54345,79.20891 -26.19581,88.15074 -47.60914,158.60752 -48.51039,159.6148 -0.58905,0.65835 -29.85702,-84.35294 -65.03996,-188.914 -35.18291,-104.56104 -63.68476,-190.35984 -63.33741,-190.66397 0.34733,-0.30413 10.01153,-1.41354 21.47597,-2.46533 15.34799,-1.40809 21.94374,-2.7196 25.01334,-4.97362 8.306,-6.09922 8.64956,-17.76351 0.67711,-22.98729 -3.90853,-2.56096 -7.35217,-2.63222 -40.41176,-0.83647 -45.88912,2.49263 -81.68127,2.48111 -127.41138,-0.0411 l -36.24291,-1.99889 -4.05423,3.80878 c -4.96912,4.66825 -6.52599,10.24023 -4.41359,15.79623 2.70432,7.11292 8.09111,9.16023 29.65343,11.27024 l 20.29392,1.9859 7.35867,20.15429 c 4.04727,11.08487 16.49561,45.2927 27.66299,76.01743 l 20.30433,55.86312 -39.1267,116.72892 c -21.5197,64.2009 -39.22861,116.35372 -39.35317,115.89515 z"
       id="path7773"
       inkscape:connector-curvature="0" />
  </g>
</svg>
