<?xml version="1.0" encoding="UTF-8" standalone="no"?>
<!-- Created with Inkscape (http://www.inkscape.org/) -->

<svg
   xmlns:dc="http://purl.org/dc/elements/1.1/"
   xmlns:cc="http://creativecommons.org/ns#"
   xmlns:rdf="http://www.w3.org/1999/02/22-rdf-syntax-ns#"
   xmlns:svg="http://www.w3.org/2000/svg"
   xmlns="http://www.w3.org/2000/svg"
   xmlns:sodipodi="http://sodipodi.sourceforge.net/DTD/sodipodi-0.dtd"
   xmlns:inkscape="http://www.inkscape.org/namespaces/inkscape"
   width="1000"
   height="1000"
   id="svg4955"
   version="1.1"
   inkscape:version="0.48.4 r9939"
   sodipodi:docname="ruby.svg">
  <defs
     id="defs5498" />
  <sodipodi:namedview
     inkscape:window-height="1056"
     inkscape:window-width="1920"
     inkscape:pageshadow="2"
     inkscape:pageopacity="0.0"
     borderopacity="1.0"
     bordercolor="#666666"
     pagecolor="#ffffff"
     id="base"
     showgrid="false"
     showguides="false"
     inkscape:guide-bbox="true"
     inkscape:zoom="0.5"
     inkscape:cx="450.10163"
     inkscape:cy="462.31422"
     inkscape:window-x="0"
     inkscape:window-y="24"
     inkscape:current-layer="g9397"
     inkscape:window-maximized="1">
    <sodipodi:guide
       orientation="0,1"
       position="189.44385,479.26189"
       id="guide7179" />
    <sodipodi:guide
       orientation="1,0"
       position="429.5717,650.94149"
       id="guide7232" />
    <sodipodi:guide
       orientation="0,1"
       position="423.85732,718.7686"
       id="guide7234" />
    <sodipodi:guide
       orientation="0,1"
       position="407.21111,603.48736"
       id="guide7236" />
    <sodipodi:guide
       orientation="1,0"
       position="330.68822,603.48736"
       id="guide7238" />
    <sodipodi:guide
       orientation="1,0"
       position="526.71602,603.48736"
       id="guide7240" />
    <sodipodi:guide
       orientation="0,1"
       position="429.5717,709.07902"
       id="guide7242" />
    <sodipodi:guide
       orientation="0,1"
       position="429.5717,618.89132"
       id="guide7244" />
    <sodipodi:guide
       orientation="1,0"
       position="421.62126,644.23332"
       id="guide7246" />
    <sodipodi:guide
       orientation="1,0"
       position="370.68882,649.20234"
       id="guide7248" />
    <sodipodi:guide
       orientation="1,0"
       position="377.397,646.46938"
       id="guide7250" />
    <sodipodi:guide
       orientation="0,1"
       position="401.99364,699.63788"
       id="guide7252" />
    <sodipodi:guide
       orientation="0,1"
       position="402.73899,694.42041"
       id="guide7254" />
    <sodipodi:guide
       orientation="0,1"
       position="412.67703,632.80457"
       id="guide7258" />
    <sodipodi:guide
       orientation="0,1"
       position="421.62126,626.0964"
       id="guide7260" />
    <sodipodi:guide
       orientation="1,0"
       position="469.5723,641.50036"
       id="guide7262" />
    <sodipodi:guide
       orientation="1,0"
       position="390.5649,658.14657"
       id="guide7264" />
    <sodipodi:guide
       orientation="1,0"
       position="384.10517,643.23951"
       id="guide7266" />
    <sodipodi:guide
       orientation="1,0"
       position="407.45956,632.80457"
       id="guide7268" />
  </sodipodi:namedview>
  <metadata
     id="metadata5594">
    <rdf:RDF>
      <cc:Work
         rdf:about="">
        <dc:format>image/svg+xml</dc:format>
        <dc:type
           rdf:resource="http://purl.org/dc/dcmitype/StillImage" />
        <dc:title></dc:title>
      </cc:Work>
    </rdf:RDF>
  </metadata>
  <g
     inkscape:groupmode="layer"
     id="layer13"
     inkscape:label="Layer#1">
    <g
       id="g9397"
       transform="translate(38.074989,310.11877)">
      <path
         style="fill:#000000"
         d="m 45.570858,415.41328 c 0.318904,-0.53237 34.041494,-51.14641 74.939092,-112.47564 40.8976,-61.32923 74.35927,-112.20462 74.35927,-113.05641 0,-0.85179 -33.46167,-51.72718 -74.35927,-113.05641 C 79.612352,15.495589 45.889762,-35.118449 45.570858,-35.650821 c -0.461487,-0.770402 9.425342,-0.96156 48.444083,-0.936634 l 49.023909,0.03128 75.11282,112.647472 c 41.31205,61.956109 75.23838,113.019849 75.39184,113.474969 0.15346,0.45513 -33.61744,51.67468 -75.04646,113.82122 l -75.32548,112.99374 -49.090266,0 c -39.06521,0 -48.971856,-0.19767 -48.510446,-0.96795 z M 259.84113,310.10046 c 38.86746,-58.45442 72.77609,-109.41017 75.35251,-113.235 l 4.6844,-6.95423 -68.1596,-102.230385 c -37.48778,-56.226709 -71.39933,-107.195961 -75.35901,-113.265 l -7.1994,-11.034615 50.25063,0 50.25064,0 51.19807,74.919231 c 28.15893,41.205577 51.45718,75.010269 51.77388,75.121529 0.3167,0.11126 23.03982,-33.598581 50.4958,-74.910772 l 49.92006,-75.113084 47.86235,-0.0084 c 38.08011,-0.007 47.74566,0.189377 47.29119,0.959493 -0.31424,0.532371 -68.30326,102.457371 -151.08675,226.500003 l -150.51549,225.53204 -48.7137,0 -48.7137,0 z m 73.30285,105.88756 c 0,-0.21626 11.15258,-17.11665 24.78351,-37.55641 l 24.7835,-37.1632 247.79171,0 247.7917,0 -24.97393,37.53446 -24.97393,37.53448 -247.60128,0.0219 c -136.1807,0.0121 -247.60128,-0.15497 -247.60128,-0.37124 z m 74.38766,-111.69525 c 0.027,-0.31942 11.26495,-17.30692 24.97308,-37.75 l 24.92387,-37.16923 173.32795,-0.1953 c 102.43398,-0.11541 173.22209,0.0897 173.06923,0.50139 -0.14233,0.38317 -11.40948,17.44919 -25.0382,37.92449 l -24.77949,37.22782 -173.26282,0.0208 c -95.29455,0.0114 -173.24068,-0.24058 -173.21362,-0.56 z m 74.83155,-112.0163 c 0.34056,-0.59915 11.59579,-17.67113 25.01156,-37.93772 l 24.39231,-36.84834 99.7444,-0.006 c 79.58908,-0.005 99.62756,0.18972 99.16588,0.96208 -0.31818,0.53237 -11.66556,17.60698 -25.21638,37.94359 l -24.63785,36.97564 -99.53959,0 c -85.32631,0 -99.45116,-0.15556 -98.92033,-1.08938 z"
         id="path9609"
         inkscape:connector-curvature="0"
         sodipodi:nodetypes="sssssscscscsssscsscccscscscscccssscccccsscscscscsccscscscscc" />
    </g>
  </g>
</svg>
