<?xml version="1.0" encoding="UTF-8" standalone="no"?>
<!-- Created with Inkscape (http://www.inkscape.org/) -->

<svg
   xmlns:dc="http://purl.org/dc/elements/1.1/"
   xmlns:cc="http://creativecommons.org/ns#"
   xmlns:rdf="http://www.w3.org/1999/02/22-rdf-syntax-ns#"
   xmlns:svg="http://www.w3.org/2000/svg"
   xmlns="http://www.w3.org/2000/svg"
   xmlns:sodipodi="http://sodipodi.sourceforge.net/DTD/sodipodi-0.dtd"
   xmlns:inkscape="http://www.inkscape.org/namespaces/inkscape"
   width="1000"
   height="1000"
   id="svg4955"
   version="1.1"
   inkscape:version="0.48.4 r9939"
   sodipodi:docname="play.svg">
  <defs
     id="defs5498" />
  <sodipodi:namedview
     inkscape:window-height="1056"
     inkscape:window-width="1920"
     inkscape:pageshadow="2"
     inkscape:pageopacity="0.0"
     borderopacity="1.0"
     bordercolor="#666666"
     pagecolor="#ffffff"
     id="base"
     showgrid="false"
     showguides="true"
     inkscape:guide-bbox="true"
     inkscape:zoom="0.64205296"
     inkscape:cx="377.50573"
     inkscape:cy="509.10475"
     inkscape:window-x="0"
     inkscape:window-y="24"
     inkscape:current-layer="layer1"
     inkscape:window-maximized="1">
    <sodipodi:guide
       orientation="horizontal"
       position="200"
       id="guide5596" />
  </sodipodi:namedview>
  <metadata
     id="metadata5594">
    <rdf:RDF>
      <cc:Work
         rdf:about="">
        <dc:format>image/svg+xml</dc:format>
        <dc:type
           rdf:resource="http://purl.org/dc/dcmitype/StillImage" />
        <dc:title></dc:title>
      </cc:Work>
    </rdf:RDF>
  </metadata>
  <g
     inkscape:label="Layer 1"
     inkscape:groupmode="layer"
     id="layer1">
    <path
       style="fill:#000000"
       d="m 386.42322,921.61761 c -2.23138,-26.78735 0.2537,-79.18305 4.88567,-103.01021 13.81266,-71.05321 43.16021,-133.92557 90.79296,-194.50913 17.73624,-22.55853 37.47102,-50.73175 47.85774,-68.32136 4.40957,-7.46746 8.95529,-13.57722 10.10159,-13.57722 7.09819,0 59.79774,31.04852 83.59334,49.24992 15.31071,11.71126 40.65107,36.73607 51.36914,50.72945 l 9.47913,12.37583 -1.14153,9.93844 c -1.92712,16.77802 -9.42554,48.30358 -15.44309,64.92734 -15.87518,43.85588 -38.42753,79.28113 -71.47429,112.27189 -26.60473,26.55966 -46.37682,40.92629 -78.57505,57.09353 -35.38817,17.76898 -77.48605,30.37334 -122.26144,36.6058 l -7.94465,1.10586 -1.23952,-14.88014 z m 288.01613,-299.6811 c -20.62019,-25.41484 -57.53181,-56.75 -89.43073,-75.91992 -21.32995,-12.81839 -52.29661,-27.858 -79.08333,-38.40845 C 467.82732,492.60253 437.53522,482.99951 321.65349,449.19133 278.51947,436.6071 265.44885,431.82384 241.95998,420.02701 167.76423,382.76367 116.90533,315.15794 98.976077,229.96136 94.704486,209.66346 91.2031,165.70472 92.840287,152.92853 l 1.234945,-9.63714 18.417238,-6.118 c 71.22774,-23.66108 144.90187,-25.37395 217.69212,-5.06121 67.58056,18.85892 131.72044,57.62554 183.45702,110.88277 24.37163,25.088 36.47812,40.19479 56.99757,71.12315 58.78501,88.60485 98.17073,193.33967 111.02303,295.23319 1.52183,12.06522 2.46854,22.23519 2.10378,22.59995 -0.36474,0.36474 -4.56173,-4.14189 -9.32664,-10.01473 z m 23.4307,0.8821 c -0.007,-14.55898 -4.51356,-58.74022 -8.61557,-84.47424 -9.7799,-61.35447 -26.35703,-119.52485 -58.62632,-205.72425 -14.63711,-39.09944 -16.89883,-48.96648 -16.88274,-73.65301 0.0184,-28.23131 5.34564,-49.08414 19.77835,-77.4202 31.77549,-62.38546 95.2372,-109.480655 158.56772,-117.673806 7.69655,-0.995716 8.71912,-0.595659 23.14938,9.056584 23.83701,15.944322 46.00068,41.160262 61.53945,70.014432 25.12484,46.65465 35.98603,108.38251 28.42633,161.55679 -11.29909,79.47687 -51.87299,156.46906 -131.08042,248.73551 -17.02405,19.83082 -73.16635,79.39296 -74.8345,79.39296 -0.77915,0 -1.41889,-4.41485 -1.42168,-9.81077 z"
       id="path5805"
       inkscape:connector-curvature="0" />
  </g>
</svg>
