<?xml version="1.0" encoding="UTF-8" standalone="no"?>
<!-- Created with Inkscape (http://www.inkscape.org/) -->

<svg
   xmlns:dc="http://purl.org/dc/elements/1.1/"
   xmlns:cc="http://creativecommons.org/ns#"
   xmlns:rdf="http://www.w3.org/1999/02/22-rdf-syntax-ns#"
   xmlns:svg="http://www.w3.org/2000/svg"
   xmlns="http://www.w3.org/2000/svg"
   xmlns:sodipodi="http://sodipodi.sourceforge.net/DTD/sodipodi-0.dtd"
   xmlns:inkscape="http://www.inkscape.org/namespaces/inkscape"
   width="1000"
   height="1000"
   id="svg4955"
   version="1.1"
   inkscape:version="0.48.4 r9939"
   sodipodi:docname="cakephp.svg">
  <defs
     id="defs5498" />
  <sodipodi:namedview
     inkscape:window-height="1056"
     inkscape:window-width="1920"
     inkscape:pageshadow="2"
     inkscape:pageopacity="0.0"
     borderopacity="1.0"
     bordercolor="#666666"
     pagecolor="#ffffff"
     id="base"
     showgrid="false"
     showguides="true"
     inkscape:guide-bbox="true"
     inkscape:zoom="0.454"
     inkscape:cx="732.20128"
     inkscape:cy="497.66419"
     inkscape:window-x="0"
     inkscape:window-y="24"
     inkscape:current-layer="layer1"
     inkscape:window-maximized="1">
    <sodipodi:guide
       orientation="horizontal"
       position="200"
       id="guide5596" />
  </sodipodi:namedview>
  <metadata
     id="metadata5594">
    <rdf:RDF>
      <cc:Work
         rdf:about="">
        <dc:format>image/svg+xml</dc:format>
        <dc:type
           rdf:resource="http://purl.org/dc/dcmitype/StillImage" />
        <dc:title></dc:title>
      </cc:Work>
    </rdf:RDF>
  </metadata>
  <g
     inkscape:label="Layer 1"
     inkscape:groupmode="layer"
     id="layer1">
    <path
       style="fill:#000000"
       d="m 47.377471,716.48894 c 0.256977,-0.41615 55.864139,-76.31788 123.571459,-168.67056 67.70734,-92.35267 123.24433,-168.27904 123.41556,-168.72526 0.25954,-0.67632 -17.42396,-0.81131 -106.2849,-0.81131 l -106.596222,0 0,-47.53445 c 0,-37.47083 0.160183,-47.59527 0.756609,-47.8217 0.416147,-0.15799 91.011153,-0.21754 201.322273,-0.13233 l 200.56564,0.15493 -123.44558,169.17923 -123.44557,169.17924 97.5068,0.30264 97.50679,0.30265 0.155,47.66678 0.15499,47.66676 -192.82504,0 c -154.105686,0 -192.73122,-0.15193 -192.357809,-0.75662 z m 425.382639,-5.75029 c 1.15293,-13.51901 4.705,-30.19912 8.79736,-41.31118 3.09476,-8.40329 8.86522,-19.80736 13.78253,-27.23816 5.82345,-8.80012 18.26847,-21.47366 26.67858,-27.16846 10.99865,-7.44761 23.96503,-12.96095 37.75617,-16.05405 13.48943,-3.02543 19.61146,-3.38501 57.63202,-3.38501 l 35.05131,0 -0.38297,6.20425 c -0.21063,3.41233 -0.94704,9.33664 -1.63646,13.16512 -9.85508,54.72616 -41.84459,89.4375 -90.36518,98.05396 -11.56983,2.0546 -19.6221,2.41408 -54.19991,2.4194 l -33.51352,0.006 0.40007,-4.69101 z m -0.25783,-149.53086 c 0,-8.88161 3.71899,-28.7555 7.59058,-40.56322 2.8387,-8.65758 9.16554,-22.39307 13.29831,-28.87043 16.64954,-26.09513 40.26752,-41.38276 73.53673,-47.59943 l 7.56616,-1.41381 98.98292,-0.17462 98.98289,-0.1746 -0.47752,6.52246 c -1.66244,22.70557 -9.84677,47.56545 -21.4768,65.23583 -17.08038,25.95131 -41.33808,40.90067 -75.38932,46.46046 -7.93568,1.29573 -8.94434,1.31017 -105.3132,1.50682 -94.59373,0.19303 -97.30075,0.16717 -97.30075,-0.92946 z m 0,-153.70761 c 0,-0.92674 0.40178,-5.11964 0.89283,-9.31756 3.17526,-27.14446 12.77163,-51.60383 27.41998,-69.88844 16.97483,-21.18861 39.573,-33.26749 71.56045,-38.24952 5.76065,-0.89721 23.85494,-1.00802 193.30264,-1.18383 l 186.94703,-0.19395 -0.40009,4.4042 c -2.94298,32.39661 -12.80183,58.34842 -29.91379,78.74374 -13.8773,16.53991 -34.61775,28.68976 -57.57951,33.73038 -15.7546,3.45846 -2.09873,3.22977 -205.64815,3.4438 l -186.58139,0.19617 0,-1.68499 z"
       id="path5171"
       inkscape:connector-curvature="0" />
  </g>
</svg>
